<?xml version="1.0" encoding="utf-8"?>
<!-- Generator: Adobe Illustrator 20.1.0, SVG Export Plug-In . SVG Version: 6.00 Build 0)  -->
<svg version="1.1" xmlns="http://www.w3.org/2000/svg" xmlns:xlink="http://www.w3.org/1999/xlink" x="0px" y="0px" width="1136px"
	 height="175.3px" viewBox="0 0 1136 175.3" enable-background="new 0 0 1136 175.3" xml:space="preserve">
<g id="Layer_2">
</g>
<g id="Layer_1">
	<g>
		<rect fill="#1ABCDC" width="1136" height="118.7"/>
	</g>
	<g>
		<rect y="118.7" fill="#38DEFF" width="1136" height="56.5"/>
	</g>
	<g>
		<path fill="#08798F" d="M371.2,96.1c0-0.1,0.1-0.3,0.1-0.3v0.6h-0.1v0.3c0.1,0,0.1-0.3,0.3-0.1c-0.1-0.4,0.4-2,0.3-1.2
			c0,1.9-0.9,3.5-0.7,5.3c0.3-0.4,0.3-1.2,0.3-1.6c0.1,0.4,0.3,0.6,0.3,0.9c0,0-0.1,0-0.1-0.1c-0.1-0.1-0.1,0.9-0.3,1
			c0,0.9,0.1,1.6,0.1,2.6l-0.1,0.1c-0.1,1.2-0.3,2.6-0.3,3.9c-0.4,0.3-0.6,0.9-0.6,1.3c0-0.1,0.1-0.1,0.3-0.4c0,0.6-0.3,1.6-0.1,2.2
			c0-0.1,0.1-0.1,0.1-0.3c0.1,1.2-0.1,2.2-0.1,3.3c-0.1,0.4-0.1,0-0.6,0c-0.1,1,0,1.6,0,2.4c0.6-0.3,0-0.7,0.6-1.2v6.9
			c-0.1,0.3,0,0.7-0.1,1c0.1,0.4,0.4,1.3,0,1.9c0-0.4,0.1-1.3,0-1.6c-1,1.3,0.3,3.7-0.3,4.5c-0.4-0.3-0.3-0.7-0.6-1
			c-0.4,0.4,0,1.4,0,2.4c-0.3-1.3-0.4-2-0.9-2.7c-0.1,1,0.7,1.4,0.3,2.7c-0.4-1.7-0.7-3.5-0.7-5.2c-0.9,1.3-0.1,3.2,0,4.3
			c0.1,0.3,0.3-0.4,0.3,0c-0.1,0.9,0,1.3,0,1.9c-0.7-0.7-1.3-2-1.6-3.3c-0.1,0.1-0.1,0.4,0,0.6c-0.1,0.1,0-0.3-0.4-0.1
			c0.1,2.2,0,2.4,0.4,4.8c-0.4-0.9,0-0.9-0.7-1.6c-0.3,0.1,0,0.6-0.1,1c-0.3,0.3,0-0.9-0.3-1.2c-0.9,0.1-0.7,1.2-1,1.4
			c-0.1-0.7-0.4-1.4-0.7-1.9c0,1.2,0.4,1.9,0.4,2.9c-0.1-0.3-0.4-0.3-0.7-0.3c0-0.3,0.3-0.6,0.1-0.7c-0.1,0-0.1,0.1-0.1,0.3
			c-1-2.6-2.4-4.8-2.9-7.2c0,1.2,0.4,2,0.3,3.7c-0.7-1.6-0.7-3.7-1.3-5.6c0,0.3,0.3,0.6-0.1,1c-0.6-3.2-0.6-6.6-0.7-10.1
			c0.1-4.2-0.3-8.4,0-12.5c0-0.9,0.1-1.4,0.3-2c0.1-1.7-0.4-3.3,0-4.9c0-0.3,0.3-1,0.1-1.4c-0.1-0.4-0.4-0.7-0.3-1.2l0.7-3.9
			c0.6-7.1,2-15.7,3.2-22.3c0.3-0.6,0-0.6-0.1-0.7c0-0.3,0.3-0.3,0.1-0.4c0.9-4.6,2.3-9.6,3.3-13.8c1-6.5,1.4-5,2.6-10.7
			c-0.6-2.3,1.4-6,0.7-8.8c-1,0.1-2.4,1.2-3.3,0.7c-0.3,0-0.3,0.3-0.3,0.4c-0.1,0-0.1-0.1-0.1-0.4c-3.7,1-12,1.2-16.1,0.6
			c-1.6-0.1-3.6-0.6-5.2-1.7c-1.4-0.1-1.9-1.7-1.4-3.6c0.7,0,0.4-0.4,1-0.7c0.4,0,0.9-0.4,1.3-0.3c0.1-0.6,0.1-0.9,0.3-1
			c0.7-0.1,1-0.9,1.9-0.6c0.4,0.4,0.4,0.7,0.6,1.4c0.4-0.4-0.1-0.6-0.1-1c0.6-0.4,0.7,0.1,1,0c0.1,0-0.1,0.1,0,0.3
			c0.3-0.7,1.3-1,2.2-1.2c0.1,0.6,0.4,0.1,0.4,1c0.3,0.1,0.3-0.1,0.6-0.1c0,0.1,0,0.3,0.3,0.3c0.6,0,1,0,1.3,0.3
			c9.4-0.9,20.7-5,29.7-6.5c0-0.1,0.1-0.1,0.1-0.3c7.9-1.4,17.3-2.2,25.9-0.1c0.6,1.2,2,0.1,2.7,0.4c0.1,0.7-0.1,0.7-0.1,1.2
			c-0.3-0.1-0.4,0-0.6,0c0.1,0.4,0.6,0.6,0.7,0.9c-0.3,0.6-0.6,0.6-0.7,1c-0.4,0-1.4,0-1.3,0.4c-3.3-1-1.2,1-3.6,1
			c0.3,0.4,1,0.3,1.4,0.3c0.1,0.3-0.3,0-0.3,0.1c1.4,0.7-2.6,0-1,0.3c-0.9,0.4-1.9-0.1-2.3,0.4h0.7c-1.3,0.6-2.6,0.6-3.3,0.7
			c-3.9,0.3-8.1-0.7-11.2,0.6c-1.7,0-4.2,0.7-6,1.3c0.3,0.4-0.6,0.4-1,0.7c0.1,0.4,0.3-0.1,0.6,0c0.3,0.7,0.7,1.2,1.2,1.6
			c0.6,1.3,0.9,3,0.6,4.8c-0.3,1.9-0.7,3.6-1.3,5.2c-0.3,3-1.2,1.2-1.6,4.3c-1,5-2,6.9-3.2,11.7c-0.9,3.3-1.3,6.9-2.2,9.8
			c0.3,1.7-1,3.5-1.2,5.3v0.1c-1.2,3.2-1.4,7.2-1.9,10.8c0-0.1,0.1-0.1,0.1-0.4c0.3-0.1-0.1,0.7-0.1,1h-0.1c0,0.3-0.1,0.3-0.1,0.4
			h0.1c0,0.1-0.1,0.1-0.1,0.4c0.1,0.7,0.1,2-0.4,2.7c0.6-0.4-0.3,1.2,0,1.7c0.1,0,0-0.4,0.1-0.7c0.1,1-0.3,2.3-0.3,3.3
			c0.3,0.7-0.3,1.9-0.1,2.6h-0.3c-0.3,4.3-1,8.6-0.7,12.1c-0.4,0,0-1.6-0.3-2.2c-0.1,0-0.1,0.6-0.4,0.6c0.3-1.3,0.1-2.7,0.3-4
			c0-0.3-0.3,0.1-0.3,0l0.7-5.8c-0.3,0-0.3,0.9-0.4,0.9c0-1-0.1-1.9,0-2.6c0-1.3,0.3-2.4,0.7-3.5c-0.6,0.4-0.7,1.2-0.7,1.6
			c0,0-0.1,0-0.1-0.1v0.7l-0.1,1c-0.1,0.1-0.1,0.3-0.1,0.3c-0.3,0.7,0,1.3-0.1,2.4c0,0.3-0.1,0.1-0.1,0.1c0,0.4,0,0.1,0.1,0.3
			c0,0.1-0.1,0.4-0.1,0.7C371.2,95.2,371.2,95.8,371.2,96.1z M358,103c0.1,0,0.1,0.4,0,0.6C357.7,103.7,358,103.3,358,103z
			 M359.8,125l-0.1-0.1C359.7,124.9,359.8,124.9,359.8,125z M360.1,125.8c0.1,0.1,0.3,0.4,0.3,0.7
			C360.1,126.2,360.3,125.9,360.1,125.8z M366.2,125.5c0.1,0-0.1,0.7,0.1,0.7C366.6,125.6,366.4,125.3,366.2,125.5z M367,129.1
			c-0.1-0.3-0.3-0.7,0-1.4V129.1z M367.5,115.7c0-1,0.4-2.3-0.3-3.5c0.1,2.6,0.1,4.9,0.1,7.3c0,0,0.1-0.1,0.1-0.3V115.7z
			 M368.9,121.2c0-3.3-0.3-6.5,0-9.9c-0.3,0-0.3-0.3-0.4-0.3c0,2.2,0.1,4.5-0.3,7.2c0,0.1,0,0.6,0.1,0.7
			C368.2,119.7,368.2,120.4,368.9,121.2z M369.3,124.3c0.3-1.4-0.9-2.2,0.6-3.7c-0.1,0-0.1,0.1-0.3,0c0.3-0.3,0.1-0.9-0.1-1
			c0.1-1.7,0.1-3.6-0.1-5.8c0,0.3-0.3,0.9-0.1,1c0,0,0.1,0,0,0.1c-0.3,2.3,0.1,4.5-0.3,6.8v-0.6c-0.3,0.4-0.4,0.3-0.6,0.6
			c0.4,0.7,0.1,2.6,0.4,3.2c0.4-0.7,0.1-1.7,0.3-2.2L369.3,124.3z M368.3,118c0.3,0,0.1-0.7,0.1-1c0.3,0.4,0.1,1,0.1,1.6
			C368.3,118.6,368.6,118.1,368.3,118z M369.3,113c0.3-0.7,0.3-1.4,0-2V113z M369.8,122.7c0.1-0.1,0.1-0.9-0.1-1.2
			C369.5,122,369.3,122.6,369.8,122.7z M370.3,113.8c0.4,0,0.3,0.9,0,0.9C370.3,114.4,369.9,114.4,370.3,113.8z M370.8,108.1v0.6
			c0-0.1-0.1-0.1-0.1-0.3L370.8,108.1z M370.6,110.2l0.1-1.6C370.9,108.9,370.9,109.5,370.6,110.2z M370.8,104.6c-0.1-0.3,0.3-1,0-1
			C370.6,104,370.6,104.3,370.8,104.6z M370.8,108.1v-0.1h0.1L370.8,108.1z M370.8,120c0.1,0.3,0.4,0.6,0.3,1.2
			C370.8,120.7,370.8,120.4,370.8,120z M371.1,116.1c-0.1-0.4-0.3-0.9-0.1-1.3C371.1,115.1,371.1,115.5,371.1,116.1z M371.3,106.2
			c0.1,2.4-0.1,5.6-0.4,8.6C370.8,112.2,371.2,108.8,371.3,106.2z M371.2,105.5c0.1,0,0.1,0.7,0,0.7S371.1,105.9,371.2,105.5z
			 M371.3,104.5c0.3,0-0.1,0.7-0.1,0.9C371.1,105.3,371.2,105,371.3,104.5z M371.3,95.7c0-0.1,0-0.3,0.1-0.4
			C371.5,95.4,371.3,95.5,371.3,95.7z M371.5,116.4c0-2-0.3-4.3,0.3-7.3c-0.1,3.5,0,6.6-0.4,10.2
			C371.3,118.6,371.3,117.7,371.5,116.4z M371.8,92.4c0.3,0.3,0.1,0.4,0.1,0.9C371.8,92.8,371.9,92.6,371.8,92.4z M371.8,94.7
			l0.1-1.4C371.9,93.8,372.1,94.7,371.8,94.7z M372.4,106.3c-0.1-1.3,0.7,0.4,0.1,1.6C372.5,107.9,372.4,106.5,372.4,106.3z
			 M372.4,90.9c0.7-0.9,0.9-1.7,1-3.2C372.5,88.9,372.9,89.9,372.4,90.9z M372.9,105.5c0.1,0,0.1,0.4,0.1,0.7
			C372.4,106.2,372.9,105.8,372.9,105.5z M373.2,104.7c-0.3,0-0.3-1,0-1C373.1,104.2,373.1,104.6,373.2,104.7z M376,73.8
			c0,0.4-0.3,1-0.1,1.2C375.5,74.8,375.8,74.1,376,73.8z"/>
		<path fill="#08798F" d="M439.6,102.4c-0.3,0-0.4,0.9-0.7,0.6c0.1,0.3,0.3,0.3,0.1,0.4c-0.6-0.4-1,1.7-1.7,1.6
			c-0.1-0.3-0.1,0.1-0.6,0.1c0,0.1-0.1,0.3-0.3,0.6c-0.1,0-1,0.6-1,0.7c-0.4,0-0.6,0.1-0.7,0.6c0.4,0.3,0.4-0.4,0.9,0
			c-1.2,0.9-3,1.3-4,2.2c-0.1,0.1-0.4,0.1-0.6,0.1c-0.1,0.4-0.7,0.4-1.2,0.4l0.7-0.3h-1.2c0.1,0,0.3,0.3,0.4,0.3
			c-1.4,0.1-3.3,0.3-4.8,0c0.1-0.3,0.4,0,0.7-0.3c-0.1,0-0.1,0,0-0.3c-0.9,0-1.4-0.6-2.3-0.1c-0.3,0-0.1-0.4-0.3-0.4
			c-0.3-0.1-0.3,0-0.4,0c-0.9-1.2-2.2-2-2.9-2.9c-1.6-2.4-2-6.2-1.9-9.6c0.6-5.3,2.6-11.5,4.2-16.7c0.7-1,1-2,1.3-3.2
			c2.9-6.6-1.2-4.6-2-3.9c-0.7,0.6-1.3,1.2-1.7,1.3l-0.4,0.6l-0.7,0.4c-0.4,0.3-0.9,1.3-1.2,1.4c-2,2-4,3.9-5.6,6.3
			c-0.1,0-0.1,0.4-0.6,0.4c-0.4,0.3-0.9,0.6-1,1.2h0.1c0,0.1-0.1,0.3-0.1,0.4V84c-0.1,0.1,0,0.4,0,0.6c-1.6,1.9-2.7,3.6-4.2,5.5
			c-0.7,4.8-0.4,6.6-1.9,11.8c-0.3,1.2-0.1,3.6-1.9,3.9c-0.3,0.7-0.3,0.7-0.3,1.3h-0.3l-0.6,1.3c-0.1-0.3-0.1-0.4-0.4-0.6
			c-0.3,0,0,0.1-0.1,0.1c-0.1,0.1,0-0.1-0.1-0.1c-0.4,0.3-0.3,0.7-0.3,1c-0.3-0.1-0.3,0.4-0.3,0.4c-0.1,0-0.1-0.1-0.4-0.4
			c-0.1,0.4-0.9,0.7-0.9,1.3c-0.1,0-0.3-0.3-0.3-0.3c-0.4,0.3-2.3,0.3-2.6,0.4c-1.3-0.4-2.2-0.1-3.5,0.4h-0.4
			c-0.1,0,0.6,0.4,0.4,0.6c-0.3,0.1-0.3-0.3-0.7-0.1c-0.3-1.6-0.9-3.3-0.3-5.6c-0.4-0.1-0.4,0.3-0.4-0.1l0.4-3
			c0.1-0.3,0.3-0.7,0.1-1c0.1-0.9,0.3-1.6,0.3-2.3c0.3-1.6,0.1-2.9,0.1-4.8c0.4-1.7,0.7-3.7,0.9-5.5l0.4-4.8l0.3-1.4
			c0.4-1.4,2.3-7.8,3.5-14.7l0.6-2.7v-1.3l3.7-14.3c0-0.9,0.3-1.3,0.3-1.7c0.4-0.4,0.4-1.6,0.4-2c0.9-2.6,1.6-4.5,1.7-5.2v-0.3
			c0.3-1.7,1-3.3,1-4.9c0.6,0,0.1-0.3,0.6-0.4c1.3-3.5,3.5-3.5,5.6-4.6c0.4,0,1,0.1,1.6-0.4c0.7,0.6,1,0.6,1.9,0.7
			c1.6,0.4,3.2,1.3,3.2,3.2c0,0.7-0.3,1.6-0.3,2.6c0,0.6,0,1.2-0.1,1.6c0,0.9-1.6,4.9-2.7,9.6l-0.6,2.3l-0.6,1.7
			c-0.1,0.9-0.1,1.3-0.4,2c-0.3,2.4-0.4,1.6-0.9,4.3l-0.1,0.7c-0.6,0.7-0.7,1.7-0.7,2.9c-0.4,2.6-0.7,5.5-1.4,7.6
			c-1.3,5.6-2.3,11.2-2.4,12.4c1.2-0.9,2.7-2.7,3.6-4.3c1.6-1,2.7-2.6,3.6-4l3.2-2.7c0.6-1,1.2-1.4,2-2.4c3.3-2.4,5.9-4.9,10.5-6
			c0.1,0,0.3-0.3,0.6-0.4c0.9,0.1,1.9-0.4,2.7,0.3c0.4-0.4,1.4,0.1,1.9,0.3c0.3,0,0.3,0.4,0.3,0.4c0,0.7,1,0.1,1,0.9
			c-0.4,0-0.4-0.1-0.7-0.1c0.1,0.3,0.3,0.6,0.9,0.3c-0.1,0.9,0.4,1.4,1.2,1.7c0.1,0.6,0.1,1.2,0.1,1.7v1.3c-0.1,0.6-0.1,2.2-0.6,2.7
			l-1.4,4.6c-3.2,7.6-6.9,17.3-6.2,23.2c-0.1,1.4,0.6,2.7,1.4,3.9c2.3,1,3.3-1,5.2-2.4c-0.1,0.3-0.3,0.6-0.3,0.7
			c1.2-1.4,1.7-2.6,3.2-4.2h0.4c0.6-0.9,1.4-1.2,2.4-3c0.1,0.1,0.1,0.1,0.1,0c1.2-1.3,2.9-2.4,3.9-4c0.7-1,1.6-2.4,2.6-3.2
			c1.6-2.4,3.7-4.9,5-7.9l1.2-1.6c0.1,0,0.1,0.1,0.3-0.1c0-0.9,0.7-1.3,0.6-2.2h0.3c0.6-1,1.4-1.9,2-3.2c0.1-0.3,0.1,0,0.3-0.1
			c0-0.4,1.2-0.9,1.3-1c0.6,0.4-0.1,1.7,0.4,2.3c1-0.4,0.6-2.2,1.4-2.6c0,0.1,0.1,0.1,0.1,0.1v-0.7c0.3,0-0.1,1,0.4,1
			c-0.1,0.3-0.3,0.4-0.3,0.6c0.1,0.1,0.1-0.1,0.3-0.3c-1.4,4.9-4,9.1-6.6,13.2c-0.4,0.1-0.9,0.9-1.2,1.6c-0.1,0.3-0.3,0.7-0.6,0.7
			c-1.2,2.2-2.9,4-4.8,6c0.1,0.1,0,0.6-0.1,0.9c-0.3,0,0-0.3,0-0.4c-0.3,0-0.3,0.4-0.4,0.9c-0.3-0.7-0.6,0.1-0.4,0.4
			c-0.6-0.1-1.2,0.6-0.7,1c-0.4,0,0-0.1-0.4-0.3c-0.3,0.3-0.6,0.9-0.7,1.3c-0.1,0.3-0.4,0.4-0.6,0.4c-0.3,0.9-1.4,1.7-2.3,2.4
			c-0.6,0.4-1.2,1.2-1.6,1.9v0.1l-0.1-0.1C440.9,101.9,440.2,102.2,439.6,102.4h0.1c0,0.3-0.1,0.3-0.1,0.3V102.4z M426.1,109.2
			c0.4,0,0.4,0,1-0.6C426.8,108.1,426.5,109.1,426.1,109.2z M430.5,109.5l0.4-0.1C430.8,109.4,430.5,109.5,430.5,109.5z
			 M437.3,106.5c0.1-0.3,1.4-1,1.9-1.3C439,105.9,438.3,106.2,437.3,106.5z M440.2,103.3c0,0,0-0.6,0.1-0.4
			C440.5,102.9,440.5,103,440.2,103.3z"/>
		<path fill="#08798F" d="M491.3,83.3c-3.2,4.2-15.6,18-21.9,21.7c0,0,0,0.1,0.1,0.1c-2.2,1.4-4.3,2.4-6.9,2c-0.1,0-0.4-0.1-1.2,0
			c-2-0.9-3.5-0.1-5.2-1.2c-0.7,0-1.6-0.3-1.9-0.3c-1.9-0.3-0.9-1.3-2.6-2.2c-2.4-3-3.5-6.8-2.6-12.4c0.9-3.6,0.3-7.1,1.6-10.2
			c0.1-0.1,0.3-0.1,0.3-0.4l-0.1-0.3c2.4-4.9,2.6-7.1,4.8-12.1c0.6-0.9,0.9-1.7,1.2-2.7l1-1.2c0.9-2.4,2.2-4,4-6.2
			c0.6-0.7,1.3-1.6,1.7-2.6c0.1-0.6,0.7-1.2,1.6-1h0.4c0.4-1,1.3-1.2,2-1.6c0.6,0,0.9,0.1,1.3,0.3c0.3-0.4,0.9-0.4,1.2-0.3
			c0.4-0.1,0.6-0.1,1.3,0c0.1,0,0.6-0.1,0.6-0.1c0.1,0.1,0.3,0.4,0.6,0.6c0.4,0.3,0.7,0,1,0.4c0.1,0,0.6,0.1,0.9,0.3
			c0.1,0,0.1-0.3,0.4-0.1l-0.1,0.7c0.3,0,0.3-0.1,0.4-0.1c0.3,0.1,0.4,0.4,0.7,0.4v0.1c4.2,2.7,4.8,9.1,2.7,14.3v0.3
			c-1.7,2.2-2.6,4.5-3.9,5.9c-0.1,0.9-1.3,1.3-1.6,1.9c-2,1.4-3.7,4-6.3,5.3c-0.7,0.6-3.6,1.7-4.8,2.4c-2,3.3-1.6,1-2.3,6
			c-0.4,2.6-1.4,5.5-1.2,7.8c0.3,1.9,1,2.7,2.6,3.5c2.7-0.6,4.9-2.2,7.1-3.9c0.3,0.1,0.3-0.1,0.7-0.1c1.4-1.2,3.6-2,4.6-3.7l0.4-0.4
			h-0.1c0.7-0.7,1.9-0.9,2.4-2.2v0.1c0.3-0.1,1.3-0.6,1.2-1.4c0.1,0.1,0.1,0.1,0.3,0.1v-0.3c0.6-0.6,1.2-1.4,1.6-1.6
			c4.8-4,7.1-8.6,13.2-13.4c0.6-0.3,1-1.2,1.3-1.4c0.6-0.1,0.9-1.2,1.4-1.9c0.3,0.4,0.7,0.9,1,0.4c0.1,0.1,2.4-2.3,2.3-2.2
			c0.1,0.1,0.4,0.1,0.6,0c0,0.1-0.1,0.1-0.3,0.3c0.1,0,0.3,0.1,0.4,0c-0.1,0.1-0.1,0.6-0.4,0.6c-0.4,0.4-1.4,1.9-1.2,1.7
			c-0.1,0.4-1.3,1.3-1,2.2c0,0.1,0.3-0.9,0.6-0.9l0.9-0.9c-0.3,0.9,0.4-0.4,0.4,0.4c-0.1,0-0.9,0.9-1,1.2l0.1-0.1
			c0,0.1-0.1,0.1-0.1,0.1c-0.7,1.4-1.7,2.6-2.7,3.3c-0.1,1.3-0.7,1.4-1.2,1.7c0-0.3,0.6-0.3,1-1c-0.7,0.6-1.2,0.7-1.2,1
			c-0.6,0-0.7,0.6-0.7,0.9v0.3c-0.4,0.1-0.6,0.7-0.9,0.9C492.2,82.1,491.9,82.6,491.3,83.3z M450.7,88.8c-0.3,0.4-0.3,0.7-0.4,1.3
			v0.1c-0.3,1.2-0.4,2.6-0.6,3.9c0.4,0.6-0.1,1.2-0.1,1.6l0.4,1.6c0,2.7,0.9,5.6,3.5,7.5c-0.4-0.4-0.7-1.2-0.9-1.3
			c-0.9-2.2-2-3.6-2-5.9c0-2.7,0.4-5.9,1.3-9.1c0-0.9,0.4-2.4,0.3-3.2c-1.4,0.4-1.3,1.6-1.3,2.3C450.8,87.9,450.7,88.3,450.7,88.8z
			 M467.8,76.5c2.6-1.4,4.2-3.7,5.3-6.8c-0.3-0.1-0.4-0.1,0.1-1l1-5.5c-0.3-0.6,0.1-1.4,0-1.7c-0.6,0.1-1,0.3-1.7,1.2
			c-0.7,1.2-1.7,3-3,4.2l-1.3,1.9c-1.3,2.7-3.7,8.9-4.8,12.1c0.7-0.6,3.6-3.3,3.9-4.3C467.4,76.5,467.8,76.8,467.8,76.5z
			 M491.3,83.3h0.1H491.3z M491.4,83.3l1.3-0.6C492.4,83,491.9,83.1,491.4,83.3z M494.7,80.3c-0.1-0.3,0.7,0,0.7-0.1
			C495.8,80.3,494.9,80.3,494.7,80.3z M496.2,79.4c-0.1-0.3,0.1-0.7,0.4-0.9C496.6,78.7,496.3,79.1,496.2,79.4z M496.5,77.4
			c0.1-0.4,0.4-0.4,0.4-0.6C497.1,76.8,496.8,77.4,496.5,77.4z M498.6,73.2l-0.4,0.4v-0.1L498.6,73.2z M499.1,72.8
			c0,0.1-0.3,0.4-0.4,0.6v-0.3l0.1-0.1v0.1L499.1,72.8z M499.4,71.8c0.3-0.1,0,0.1-0.4,0.7L499.4,71.8z"/>
		<path fill="#08798F" d="M557.1,121.9c0.4,0.1,0.7,0.3,1,1.2c-0.7,0,0.1,0.1-0.9,0.1c-0.3,0.4,0.1,0.1-0.3,0.7
			c-0.4,0.4-1.6,0-2.3,0c-0.4,0.4-4.9,0.4-5.5,0.4c-0.1,0.1-0.1,0.1-0.1,0.3l0.9,0.6c-0.1,0.1,0.3,0.1,1,0v0.1c-0.3,0-0.3,0-0.3,0.1
			c-0.6,0.4-0.9,0.1-1.6-0.1c-5.2,0-9.9,2.9-15.6,4.5c-0.4-0.6-1.6,0-1.7,0.3c-0.1,0-0.1-0.1-0.1-0.1c-1.6,0.3-3.3,0.4-4.3,0
			l0.1,0.1c-0.4,0.3-0.4-0.3-1-0.3c-0.3,0-2.4,0.3-2.7,0.3c-0.9,0-2.2-1.3-2.6-2.2c-1.7-0.1-3.9-0.9-4-2.6c0-0.3,0.1-0.9,0.1-1.2
			c0-1.7-0.1-3.2-0.1-4.9c0-0.3,0.1-0.7,0.1-1.2c0.9-6.5,2-13,3.2-19.3c0.4-3.7,0-4.8,0.6-8.4l1.9-9.6c1.2-7.1,2.3-10.7,3.6-17.4
			c1-3.5,1.6-4.3,2.3-7.6c1.2-4.6,1.9-5.2,3-9.6l0.6-3.5c0.1-0.3,0.7-0.9,0.7-1.3c0.7-3.7,2.2-7.2,2.9-11.1c0.9-0.7,1-1.9,1.2-2.6
			c0.4-1.3,1-2.4,1.3-3.7c0.4-1,1-1.9,1-3.3c0.6-0.3,0.7-1,0.9-1.7c0.1-0.1,0.9-0.3,1-0.3c0.6-1.3,1.7-2.2,3.5-2.7
			c1.3,0.1,4.3,1.2,5.6,1h0.1c0,0.1-0.3,0.1,0.1,0.4c0.4,0.4,0.9,0.6,1.3,0.9c0.3,0.1,0.4,0.1,0.7,0.4c0.9,0.7,2.3,2.3,2.3,4
			c0,1.4-1,2.9-1.2,4.8c-0.4,0.1-0.9,0.7-0.4,1.3c-0.4,0.3-0.9,0.9-0.9,1.6c-0.3,0.1-0.1,0.6-0.4,0.7c-4.6,14.7-7.1,19.7-10.7,35
			c-1.9,9.5-4.2,18.6-5.5,28.4c-0.1,0,0.1,0.4-0.1,0.3c0.3,0.6,0.3,1.6-0.6,1.6c-0.1,0.3,0.7,0,0.4,0.3c-0.4,0.4,0,0-0.4,0
			c-0.3,0.6-0.1,1.3-0.3,2c0.1,0,0.3,0,0.3-0.1c-0.1,0.6-0.3,1.3-0.1,2c-0.4,0.4-0.9,0.9-0.7,1.6c0,0.3,0.1,0,0.3-0.3
			c0,0.7-0.1,1.7-0.3,2.3c-0.3,0-0.3-0.1-0.3-0.1c-0.1,0.4-0.3,0.7-0.1,0.9c0-0.3,0.3-0.3,0.4-0.6c0.1,0.6-0.3,1.3-0.6,1.6
			c0.1,0.1,0.1,0.4,0,0.9c0.3-0.6,0,0.3-0.3,0.4c0,0.1,0.1,0.1,0.1,0.1c-0.1,0.3-0.1,0.7-0.1,1.2c0.3-0.6,0.3-1.2,0.6-1.6
			c-0.1,0.7,0.1,2.4-0.7,2.9c0,0.4,0.4-0.1,0.3,0.3c-0.1,0.3-0.1-0.1-0.3,0c-0.3,0.6-0.3,1.4-0.6,2c0.3,0.1,0.3-0.3,0.6-0.3
			c0,0.4-0.6,0.4-0.9,0.7c0,1-0.1,1.9-0.3,2.3c0.3-0.6,0.4-1.3,0.9-2.2c-0.3-0.3-0.3,0.1-0.4,0c0-0.1,0.4-0.1,0.7-0.4
			c-0.1,0,0.1-0.1,0.1-0.4c0.1,0,0,0.4,0,0.4h-0.1c-0.1,1.9-0.6,3.2-0.9,4.8h0.1l-0.1,0.1c-0.1,1.2-0.1,2.6-0.1,4
			c5-1.6,5.8-2.4,11.5-2.3c0.7,0,1.4-0.1,2,0c0.1,0,0.7-0.1,1-0.4c1.6,0.6,0.6,0,2.7-0.1c2.3-0.1,5,0.1,6.3,2
			c0.3,0.4,0.1,0.9,0.3,1.2L557.1,121.9c-0.1-0.1-0.3-0.3-0.4-0.3v-0.1c0.4,0,0.4,0,0.9,0.1C557.4,121.9,557.2,121.9,557.1,121.9z
			 M532,130.1c0.1-0.1,0.4-0.3,0.6-0.3C532.8,130.1,532.3,129.9,532,130.1z M534.2,106.6c-0.3,0-0.3-0.9,0.1-0.7
			C534.1,106,534.3,106.5,534.2,106.6z M535.2,98.4c0.1-0.3,0-1,0.4-1.3C535.6,97.5,535.4,97.8,535.2,98.4z M557.5,122
			c0.1-0.4,0.3-0.4,0.4-0.1C558,122,557.8,121.9,557.5,122z"/>
		<path fill="#08798F" d="M616.3,72.9c0,0.1,0.3-1,0.6-1.2c-0.1,0.6-0.3,0.7-0.3,1.2c0.3-0.4,0.4-1,0.4-1.3h0.3
			c1-1.9,1.9-3.3,3.2-4.9c-0.1,1.3-1.2,1.4-0.7,2.3l0.9-1.2l-1,1.9h-0.3c-0.6,1.3-1,2.7-2.3,3.7c0.1,0.1,0,0.1,0.3,0.3l-1.7,3.6
			c0.3-0.1,0.4-1,1-1.2c-0.1-0.3,0.1-0.6,0.1-0.9c0.3,0.1,0,0.3,0,0.6c1.2-0.7,1.2-2.4,2-3.2c0.1,0.4-0.3,0.7-0.1,1
			c-0.6,1.7-1.7,2.6-2.2,4.5c-0.3,0.1-0.1,0.4-0.4,0.6c-0.6,1.6-9.4,12.8-10.1,14.3v0.4c-0.3,0.1-0.3,0.4-0.4,0.6l0.4-0.4l-0.9,1
			c-0.1,0.1-0.1,0.3-0.4,0.3v-0.1c-0.1,0.1-0.4,0.4-0.1,0.6c-0.6-0.1-0.7,0.9-0.6,1h-0.3v0.3c-0.6,0.1-0.7,0.4-0.9,0.7l-0.3,0.7
			c-0.4,0.4-1.3,1.2-2.2,2.2c-0.3,0.6-1.2,0.7-1.3,1.3c1-0.7,2.2-1.7,3.3-2.9c-1.3,1.6-2.3,2.7-4.5,3.7c0.1,0.4,0.3,0.3,0.3,0.3
			c-0.1,0.3-0.7,0-1.2,0.1h0.3c-0.3,0.4-0.6,0-0.7,0.4c0.1-0.4-0.1-0.6-0.6-0.4c-0.1-0.1-0.1,0.1-0.3,0.1c-1.3,0.3-2.9,0.3-3.7-0.1
			c-0.1,0-0.1,0.1-0.1,0.1c-0.4,0-0.6-0.3-0.9-0.3c-0.6-1-1.7-1-2.4-1.4c-0.4-0.3-1.2-2-1.3-3c-1.4-4-1.3-10.1-1.4-14.5
			c-1.7,2.9-3.3,5-5.3,7.6c-0.1,0.1,0,0.1,0,0.3c-1.9,2-3.3,4.5-5.3,6v0.4c-1.3,1-2.7,1.6-4.5,2.2c-1.3,0.6-2.9,0.7-4.3,0.7
			c-1.4,0.1-2.4-0.1-3.6-0.3c-0.9-0.3-2.4-0.7-3.3-1.2c-2.3-1.4-2.2-7.3-1.7-10.8c0.7-6.2,2.7-12.5,5.2-17.6
			c1.3-2.7,2.6-5.2,4.2-7.6c0.6-0.9,0.9-2.3,1.7-3c2-2.7,4.5-5.3,7.2-7.5c2-3,10.8-2.2,9.5-2.2c0.3,0.1,0.4,0.4,1,0.4
			c0.1,0.1,0.1,0.3,0.9,0.1c0.6,0.4,1.3,0.4,1.9,1.2c0.7,0.1,0.9,1.2,1.7,1.2c2.6,1.4,3.7,2.3,6.3,3.9c0,0.4,0.1,0.4,0.1,0.9
			c0,0.3-0.7,0.4-1.2,0.9c-0.9,0-1.3,0-2.2,0.3c-0.1,0-0.6-0.3-0.9-0.4c-0.6-0.1,0.1,0.4-0.6,0c-1-0.3-2-0.4-3-0.9
			c-0.9-0.3-1.7-1.2-3.2-1.4c-0.9-0.3-2.2-0.6-3-0.4c-0.4,0-0.9,0.4-1.4,0.7c-2.9,3-5.3,6.5-6.9,9.6c0,0.3-0.1,0.3-0.1,0.4l-1.9,3.7
			c0,0.3,0,0.9-0.4,1.7c0,0.1-0.3,0.4-0.3,0.4c-0.6,1-1.3,2.6-1.6,3.6c-0.6,1.2-1,1.9-1,2.6c-1.2,3.9-2.3,7.9-2,13.2
			c2.6-2.4,4.5-5.2,6.3-7.6c0.9-1.9,2.6-3.2,3.2-4.9c2.2-2.3,3.7-5.2,5.3-7.6c0.1-0.6,0.1,0,0.3,0c1.4-2.9,4.6-6.2,5.2-8.9
			c0.3,0,0.3,0.3,0.6,0.1v-0.6c1,0,1-1.2,2-0.9c0.3-0.4-0.1-0.6-0.1-1c0.3,0,0.6,0.1,0.7,0.1c0-0.3,0.4-0.3,0.6-0.3
			c0.6-0.1,0.1-0.1,0.1-0.3c0.4,0.1,0.6,0.3,1,0.3c0.4-0.7,1.7-0.1,1.9,0.3c0.1-0.1,0-0.4,0.3-0.4c0.3,0,0,0.4,0.1,0.6
			c0.6-0.1,0.1-0.6,0.1-1c0.6,0.6,0,1.4,0.9,1.7c0,0,0.1-0.4,0-0.6c0.4,0.1,0.1,1,0.7,1.7c0.4,0.1,0.7,0.7,0.7,1.4
			c0,0.9-0.7,3-0.7,3.9c0.3,2.3-0.7,4.8-1.2,7.1c-0.6,1.6-0.7,3-0.9,5c-0.6,4-1,6.8-0.3,11.4c-0.3,1.3,0.1,2.7,0.3,4.3
			c1.3-0.6,1.6-1.7,2.7-2.3c1.2-1.6,3-2.9,4-4.9c1.3-1.3,7.8-10.4,9.5-12.1c0.1-0.6,0.6-1.6,0.9-1.2c0.9-0.6,1.3-2.3,2-3
			c0.4-0.7,1.2-1.4,1.4-2.2c0-0.3,0.1-0.6,0.3-1.2c0.1,0,0.4-0.4,0.9-0.6c0.3,0.4-0.4,1.2-0.6,1.6c0.4,0.3,0,0.9,0.1,1h0.1
			c-0.4,0.6-0.7,1.2-0.7,1.4C615.8,73.2,616.1,73.2,616.3,72.9z M586,82.3c-0.9,0.7-1.3,1.9-2,3.5L586,82.3z M585.2,82.1
			c0.4-0.3,0.6-0.4,0.4-0.9L585.2,82.1z M585.9,81.1c-0.1,0-0.4,0-0.1,0.1L585.9,81.1z M603.6,97.3c0-0.1,0-0.1,0.1-0.4
			C603.8,97.1,603.6,97.1,603.6,97.3z M616.4,71.8l0.3-0.6C616.7,71.5,616.6,71.6,616.4,71.8z"/>
		<path fill="#08798F" d="M620,93.4l0.4-0.7l1.2-1.9c-0.6,0.3-1,1.4-1.6,1.4c0-0.1,0.1-0.1,0.1-0.3H620c0.6-0.9,1.6-1,1.9-2.4h0.4
			c-0.4-0.3-0.6,0-0.7,0.3h-0.3c0,0.1-0.1,0.9-0.4,1.2c0,0.1-0.1,0-0.1-0.1l-1.3,1.3c0,0.1,0.4-0.1,0.4-0.1c0,0.3-0.4,0.7-0.4,1.2
			c-0.4-0.3,0.3-0.4,0-0.9l-3,4.8c0.1,0,0.9-0.9,1.2-0.9c-0.1,0.3,0,0.3,0,0.1c0.1,0.1-0.1,0.6-0.3,0.6l0.1-0.3
			c-0.9,0.3-1,1.2-1.2,1c0,0.1,0.1,0.1,0,0.3c0,0.1,0,0.3-0.1,0.3c0.1-0.1,0-0.4,0-0.4c0,0.1-0.1,0.1-0.1,0.4v0.1
			c-0.7,1.7-2,3.5-2.4,5.8c0.6-1.3,1.3-2.9,1.9-3.3c-0.4,0.7-1.3,1.7-1.7,3.3h0.6h0.4c0.1,0.1,0.1,0,0.1-0.1c0.3,0.1,1,0,1.6-0.1
			l4.9-1c-0.1-0.1,0-0.1,0.3-0.1c0,0.4,1.2,0.4,1.4,0c-0.3,0-0.3,0-0.4-0.1h0.4c0,0.1,0.1,0.3,0.3,0.1c0.9,0.9,0.9,0.3,0.9,0
			c3.7-0.4,7.6-1.4,11.5-1.2c1.4-0.3,4,0,5.8,0.1l0.3,0.6c0.4-0.3,0.4-0.6,1-0.3c0,0.3-0.4,0.3-0.6,0.3c0,0.1,0.1,0.1,0.6,0.1v-0.1
			c0.3,0,0.6,0.3,0.6,0s-0.4,0-0.4-0.6c0.4,0.3,1,0.3,1.2,1c0.6,0,1.3,0.4,1.6,0.9c-0.1,0.3-0.3,0.3-0.4,0.4
			c0.3,0.1,0.4-0.1,0.6,0.1v-0.1c0.1-0.1,0.4,0.1,0.3,0.3h0.3c0,0.3,0.1,0.3,0.1,0.4c0,0-0.4-0.4-0.3,0c-0.1-0.4-0.4-0.4-0.9-0.4
			c0,0.3,0.4,0,0.4,0.4c0,0-0.4,0.1-0.6,0c-0.3,0.3,0,0.1,0.1,0.3c-0.1,0.4,0.4,0.1,0.4,0.6c-0.6-0.3-1.3-0.3-1.4-0.6
			c-0.1,0-0.3,0.3-0.1,0.3c0,0.1-0.3-0.1-0.1-0.3c0-0.1,0,0-0.1,0c0,0,0-0.1,0.1-0.1c-0.1-0.1-0.9-0.1-0.9-0.3
			c-0.3,0-0.4,0.1-0.9,0.1v0.1h0.6c0,0.6,0.4,0.6,0.6,1c-0.4-0.4-1.3-0.9-1.9-0.7c0,0.3,0.4,0.3,0.4,0.3c-0.7,0.4-1.2-0.3-2.2-0.1
			c0,0.6,0.9,0.1,0.9,0.6l-1.3-0.4c-0.3,0,0,0.1-0.1,0.4c-0.4,0-0.7-0.3-0.7-0.3h0.6c0-0.1-0.3-0.1-0.4-0.3c-0.1,0-0.1,0-0.3,0.1
			v-0.1c-0.7,0.1-2-0.3-2.6,0.3c-0.1-0.1-0.1-0.1-0.1,0.3c-0.4-0.6-1,0-1.3-0.3v0.3c-0.1-0.3-0.3,0.1-0.4,0.1
			c-0.1-0.6,0.1-0.4,0.3-0.6c-0.3-0.1-0.6,0-0.7,0c-0.4,0.6,0,0-0.4,0c0,0-1,0.1-1.4,0.1c-0.3,0-0.4,0.3-0.4,0.4v-0.1
			c-0.3,0-0.9-0.3-0.9,0.1c-0.1-0.1-0.4-0.1-0.9,0.3l0.1-0.3c-0.4,0.4-0.9-0.1-1.3,0.4c0,0.1-0.3,0-0.1-0.1l-2.3,0.3h-0.1v0.3
			c-0.1-0.1-0.3,0-0.3-0.3c-0.1-0.1-0.1,0.3-0.3,0.3c-0.1-0.4,0.1-0.4,0-0.6c-0.7,0-1.3,0-1.9,0.3v-0.1c-1.3,0.4-2.9,0.6-4.5,1
			c-0.6-0.1-1.2,0.3-2.3,0.4c-0.1,0-0.6,0.1-0.6,0l-0.3,0.1v-0.1c0,0-0.1,0-0.1,0.1c-0.1,0,0,0-0.1-0.1l-0.6,0.3l0.1-0.1
			c-1.2,0-2,0-2.6,0.6c0.1,0.6,1.4-0.1,2.3,0c0.7-0.4,0.9,0,1.3-0.4c-0.3,0.6-0.9,0.6-1.9,0.7c-0.9,0.3-1.6,0.9-2.9,0.6
			c-0.7-0.3-1.4-0.9-1.6-0.9c-0.4,0.1-0.6-0.1-0.9,0c0,0.3,0.1,0.6,0.1,1c-0.1-0.1-0.3-0.4-0.1-1c-0.1,0-0.1,0.3-0.3,0.6
			c-0.1,0,0-0.4,0-0.6c-1.7,0.1-2.4-0.6-3.7-0.9c-0.3-0.6-0.3-1.2-0.3-2.2c0.1-1.3,0.4-3.6,1.3-4.8c0.3-0.7,0.7-2,0.9-2.9h-0.1
			c0,0,0.1-0.4,0.1-0.3c0.1-0.6,0.6-0.9,0.7-1.3c0,0.1,0.4,0.1,0.4,0.3c-0.7,0.4-1.2,1.6-1.2,2.2l1.2-2.2c1.9-3.2,3.3-6.8,6-9.9
			c0-0.4,0.4-1.6,1.3-2.2c0.3,0,0.3-0.1,0.6-0.4h-0.1c-0.1,0.3-0.3,0.3-0.4,0.4l0.3-0.4c0,0,0-0.1,0.1-0.3c0.3-0.3,0.7-0.6,0.7-1.2
			c0.3,0,0.7-0.1,1-0.3c-0.3-0.3-0.3,0.1-0.7,0c0.7-0.3,0.9-1,1.2-1c6.6-7.6,7.5-9.5,14.8-15.8c0.1-0.1,0.1-0.3,0.1-0.6
			c1.4-1.2,2.6-3.3,4.2-4.2c-1-0.4-2.3,0-3.3,0h-1.9c-1.6,0-3.5,0-5.3,0.3c-1.7-0.6-3.2,0.3-2.7,0.9c-0.4,0,0.1,1.9-4.9,1.4l-2-0.4
			c-0.7-0.1,0.6-1,0.9-1c-0.1-0.1,1.3-1.2,1.2-1.4c1.4-1.7,1.9-2.2,4-3.2c2.9-0.7,0.4-0.3,3.7-0.9c1.3-0.3,1.6-0.3,3.2-0.3
			c0.3,0,0.3-0.1,0.4-0.1v-0.1c0.1,0,0.1,0.1,0.3,0.3c0.3-0.4,1.6-0.1,2.3-0.3c0.9,0.3,1.9-0.1,3,0c2,0.3,4.2,0,6,1
			c0.1,0,0.1,0,0.3-0.3c0.1,0,0,0.3,0.7,0.3c-0.4,0.1,0,0.3-0.4,0.4c0.4,0,0.4-0.1,0.6-0.1h0.1c0.3-0.1,0.7,0,1.3,0
			c0,0.1,0.6,0.1,0.6,0.7c0.6,0,0.7,0.3,0.9,0.7c0.4-0.1,0.6,0.4,1.2,0.3c0.6,0.6,0.9,1.9,1.4,2.3l-0.4,0.7c0,0.1,0.1,0,0.3,0.1
			c-0.4,1.2-1.3,1.9-1.7,2.4v0.1c0,0,0-0.1,0.1-0.1l-0.1,0.3h-0.1c-0.7,1-1.7,2.6-2.9,3.2v0.3c-2.3,2.2-4.6,4.9-6.6,7.1
			c-1.4,1.3-2.6,2.2-3.9,3.7c-0.4,0.7,0.1-0.6-0.4,0.4l-0.3,0.1c0,0-0.1,0-0.6,0.4c-0.3,0.4-0.4,0.4-0.4,0.9c-0.1,0-0.1,0-0.3-0.1
			c-0.4,1.3-1.7,1.4-2.3,2.7c-0.4,0.1-1,0.4-0.9,0.9c-1.2,0.7-2.4,2.3-3.5,3.5c0.3,0,0.3-0.1,0.6-0.3c-0.3,0.7-0.9,1.3-1.3,2
			c-0.1,0-0.1-0.1-0.1-0.3c-0.4,0.3-0.1,0.6-1,0.7v0.9c-0.7,1-1.7,2.4-2.7,3.6h-0.4L620,93.4z M604.9,107c0-0.1,0-0.6-0.3-0.6
			C604.6,106.9,604.8,107,604.9,107z M605,105.2c0.4-0.4,0.7-2.4,0-1.4C604.9,104.2,604.9,104.7,605,105.2z M606.1,101.9
			c-0.4,0-0.3,1.2-0.3,1.6L606.1,101.9z M607.2,102.7c0,0.1,0,0.1-0.1,0.3c0,0.3,0,0.4,0.1,0.4c0.4-0.7,0.4-1.7,0.7-2.3
			c0.1-0.4-0.1-1,0-1.7c0-0.3,0.3-0.4,0.7-0.7l1-2.9c-0.3,0-0.4,0.4-0.6,0.3c0.6-0.9,1.2-1.4,1.4-2.3c-1.2,1-1.9,3-2.3,4.3
			c-0.1,0.1-0.3,0.3-0.3,0.4c-0.1,1.6-0.7,2.6-0.9,4.3L607.2,102.7z M607.5,96.1l0.4-1c0.1,0.1,0,0.1,0,0.3c0.1-0.3,0.1-0.9,0.4-1
			c0-0.1-0.1,0,0-0.1c0-0.3,0.4-0.6,0.1-0.1C608.5,94.7,608.1,95.5,607.5,96.1z M611.1,101.9c-0.7,0.3-0.6,0.9-0.6,1.4
			C611,103,611,102.4,611.1,101.9z M611.2,101.3c-0.3,0.1,0-0.1,0-0.1c-0.3,0.1-0.3,0.3-0.3,0.4
			C611.2,101.7,611.2,101.4,611.2,101.3z M611.1,103.6c0.4,0,0.6-0.3,0.7-1.2L611.1,103.6z M611.7,99.7l-0.3,1
			C611.7,100.7,611.7,100,611.7,99.7z M611.5,100.9c0,0.1-0.1,0.3,0,0.3C611.5,101.1,611.8,101,611.5,100.9z M612.5,101.1l0.3-1
			c-0.3,0.7-0.9,1.4-1.2,2C612.4,101.9,612.1,101.4,612.5,101.1z M612.5,99.1c-0.1,0.3-0.7,0.9-0.7,1.2
			C612.4,100.1,612.7,99.4,612.5,99.1z M613,103.3c0,0.1-0.3,0.7-0.1,0.9C612.8,103.9,613.1,103.4,613,103.3z M613.1,103
			c0-0.3,0.3-0.7,0.3-1.3C613.3,102.3,613.1,102.7,613.1,103z M613.4,97.1c0-0.1,0.3-0.3,0.3-0.6C613.5,96.8,613.3,97,613.4,97.1z
			 M616.6,93.1c-1.2,1.9-2.4,3.7-3.2,5.3C614.7,96.8,615.7,95,616.6,93.1z M615.8,97.8c0.1-0.9,0.9-2,0.7-2.4l-2.4,4.3
			c0,0.6-0.1,1.2-0.6,1.6c1.2-0.6,1.6-1.9,2-3L615.8,97.8z M614.8,98.3c-0.6,0.1-0.7,0.3-0.7,0.6C614.3,99,614.7,98.6,614.8,98.3z
			 M614.3,104c0.1,0,0.1,0,0.3-0.1C614.4,103.9,614.4,104,614.3,104z M614.8,108.1c0,0-0.6-0.1-0.1,0H614.8z M614.7,103.9
			c0-0.1,0-0.1,0.1-0.3C614.8,103.7,614.7,103.7,614.7,103.9z M616.1,100.7c0,0.3-0.3,0.3-0.4,0.7c0,0.1-0.1,0.7-0.4,0.9
			c0.1,0.3,0.1,0.3,0.1,0.7c-0.1-0.3-0.1-0.4-0.1-0.4c-0.1,0-0.1,0.4-0.3,0.4c0.3-1.3,0.9-2.2,1.2-2.9v-0.7c1.3-1.6,2-3,3.2-5
			c0.6,0.4-0.6,0.7-0.3,1.3C617.9,97,617.3,99,616.1,100.7z M615.8,93.5c-0.3,0.3-0.7,0.7-0.7,0.9C615.4,94.1,615.7,93.9,615.8,93.5
			z M617.6,89.8c-0.6,0.7-0.9,1-1.2,1.6L617.6,89.8z M616.6,98.4c-0.1-0.1,0.1-0.6,0.4-0.7L616.6,98.4z M619.6,93.7
			c-0.9,1-1.3,2.3-1.9,3.2C618.2,95.5,618.6,94.7,619.6,93.7z M619.6,93.7c0.1,0,0.3-0.1,0.4-0.3C619.9,93.5,619.7,93.7,619.6,93.7z
			 M623.9,87.6c-1,1.2-1.6,1.9-2.3,3.2L623.9,87.6z M621.8,102.4l-0.1,0.1v-0.1H621.8z M622.5,89.8c-0.1,0.1-0.7,1-0.7,1.3
			C621.9,90.8,622.5,89.9,622.5,89.8z M621.8,102.4h0.6c-0.1,0.1-0.3,0.1-0.4,0.1C621.9,102.6,621.9,102.4,621.8,102.4z M623,87.6
			c0,0.1-0.4,0.7-0.3,0.9C622.9,88.3,623.3,87.8,623,87.6z M624.2,102.6h-0.6C623.6,101.9,624.1,102.3,624.2,102.6z M624.1,87.5
			l1.2-1.2c0.4,0,1.2-1.3,1.7-1.7h-0.1c0.1,0,0.1-0.1,0.3-0.3h0.3l1.7-2.3c0,0-0.3,0.1-0.3,0.3c-0.7,1-1.9,1.9-2.9,2.9
			C625.2,85.9,624.5,86.7,624.1,87.5z M625.1,85.9c0.3,0,0.4-0.7,0.3-0.9C625.4,85.2,625.1,85.4,625.1,85.9z M626.4,84.9
			c0,0.1-0.3,0.3-0.4,0.3L626.4,84.9z M627.8,105.8c-0.4,0-0.9,0-1.2,0.4C626.9,106.2,627.4,106.2,627.8,105.8z M627.7,82.9
			c-0.1,0.3-0.6,0.3-0.7,0.9C627.4,83.6,627.7,83.1,627.7,82.9z M628.2,82.4c-0.1-0.1-0.4,0-0.3,0.1
			C628.1,82.4,628.2,82.6,628.2,82.4z M645.2,104.5c-1-0.3-1.4-0.6-2.2-0.4C643.6,104.2,644.4,104.6,645.2,104.5z M645.2,105v-0.1
			c-0.3,0-0.7-0.3-0.9-0.1C644.5,104.9,644.9,105,645.2,105z M646.1,58.7c0,0.1,0,0.4,0.1,0.3v-0.1L646.1,58.7z"/>
		<path fill="#08798F" d="M673.2,149.1c-0.9,0.9-1.4,1.9-1.9,3.2c0.3-1.2,0.9-2.2,1.2-2.9h-0.1l-0.1,0.1v0.1l-0.7,1
			c-0.3-0.1,0-0.3,0-0.4c-0.7,0.6-1.3,1.9-1.9,2.4c-0.3-0.4,0.3-0.4,0.4-0.9c-0.4,0.3-0.9,0.7-0.9,1c-0.9,0.7-1.4,2-2.2,2.9h0.1
			l-2.6,2.6h-0.1c-0.1,0.1-0.3,0.1-0.3,0.1c0-0.1,0.1-0.3,0.4-0.3c0-0.1,0-0.1,0.1-0.3l-1.2,0.4l0.7-0.4c0-0.1-1,0.4-0.7,0.6
			c-0.3,0.3-0.4,0.7-0.6,1c-0.4-0.6-0.6,0.4-0.9,0.1c-0.1,0.3,0.1,0.1,0.3,0.3c-0.4,0.3-1.4,1.2-2,0.9c-0.3,0-0.3,0.4-0.4,0.6
			c-0.6,0.4-1.3,1.2-2.2,1.2c-0.6,0.3-1,0.4-1.2,0.9l-4.9,1.6l-0.7,0.7c-0.3,0-0.3-0.3-0.6-0.3c0-0.1,0.3-0.1,0.3-0.3
			c-0.6,0.1-1.3-0.1-1.4,0.1c-1.3,0.4-2.6-0.4-3.7-0.6h-0.7c-1.4,0-2.7-0.7-3.9-1.6c-0.1-0.6-1.3-0.9-1.7-1.9c-0.1,0.1,0,0.6,0,0.7
			c-0.1-0.1-0.3-0.9-0.6-1.2l0.1-0.4c-1.2-1.2-1.3-3.2-1.7-5.3h0.4c0.1-0.3,0-0.3,0-0.6c0.1,0,0.3,0.3,0.3,0.6
			c-0.1-5.3,1.3-11.8,3.3-16.4c0,0.3-0.1,0.6,0,0.6c-1.2,2.7-1.4,6-2.3,9.1c0,0,0,0.1,0.1,0.1c-0.3,1-0.4,2.7-0.4,3.7
			c0.7-4.3,1.6-9.2,3-13c1.9-5.8,4.8-10.8,7.3-15.8l2.3-3.9c1-1.3,2.2-2.3,2.9-3.7c0.9-1,2-2.3,3.2-3.3c1.9-2.4,3.7-4.8,6-6.9
			c0.6-1,1.6-1.9,2.6-2.7l4.3-4.5l5.6-4.3c0.7-6.2,0.6-3.7,1.3-9.1c-0.1,0-0.1,0.1-0.1,0.1c0.3-0.4,0.3-0.9,0.3-1.4
			c-0.4,0.7-1.3,1-1.3,2.2h0.1l-1.6,1.3l-1.7,2.7c0.9,0,1.3-1.7,1.6-2.2c0.4-0.4,1.4-0.6,2-1.3c-1.3,1.9-3.2,3.7-4.5,5.2
			c-0.4,0.4-1.9,1.6-2,2.3l-1.3,1.3v0.1c0,0,0.1-0.1,0.3-0.1c-0.4,0.7,0,1-0.4,1c-0.3,0,0.1,0.1-0.1,0.3c-0.1,0-0.6,0-0.7-0.3
			c-0.4,0.6-0.4,1.2-1.2,1.6c0.3,0.6-0.7,0.6-0.7,0.9c0.1,0.3,0.4-0.3,0.7,0c-0.7,0.3-2.3,0.7-2.6,1.2c-1.4,0.7-1,0.7-2.7,1.2
			c-0.4,0-1,0.1-1.3,0.3c-0.9,0-1.3-0.3-1.7,0.1c-2.3-0.3-3.6-0.9-4.8-2c-1.4-0.1-2.4-1-3.2-2c-1.3-2.6-1.2-5.2-0.7-8.2
			c1.2-8.6,3.7-15.8,6.2-23.2l0.1-0.1c0.9-3.5,2.4-7.1,2.7-10.7c1.3-1.3,2.2-3.6,4.6-3.2c0.3-0.1,0.3-0.3,0.4-0.4
			c0.1,0.1,0.3,0.4,0.6,0.4c1,0,0.6,0.4,1.7,0.6c0.3,0.6,1.3,1,2.2,1.6c1.2,1.3,2.7,2.7,3.2,5c0,1.7-0.7,3.2-1.4,4.6
			c0,1.2-0.6,2-0.9,2.9c-0.7,2.3-1.7,4.3-2.2,6.3l-1.3,4.6c-1.3,4.9-3,8.1-3.9,13.2c-0.3,1.2-0.7,2.7-0.6,3.3c0,0.3,0.1,0.3,0.4,0.4
			c0.7-0.3,2-1.3,2.9-2.3c1.9-2.2,3.7-4,5.5-6.5c1.6-1.4,2.7-3.5,4-5l2.2-3.2c0.1,0,0.3-0.1,0.4-0.1c1.2-1.9,2.2-4.9,3.3-6.8
			c1-1.4,1-2,1.3-3.7l1.4-6.5c0.3-0.3-0.1-0.3-0.1-0.4c0.6-0.4,0.7-1.3,0.7-1.6c0.3-0.3,0.6-0.4,0.6-0.9h0.7l1.6-1.7
			c0.3,0.4,0.3,0.3,0.6,0c3.9,0.4,2.7,2,5.2,2c0.1,0.1,0,0.1,0,0.3c0.7,0.6,1.3,0.9,1.9,1.4c0,0.1,0,0.6,0.1,0.7
			c0,0.9,0.4,1.3,0.3,2.4c-0.1,1.2-1,2.4-1.2,4c-0.4,2-1,3.6-1.3,5.3c-1.4,6.8-2.3,8.8-2.9,15.6c0.1,0,0.4,0,0.6-0.1
			c0.1,0-0.1,0.1,0,0.1c5.3-2,19.7-10.4,25.5-11.7c-0.3,0.3-0.3,0.3-0.1,0.6c0.4,0.1,0.4-0.1,0.6-0.1c0,0.3-0.3,0.1-0.3,0.9
			c0,0,0.1,0,0.3-0.1c0,0.3,0.4,0.3,0.3,0.4c0.3,0,0.6-0.1,1.3-0.1c-0.4,0.1-1.2,0.1-1.6,0.7c0.4,0,0.9-0.3,1.6-0.6
			c-0.7,0.6-1.7,0.7-2.3,1c-0.1,0.3,0.1,0.1,0.3,0.1c-0.7,0.9-1.9,0.9-2.4,1.7h0.1c-0.1,0-0.3,0.1-0.3,0.1c-0.1,0-0.1,0.1-0.1,0.1
			h-0.1l-1.3,0.6l0.3,0.1c0.9-0.3,1.3-0.7,1.9-0.9c0.6-0.7,1.4-0.9,2-1c-0.1,0.4-1.2,0.9-1.9,1.3c0.3,0,0.7-0.1,1.2-0.3
			c-0.4,0.3-0.9,0.4-1.3,0.9c-0.7,0-1.3,0.7-2.3,0.7l0.1-0.1l-0.6,0.4v-0.3c-0.6,1.2-15,8.5-16.3,10.2c-0.9-0.1-1.9,1-2.6,1.6
			c0.3,0,0.6-0.1,1.3-0.1c-0.3,0.4-1,0.3-1.4,0.6c-0.9,0.9-2,1.4-3,2.2l-0.7,0.7c-0.6,5.8-1.4,9.6-2.4,15.8
			c-0.9,9.2-3.2,17.6-5.8,24.9c0.6-3.2,2.2-6.3,2.6-10.1c-1.7,5.3-2.9,10.4-5.2,15.3c-0.1,0,0,0.1-0.3,0v-0.4
			c-0.9,1.6-1.6,3.3-2.3,5.2v0.1c-0.1,0-0.1,0.1-0.1,0.3c-0.1,0-0.1,0-0.1,0.1h0.1l-0.4,0.9V149.1z M637.2,153.1
			c0-0.1-0.1-0.1-0.1-0.3C637.2,152.8,637.2,153,637.2,153.1z M637.6,155.6c0.1,0.9,0.3,1.9,0.6,2.7c0.3-0.6-0.3-1.2-0.1-1.9
			c0-0.1-0.1-0.1-0.3-0.1v-0.9L637.6,155.6z M640.3,162.9c-0.1,0.1-0.4-0.4-0.4-0.6L640.3,162.9z M641,138.4c0-0.1,0.3-0.3,0.1-0.4
			C641.2,138.2,641,138.3,641,138.4z M641.5,137.3c0-0.3,0.3-1,0.7-1.6C642.1,136.6,641.6,136.9,641.5,137.3z M644.1,131.4
			c-0.3,1.3-0.9,3-2,4.2L644.1,131.4z M644.5,130.1c0.1-0.1,0.3-0.1,0.3-0.3C644.6,129.8,644.6,129.9,644.5,130.1z M653,130.7
			c0-0.4,0.1-0.7,0.3-1l-0.4,0.4l-1,1.7l-0.1,0.3V132v0.3v-0.1l-0.4,1v0.9c-0.1,0-0.1-0.1-0.1-0.4l-1,1.3l0.3-0.6l2.3-4.3
			c-0.3,0-0.6-0.1-0.7,0c0,0.3-0.4,0.4-0.1,0.7c0,0,0.1-0.4,0.1-0.3c-0.1,0.4-0.1,0.9-0.3,1c-0.1-0.1,0.1-0.4,0-0.6
			c-0.1,0-0.3,0.1-0.3,0.1c0.3-0.6,0.7-1.3,0.6-1.7c0.4-0.6,0.9-1.3,1.4-1.7c1.3-3.3,3.6-6.3,5.5-8.9c0.1,0,0.1-0.3,0.4,0
			c0.3-1,1-1.4,1.4-2.3l0.3-0.6c0,0.3,0,0.3-0.1,0.4c0.1-0.1,0.4-0.1,0.6-0.6c0-0.1-0.1-0.1,0-0.4c0.6-0.3,0.9-1,1.3-1v0.3
			c0.1-0.4,0.3-1,0.7-1.6c0,0.1,0.1,0.1,0.1,0.1c-0.1,0.1-0.3,0.6-0.3,0.6c-0.1,0.9-0.9,1.3-1.3,1.6l-0.9,1.6c1.6-1.7,3-3.7,4.5-5.5
			c-0.9,0.4-0.9,1.2-1.6,1.4c0.1-0.1,0.1-0.6,0.6-0.6c-0.1-0.4,0-0.6,0.3-0.7v0.1c0.1-0.1,0.6-0.3,0.4-0.6c1.2-1.7,2.9-2.6,4-4.3
			c0.3-0.3,0.3-0.6,0.7-0.6c0-0.6,0.4-0.7,0.7-1c0,0.1-0.1,0.3,0,0.3c0.6-1,1.4-1.4,1.9-2h0.3c0.4-1,1.6-1.2,1.3-2
			c0.1-0.6-0.1-0.3-0.1-0.6c0.3-0.3,0.4-0.4,0.4-0.7c-1,0.9-1.9,2-3,2.7c0,0.1,0.1,0,0.1,0.3c-0.3-0.4-1,0.6-0.6,0.7
			c0.1-0.3,0.7-0.4,0.9-1c0.3,0.1,0.4-0.3,0.4,0c-0.3,0.3-1,1.3-1.2,1c-1.2,0.6-1.4,2-2.2,2.3c-0.1,0.1,0.1,0.3-0.3,0.4l-4.3,4.6
			v-0.1c-0.3,0.1-0.1,0.6-0.7,0.6c0,0.1,0.3,0.1,0,0.3c-2.3,2.7-4.3,5.6-6.6,8.5H657l-1.2,2.2c-0.1-0.1,0.1-0.3,0-0.4l-1.4,2
			c0.3,0.9-0.7,1.4-1.2,2.4c0.1-1.2,0.9-1.6,1.2-2.4c-1.6,2.4-3.2,5.2-4.3,7.8c-0.6,0.9-1.2,1.7-1.2,2.6l1.2-2
			c-0.9,2-1.6,3.9-2.9,5.5c-0.1,1.9-1.2,3.9-1.2,6c-0.1,0-0.3,0-0.3,0.1c0,0.3,0.3,0.1,0.1,0.3c-0.3,0,0,0.4,0,0.6h-0.1
			c-0.3,0.9-0.1,1-0.1,1.9c0,0-0.4,0-0.4,0.3c0.3,2.3-0.9,5.2,0,7.1c0.3-0.9,0.1-1.3,0-1.6c0.4-0.6,0-1.7,0.4-2.3v0.7
			c0.4,0.9,0.1,2.6,0.4,3.5c0-0.1,0-0.9,0.1-0.9c0.1,1.2,0.3,2.4,0.6,3.3c0.4,0.3,0.4,1.4,1.2,2.3c0.1,0.1,0.3-0.4,0.3-0.3
			c0.1,1,1,0.9,2.3,1c0.1-0.3-0.1-0.6,0.1-0.7c0.1,0.4,0.4,0,0.6,0.3c3.5-1.3,5.8-3.7,7.8-6.3h0.1c-0.3-0.1-0.1-0.3-0.1-0.3
			c0.3,0,0.3,0.3,0.4,0.1c0-0.3-0.1-0.3-0.1-0.4c0.1-0.1,0.1-0.1,0.3-0.1c0.9-1.4,1.4-2.4,2.4-3.9c1.4-2.7,3-5.5,4-8.9
			c0.6-0.6,0.6-1.3,0.7-1.9c0.3-0.6,0.7-1.9,0.7-2.6c0-0.4,0.4-1,0.7-1.3c0,0,0.1,0,0.3-0.3c0.4-0.3,0.3-1.2,0.4-1.7
			c-0.1-0.1,0.3,0,0.1-0.3c0.3-1.7,0.6-3.6,1.4-4.6c-0.4-1.2,0.7-1.9,0.7-2.4c0-1.4,0.6-2.6,0.4-3.9c0-0.1-0.1-0.3-0.1-0.6
			c0-0.3,0.3-0.6,0.4-0.7c0.1-0.6,0-1.3,0-1.7c0.1-0.4,0.4-0.9,0.4-1.4c0.6-2,0.6-4,0.7-6.3c0.4-0.4,0.4-0.7,0.4-1
			c0.3-1.9,0.9-4.2,0.6-5.9c-0.1,0.4-0.3,0.7-0.6,1c0,0,0-0.1-0.1-0.1c-1.6,2-3.7,3-5,5c-0.1,0-0.1,0-0.3,0.1v0.1
			c-0.1-0.1,0,0.1-0.4,0.1l-2.3,3.3c0,0-0.3,0,0,0.1h-0.6c-0.3,0.1,0,0.9-0.3,1V113c-0.3,0.4,0,0.6-0.3,0.7v-0.1
			c-0.1,0-0.4,0.1-0.4,0.6l-0.6,0.9v-0.1l-1.2,1.3c0.1,0,0.1,0,0.1,0.1c-0.3,0.1-0.4,0.4-0.7,0.7c0,0,0.3-0.1,0.4-0.1
			c0,0.3-0.4,0.4-0.4,0.4c-0.1,0-0.1,0-0.1-0.1c-0.1,0.4-0.3,1-0.7,1c0.1-0.1,0.4-0.3,0.1-0.4c-0.7,0.9-1.4,1.9-2.2,3.3l-0.6,1
			c-0.1-0.1,0-0.4-0.1-0.4c-0.1,0.1,0,0.3,0,0.4c-0.1,0.4-0.9,1-1.3,1.7c-0.7,0.4-1,1.6-1.7,1.9c0.3-0.3,0.6-0.6,0.6-0.9
			c-1.2,1-1.9,2.6-2.4,4.3c-0.3,0.1-0.1,0.3-0.6,0.3c0,0.4,0.3,0.1,0.3,0.6l0.6-1c0,0.1,0.1,0.3,0.1,0.1v0.1c0.1-0.6,0.6-1.3,1-1.7
			C654,128.6,653.4,129.4,653,130.7z M645.2,152.6c0-0.1-0.1-0.3-0.1-0.3C645.1,152.4,645.2,152.4,645.2,152.6z M645.2,150.8
			c0,0.1-0.1,0.3,0,0.7V150.8z M645.7,149.8h-0.4c0.1-0.1,0.3-0.3,0.3-0.4c0.1-0.3,0.1,0,0.1-0.6c-0.4,0.6,0-1.4,0.1-2
			C645.7,147.8,645.8,148.4,645.7,149.8z M645.8,146.1c0-0.1,0.1-0.3,0.1-0.3C646.1,145.8,645.8,145.9,645.8,146.1z M645.9,149.7
			c-0.1-0.9,0-1.6,0.1-1.9C646.1,148.2,645.9,148.8,645.9,149.7z M646.1,146.5c0.1,0,0,0.3,0.1,0.6
			C646.1,147.1,646.1,146.8,646.1,146.5z M646.1,150.5c0.3,0,0.1,0.7,0,1V150.5z M646.2,146.1v0.4
			C646.1,146.2,646.2,146.1,646.2,146.1z M646.5,143.5c0,0.9-0.1,1.9-0.1,2.4c0,0.1-0.1,0.1-0.1,0.1c-0.1-2,0.7-4.6,1-6.9
			c0.4-0.3,0.6-0.7,0.7-1L646.5,143.5z M646.2,147.9c0-1,0.3-2.2,0.7-2.7C646.7,145.8,646.4,146.9,646.2,147.9z M646.5,142
			c0-0.6,0.3-1.4,0.4-1.9C647,140.6,646.7,141.5,646.5,142z M647,144.5c-0.1-0.4,0.1-0.9,0.3-1.3L647,144.5z M647.5,142.9l-0.3,0.1
			v-0.1c-0.3,0.1,0-0.3,0.3-0.1V142.9z M648,140.9c0-0.1,0-0.1,0.1-0.1l-0.3,1.4v-0.3c-0.3-0.1-0.6-0.3-0.3-0.4
			c-0.3-0.3-0.3-0.4,0-0.4c0-0.1,0.1-0.1,0.1-0.1H648z M647.8,142.2l-0.3,0.4c0,0-0.3-0.1,0-0.6
			C647.5,142.2,647.8,142.2,647.8,142.2z M648.1,136.4c-0.1,0.1-0.6,0.4-0.3,0.6C648,137,648.1,136.6,648.1,136.4z M648.4,140.3
			c0,0-0.1,0.1-0.1,0.3v-0.3H648.4z M648.4,139.7v-0.1C648.2,139.6,648.4,139.7,648.4,139.7z M648.5,136.6h-0.1
			c0.1-0.1,0.1-0.1,0.3-0.1L648.5,136.6z M648.5,139h0.1C648.7,138.9,648.5,139,648.5,139z M649.1,137c0,0.1-0.1,0.3-0.1,0.3
			L649.1,137z M649.4,139.4c0.1,0.1,0,0.3,0,0.6C649.3,139.7,649.3,139.6,649.4,139.4z M650.3,130.2c-0.6,0-0.7,0.1-0.7,0.6
			C650.1,130.8,649.7,130.4,650.3,130.2z M649.8,135.3l0.3-0.4v0.3L649.8,135.3z M650.3,133.8c0.1-0.7,0.4-1.7,0.9-2.2v0.1
			c0.1-0.3,0.1-0.4,0.4-0.4c0,0.6-0.9,2-1.2,2.9v-0.7C650.4,133.5,650.3,133.7,650.3,133.8z M650.4,131.8c-0.1-0.1,0-0.3,0.1-0.4
			C650.7,131.5,650.4,131.7,650.4,131.8z M650.6,132.2c0-0.1,0-0.3,0.3-0.3C650.7,132,650.7,132.1,650.6,132.2z M651.4,130.1
			c-0.3,0.1-0.1,0-0.3,0c-0.1,0.6-0.1,0.7-0.4,0.9c0-0.7,0.6-1,0.7-1.6C651.7,129.5,651.3,129.9,651.4,130.1z M651,131.4
			c0.1,0.1-0.1,0.3-0.1,0.6C650.7,131.7,651,131.5,651,131.4z M651.6,134.1c0,0,0-0.1,0.1-0.1L651.6,134.1z M651.8,131.8l-0.1,0.1
			l0.4-0.1H651.8z M651.8,164.1c0.3,0.3,1.3,0.4,1.4-0.3c-0.3,0.1,0,0,0-0.1C652.7,163.6,652.4,163.9,651.8,164.1z M652.4,132.4
			c0,0.3-0.3,0.7-0.3,0.9C651.8,133.1,652.3,132.7,652.4,132.4z M652.7,125.8c-0.3,0-0.3,0.4-0.3,0.6
			C652.7,126.5,652.7,126.3,652.7,125.8z M652.7,127.4c0.3-0.1,0.1,0.3,0.1,0.3c0.1-0.3,0.4-0.4,0.3-0.6h0.1v-0.6
			C653,126.8,652.9,127.2,652.7,127.4z M653.4,128.8v-0.1c0.4-0.7,0.7-1.4,1.3-1.9L653.4,128.8z M654.7,124c0.4-0.7,0.7-1.2,1-1.3
			C655.7,122.9,655.4,123.8,654.7,124z M654.9,126.5c-0.1,0,0-0.1-0.1-0.1c0-0.1,0.1,0,0.1-0.1h0.3L654.9,126.5z M655.6,125.5h-0.1
			c0-0.1-0.1-0.1,0.1-0.1V125.5z M656.2,123.8c-0.1,0.1-0.4,0.4-0.3,0.4C655.9,124,656.2,123.9,656.2,123.8z M656,125
			c-0.1-0.3,0.1-0.6,0.4-1.2c-0.3,0.4-0.7,0.9-0.6,1.2H656z M656.5,123.9c0,0,0.1,0,0.1-0.1L656.5,123.9z M656.7,123.9
			c0.3-0.1,0.4-0.9,0.7-1C657.3,123.3,657.2,123.8,656.7,123.9z M658.3,120.3c-0.4,0.7-1,1.3-1.3,1.9
			C657.3,121.7,658.2,121,658.3,120.3z M658,122.5c-0.1-0.1,0.1-0.3,0.1-0.4C658.3,122.2,658,122.3,658,122.5z M659.5,162.5
			c0.1,0,0.1-0.1,0.3-0.1C659.8,162.5,659.8,162.5,659.5,162.5z M660.5,119.3c0,0.1-0.4,0.3-0.4,0.4
			C659.9,119.6,660.1,119.3,660.5,119.3z M660.2,158.6c0.4-0.4,0.9-0.6,1.2-0.9c0.6,0.1,0.7-0.6,1.2-0.6c0-0.3-0.1-0.3-0.1-0.4
			c-0.1,0-0.1,0.1-0.3,0.1c-0.1,0.3,0.1,0.1,0.1,0.3c-0.1,0-0.1,0.3-0.3,0.1c0.1-0.1,0.1-0.3,0-0.3
			C661.4,157.4,660.8,157.9,660.2,158.6z M661.9,117.4c-0.1,0-0.4,0.6-0.6,0.9c-0.1,0,0-0.1-0.1-0.1c-0.1,0.1-0.1,0.7-0.6,0.7
			c0.4-0.6,0.7-1.4,1.3-1.6V117.4z M662.4,158.9c-0.1-0.1-0.4,0.3-0.4,0.6C662.1,159.3,662.4,159.3,662.4,158.9z M662.2,160.3
			c0.3-0.4,1.3-1.2,1.9-1.6C663.5,159.6,662.9,159.9,662.2,160.3z M662.8,116.3c0,0.3-0.3,0.4-0.4,0.6
			C662.2,116.8,662.6,116.6,662.8,116.3z M663.4,157.9c-0.3-0.3-1,0.4-0.4,0.6c0.7-0.7,1.6-1.3,2.2-2.2c0.4,0,0.9-0.4,0.7-0.7
			c-0.4,0.1-1.3,0.7-1.7,1.3h0.1c-0.1,0.3,0,0.1,0,0.3c-0.4,0-0.6,0.1-0.9,0.4V157.9z M664.5,155.9c0-0.4,0.3-0.4,0.3-0.9
			c-0.7,0.6-1.7,1.4-2,2.4C663.2,157,663.7,156.3,664.5,155.9z M662.9,115.7c0-0.1,0.1-0.1,0-0.4
			C662.8,115.3,662.8,115.5,662.9,115.7z M663.1,156c-0.1,0.3-0.1,0.3,0,0.3V156z M663.5,112.8l0.3-0.1
			C663.7,112.8,663.7,112.8,663.5,112.8z M664.2,114.8c0.1,0-0.4,0.1-0.4,0.3c-0.1,0-0.1-0.1,0-0.3c0.3,0,0.3,0,0,0.1L664.2,114.8z
			 M664.7,114.7c-0.1-0.3,0.1-0.7,0.3-0.7C665,114.1,664.7,114.4,664.7,114.7z M665.7,153.1c0,0.1-0.6,0.3-0.3,0.4
			C665.5,153.4,665.8,153.3,665.7,153.1z M667.7,110.6c-0.1,0.1-0.1,0.1-0.1,0.3C667.3,110.8,667.5,110.8,667.7,110.6z M668,110.5
			h-0.1H668z M669.8,153.8c-0.7,0.7-0.7,1.6-1.3,2.2C669,155.3,669.1,154.6,669.8,153.8z M669.1,153.4c0-0.1,0.3-0.4,0.3-0.6
			C669.6,153,669.3,153.3,669.1,153.4z M676,143.2c-0.3,1.6-1.2,3-2,4.5C674.5,146.2,675.3,144.8,676,143.2z M675.3,145.9
			c0-0.4,0.7-0.7,0.9-1.2C676.2,145.1,675.8,145.5,675.3,145.9z M676,85.7c0.1,0,0.3-0.3,0.3-0.1C676.3,85.6,676.2,85.7,676,85.7z
			 M676.6,85.2c-0.1,0.3-0.1,0.4-0.1,0.4h-0.1L676.6,85.2z M676.6,143.5c-0.1-0.1,0.1-0.4,0.1-0.4C677,143,676.6,143.3,676.6,143.5z
			 M676.8,85c0,0.1-0.1,0.1-0.1,0.1S676.6,85,676.8,85z M676.8,85h0.1C676.8,85.2,676.8,85,676.8,85z M676.9,142.9
			c0.3-1.4,1.3-2.9,1.9-4.6C678.5,140,677.3,141.5,676.9,142.9z M699.8,87.2c0.1-0.7,10.4-5.5,10.7-5.8c0-0.3-0.3,0-0.3,0v-0.1
			c-3.6,1.7-11.5,5.9-12.8,6.5C697.9,87.8,698.8,87.3,699.8,87.2z M710.6,82c0.3-0.1,0.7-0.1,0.9-0.6L710.6,82z M712.5,81.1V81
			c-0.3,0.1-0.9,0.3-0.6,0.4C712,81.4,712.3,81.4,712.5,81.1z M714.6,80.6c-0.1,0.1-0.4,0.1-0.4,0.1L714.6,80.6z M715.1,80.4
			c-0.1,0.1-0.3,0.1-0.4,0.1L715.1,80.4z M716.5,78.7c-0.3,0,0-0.4-0.6-0.4c0.4-0.3,1-0.1,1.3-0.4C716.9,78.2,716.5,78.1,716.5,78.7
			z"/>
		<path fill="#08798F" d="M750.1,23.8l0.3-0.6c0-0.1-0.1-0.1-0.1-0.6c-0.4,0-0.4,0.7-0.7,0.4c-4,1.4-3.2-0.1-6.2,2.4
			c0.1,0.6-0.6,0.4-0.4,1c-1.6,1-2.9,1.6-3.9,3.3c-0.1-0.1-0.1,0-0.3,0.1c-0.1,1.4-1,2.3-1.9,2.4c-0.3-0.3-0.3-0.4-0.3-1.2
			c-0.4-0.1-0.3,0.4-0.6,0.1c0-0.1,0.1-0.4,0-0.4c-0.6-0.1,0,0.4-0.3,0.7c-0.4-0.3-0.9-0.6-1.2-1c-0.3,0.3-1,1.9-1.2,2.6V33
			c-0.3-0.3,0-1-0.6-1.3c-0.3,0-0.4,0-0.4,0.4c0,0.3,0.7,0.3,0.4,0.9c-1.2-0.3-2.7-0.4-3.6-1c0-0.7-0.4-1.2-0.6-1.4
			c0-0.3,0-0.6,0.1-1.2c1.3-1.6,2.3-3.6,3.9-4.5c-0.1,0.4-0.6,0.7-0.4,1.2c1.4-1,2.7-3,4.6-4.6c2.4-2,1.3-0.7,4.2-2.2l6.8-2.6
			c0.9-0.4,2-0.9,3.2-1.2c0.4-1.3,0.4-2.3,0.3-3.3c-1.2,0,0.4-1.9,0-2.3c0.6-0.4,0.4,0.4,1-0.4c1-2.6,1.6-2.3,3.5-3.5
			c1,0,2.3-0.3,3.5-0.1c1.9,0.1,3.7-0.3,5.6,0.6c0.7,1.2,1.9,1.7,2.3,3.3c0.4,0.4,0.7-0.7,0.7-0.1c0.3,1.2-1,3.2,0.6,3.7
			c1,0.3,2.4,0.3,3.5,0.4c3.7,1,7.1,1.9,9.8,3.6c1.3,0.9,2.3,1.6,3.5,2.2c2,1.3,3.9,2.7,5.5,3.9c0.6,0.9,1.4,1.3,1.7,1.9
			c0.4,0.4,0.7,1,1.4,1.7c1.6,1.3,2.7,2.9,3.9,4.5c4.2,5.9,7.3,14.5,7.9,23.8c0,4.8-0.7,10.7-2.6,15.8c0.1,0.6,0,0.9-0.3,0.7
			c-0.4,0.4,0.3,0.1-0.1,0.4c-0.1,0-0.3,0.1-0.3,0.1c-1.2,4-3.3,7.9-5.5,11.1c0.4-1.4,2.2-2.9,2.2-4.2c-4.2,6.3-8.2,12.2-13.2,17.3
			c0.7-1.7,3.2-3.3,4-4.8c-0.6,0.3-0.9,0.6-1,1.2c0,0-0.1,0-0.1,0.1c-3.2,2.7-5.9,5.5-8.8,8.1c-0.9,0.1-1.3,0.9-1.7,1.4
			c0.1-0.3-0.3-0.1-0.3,0c0.6-0.3-0.1,0.9-0.6,0.3c-7.3,6.9-16,11.7-24.5,17c-0.4,2.3-1.2,5-1.2,7.2c-0.1,0-0.1-0.4,0-0.9
			c-0.7,0.6-1,1.3-1.4,2.4h-0.9c-0.3-0.9-0.4,0.1-0.9-0.9c-0.3,0.1,0,1.4-0.1,1.7c-0.4,0.1-0.1-0.3-0.4-0.1c-0.4,0.1-0.7,0-1.4,0.1
			c-0.9,0-1.2,1.6-2.7,1.3c0-0.6-0.3-1.3-1.2-1.3c-0.6-0.4-1.6-2.2-2.6-1.7c-0.1,0,0-0.3-0.3-0.3c-0.7,0-0.7,0.1-1,0.1
			c-0.7-1.2-0.4-2.7-0.9-4.2c-0.9,0.1-2.3,0-2.7,0.7c0.1-1-1,0.3-1.6,0c-0.1,0,0,0.6-0.1,0.6c-0.4-0.3-0.4-0.6-0.9-0.6
			c0-0.1,0.4-0.1,0.3-0.6c-1.3-0.7-3.3-0.7-5-1.9c0.3-0.6,1.2,0.3,1.3-0.6c0.3,0.4,0.4,0.3,0.7,0.4c0.9-0.7,2-0.4,2.4-1.9
			c0.3,0.3,0.7,0,0.9-0.1c1.3,0.3,1.7-0.7,2.7-0.6c-0.4-0.4,1.3-0.9,1.9-1.4c1-11.8,3-23.8,4.9-35.1c0.1-0.3-0.1-0.4-0.3-0.6
			c1-0.3,0.4-2.4,0.7-2.9c0-0.3-0.1-0.3,0-0.9c0.1-1.6,0.7-4.2,1-6.3c0.3-0.7,1-1.4,0.9-2.7c0.1-1.2,1.2-4.8,0.7-5.9
			c-0.1-0.6,0.1-0.7,0.4-1.3c1.9-12.5,4-25.5,4.8-38.4L750.1,23.8c-0.1,0.1,0.3,0-0.3,0.1C750.1,23.7,750.1,23.8,750.1,23.8z
			 M753.2,118.9c-0.3,0-0.4,0.3-0.6,0.4C752.9,119.3,753.2,119.1,753.2,118.9z M755,116.1c-0.4,1-1.9,1-2,1.7
			C753.8,117.4,754.8,117.4,755,116.1z M753.4,119.4c0.4-0.9,1.7-0.9,1.9-1.7C754.8,118.1,753.4,118.1,753.4,119.4z M792,66.7
			c0.3-2,1-3.6,1.2-5c0.3-2.9,0.6-5.5,0.1-7.5c0.6-1.4,0-3.2,0-4.3c-0.1,0-0.4,0-0.1-0.7l0.1,0.1c0-0.4-0.1-1.6-0.9-1.4
			c0.3-1.6-0.4-2.9-0.7-4c0-0.4-0.4-1-0.4-1.2l-0.3-1c-0.4-1.3-1.4-2.9-1.6-4c-1.3-2.6-3.3-4.9-5.5-6.8c-0.3,0-0.3-0.3-0.4-0.3
			l-0.4-0.7c-4-3.3-7.6-7.5-14.3-8.1c-0.4,0.4-1.3,0-1.7,0.4c1,0.4-0.6,0-0.7,0.3c0.3,0,1.4,0.1,0.6,0.1c0,2,0,3.3-0.3,5
			c-0.1,2,0,4-0.6,6.2c0,2.4-0.6,5-0.4,7.6c-0.4,5.3-1.7,10.8-2.3,16.8c-1.4,6.5-2.6,16.1-4.2,23.3c-2,9.6-3.7,19.7-5.2,28.7
			c1.3-0.3,2.6-1.4,3.7-2h0.1c0.4,0,0-0.4,0.4-0.6c0.1,0.1,0,0.3,0.1,0.1c1.9-1.7,4-2.7,5.8-4.6c0.7-0.4,1.7-1.2,2-1.7
			c-0.1,0.1-0.3,0.1-0.6,0.1c1.7-1.4,4.3-3,5.8-5.3v0.1c4.5-4,8.9-7.9,12.1-13.1c0,0.3-0.3,0.6-0.1,0.6c2-2.4,3.2-4.8,4.9-7.9
			c0.1-0.1,0.1,0.3,0.3,0c1.2-2.7,3-5.8,3.3-9.4H792z M756.5,115.4c-0.7,0.3-1.4,0.7-1.3,0.7C755.7,116.1,756.1,116.1,756.5,115.4z"
			/>
		<path fill="#08798F" d="M840.5,72.9c-0.3,1.2-0.9,2.3-0.7,3.3l0.7-2.6c0,0.6,0,2.2-0.4,3c0.9,0,1.2,0,1.3-0.3c0.6,0,1.6-0.1,2-0.4
			c0.1,0.1,0.7,0,0.7,0h0.3c2.7-1,0.7,0,3.5-1c1.6-0.9,3-1.6,4.5-2c0.6-0.1,1.2-0.1,1.4-0.9c1.9-0.4,2.7-1.3,4.5-1.9
			c0.3,0.1,0.6,0,0.7,0c0.1,0.4,0.7,0.6,1.2,0.6c-0.3,0.3-0.4,0.6-0.9,0.7v0.6c-0.3,0.7-0.7,1-1.7,1.2c-0.1,0.3-0.7,0.4-0.4,0.9
			c-1,0.1-1.7,1.2-3.2,1.9c0.3,0.1,0.1,0.3,0.1,0.6c0.6,0,0.9-0.3,1.4-0.4c-0.7,0.6-1.7,1-2.7,1.2c-0.9,0.3-2,1-3.2,1.3
			c0.1,0.3,0.3,0.1,0.7,0.1c-3.6,1.3-2.4,1.3-5.6,2.4c-0.4-0.1-0.9,0-1,0.1c-1.4,0.1-2.7,0.1-4.6,0.7c-0.7,2.6-1.9,6-3,8.8l-0.9,1.4
			l-0.1,0.3c0,0-0.1-0.1,0.1-0.3c-0.3,0-0.7,0.6-0.9,0.6c0-0.3,0.6-0.4,0.7-0.7c-0.6,0.1-1,0.6-1,1.4c-0.3,0,0-0.4-0.1-0.4
			c-0.3,0.4,0,0.4,0,0.7l-0.6,1.2c0.4-0.4,0.6-0.9,0.7-1.3c0,0.6-0.4,1.3-0.7,1.7l-0.6,1v-0.3c-0.9,0.9-2,1.3-2.2,2.7h0.1
			c-0.1,0.6-0.7,0.9-1.2,1.2l-1.2,1.9l-1.2,1.2c0.6-0.1,0.7-0.6,1.2-0.9c0.1,0.1-0.1,0.3,0,0.7c-1.2,1.2-2.4,2.2-3.9,3.2
			c-0.3,0.1-1,0.1-1.6,0.3c-0.1,0-0.1,0.1-0.1,0.3c-0.4,0.3-1.2,0.4-1.6,0.4c-0.7,0.4-1.6,0-2.3,1c-2.6,0-4.3,0-5.6-0.6l-0.3,0.1
			c-1.4-0.3-2.2-1.4-3.3-2.2l0.1-0.4c-0.3,0.3-0.3-0.4-0.7-0.4c-0.4-0.3-0.4-1.6-0.9-1.9c-0.1,0,0,0.1-0.1,0.1l-0.3-1.7
			c0-0.3,0-1.2-0.1-1.3c-1.2-2.9-1.4-5.8-1.4-9.4c0.3-5.6,1.6-10.9,3.5-16.3c0-0.1,0.1-0.1,0.1-0.1c1.3-5.2,4-9.9,6.8-13.7
			c0-0.4,0.1-0.9,0.6-0.9c0.1-0.3,0.7-0.4,1-0.9c0.6-0.1,1-0.9,1.6-1.2c0.1-0.4,0.4-0.6,1-0.9c0.6-0.1,0.6-0.3,1.9-0.4
			c0.6-0.1,0.7-1.2,1.6-0.9c0.9-0.3,1.7-0.3,2.7-0.1c1-0.1,1.7-0.7,2.2-0.7c0.9,0,1.6,0.1,2.6,0.4c0,0,0.1,0,0.1-0.3
			c2.6,0.9,5.3,2.3,6,5c0.1,0,0.3,0.3,0.6,0.3c0,0.1,0.1,0.3,0.1,0.6c0.9,1.7,0.6,4.3,1.2,6.6c0.6,1.2,0.7,2,0.9,3.2
			c-0.6,0.4-0.1,1.4,0,2.4l-0.1-0.3V72.9z M818.6,77.2c-0.7,2.2-1.4,7.6-2,9.6c-0.3,0.9,0,2.2-0.1,2.9c0,0.1-0.3,0.4-0.3,0.9
			c-0.3,2,0.3,4.6,0.6,6.5c0.4,1.3,0.7,2,1.4,2.7c0.6,0.6,0.9,2.3,1.4,2.3c0.3,0,1.4-0.9,1.7-1.2l2.4-2.9l3.6-6.5l1.9-4
			c0.7-1.6,0.7-3.5,1.3-5c-0.3-0.4-1.2,0.3-1.9,0.3C824.5,82,822.8,82.4,818.6,77.2z M831.6,67.7c0-0.6-0.1-1-0.3-1.2
			c-0.1,0-0.4-0.1-0.4-0.1c0-0.6,0-1-0.3-1.3c0.3-0.9-0.3-1.4-0.7-1.3l0.1-0.3c-0.6-0.1-0.1,0.3-0.6,0.3c0.1-0.7-0.7-0.7-1-1.6
			c0.1,0.3,0.4,0,0.6,0l-0.4-1.4c0-0.3-0.1-0.4-0.3-0.6c-0.4,0.3-1,0.3-1.4,0.7c-0.6,0.9-1.6,1.7-1.9,2.7c-0.4,0-0.6,0.4-0.7,0.9
			c-0.1,0.1-0.4,0.1-0.4,0.3l-0.9,1.9c-0.7,1.4-0.4,4.5,0.3,5.8c1.3,1.4,3,3.6,5,4.3l-0.1,0.4c1,0,2.2,0.1,3.2,0.1
			c0.1-1.2,0.4-3.3,0.3-4.3C831.6,71,831.7,69,831.6,67.7z M831.1,98.4c0-0.1,0-0.3,0.1-0.3C831.1,98.3,831.3,98.6,831.1,98.4z
			 M831.6,97.1h0.4c-0.3,0.1-0.4,0.3-0.6,0.3C831.3,97.3,831.6,97.3,831.6,97.1z M836.3,91.1c-0.1-0.4,0.3-1.2,0.4-1.3
			C837,90.1,836.5,90.6,836.3,91.1z M837.8,60.1h0.1c0.1,0.3,0.1,0.9,0.3,1c0,0.4,0.3,0.9,0.3,1.4c0.1,0.3,0.1,0.9,0.6,1.2
			c-0.4-1.4-0.4-2.9-1.3-4C837.6,60,837.6,60.1,837.8,60.1z M838.3,85.6c0-0.1,0-0.4,0.1-0.4C838.6,85.4,838.3,85.4,838.3,85.6z
			 M840.5,73.2c0-0.1,0.1-0.3,0-0.3V73.2z"/>
		<path fill="#08798F" d="M837.6,157.7c0.1,0,0.1,0.1,0.1,0.3C837.6,158,837.6,157.7,837.6,157.7z M874.2,142.2
			c-0.1-0.3,0-0.6,0.1-0.7c0-0.4,0.4-0.7,0.6-0.9v-0.4c0-0.1,0.1-0.3,0-0.4c0.1,0,0.1,0.1,0.1,0.3c0.9-2.7,2-5.9,2.7-9.4
			c-0.1,0.1-0.1,0.7-0.3,1c-0.1,0.7-0.3,1.3-0.9,1.9l-0.4,0.7v0.3h0.1c0.1,0.1,0,0.6-0.1,0.7v0.1l-0.1,0.1c-0.4,0.9-0.4,1.6-0.7,2.2
			c-0.1,1.2-0.1,1.6-1,2c-0.6,3.2-1.4,6.3-2.7,8.9c0,0.1-0.3,0.4-0.3,0.7v-0.1c-0.1,0.1-0.3,0.3-0.3,0.4c-0.1,0.3-0.3,0-0.4,0.3
			c-0.1,0.1,0.3,0,0,0.4c-0.1,0.7-0.3,1.9-1,1.6c-0.1,0.6-0.1,0.9-0.1,1.3c0-0.1-0.3-0.1-0.3,0c0,0.3,0.3,0,0.3,0.1
			c-0.4,0.9-1,0.9-1,1.7c-0.4-0.3-0.1,0.9-0.6,0.7v0.4c-0.1,0.4-0.6,0.9-0.6,1.3H867c-1.9,2.9-3.6,5.8-6.3,7.6c-0.3-0.1-0.6,0-0.7,0
			v0.1c-0.3,0-1.3,1.2-2,1.2c0-0.3,0.4-0.3,0.7-0.6c0.7-0.4,1.3-0.9,1.4-1.3c0.3-0.1,0.7,0,0.9-0.1l0.4-0.6l1-0.6l0.3-1l-1.2,0.9
			c0,0.3-0.3,0.3-0.3,0.4h-0.4c-0.9,1.3-2,1.9-3.3,2.7c-0.1,0,0,0.4-0.1,0.4v0.1c0-0.1-0.1-0.1-0.1-0.1c-0.4,0.1-1.6,0.4-2.6,0.6
			c-0.7,0.3-2,0.1-2.9,0.4c-5.8,1-12.4-1.9-13.4-7.8c-0.3-2.2-0.4-4.6,0-7.1l0.1-1.2c0.1,0.1,0.4,0,0.4-0.1v-0.6
			c0.1,0,0.1,0.1,0.3,0.1c0-1,0.6-2.2,0.6-3.2c-0.3,0-0.3,0.1-0.4,0.1c0-0.1,0-0.1,0.4-0.3l0.1-0.6c0-0.7,0.1-1.3,0.3-1.7
			c-0.1-0.7,0-1.2,0.3-1.7c1-3.2,2-5.9,3.3-8.5c0.1-0.1,0.3-0.1,0.3-0.1c0.4-1.3,0.9-2.2,1.3-2.9c0.1,0.1-0.3,0.3-0.1,0.7l1.9-3.5
			c-0.1-0.1,0-0.4,0.1-0.9c0.1,0,0.1,0.3,0.1,0.4l0.3-0.9c-0.1-0.1-0.1-0.4,0-0.6c-0.3-0.1,0.3-0.3,0.4-0.6v0.1l0.3-0.1
			c0-0.1,0.1-0.1,0.1-0.3c0-0.1,0.1-0.7,0.6-0.7h0.1c0.1-0.9,0.4-1,0.6-1.3c0.1-0.3,0.3-0.3,0.3-0.9c0.3,0.6,0,0,0.1-0.1
			c0-0.3,0.1-0.3,0.4-0.3l-0.1-0.4c0.3-0.9,1.3-1.4,1.6-1.9v0.3l0.4-1.2c1-0.6,1.7-1.6,2-2.3v0.1c1-1,2.4-2.9,3.3-4.2
			c-0.3,0-0.6,0.3-0.6,0.4c0-0.4,0.6-0.9,1-1.4c0-0.1,0.3-0.3,0.4-0.7c0.3,0.3,0.3,0.3,0.6,0.3c0.7-0.9,1.3-2,2-2.7
			c0-0.1,0.1-0.3,0.1-0.3c0.4-0.1,0.9-0.7,1.2-0.9c0-0.3-0.1-0.3,0-0.4c0.3,0.1,0.3-0.4,0.4,0l0.3-0.4c1.6-1.2,2.6-2.7,4-3.9
			c0.9-0.1,1.3-1.3,2.3-1.6v-0.6c0.3,0.1,0.3,0.1,0.3,0.3c0.9-1.2,2.2-1.7,3.2-2.7l1.2-9.5h-0.1c0.1-0.1,0.4-0.4,0.1-0.9
			c-1.3,1.6-3.3,3-5.2,4.9l2-1.4c0,0,0.1,0,0.3-0.1c-1.2,1.3-2.6,2.3-3.6,3.3c1.6-1,2.7-2.3,4.3-3.5c0.7,0.1,0.9-0.6,1.4-1
			c-1.2,1.6-3.2,2.9-4.9,4.2l-0.9,1.3c-0.9,0.6-1.7,0.6-1.9,1.4c-0.4,0.1-0.9,0.7-1.2,0.9l-0.3,0.3c-1.3,0.3-2.2,1-3.6,1.2l-0.6,0.6
			c-2.9,0.4-5.5,0-7.3-1.3c-1.2-0.1-2.2-0.7-3-1.6c-1.3-1.6-2.2-3.2-2-6.5c0.1-4.6,1.6-8.4,2.7-12c2.4-4.3,5-8.6,8.1-12.8
			c2.7-3.2,5.8-6.3,9.1-8.9c1-0.4,1.9-1.9,3.2-2c2-0.6,4.3-1.4,6.6-1.3c0.6,0,0.9,0.6,1.7,0.6c0.7,0,1.4,0,1.9,0.1s0.6,0.4,1.2,0.3
			c1.3,1.4,3.2,3.3,4.5,5.2c0.1,1.3,0.7,1.9,0.7,3.5l-1.2,1.7c-1.2,0.4-3,1.6-3.9,0c-0.3,0.1-0.6-0.3-0.9-0.3
			c-0.3-0.1-0.4,0-0.6-0.1c-0.9-0.4-1-1.7-2.2-2.4c0-0.1-0.1-0.3-0.1-0.4c-0.7-0.1-1.6,0.3-2.4,0.7l-3.3,2.7
			c-2.6,2.4-4.8,5.2-6.9,8.1c-3.2,4.8-6.5,10.8-7.8,17.9c0,0.4-0.4,1.4,0.1,1.6c1.3-0.6,2.6-1.4,3.7-2.4c3.9-2.6,8.5-7.2,12.5-11.2
			c0.3-0.6,0.9-1.4,1.4-2l1.4-1.3c0.3-0.7,0.3-1.9,0.6-2.6c0.1-0.9,0.7-1.9,0.7-2.9c0.3-0.1,0.3-0.4,0.4-1.4
			c0.3,0.1,0.4,0.4,0.6,0.1c0.4-0.6,0.6-1.2,0.9-1.6c0.3-0.3,0.3,0.1,0.4,0.1V68c0.6,0,0.7-0.1,1,0.3c0.3,0.1,0.3-0.4,0.3,0
			c0.3-0.3,0.1-0.4,0.3-0.4c0.3-0.3,0.3,0,0.6,0c0-0.1-0.3-0.1,0-0.3c0,0.1,0.1,0,0.6,0.1V67c0.1,0.6,0.1,0.9,0.4,0.9s0-0.1,0.3-0.1
			s0.4,0.1,0.7,0.1c0,0-0.1-0.1,0-0.3c0.4,0,0.4,0.3,0.6,0.3c0.6,0.1,0.9,0.7,0.9,1.3c1,0,1.3,0.6,1.9,1.4c0.1,0,0.1-0.7,0.3-0.7
			c0.3,1.4,1.3,1.9,1,3.9l-0.7,2c-1.3,3.5-3,10.8-3.7,14.8c2.4-1,5.5-4.6,7.8-5.2c0.3-0.4,0.7,0,1.2-0.6c0.4-0.1,0.1,0,0.4-0.1
			c0.4-0.4,4.3-2.7,5.3-2.9c0.1-0.9,1.6-0.3,1.7-1.2c1.3,0.3,2.4-0.9,3.9-1.2c0,0.1-0.3,0.1-0.3,0.3c-0.1,0.1,0,0.1,0,0.6
			c0,0.1,0.7,0.3,0.9,0c-0.3,0-0.4,0-0.6-0.4c0.1-0.3,0.7-0.4,1-0.4c-0.1,0.1-0.4,0.3-0.4,0.6c0.7-0.1,1.9-0.6,2.3-0.6
			c-0.1,0.4-0.3,0.3-0.4,0.3c0,0.6,0,0.7-0.4,0.9h0.7c-0.4,0.3-1.4,0.3-1.6,1c0-0.3-0.3-0.1-0.6-0.1V81c-0.3,0-0.1,0.6-0.4,0.6
			c-0.1-0.3,0.1-0.3,0-0.6c0,0.4-0.6,0.3-0.6,0.7c-0.6-0.3-1,0.6-1.6,0.6c-0.1,0.3-0.6,0.3-0.9,0.7c0.7-0.4,1.7-0.7,2.6-0.9v0.4
			c0-0.1-0.1,0-0.1-0.1c-0.7,0.4-1.4,0.6-1.7,1.3c0.3,0.6,1-0.9,1.7-0.7c0,0.6-0.1,0.7-0.6,0.7c-1,0.6-2,0.9-3.3,1.4
			c0-0.3,0.3-0.3,0.1-0.4c-0.4,0-0.6,0.1-0.9,0.3c-0.1,0.4,0.4,0.4,0.3,0.6c-1,0.7-5.8,3-6.9,3.9l-1.2,1c-1.3,0.4-2.4,0.9-3,2
			c0.4-0.1,0.7-0.4,1.3-0.4c1.2-0.7,2.3-1.4,2.9-1.6h0.1l-2.7,1.6c0.3,0.1,0.3,0,0.4,0l-1.4,1.2c0.6-0.1,1-0.9,2-1.2
			c0.4,0,1-1,1.4-0.9c-0.3,0.4-0.4,0.9-1,0.9c-0.4,0.1-1,0.7-1.7,1.2c0,0-0.1-0.1-0.1,0c-0.4,0-0.4,0.3-0.6,0.4v-0.1
			c-0.1,0.1-0.4,0.4-0.7,0.4c-0.3,0.3,0,0.3,0,0.4c-1,0.9-2.2,0.9-3,1.7c0,0.4,0.1-0.3,0.4,0c-1.3,1-2.4,1.6-3.2,2.9
			c0.1,0,0.1,0,0.3,0.1c0,0.1-0.4,0.3-0.7,0.6c-1.2,12.1-3.2,23.5-6.5,34.3l-3.6,11.8h-0.3c-0.1-0.3,0.1-0.7,0.3-1l0.4-1.6l-0.3,0.3
			c0-0.4,0.1-0.6,0.3-0.9C874,142.5,874.2,142.3,874.2,142.2z M838.3,160c0-0.1-0.1-0.3-0.1-0.3S838.2,159.9,838.3,160z M838.6,150
			l0.1-0.1l-0.3,0.9L838.6,150z M838.9,153.8l-0.4,1c0,0.1,0,0.6,0.1,0.6l-0.1,0.9c0.1,0,0.4,0,0.4,0.4c0.4-1.6,0.3-3,0.1-4.8
			c0-0.1,0,0-0.1,0v1C839,153.1,838.9,153.6,838.9,153.8z M838.5,157.9c0.4,0,0.4-0.3,0.4-0.6c0,0-0.3,0.1-0.4,0.1
			C838.5,157.7,838.6,157.7,838.5,157.9z M839,148.4c0,0.3-0.1,0.7-0.3,1.2L839,148.4z M838.8,149.8v-0.3V149.8z M839,148.4l0.1-0.4
			C839.2,148.1,839.2,148.2,839,148.4z M839.9,147.2c-0.1-0.1,0-0.3-0.1-0.3C839.8,147.1,839.9,147.1,839.9,147.2z M840.2,158.7
			c0.1-0.3-0.3-0.6-0.4-0.9C839.8,158.3,839.8,158.6,840.2,158.7z M840.2,145.6c0.1-0.3,0.1-0.7,0.1-0.9
			C840.2,144.9,840.2,145.4,840.2,145.6z M840.8,143.6c0.1-0.3,0.3-0.6,0.1-0.7C840.8,143,840.8,143.5,840.8,143.6z M844.5,148.5
			c0.1-0.4,0.6-1.9,0.3-2.3C844.8,146.9,844.7,147.8,844.5,148.5z M844.8,154.3c0.1,0.1,0,0.6,0.1,0.6v-0.6H844.8z M844.9,153.8
			c0.1,0,0.1-0.4,0-0.6C844.9,153.6,844.8,153.7,844.9,153.8z M845.7,155.3c0-0.1,0.1-0.4-0.3-0.4
			C845.4,155,845.2,155.3,845.7,155.3z M861.9,116c0,0,0.1,0,0.1,0.1c-0.1,0.1-0.6,0.4-0.6,0.7l-0.1-0.1c-0.6,1.2-1.3,1.9-2,2.7
			v-0.1c-0.3,0.6-0.7,0.7-0.6,1h-0.1l-1,1.4h-0.1c-0.1,0,0,0.4-0.1,0.6v-0.1c-0.3,0.9-1.2,2.2-1.9,2.3h-0.1c0.1-0.6,0.3-0.9,0.7-0.9
			c0.1-0.6,0.4-1,0.9-1.4c-0.7,0.6-1.2,1.6-1.7,1.9l-0.3,0.9h0.3c-0.1,0-0.1,0.1-0.1,0.1l-0.1-0.1c0,0-0.1,0.1-0.1,0.4h0.3
			c-0.1,0.3-0.3,0.3-0.1,0.6l-0.3,1v-0.6h-0.1c0-0.6,0.1-0.7,0.3-1l-1.9,2.3l0.1-0.3c-0.1,0-0.6,0.3-0.3,0.4l-0.7,1.4v-0.1l-0.7,1.3
			v0.3c-0.9,1.2-1.4,2.3-1.7,3.6c0-0.1,0.1-0.1,0.3-0.1c0-0.1,0.1-0.1,0.1-0.6l0.1,0.3c0.1-0.3,0-0.6,0-0.7c0-0.1,0.6-0.9,0.6-0.9
			c0.1,0-0.1-0.1,0.1-0.4c0,0.3,0,0.3,0.1,0.3c0-0.7,0.4-1.6,0.9-1.7c0.1-0.1,0-0.1,0-0.3c0.6-0.6,0.6-2,1.7-2.3l0.1-0.7
			c0.4,0,0.4-0.1,0.6-0.3c0,0.1,0,0.1,0.1,0.3c-1.7,2.3-3,4.9-4.3,7.2H850c-0.6,1-0.6,2.4-1.3,3.5c0.1,0.1,0.4,0,0.4,0l-1.2,3.7
			l0.6-1.6l-0.7,3l-0.6,1.7l0.1-0.1h0.1c0.1-0.1,0-0.1,0.1-0.6h0.1c-0.1,0.7-0.3,1.7-0.7,2.6v-0.4c-0.1,0.4-0.1,0.6-0.3,0.6v-0.6
			h-0.1c0.1-0.4,0.1-1.2,0.1-1.4c0.3,0.3,0,0.9,0,1.2c0.4-1.3,0.6-2.4,1-3.5V142c-0.1-1.3,0.7-2.3,0.6-3c0.1,0,0.1,0.1,0.1,0.1
			c0.1,0,0-0.3,0-0.3c0.1-0.3,0.1-0.4,0.1-1.2c-0.1,0.1-0.3,0.3-0.3,0.6c-0.1,1.3-0.7,2.4-1,4.2c-0.6,0.4-0.6,1.2-0.7,2
			c-0.9,1.6-1,3.7-1.2,5.6c0.4,1,0,1.6,0.3,2.4c0.3-1,0.3-2.9,0.4-4c0.4,1.2-0.1,3-0.3,4.2c0.1-0.4,0.7-1,0.7-1.6
			c0.1,0.1,0.1,0.1,0.1,0.4c0,0.1-0.6,0.4,0,0.9c-0.6,0.3-0.1,0.9-0.1,1.4c0.3,0.6,0.1,1.3,0.1,2c0,1.6,0.3,2.6,0.7,3.9
			c0.1-0.9-0.6-1.4-0.3-1.9c0,0.4,0.1,0.7,0.4,1c0.1-0.3-0.3-0.3,0-0.4c0,0.1,0.1,0.3,0.3,0.4c0-0.1-0.1-0.3,0-0.4
			c0.1,1,0.4,1.7,0.6,2l1.4,1.6c0.3,0,0.3-0.1,0.6-0.1c0.9,0.1,1.3,0,1.7-0.1c1-1.2,2.4-1.7,3-3.3l1-0.7c0,0,0.1-0.1,0.1-0.3v0.3
			c3.6-4.3,5.3-10.4,7.9-15.6c0.6-3.3,1.7-6.6,2.7-9.6c0.1-0.1,0.3-0.3,0.3-0.7c-0.1,0,0-0.1,0-0.3l1.6-8.5c0-0.1-0.1,0.1-0.1-0.1
			c0-0.1,0.3,0,0.1-0.4c-0.1-0.1,0-0.7,0.4-0.9c0.6-0.9,0.3-1.4,0.7-2.3c0.1-1,0.6-2.4,0.7-3.9l0.1-2.6c0.3-2.9,1.4-5.8,1.6-8.2
			c-0.1,0.1-0.4,0.1-0.1,0.4c-0.7-0.1-0.9,1.2-1.3,1c-0.3,0.3-0.7,0.7-0.7,1.2c-0.1,0-0.1,0.1-0.3,0.1c-0.6,0.7-1.3,1.9-2.3,1.9
			c-0.1,0.3-0.7,0.4-0.9,1.2c0-0.6,0-0.7-0.3-0.6c-0.1,0.1,0.3,1.2-0.1,1.3c0-0.1,0-0.7-0.1-1.2c0,0.6-0.3,0.6-0.3,0.7
			c-0.1,0.3-0.1,0.4-0.1,0.6l0.1-0.1c0,0.3,0-0.1,0.3-0.1c0,0.3-0.1,0.4-0.4,0.4c0,0.1-0.1,0.3-0.1,0.3c-0.1-0.3,0.1-0.4,0-0.4
			c0,0.1-0.1,0.1-0.3,0.1c-0.1,0.1-0.1,0.3-0.4,0.3l0.3-0.3c-0.3,0-0.3,0-0.6,0.3l0.3,0.1c-0.3,0.3-0.4,1.2-1.2,1
			c0,0.1,0.1,0.1,0,0.1v0.1c0.6,0,0.7-0.4,1-0.3l-2,1.9v-0.3c-0.3,0.3-0.4,0.3-0.6,0.3c-0.1,0.3,0.1,0.6-0.1,0.6
			c-0.1,0-0.1,0-0.1-0.1c-0.3,0.4-0.7,0.9-1,1c-0.1,0,0.1-0.1-0.1,0c0,0.4-0.3,0.6-0.3,1.2L861.9,116z M845.8,156.2
			c-0.6,0-0.1,1.6,0.1,1.7C846,157.3,845.8,157,845.8,156.2z M846,154.4c-0.1,0.4,0,1,0.1,0.7c0,0.3,0.1,0.6,0.6,0.9
			c-0.4-0.7,0-1.6-0.4-2.2C846.2,154.3,846,154.1,846,154.4z M846.1,148.1c-0.3-0.1,0.1-1.3,0.1-1.9
			C846.7,146.8,846.2,147.7,846.1,148.1z M846.2,142.6c-0.3,0.3-0.3,0.7-0.1,1C846.1,143.2,846.2,142.9,846.2,142.6z M846.7,139.4
			c-0.1,0.3-0.7,0.3-0.6,0.4C846.2,139.7,846.7,139.7,846.7,139.4z M846.1,144.6c0-0.1,0.6-0.1,0.6-0.1c-0.6-0.1,0.1-0.6-0.4-0.6
			C846.7,144.3,846,144.5,846.1,144.6z M846.2,153.8c0-0.1,0-0.4-0.1-0.4C846.1,153.6,846.1,153.8,846.2,153.8z M846.7,148.1v0.4
			C846.4,148.4,846.5,148.2,846.7,148.1z M846.8,146.9c0,0.4-0.1,0.4,0,0.9C846.8,147.8,847,146.9,846.8,146.9z M847,139.3
			c0,0,0.1,0,0.1-0.1c-0.1,0-0.1,0-0.3-0.1C846.8,139.2,846.8,139.2,847,139.3z M847,145.8c0.1,0,0.1,0,0.1,0.1
			c0-0.1,0.1-0.3,0.1-0.3C847.1,145.6,847.1,145.8,847,145.8z M847.1,139c0.1-0.1,0.3-0.6,0-0.6C847.3,138.6,847,139,847.1,139z
			 M847.3,155.1c0,0.1,0,0.4,0.1,0.9C847.3,155.9,847.1,155.1,847.3,155.1z M847.4,156.7c-0.3-0.3-0.1-0.6-0.1-0.7
			C847.5,156,847.4,156.4,847.4,156.7z M847.5,137.1c0.1,0.1,0.1,0.3,0,0.4c0.3-0.1,0.3-0.1,0.1-0.4c0-0.1,0.1-0.1,0.1-0.1
			s0,0.3,0.1,0.1l0.4-1.9L847.5,137.1z M848.1,127.5c-0.3,0.1-0.4,0.3-0.4,0.3L848.1,127.5z M848,143.3c0-0.3,0.1-0.4,0-0.4
			C848,142.9,847.8,143,848,143.3z M848.4,136.3c-0.1,0.4-0.3,0.7-0.3,1.3C848.3,137.1,848.4,136.7,848.4,136.3z M848.4,137.4
			c0.1,0,0.3-0.4,0.1-0.4C848.5,137.1,848.4,137.1,848.4,137.4z M848.5,135.8v0.6h0.1c-0.1-0.4,0.4-0.6,0.6-1
			C849.1,135.4,848.7,136,848.5,135.8z M849.4,132.2c-0.1,0-0.1,0-0.1,0.1C849.4,132.5,849.4,132.2,849.4,132.2z M849.3,137.6
			c0-0.1,0.1-0.3,0.1-0.3v0.3H849.3z M849.6,136.6v-0.1c-0.1,0.3-0.1,0.4-0.1,0.6c-0.1-0.1,0-0.6,0.1-1l0.3-0.4L849.6,136.6z
			 M849.6,134.6c0-0.1,0.1,0,0.1-0.1l-0.1-0.1c0,0,0,0.1-0.1,0.3H849.6z M850.7,129.5c-0.6,0.3-0.9,0.9-0.9,1.2
			C850,130.4,850.7,129.7,850.7,129.5z M850.7,133.8c0,0.1-0.1,0.1-0.1,0.1L850.7,133.8z M851.1,132.5l0.3-0.3
			c0.7-0.6,0.7-1.4,1.2-1.9c-0.1,0.4-0.4,1.2-0.6,1.9c-0.1,0-0.1,0-0.1,0.1C851.6,132.4,851.3,132.4,851.1,132.5z M851.4,122.2
			c0,0.1-0.1,0.1-0.1,0.6C851.4,122.5,851.9,122,851.4,122.2z M851.7,129.1c0,0.1-0.3,0.3-0.3,0.4
			C851.7,129.5,851.7,129.2,851.7,129.1z M851.9,132.5v0.3C851.7,132.7,851.9,132.5,851.9,132.5z M852,128.2
			c0.4-0.9,1.2-1.9,1.7-2.9l-1.7,2.4C852,127.8,851.9,128.1,852,128.2z M852.6,120.3c0.1-0.4,0.6-1,1.2-1.3L852.6,120.3z
			 M852.9,127.6c0,0-0.1,0-0.1,0.1L852.9,127.6z M853,125.3c0.4-0.3,1.2-0.6,1.2-1L853,125.3z M853.7,129.1c0.1-0.3,0.1-0.9,0.6-1
			C854.2,128.4,854.2,129.1,853.7,129.1z M854.6,118c0-0.1,0-0.3,0.1-0.3C854.9,117.8,854.6,117.8,854.6,118z M855.3,122
			c-0.1,0.4-0.6,1-0.6,1.6C854.9,123,855.5,122.3,855.3,122z M856,122.5c-0.7,0.6-1.2,1.2-1.3,1.9L856,122.5z M855,127.1
			c-0.3,0,0.1-0.1,0-0.4C855.3,126.8,855,127.1,855,127.1z M855,117.6c0.1-0.9,0.7-1.4,1.4-2.2C856.2,116.1,855.3,116.7,855,117.6z
			 M855.2,124.9c0-0.1,0.1-0.1,0.1-0.3v0.3H855.2z M855.3,126.2c0.1-0.3,0.1-0.9,0.4-0.9C855.6,125.8,855.6,126.2,855.3,126.2z
			 M856.3,124.9c0.4,0-0.1,0.3-0.1,0.4C855.7,125.2,856.2,124.9,856.3,124.9z M857.2,121c-0.3,0.3-1,0.7-1,1.2
			C856.5,121.7,857,121.6,857.2,121z M858.5,119.7c-0.7,0.4-0.7,1.9-1.7,2c0.1,0,0.1,0.3,0.1,0.4l0.9-1.2l2.9-3.7
			c-0.6,0-0.7,0.9-0.9,0.7C859.5,118.7,858.6,118.7,858.5,119.7z M857.5,120.2c-0.1,0-0.3,0.3-0.1,0.6
			C857.3,120.4,857.5,120.3,857.5,120.2z M857.3,120c0.1-0.3,0.6-0.7,0.4-1C857.6,119.3,857.3,119.3,857.3,120z M857.9,119.9v-0.6
			l-0.1,0.3L857.9,119.9z M857.9,123.2c0-0.1,0.4-0.3,0.4-0.4C858.6,122.9,858.3,123,857.9,123.2z M858.6,118.6
			c0.3-0.3,0.9-0.7,0.9-0.6v-0.4c-0.4,0-0.1,0.3-0.4,0.1L858.6,118.6z M859.6,116.4c0-0.1,0.3-0.1,0.3-0.4
			C859.8,116.1,859.6,116.3,859.6,116.4z M859.8,117.8c0.1-0.1,0.1-0.4,0.1-0.6c0-0.3,0.1-0.4,0-0.6c-0.1,0.3-0.3,0.9-0.3,1.2H859.8
			z M860.4,116.7c0-0.6,0.3-0.6,0.4-0.4c0.1-0.3,0.1-0.7,0.6-1l-0.1,0.3c0.6-0.3,0.9-0.4,0.7-0.9c0.3,0,0.1-0.3,0.4-0.1
			c-0.1-0.3,0-0.4,0.1-0.6h0.1c0-0.1,0.3-0.1,0-0.4l-2.6,3C860.2,116.6,860.2,116.7,860.4,116.7z M860.2,120.4
			c0-0.3,0.1-0.3,0.1-0.4C860.6,120.2,860.4,120.3,860.2,120.4z M861.1,118.6c0.1-0.3,0.4-0.6,0.4-0.9c0.4,0.1,0.4-0.1,0.7-0.3
			C861.9,118,861.5,118.3,861.1,118.6z M861.9,113.7c-0.6,0.1-0.9,1-0.6,0.7L861.9,113.7z M861.5,116.8v0.1
			C861.4,117,861.4,117,861.5,116.8z M862.2,117.8c-0.1,0.3-0.3,0.7-0.7,1C861.5,118.6,861.9,118.1,862.2,117.8z M861.9,118.7
			c0.1-0.1,0.3-0.6,0.6-0.7C862.4,118.3,862.2,118.6,861.9,118.7z M862.5,116c0,0,0,0.1-0.1,0.1V116H862.5z M863.7,113.1
			c0-0.3,0.1-0.4,0.3-1.2l-1.3,1.6c0.3,0,0.4-0.1,0.7-0.4C863.2,113.5,863.5,113.1,863.7,113.1z M862.9,114.7l-0.3,0.3
			C862.7,115,862.7,114.7,862.9,114.7z M864.1,110.6c0.3,0.6-0.1,0.4-0.1,0.6c-0.4,0.1-0.6,1-0.9,0.9c0,0.1-0.1,0.3-0.1,0.6l1.7-1.6
			c0,0.1,0,0.1,0.1,0.1l-0.3,0.4c0.3,0,0.6-0.4,0.6-0.6c0-0.1-0.1,0.1-0.1,0c0-0.1,0.1-0.7,0.1-1.2c-0.3,0.6-0.3,1-0.3,1.2
			L864.1,110.6z M863.1,161.6l2-2.2C864.1,159.8,863.7,160.6,863.1,161.6z M865.1,112.8l-0.1-0.1c0-0.3,0.1-0.3,0.1-0.4
			C865.4,112.2,865.1,112.7,865.1,112.8z M866,111.8c-0.1,0-0.1,0.1-0.3,0.3c-0.3,0-0.1-0.1-0.1-0.3H866z M866.1,108.8
			c0.1,0.4-0.4,0.7-0.1,0.7c0,0,0.1-0.1,0.1-0.3c0.3,0,1-0.6,0.6-0.9C866.5,108.6,866.4,108.8,866.1,108.8z M866.7,112.8
			c0,0.1-0.1,0.1-0.3,0.1L866.7,112.8z M867.7,107.9v-0.3c0.1,0,0.3-0.3,0.7-0.6c0.6-0.3,0.1-0.9,0.4-1.3c0,0.4,0.1,0.4,0.1,1l1-1
			c0,0,0,0.1,0.3,0.1l0.1-1c0.3-0.3,0.6-0.9,0.9-1c0.4-0.4,1.4-1,1.6-1.4c-0.7,0.1-1.6,1.3-2.2,1.4c0.6-1,2-1.3,2.3-2.3
			c-2.2,1.9-4.2,3.3-5.3,5c0,0,0.1,0,0.1,0.1c-0.1,0.6-0.6,0.7-0.7,1.2C867.1,108.1,867.3,108.1,867.7,107.9z M867.3,158.2
			c0-0.3,0.1-0.4,0.4-0.4L867.3,158.2z M868.3,107.9c-0.4,0.4-0.9,0.9-0.9,1.3C867.8,108.8,868.1,108.6,868.3,107.9z M868.1,106.9
			c0-0.4-0.1-0.1-0.3-0.1c0.1-0.4,0.4-0.6,0.6-0.7C868.4,106.2,868.4,106.8,868.1,106.9z M868.3,156.7c-0.1-0.4,0.1-0.7,0.1-0.7
			C868.7,156,868.4,156.7,868.3,156.7z M868.6,125c-0.3,0,0-0.1,0-0.3C868.7,124.9,868.6,124.9,868.6,125z M869.1,154.9
			c0-0.1,0.3-0.7,0.6-1.2C869.7,154.1,869.4,154.7,869.1,154.9z M869.6,120.6c0,0.1-0.1,0.4-0.1,0.4
			C869.4,120.7,869.4,120.7,869.6,120.6z M869.6,153c0-0.1,0.1-0.3,0-0.4C869.6,152.7,869.4,153,869.6,153z M870,105.3l0.1-0.1
			C870.1,105.3,870,105.3,870,105.3z M870.4,152.4c0,0.1,0,0.6-0.3,0.6L870.4,152.4z M871.6,104.3v-0.4c-0.6,0.4-1.2,0.9-1.2,1.4
			C870.7,104.9,871,104.5,871.6,104.3z M870.4,152.3c0-0.3,0.3-0.6,0.3-0.6C870.9,151.7,870.6,152,870.4,152.3z M870.7,151.3
			c-0.1-0.4,0.1-0.7,0.1-1.2C871,150.5,870.9,150.8,870.7,151.3z M870.9,151.7c0-0.6,0.3-1.3,0.7-1.7
			C871.4,150.5,871,151.1,870.9,151.7z M871.3,105c0.6-0.4,1.4-0.4,1.3-1.2L871.3,105z M872.2,103.4c-0.4,0.1-0.6,0.3-0.4,0.6
			C872,103.9,872.2,103.7,872.2,103.4z M871.7,92.1l0.9-0.4l-0.1,0.1L871.7,92.1z M873,146.2c0,1.2-0.6,2.2-1.3,3.3L873,146.2z
			 M872.6,91.6c0.1-0.4,0.4-0.7,0.7-0.7L872.6,91.6z M873.9,90.2c0,0.3-0.1,0.4-0.1,0.4L873.9,90.2z M873.9,90.2l0.3-0.3
			C874,90.1,874,90.2,873.9,90.2z M875.5,138c0.1-0.3,0.1-0.4,0.1-0.4C875.8,137.4,875.6,138,875.5,138z M877.8,130.7
			c0.3-0.1,0.1-0.6,0.4-1C877.8,129.8,877.8,130.2,877.8,130.7z M886.7,67.9c-0.3,0-0.3-0.3,0-0.3V67.9z M886.9,67.7v0.9
			C886.9,68.5,887,67.7,886.9,67.7z M888.7,95.7c0-0.3,0.3-0.3,0.3-0.4C889.2,95.4,888.9,95.7,888.7,95.7z M892.8,90.9
			c-0.1,0.1-0.3,0.1-0.4,0.1c0.3-0.1,0.3-0.3,0.4-0.3V90.9z M894.5,89.9c-0.4,0.1-0.6,0.7-1.2,0.7c0.4-0.4,0.7-0.9,1.3-1.2
			C894.9,89.8,894.5,89.8,894.5,89.9z M894.6,90.1c0.6-0.4,1.2-0.7,1.4-0.7C895.8,89.6,895.2,89.8,894.6,90.1z M899.1,87.6
			c-0.3-0.1-2.9,1.7-3,1.7c0-0.3,2.9-1.9,3-1.9V87.6z M899.7,81.4c0.3,0,0.3,0.1,0.3,0.3C899.7,81.7,899.7,81.6,899.7,81.4z
			 M900.7,88.2c-0.1,0.1-0.3,0.1-0.3,0.1L900.7,88.2z M901.3,88.2c0.3-0.6,0.6-0.9,0.9-1C902,87.6,901.5,87.8,901.3,88.2z
			 M901.7,84.6c0,0.1,0.1,0.1,0.3,0.3v-0.3H901.7z M904.4,84.6h-0.1c0,0,0.1,0,0.1-0.1V84.6z M905.1,84.2c0.1-0.3,0.4-0.6,0.7-0.4
			C905.6,83.9,905.4,84.3,905.1,84.2z M905.6,82.9V83C905.4,83,905.6,82.9,905.6,82.9z M906.1,83.3c0.1,0.3,0.1,0.4-0.1,0.4
			C906,83.6,906,83.3,906.1,83.3z M906.9,83.3v0.6c-0.3-0.1-0.3-0.1-0.4-0.6H906.9z M907.2,83c0.1,0,0,0.7-0.1,0.7
			C906.9,83.6,907,83.3,907.2,83z M907.7,82.1c-0.1-0.1,0.1-0.4,0.4-0.4C908.2,82,907.9,82,907.7,82.1z M908.2,80.4v-0.3
			c-0.3,0-0.4-0.1-0.4,0C907.7,80.4,907.9,80.4,908.2,80.4z M908.6,80.7c0.1-0.1,0-0.6,0.1-0.7c0.1,0,0.1,0.4,0.3,0.6
			C908.9,80.7,908.7,80.7,908.6,80.7z M909,80.6c0-0.4,0.1-0.4,0.4-0.4C909.5,80.4,909.2,80.4,909,80.6z"/>
	</g>
</g>
</svg>
