<?xml version="1.0" encoding="utf-8"?>
<!-- Generator: Adobe Illustrator 20.1.0, SVG Export Plug-In . SVG Version: 6.00 Build 0)  -->
<svg version="1.1" id="Layer_1" xmlns="http://www.w3.org/2000/svg" xmlns:xlink="http://www.w3.org/1999/xlink" x="0px" y="0px"
	 width="1026px" height="201.1px" viewBox="0 0 1026 201.1" enable-background="new 0 0 1026 201.1" xml:space="preserve">
<g>
	<rect fill="#1ABCDC" width="1026" height="144.3"/>
</g>
<g>
	<rect y="144.3" fill="#38DEFF" width="1026" height="53.4"/>
</g>
<g>
	<rect y="197.7" fill="#A7F0FF" width="1026" height="3.5"/>
</g>
<g>
	<path fill="#08798F" d="M260.9,122.4c0-0.1,0.1-0.3,0.1-0.3v0.6h-0.1v0.3c0.1,0,0.1-0.3,0.3-0.1c-0.1-0.4,0.4-2,0.3-1.2
		c0,1.9-0.9,3.5-0.7,5.3c0.3-0.4,0.3-1.2,0.3-1.6c0.1,0.4,0.3,0.6,0.3,0.9c0,0-0.1,0-0.1-0.1c-0.1-0.1-0.1,0.9-0.3,1
		c0,0.9,0.1,1.6,0.1,2.6l-0.1,0.1c-0.1,1.2-0.3,2.6-0.3,3.9c-0.4,0.3-0.6,0.9-0.6,1.3c0-0.1,0.1-0.1,0.3-0.4c0,0.6-0.3,1.6-0.1,2.2
		c0-0.1,0.1-0.1,0.1-0.3c0.1,1.2-0.1,2.2-0.1,3.3c-0.1,0.4-0.1,0-0.6,0c-0.1,1,0,1.6,0,2.4c0.6-0.3,0-0.7,0.6-1.2v6.9
		c-0.1,0.3,0,0.7-0.1,1c0.1,0.4,0.4,1.3,0,1.9c0-0.4,0.1-1.3,0-1.6c-1,1.3,0.3,3.7-0.3,4.5c-0.4-0.3-0.3-0.7-0.6-1
		c-0.4,0.4,0,1.4,0,2.4c-0.3-1.3-0.4-2-0.9-2.7c-0.1,1,0.7,1.4,0.3,2.7c-0.4-1.7-0.7-3.5-0.7-5.2c-0.9,1.3-0.1,3.2,0,4.3
		c0.1,0.3,0.3-0.4,0.3,0c-0.1,0.9,0,1.3,0,1.9c-0.7-0.7-1.3-2-1.6-3.3c-0.1,0.1-0.1,0.4,0,0.6c-0.1,0.1,0-0.3-0.4-0.1
		c0.1,2.2,0,2.4,0.4,4.8c-0.4-0.9,0-0.9-0.7-1.6c-0.3,0.1,0,0.6-0.1,1c-0.3,0.3,0-0.9-0.3-1.2c-0.9,0.1-0.7,1.2-1,1.4
		c-0.1-0.7-0.4-1.4-0.7-1.9c0,1.2,0.4,1.9,0.4,2.9c-0.1-0.3-0.4-0.3-0.7-0.3c0-0.3,0.3-0.6,0.1-0.7c-0.1,0-0.1,0.1-0.1,0.3
		c-1-2.6-2.4-4.8-2.9-7.2c0,1.2,0.4,2,0.3,3.7c-0.7-1.6-0.7-3.7-1.3-5.6c0,0.3,0.3,0.6-0.1,1c-0.6-3.2-0.6-6.6-0.7-10.1
		c0.1-4.2-0.3-8.4,0-12.5c0-0.9,0.1-1.4,0.3-2c0.1-1.7-0.4-3.3,0-4.9c0-0.3,0.3-1,0.1-1.4c-0.1-0.4-0.4-0.7-0.3-1.2l0.7-3.9
		c0.6-7.1,2-15.7,3.2-22.3c0.3-0.6,0-0.6-0.1-0.7c0-0.3,0.3-0.3,0.1-0.4c0.9-4.6,2.3-9.6,3.3-13.8c1-6.5,1.4-5,2.6-10.7
		c-0.6-2.3,1.4-6,0.7-8.8c-1,0.1-2.4,1.2-3.3,0.7c-0.3,0-0.3,0.3-0.3,0.4c-0.1,0-0.1-0.1-0.1-0.4c-3.7,1-12,1.2-16.1,0.6
		c-1.6-0.1-3.6-0.6-5.2-1.7c-1.4-0.1-1.9-1.7-1.4-3.6c0.7,0,0.4-0.4,1-0.7c0.4,0,0.9-0.4,1.3-0.3c0.1-0.6,0.1-0.9,0.3-1
		c0.7-0.1,1-0.9,1.9-0.6c0.4,0.4,0.4,0.7,0.6,1.4c0.4-0.4-0.1-0.6-0.1-1c0.6-0.4,0.7,0.1,1,0c0.1,0-0.1,0.1,0,0.3
		c0.3-0.7,1.3-1,2.2-1.2c0.1,0.6,0.4,0.1,0.4,1c0.3,0.1,0.3-0.1,0.6-0.1c0,0.1,0,0.3,0.3,0.3c0.6,0,1,0,1.3,0.3
		c9.4-0.9,20.7-5,29.7-6.5c0-0.1,0.1-0.1,0.1-0.3c7.9-1.4,17.3-2.2,25.9-0.1c0.6,1.2,2,0.1,2.7,0.4c0.1,0.7-0.1,0.7-0.1,1.2
		c-0.3-0.1-0.4,0-0.6,0c0.1,0.4,0.6,0.6,0.7,0.9c-0.3,0.6-0.6,0.6-0.7,1c-0.4,0-1.4,0-1.3,0.4c-3.3-1-1.2,1-3.6,1
		c0.3,0.4,1,0.3,1.4,0.3c0.1,0.3-0.3,0-0.3,0.1c1.4,0.7-2.6,0-1,0.3c-0.9,0.4-1.9-0.1-2.3,0.4h0.7c-1.3,0.6-2.6,0.6-3.3,0.7
		c-3.9,0.3-8.1-0.7-11.2,0.6c-1.7,0-4.2,0.7-6,1.3c0.3,0.4-0.6,0.4-1,0.7c0.1,0.4,0.3-0.1,0.6,0c0.3,0.7,0.7,1.2,1.2,1.6
		c0.6,1.3,0.9,3,0.6,4.8c-0.3,1.9-0.7,3.6-1.3,5.2c-0.3,3-1.2,1.2-1.6,4.3c-1,5-2,6.9-3.2,11.7c-0.9,3.3-1.3,6.9-2.2,9.8
		c0.3,1.7-1,3.5-1.2,5.3V97c-1.2,3.2-1.4,7.2-1.9,10.8c0-0.1,0.1-0.1,0.1-0.4c0.3-0.1-0.1,0.7-0.1,1h-0.1c0,0.3-0.1,0.3-0.1,0.4h0.1
		c0,0.1-0.1,0.1-0.1,0.4c0.1,0.7,0.1,2-0.4,2.7c0.6-0.4-0.3,1.2,0,1.7c0.1,0,0-0.4,0.1-0.7c0.1,1-0.3,2.3-0.3,3.3
		c0.3,0.7-0.3,1.9-0.1,2.6h-0.3c-0.3,4.3-1,8.6-0.7,12.1c-0.4,0,0-1.6-0.3-2.2c-0.1,0-0.1,0.6-0.4,0.6c0.3-1.3,0.1-2.7,0.3-4
		c0-0.3-0.3,0.1-0.3,0l0.7-5.8c-0.3,0-0.3,0.9-0.4,0.9c0-1-0.1-1.9,0-2.6c0-1.3,0.3-2.4,0.7-3.5c-0.6,0.4-0.7,1.2-0.7,1.6
		c0,0-0.1,0-0.1-0.1v0.7l-0.1,1c-0.1,0.1-0.1,0.3-0.1,0.3c-0.3,0.7,0,1.3-0.1,2.4c0,0.3-0.1,0.1-0.1,0.1c0,0.4,0,0.1,0.1,0.3
		c0,0.1-0.1,0.4-0.1,0.7C260.9,121.6,260.9,122.2,260.9,122.4z M247.6,129.4c0.1,0,0.1,0.4,0,0.6
		C247.4,130.1,247.6,129.6,247.6,129.4z M249.5,151.4l-0.1-0.1C249.4,151.2,249.5,151.2,249.5,151.4z M249.8,152.1
		c0.1,0.1,0.3,0.4,0.3,0.7C249.8,152.5,249.9,152.2,249.8,152.1z M255.9,151.8c0.1,0-0.1,0.7,0.1,0.7
		C256.3,152,256.1,151.7,255.9,151.8z M256.7,155.4c-0.1-0.3-0.3-0.7,0-1.4V155.4z M257.1,142c0-1,0.4-2.3-0.3-3.5
		c0.1,2.6,0.1,4.9,0.1,7.3c0,0,0.1-0.1,0.1-0.3L257.1,142L257.1,142z M258.6,147.5c0-3.3-0.3-6.5,0-9.9c-0.3,0-0.3-0.3-0.4-0.3
		c0,2.2,0.1,4.5-0.3,7.2c0,0.1,0,0.6,0.1,0.7C257.9,146.1,257.9,146.8,258.6,147.5z M259,150.7c0.3-1.4-0.9-2.2,0.6-3.7
		c-0.1,0-0.1,0.1-0.3,0c0.3-0.3,0.1-0.9-0.1-1c0.1-1.7,0.1-3.6-0.1-5.8c0,0.3-0.3,0.9-0.1,1c0,0,0.1,0,0,0.1
		c-0.3,2.3,0.1,4.5-0.3,6.8v-0.6c-0.3,0.4-0.4,0.3-0.6,0.6c0.4,0.7,0.1,2.6,0.4,3.2c0.4-0.7,0.1-1.7,0.3-2.2L259,150.7z M258,144.3
		c0.3,0,0.1-0.7,0.1-1c0.3,0.4,0.1,1,0.1,1.6C258,144.9,258.3,144.5,258,144.3z M259,139.3c0.3-0.7,0.3-1.4,0-2V139.3z M259.5,149.1
		c0.1-0.1,0.1-0.9-0.1-1.2C259.2,148.4,259,148.9,259.5,149.1z M260,140.2c0.4,0,0.3,0.9,0,0.9C260,140.7,259.6,140.7,260,140.2z
		 M260.5,134.4v0.6c0-0.1-0.1-0.1-0.1-0.3L260.5,134.4z M260.3,136.6l0.1-1.6C260.6,135.3,260.6,135.8,260.3,136.6z M260.5,130.9
		c-0.1-0.3,0.3-1,0-1C260.3,130.4,260.3,130.6,260.5,130.9z M260.5,134.4v-0.1h0.1L260.5,134.4z M260.5,146.3
		c0.1,0.3,0.4,0.6,0.3,1.2C260.5,147.1,260.5,146.8,260.5,146.3z M260.7,142.5c-0.1-0.4-0.3-0.9-0.1-1.3
		C260.7,141.4,260.7,141.9,260.7,142.5z M261,132.5c0.1,2.4-0.1,5.6-0.4,8.6C260.5,138.6,260.9,135.1,261,132.5z M260.9,131.8
		c0.1,0,0.1,0.7,0,0.7S260.7,132.2,260.9,131.8z M261,130.8c0.3,0-0.1,0.7-0.1,0.9C260.7,131.7,260.9,131.4,261,130.8z M261,122
		c0-0.1,0-0.3,0.1-0.4C261.2,121.7,261,121.9,261,122z M261.2,142.7c0-2-0.3-4.3,0.3-7.3c-0.1,3.5,0,6.6-0.4,10.2
		C261,144.9,261,144,261.2,142.7z M261.5,118.7c0.3,0.3,0.1,0.4,0.1,0.9C261.5,119.1,261.6,119,261.5,118.7z M261.5,121l0.1-1.4
		C261.6,120.1,261.8,121,261.5,121z M262,132.7c-0.1-1.3,0.7,0.4,0.1,1.6C262.2,134.2,262,132.8,262,132.7z M262,117.3
		c0.7-0.9,0.9-1.7,1-3.2C262.2,115.2,262.6,116.2,262,117.3z M262.6,131.8c0.1,0,0.1,0.4,0.1,0.7C262,132.5,262.6,132.1,262.6,131.8
		z M262.9,131.1c-0.3,0-0.3-1,0-1C262.8,130.5,262.8,130.9,262.9,131.1z M265.6,100.1c0,0.4-0.3,1-0.1,1.2
		C265.2,101.1,265.5,100.4,265.6,100.1z"/>
	<path fill="#08798F" d="M329.3,128.8c-0.3,0-0.4,0.9-0.7,0.6c0.1,0.3,0.3,0.3,0.1,0.4c-0.6-0.4-1,1.7-1.7,1.6
		c-0.1-0.3-0.1,0.1-0.6,0.1c0,0.1-0.1,0.3-0.3,0.6c-0.1,0-1,0.6-1,0.7c-0.4,0-0.6,0.1-0.7,0.6c0.4,0.3,0.4-0.4,0.9,0
		c-1.2,0.9-3,1.3-4,2.2c-0.1,0.1-0.4,0.1-0.6,0.1c-0.1,0.4-0.7,0.4-1.2,0.4l0.7-0.3H319c0.1,0,0.3,0.3,0.4,0.3
		c-1.4,0.1-3.3,0.3-4.8,0c0.1-0.3,0.4,0,0.7-0.3c-0.1,0-0.1,0,0-0.3c-0.9,0-1.4-0.6-2.3-0.1c-0.3,0-0.1-0.4-0.3-0.4
		c-0.3-0.1-0.3,0-0.4,0c-0.9-1.2-2.2-2-2.9-2.9c-1.6-2.4-2-6.2-1.9-9.6c0.6-5.3,2.6-11.5,4.2-16.7c0.7-1,1-2,1.3-3.2
		c2.9-6.6-1.2-4.6-2-3.9c-0.7,0.6-1.3,1.2-1.7,1.3l-0.4,0.6l-0.7,0.4c-0.4,0.3-0.9,1.3-1.2,1.4c-2,2-4,3.9-5.6,6.3
		c-0.1,0-0.1,0.4-0.6,0.4c-0.4,0.3-0.9,0.6-1,1.2h0.1c0,0.1-0.1,0.3-0.1,0.4v-0.4c-0.1,0.1,0,0.4,0,0.6c-1.6,1.9-2.7,3.6-4.2,5.5
		c-0.7,4.8-0.4,6.6-1.9,11.8c-0.3,1.2-0.1,3.6-1.9,3.9c-0.3,0.7-0.3,0.7-0.3,1.3h-0.3l-0.6,1.3c-0.1-0.3-0.1-0.4-0.4-0.6
		c-0.3,0,0,0.1-0.1,0.1c-0.1,0.1,0-0.1-0.1-0.1c-0.4,0.3-0.3,0.7-0.3,1c-0.3-0.1-0.3,0.4-0.3,0.4c-0.1,0-0.1-0.1-0.4-0.4
		c-0.1,0.4-0.9,0.7-0.9,1.3c-0.1,0-0.3-0.3-0.3-0.3c-0.4,0.3-2.3,0.3-2.6,0.4c-1.3-0.4-2.2-0.1-3.5,0.4h-0.4c-0.1,0,0.6,0.4,0.4,0.6
		c-0.3,0.1-0.3-0.3-0.7-0.1c-0.3-1.6-0.9-3.3-0.3-5.6c-0.4-0.1-0.4,0.3-0.4-0.1l0.4-3c0.1-0.3,0.3-0.7,0.1-1
		c0.1-0.9,0.3-1.6,0.3-2.3c0.3-1.6,0.1-2.9,0.1-4.8c0.4-1.7,0.7-3.7,0.9-5.5l0.4-4.8l0.3-1.4c0.4-1.4,2.3-7.8,3.5-14.7l0.6-2.7v-1.3
		l3.7-14.3c0-0.9,0.3-1.3,0.3-1.7c0.4-0.4,0.4-1.6,0.4-2c0.9-2.6,1.6-4.5,1.7-5.2v-0.3c0.3-1.7,1-3.3,1-4.9c0.6,0,0.1-0.3,0.6-0.4
		c1.3-3.5,3.5-3.5,5.6-4.6c0.4,0,1,0.1,1.6-0.4c0.7,0.6,1,0.6,1.9,0.7c1.6,0.4,3.2,1.3,3.2,3.2c0,0.7-0.3,1.6-0.3,2.6
		c0,0.6,0,1.2-0.1,1.6c0,0.9-1.6,4.9-2.7,9.6l-0.6,2.3l-0.6,1.7c-0.1,0.9-0.1,1.3-0.4,2c-0.3,2.4-0.4,1.6-0.9,4.3l-0.1,0.7
		c-0.6,0.7-0.7,1.7-0.7,2.9c-0.4,2.6-0.7,5.5-1.4,7.6c-1.3,5.6-2.3,11.2-2.4,12.4c1.2-0.9,2.7-2.7,3.6-4.3c1.6-1,2.7-2.6,3.6-4
		l3.2-2.7c0.6-1,1.2-1.4,2-2.4c3.3-2.4,5.9-4.9,10.5-6c0.1,0,0.3-0.3,0.6-0.4c0.9,0.1,1.9-0.4,2.7,0.3c0.4-0.4,1.4,0.1,1.9,0.3
		c0.3,0,0.3,0.4,0.3,0.4c0,0.7,1,0.1,1,0.9c-0.4,0-0.4-0.1-0.7-0.1c0.1,0.3,0.3,0.6,0.9,0.3c-0.1,0.9,0.4,1.4,1.2,1.7
		c0.1,0.6,0.1,1.2,0.1,1.7V95c-0.1,0.6-0.1,2.2-0.6,2.7l-1.4,4.6c-3.2,7.6-6.9,17.3-6.2,23.2c-0.1,1.4,0.6,2.7,1.4,3.9
		c2.3,1,3.3-1,5.2-2.4c-0.1,0.3-0.3,0.6-0.3,0.7c1.2-1.4,1.7-2.6,3.2-4.2h0.4c0.6-0.9,1.4-1.2,2.4-3c0.1,0.1,0.1,0.1,0.1,0
		c1.2-1.3,2.9-2.4,3.9-4c0.7-1,1.6-2.4,2.6-3.2c1.6-2.4,3.7-4.9,5-7.9l1.2-1.6c0.1,0,0.1,0.1,0.3-0.1c0-0.9,0.7-1.3,0.6-2.2h0.3
		c0.6-1,1.4-1.9,2-3.2c0.1-0.3,0.1,0,0.3-0.1c0-0.4,1.2-0.9,1.3-1c0.6,0.4-0.1,1.7,0.4,2.3c1-0.4,0.6-2.2,1.4-2.6
		c0,0.1,0.1,0.1,0.1,0.1v-0.7c0.3,0-0.1,1,0.4,1c-0.1,0.3-0.3,0.4-0.3,0.6c0.1,0.1,0.1-0.1,0.3-0.3c-1.4,4.9-4,9.1-6.6,13.2
		c-0.4,0.1-0.9,0.9-1.2,1.6c-0.1,0.3-0.3,0.7-0.6,0.7c-1.2,2.2-2.9,4-4.8,6c0.1,0.1,0,0.6-0.1,0.9c-0.3,0,0-0.3,0-0.4
		c-0.3,0-0.3,0.4-0.4,0.9c-0.3-0.7-0.6,0.1-0.4,0.4c-0.6-0.1-1.2,0.6-0.7,1c-0.4,0,0-0.1-0.4-0.3c-0.3,0.3-0.6,0.9-0.7,1.3
		c-0.1,0.3-0.4,0.4-0.6,0.4c-0.3,0.9-1.4,1.7-2.3,2.4c-0.6,0.4-1.2,1.2-1.6,1.9v0.1l-0.1-0.1C330.6,128.2,329.9,128.5,329.3,128.8
		h0.1c0,0.3-0.1,0.3-0.1,0.3V128.8z M315.8,135.5c0.4,0,0.4,0,1-0.6C316.5,134.4,316.2,135.4,315.8,135.5z M320.2,135.8l0.4-0.1
		C320.5,135.7,320.2,135.8,320.2,135.8z M327,132.8c0.1-0.3,1.4-1,1.9-1.3C328.7,132.2,328,132.5,327,132.8z M329.9,129.6
		c0,0,0-0.6,0.1-0.4C330.2,129.2,330.2,129.4,329.9,129.6z"/>
	<path fill="#08798F" d="M381,109.6c-3.2,4.2-15.6,18-21.9,21.7c0,0,0,0.1,0.1,0.1c-2.2,1.4-4.3,2.4-6.9,2c-0.1,0-0.4-0.1-1.2,0
		c-2-0.9-3.5-0.1-5.2-1.2c-0.7,0-1.6-0.3-1.9-0.3c-1.9-0.3-0.9-1.3-2.6-2.2c-2.4-3-3.5-6.8-2.6-12.4c0.9-3.6,0.3-7.1,1.6-10.2
		c0.1-0.1,0.3-0.1,0.3-0.4l-0.1-0.3c2.4-4.9,2.6-7.1,4.8-12.1c0.6-0.9,0.9-1.7,1.2-2.7l1-1.2c0.9-2.4,2.2-4,4-6.2
		c0.6-0.7,1.3-1.6,1.7-2.6c0.1-0.6,0.7-1.2,1.6-1h0.4c0.4-1,1.3-1.2,2-1.6c0.6,0,0.9,0.1,1.3,0.3c0.3-0.4,0.9-0.4,1.2-0.3
		c0.4-0.1,0.6-0.1,1.3,0c0.1,0,0.6-0.1,0.6-0.1c0.1,0.1,0.3,0.4,0.6,0.6c0.4,0.3,0.7,0,1,0.4c0.1,0,0.6,0.1,0.9,0.3
		c0.1,0,0.1-0.3,0.4-0.1l-0.1,0.7c0.3,0,0.3-0.1,0.4-0.1c0.3,0.1,0.4,0.4,0.7,0.4v0.1c4.2,2.7,4.8,9.1,2.7,14.3v0.3
		c-1.7,2.2-2.6,4.5-3.9,5.9c-0.1,0.9-1.3,1.3-1.6,1.9c-2,1.4-3.7,4-6.3,5.3c-0.7,0.6-3.6,1.7-4.8,2.4c-2,3.3-1.6,1-2.3,6
		c-0.4,2.6-1.4,5.5-1.2,7.8c0.3,1.9,1,2.7,2.6,3.5c2.7-0.6,4.9-2.2,7.1-3.9c0.3,0.1,0.3-0.1,0.7-0.1c1.4-1.2,3.6-2,4.6-3.7l0.4-0.4
		h-0.1c0.7-0.7,1.9-0.9,2.4-2.2v0.1c0.3-0.1,1.3-0.6,1.2-1.4c0.1,0.1,0.1,0.1,0.3,0.1V117c0.6-0.6,1.2-1.4,1.6-1.6
		c4.8-4,7.1-8.6,13.2-13.4c0.6-0.3,1-1.2,1.3-1.4c0.6-0.1,0.9-1.2,1.4-1.9c0.3,0.4,0.7,0.9,1,0.4c0.1,0.1,2.4-2.3,2.3-2.2
		c0.1,0.1,0.4,0.1,0.6,0c0,0.1-0.1,0.1-0.3,0.3c0.1,0,0.3,0.1,0.4,0c-0.1,0.1-0.1,0.6-0.4,0.6c-0.4,0.4-1.4,1.9-1.2,1.7
		c-0.1,0.4-1.3,1.3-1,2.2c0,0.1,0.3-0.9,0.6-0.9l0.9-0.9c-0.3,0.9,0.4-0.4,0.4,0.4c-0.1,0-0.9,0.9-1,1.2l0.1-0.1
		c0,0.1-0.1,0.1-0.1,0.1c-0.7,1.4-1.7,2.6-2.7,3.3c-0.1,1.3-0.7,1.4-1.2,1.7c0-0.3,0.6-0.3,1-1c-0.7,0.6-1.2,0.7-1.2,1
		c-0.6,0-0.7,0.6-0.7,0.9v0.3c-0.4,0.1-0.6,0.7-0.9,0.9C381.8,108.5,381.6,108.9,381,109.6z M340.4,115.1c-0.3,0.4-0.3,0.7-0.4,1.3
		v0.1c-0.3,1.2-0.4,2.6-0.6,3.9c0.4,0.6-0.1,1.2-0.1,1.6l0.4,1.6c0,2.7,0.9,5.6,3.5,7.5c-0.4-0.4-0.7-1.2-0.9-1.3
		c-0.9-2.2-2-3.6-2-5.9c0-2.7,0.4-5.9,1.3-9.1c0-0.9,0.4-2.4,0.3-3.2c-1.4,0.4-1.3,1.6-1.3,2.3C340.5,114.2,340.4,114.7,340.4,115.1
		z M357.5,102.9c2.6-1.4,4.2-3.7,5.3-6.8c-0.3-0.1-0.4-0.1,0.1-1l1-5.5c-0.3-0.6,0.1-1.4,0-1.7c-0.6,0.1-1,0.3-1.7,1.2
		c-0.7,1.2-1.7,3-3,4.2l-1.3,1.9c-1.3,2.7-3.7,8.9-4.8,12.1c0.7-0.6,3.6-3.3,3.9-4.3C357.1,102.9,357.5,103.1,357.5,102.9z
		 M381,109.6h0.1H381z M381.1,109.6l1.3-0.6C382.1,109.3,381.6,109.5,381.1,109.6z M384.4,106.6c-0.1-0.3,0.7,0,0.7-0.1
		C385.4,106.6,384.6,106.6,384.4,106.6z M385.9,105.7c-0.1-0.3,0.1-0.7,0.4-0.9C386.3,105,386,105.4,385.9,105.7z M386.2,103.7
		c0.1-0.4,0.4-0.4,0.4-0.6C386.7,103.1,386.5,103.7,386.2,103.7z M388.3,99.5l-0.4,0.4v-0.1L388.3,99.5z M388.8,99.1
		c0,0.1-0.3,0.4-0.4,0.6v-0.3l0.1-0.1v0.1L388.8,99.1z M389,98.1c0.3-0.1,0,0.1-0.4,0.7L389,98.1z"/>
	<path fill="#08798F" d="M446.8,148.2c0.4,0.1,0.7,0.3,1,1.2c-0.7,0,0.1,0.1-0.9,0.1c-0.3,0.4,0.1,0.1-0.3,0.7c-0.4,0.4-1.6,0-2.3,0
		c-0.4,0.4-4.9,0.4-5.5,0.4c-0.1,0.1-0.1,0.1-0.1,0.3l0.9,0.6c-0.1,0.1,0.3,0.1,1,0v0.1c-0.3,0-0.3,0-0.3,0.1
		c-0.6,0.4-0.9,0.1-1.6-0.1c-5.2,0-9.9,2.9-15.6,4.5c-0.4-0.6-1.6,0-1.7,0.3c-0.1,0-0.1-0.1-0.1-0.1c-1.6,0.3-3.3,0.4-4.3,0l0.1,0.1
		c-0.4,0.3-0.4-0.3-1-0.3c-0.3,0-2.4,0.3-2.7,0.3c-0.9,0-2.2-1.3-2.6-2.2c-1.7-0.1-3.9-0.9-4-2.6c0-0.3,0.1-0.9,0.1-1.2
		c0-1.7-0.1-3.2-0.1-4.9c0-0.3,0.1-0.7,0.1-1.2c0.9-6.5,2-13,3.2-19.3c0.4-3.7,0-4.8,0.6-8.4l1.9-9.6c1.2-7.1,2.3-10.7,3.6-17.4
		c1-3.5,1.6-4.3,2.3-7.6c1.2-4.6,1.9-5.2,3-9.6L422,69c0.1-0.3,0.7-0.9,0.7-1.3c0.7-3.7,2.2-7.2,2.9-11.1c0.9-0.7,1-1.9,1.2-2.6
		c0.4-1.3,1-2.4,1.3-3.7c0.4-1,1-1.9,1-3.3c0.6-0.3,0.7-1,0.9-1.7c0.1-0.1,0.9-0.3,1-0.3c0.6-1.3,1.7-2.2,3.5-2.7
		c1.3,0.1,4.3,1.2,5.6,1h0.1c0,0.1-0.3,0.1,0.1,0.4c0.4,0.4,0.9,0.6,1.3,0.9c0.3,0.1,0.4,0.1,0.7,0.4c0.9,0.7,2.3,2.3,2.3,4
		c0,1.4-1,2.9-1.2,4.8c-0.4,0.1-0.9,0.7-0.4,1.3c-0.4,0.3-0.9,0.9-0.9,1.6c-0.3,0.1-0.1,0.6-0.4,0.7c-4.6,14.7-7.1,19.7-10.7,35
		c-1.9,9.5-4.2,18.6-5.5,28.4c-0.1,0,0.1,0.4-0.1,0.3c0.3,0.6,0.3,1.6-0.6,1.6c-0.1,0.3,0.7,0,0.4,0.3c-0.4,0.4,0,0-0.4,0
		c-0.3,0.6-0.1,1.3-0.3,2c0.1,0,0.3,0,0.3-0.1c-0.1,0.6-0.3,1.3-0.1,2c-0.4,0.4-0.9,0.9-0.7,1.6c0,0.3,0.1,0,0.3-0.3
		c0,0.7-0.1,1.7-0.3,2.3c-0.3,0-0.3-0.1-0.3-0.1c-0.1,0.4-0.3,0.7-0.1,0.9c0-0.3,0.3-0.3,0.4-0.6c0.1,0.6-0.3,1.3-0.6,1.6
		c0.1,0.1,0.1,0.4,0,0.9c0.3-0.6,0,0.3-0.3,0.4c0,0.1,0.1,0.1,0.1,0.1c-0.1,0.3-0.1,0.7-0.1,1.2c0.3-0.6,0.3-1.2,0.6-1.6
		c-0.1,0.7,0.1,2.4-0.7,2.9c0,0.4,0.4-0.1,0.3,0.3c-0.1,0.3-0.1-0.1-0.3,0c-0.3,0.6-0.3,1.4-0.6,2c0.3,0.1,0.3-0.3,0.6-0.3
		c0,0.4-0.6,0.4-0.9,0.7c0,1-0.1,1.9-0.3,2.3c0.3-0.6,0.4-1.3,0.9-2.2c-0.3-0.3-0.3,0.1-0.4,0c0-0.1,0.4-0.1,0.7-0.4
		c-0.1,0,0.1-0.1,0.1-0.4c0.1,0,0,0.4,0,0.4H423c-0.1,1.9-0.6,3.2-0.9,4.8h0.1l-0.1,0.1c-0.1,1.2-0.1,2.6-0.1,4
		c5-1.6,5.8-2.4,11.5-2.3c0.7,0,1.4-0.1,2,0c0.1,0,0.7-0.1,1-0.4c1.6,0.6,0.6,0,2.7-0.1c2.3-0.1,5,0.1,6.3,2
		c0.3,0.4,0.1,0.9,0.3,1.2L446.8,148.2c-0.1-0.1-0.3-0.3-0.4-0.3v-0.1c0.4,0,0.4,0,0.9,0.1C447.1,148.2,446.9,148.2,446.8,148.2z
		 M421.7,156.4c0.1-0.1,0.4-0.3,0.6-0.3C422.5,156.4,422,156.3,421.7,156.4z M423.9,133c-0.3,0-0.3-0.9,0.1-0.7
		C423.7,132.4,424,132.8,423.9,133z M424.9,124.7c0.1-0.3,0-1,0.4-1.3C425.3,123.9,425,124.2,424.9,124.7z M447.2,148.4
		c0.1-0.4,0.3-0.4,0.4-0.1C447.7,148.4,447.5,148.2,447.2,148.4z"/>
	<path fill="#08798F" d="M506,99.3c0,0.1,0.3-1,0.6-1.2c-0.1,0.6-0.3,0.7-0.3,1.2c0.3-0.4,0.4-1,0.4-1.3h0.3c1-1.9,1.9-3.3,3.2-4.9
		c-0.1,1.3-1.2,1.4-0.7,2.3l0.9-1.2l-1,1.9H509c-0.6,1.3-1,2.7-2.3,3.7c0.1,0.1,0,0.1,0.3,0.3l-1.7,3.6c0.3-0.1,0.4-1,1-1.2
		c-0.1-0.3,0.1-0.6,0.1-0.9c0.3,0.1,0,0.3,0,0.6c1.2-0.7,1.2-2.4,2-3.2c0.1,0.4-0.3,0.7-0.1,1c-0.6,1.7-1.7,2.6-2.2,4.5
		c-0.3,0.1-0.1,0.4-0.4,0.6c-0.6,1.6-9.4,12.8-10.1,14.3v0.4c-0.3,0.1-0.3,0.4-0.4,0.6l0.4-0.4l-0.9,1c-0.1,0.1-0.1,0.3-0.4,0.3
		v-0.1c-0.1,0.1-0.4,0.4-0.1,0.6c-0.6-0.1-0.7,0.9-0.6,1h-0.3v0.3c-0.6,0.1-0.7,0.4-0.9,0.7l-0.3,0.7c-0.4,0.4-1.3,1.2-2.2,2.2
		c-0.3,0.6-1.2,0.7-1.3,1.3c1-0.7,2.2-1.7,3.3-2.9c-1.3,1.6-2.3,2.7-4.5,3.7c0.1,0.4,0.3,0.3,0.3,0.3c-0.1,0.3-0.7,0-1.2,0.1h0.3
		c-0.3,0.4-0.6,0-0.7,0.4c0.1-0.4-0.1-0.6-0.6-0.4c-0.1-0.1-0.1,0.1-0.3,0.1c-1.3,0.3-2.9,0.3-3.7-0.1c-0.1,0-0.1,0.1-0.1,0.1
		c-0.4,0-0.6-0.3-0.9-0.3c-0.6-1-1.7-1-2.4-1.4c-0.4-0.3-1.2-2-1.3-3c-1.4-4-1.3-10.1-1.4-14.5c-1.7,2.9-3.3,5-5.3,7.6
		c-0.1,0.1,0,0.1,0,0.3c-1.9,2-3.3,4.5-5.3,6v0.4c-1.3,1-2.7,1.6-4.5,2.2c-1.3,0.6-2.9,0.7-4.3,0.7c-1.4,0.1-2.4-0.1-3.6-0.3
		c-0.9-0.3-2.4-0.7-3.3-1.2c-2.3-1.4-2.2-7.3-1.7-10.8c0.7-6.2,2.7-12.5,5.2-17.6c1.3-2.7,2.6-5.2,4.2-7.6c0.6-0.9,0.9-2.3,1.7-3
		c2-2.7,4.5-5.3,7.2-7.5c2-3,10.8-2.2,9.5-2.2c0.3,0.1,0.4,0.4,1,0.4c0.1,0.1,0.1,0.3,0.9,0.1c0.6,0.4,1.3,0.4,1.9,1.2
		c0.7,0.1,0.9,1.2,1.7,1.2c2.6,1.4,3.7,2.3,6.3,3.9c0,0.4,0.1,0.4,0.1,0.9c0,0.3-0.7,0.4-1.2,0.9c-0.9,0-1.3,0-2.2,0.3
		c-0.1,0-0.6-0.3-0.9-0.4c-0.6-0.1,0.1,0.4-0.6,0c-1-0.3-2-0.4-3-0.9c-0.9-0.3-1.7-1.2-3.2-1.4c-0.9-0.3-2.2-0.6-3-0.4
		c-0.4,0-0.9,0.4-1.4,0.7c-2.9,3-5.3,6.5-6.9,9.6c0,0.3-0.1,0.3-0.1,0.4l-1.9,3.7c0,0.3,0,0.9-0.4,1.7c0,0.1-0.3,0.4-0.3,0.4
		c-0.6,1-1.3,2.6-1.6,3.6c-0.6,1.2-1,1.9-1,2.6c-1.2,3.9-2.3,7.9-2,13.2c2.6-2.4,4.5-5.2,6.3-7.6c0.9-1.9,2.6-3.2,3.2-4.9
		c2.2-2.3,3.7-5.2,5.3-7.6c0.1-0.6,0.1,0,0.3,0c1.4-2.9,4.6-6.2,5.2-8.9c0.3,0,0.3,0.3,0.6,0.1v-0.6c1,0,1-1.2,2-0.9
		c0.3-0.4-0.1-0.6-0.1-1c0.3,0,0.6,0.1,0.7,0.1c0-0.3,0.4-0.3,0.6-0.3c0.6-0.1,0.1-0.1,0.1-0.3c0.4,0.1,0.6,0.3,1,0.3
		c0.4-0.7,1.7-0.1,1.9,0.3c0.1-0.1,0-0.4,0.3-0.4s0,0.4,0.1,0.6c0.6-0.1,0.1-0.6,0.1-1c0.6,0.6,0,1.4,0.9,1.7c0,0,0.1-0.4,0-0.6
		c0.4,0.1,0.1,1,0.7,1.7c0.4,0.1,0.7,0.7,0.7,1.4c0,0.9-0.7,3-0.7,3.9c0.3,2.3-0.7,4.8-1.2,7.1c-0.6,1.6-0.7,3-0.9,5
		c-0.6,4-1,6.8-0.3,11.4c-0.3,1.3,0.1,2.7,0.3,4.3c1.3-0.6,1.6-1.7,2.7-2.3c1.2-1.6,3-2.9,4-4.9c1.3-1.3,7.8-10.4,9.5-12.1
		c0.1-0.6,0.6-1.6,0.9-1.2c0.9-0.6,1.3-2.3,2-3c0.4-0.7,1.2-1.4,1.4-2.2c0-0.3,0.1-0.6,0.3-1.2c0.1,0,0.4-0.4,0.9-0.6
		c0.3,0.4-0.4,1.2-0.6,1.6c0.4,0.3,0,0.9,0.1,1h0.1c-0.4,0.6-0.7,1.2-0.7,1.4C505.5,99.5,505.8,99.5,506,99.3z M475.7,108.6
		c-0.9,0.7-1.3,1.9-2,3.5L475.7,108.6z M474.9,108.5c0.4-0.3,0.6-0.4,0.4-0.9L474.9,108.5z M475.6,107.5c-0.1,0-0.4,0-0.1,0.1
		L475.6,107.5z M493.3,123.6c0-0.1,0-0.1,0.1-0.4C493.4,123.4,493.3,123.4,493.3,123.6z M506.1,98.1l0.3-0.6
		C506.4,97.8,506.3,98,506.1,98.1z"/>
	<path fill="#08798F" d="M509.7,119.7l0.4-0.7l1.2-1.9c-0.6,0.3-1,1.4-1.6,1.4c0-0.1,0.1-0.1,0.1-0.3h-0.1c0.6-0.9,1.6-1,1.9-2.4
		h0.4c-0.4-0.3-0.6,0-0.7,0.3H511c0,0.1-0.1,0.9-0.4,1.2c0,0.1-0.1,0-0.1-0.1l-1.3,1.3c0,0.1,0.4-0.1,0.4-0.1c0,0.3-0.4,0.7-0.4,1.2
		c-0.4-0.3,0.3-0.4,0-0.9l-3,4.8c0.1,0,0.9-0.9,1.2-0.9c-0.1,0.3,0,0.3,0,0.1c0.1,0.1-0.1,0.6-0.3,0.6l0.1-0.3c-0.9,0.3-1,1.2-1.2,1
		c0,0.1,0.1,0.1,0,0.3c0,0.1,0,0.3-0.1,0.3c0.1-0.1,0-0.4,0-0.4c0,0.1-0.1,0.1-0.1,0.4v0.1c-0.7,1.7-2,3.5-2.4,5.8
		c0.6-1.3,1.3-2.9,1.9-3.3c-0.4,0.7-1.3,1.7-1.7,3.3h0.6h0.4c0.1,0.1,0.1,0,0.1-0.1c0.3,0.1,1,0,1.6-0.1l4.9-1
		c-0.1-0.1,0-0.1,0.3-0.1c0,0.4,1.2,0.4,1.4,0c-0.3,0-0.3,0-0.4-0.1h0.4c0,0.1,0.1,0.3,0.3,0.1c0.9,0.9,0.9,0.3,0.9,0
		c3.7-0.4,7.6-1.4,11.5-1.2c1.4-0.3,4,0,5.8,0.1l0.3,0.6c0.4-0.3,0.4-0.6,1-0.3c0,0.3-0.4,0.3-0.6,0.3c0,0.1,0.1,0.1,0.6,0.1v-0.1
		c0.3,0,0.6,0.3,0.6,0s-0.4,0-0.4-0.6c0.4,0.3,1,0.3,1.2,1c0.6,0,1.3,0.4,1.6,0.9c-0.1,0.3-0.3,0.3-0.4,0.4c0.3,0.1,0.4-0.1,0.6,0.1
		v-0.1c0.1-0.1,0.4,0.1,0.3,0.3h0.3c0,0.3,0.1,0.3,0.1,0.4c0,0-0.4-0.4-0.3,0c-0.1-0.4-0.4-0.4-0.9-0.4c0,0.3,0.4,0,0.4,0.4
		c0,0-0.4,0.1-0.6,0c-0.3,0.3,0,0.1,0.1,0.3c-0.1,0.4,0.4,0.1,0.4,0.6c-0.6-0.3-1.3-0.3-1.4-0.6c-0.1,0-0.3,0.3-0.1,0.3
		c0,0.1-0.3-0.1-0.1-0.3c0-0.1,0,0-0.1,0c0,0,0-0.1,0.1-0.1c-0.1-0.1-0.9-0.1-0.9-0.3c-0.3,0-0.4,0.1-0.9,0.1v0.1h0.6
		c0,0.6,0.4,0.6,0.6,1c-0.4-0.4-1.3-0.9-1.9-0.7c0,0.3,0.4,0.3,0.4,0.3c-0.7,0.4-1.2-0.3-2.2-0.1c0,0.6,0.9,0.1,0.9,0.6l-1.3-0.4
		c-0.3,0,0,0.1-0.1,0.4c-0.4,0-0.7-0.3-0.7-0.3h0.6c0-0.1-0.3-0.1-0.4-0.3c-0.1,0-0.1,0-0.3,0.1v-0.1c-0.7,0.1-2-0.3-2.6,0.3
		c-0.1-0.1-0.1-0.1-0.1,0.3c-0.4-0.6-1,0-1.3-0.3v0.3c-0.1-0.3-0.3,0.1-0.4,0.1c-0.1-0.6,0.1-0.4,0.3-0.6c-0.3-0.1-0.6,0-0.7,0
		c-0.4,0.6,0,0-0.4,0c0,0-1,0.1-1.4,0.1c-0.3,0-0.4,0.3-0.4,0.4v-0.1c-0.3,0-0.9-0.3-0.9,0.1c-0.1-0.1-0.4-0.1-0.9,0.3l0.1-0.3
		c-0.4,0.4-0.9-0.1-1.3,0.4c0,0.1-0.3,0-0.1-0.1l-2.3,0.3H516v0.3c-0.1-0.1-0.3,0-0.3-0.3c-0.1-0.1-0.1,0.3-0.3,0.3
		c-0.1-0.4,0.1-0.4,0-0.6c-0.7,0-1.3,0-1.9,0.3v-0.1c-1.3,0.4-2.9,0.6-4.5,1c-0.6-0.1-1.2,0.3-2.3,0.4c-0.1,0-0.6,0.1-0.6,0
		l-0.3,0.1v-0.1c0,0-0.1,0-0.1,0.1c-0.1,0,0,0-0.1-0.1l-0.6,0.3l0.1-0.1c-1.2,0-2,0-2.6,0.6c0.1,0.6,1.4-0.1,2.3,0
		c0.7-0.4,0.9,0,1.3-0.4c-0.3,0.6-0.9,0.6-1.9,0.7c-0.9,0.3-1.6,0.9-2.9,0.6c-0.7-0.3-1.4-0.9-1.6-0.9c-0.4,0.1-0.6-0.1-0.9,0
		c0,0.3,0.1,0.6,0.1,1c-0.1-0.1-0.3-0.4-0.1-1c-0.1,0-0.1,0.3-0.3,0.6c-0.1,0,0-0.4,0-0.6c-1.7,0.1-2.4-0.6-3.7-0.9
		c-0.3-0.6-0.3-1.2-0.3-2.2c0.1-1.3,0.4-3.6,1.3-4.8c0.3-0.7,0.7-2,0.9-2.9h-0.1c0,0,0.1-0.4,0.1-0.3c0.1-0.6,0.6-0.9,0.7-1.3
		c0,0.1,0.4,0.1,0.4,0.3c-0.7,0.4-1.2,1.6-1.2,2.2l1.2-2.2c1.9-3.2,3.3-6.8,6-9.9c0-0.4,0.4-1.6,1.3-2.2c0.3,0,0.3-0.1,0.6-0.4h-0.1
		c-0.1,0.3-0.3,0.3-0.4,0.4l0.3-0.4c0,0,0-0.1,0.1-0.3c0.3-0.3,0.7-0.6,0.7-1.2c0.3,0,0.7-0.1,1-0.3c-0.3-0.3-0.3,0.1-0.7,0
		c0.7-0.3,0.9-1,1.2-1c6.6-7.6,7.5-9.5,14.8-15.8c0.1-0.1,0.1-0.3,0.1-0.6c1.4-1.2,2.6-3.3,4.2-4.2c-1-0.4-2.3,0-3.3,0h-1.9
		c-1.6,0-3.5,0-5.3,0.3c-1.7-0.6-3.2,0.3-2.7,0.9c-0.4,0,0.1,1.9-4.9,1.4l-2-0.4c-0.7-0.1,0.6-1,0.9-1c-0.1-0.1,1.3-1.2,1.2-1.4
		c1.4-1.7,1.9-2.2,4-3.2c2.9-0.7,0.4-0.3,3.7-0.9c1.3-0.3,1.6-0.3,3.2-0.3c0.3,0,0.3-0.1,0.4-0.1v-0.1c0.1,0,0.1,0.1,0.3,0.3
		c0.3-0.4,1.6-0.1,2.3-0.3c0.9,0.3,1.9-0.1,3,0c2,0.3,4.2,0,6,1c0.1,0,0.1,0,0.3-0.3c0.1,0,0,0.3,0.7,0.3c-0.4,0.1,0,0.3-0.4,0.4
		c0.4,0,0.4-0.1,0.6-0.1h0.1c0.3-0.1,0.7,0,1.3,0c0,0.1,0.6,0.1,0.6,0.7c0.6,0,0.7,0.3,0.9,0.7c0.4-0.1,0.6,0.4,1.2,0.3
		c0.6,0.6,0.9,1.9,1.4,2.3l-0.4,0.7c0,0.1,0.1,0,0.3,0.1c-0.4,1.2-1.3,1.9-1.7,2.4v0.1c0,0,0-0.1,0.1-0.1l-0.1,0.3h-0.1
		c-0.7,1-1.7,2.6-2.9,3.2v0.3c-2.3,2.2-4.6,4.9-6.6,7.1c-1.4,1.3-2.6,2.2-3.9,3.7c-0.4,0.7,0.1-0.6-0.4,0.4l-0.3,0.1
		c0,0-0.1,0-0.6,0.4c-0.3,0.4-0.4,0.4-0.4,0.9c-0.1,0-0.1,0-0.3-0.1c-0.4,1.3-1.7,1.4-2.3,2.7c-0.4,0.1-1,0.4-0.9,0.9
		c-1.2,0.7-2.4,2.3-3.5,3.5c0.3,0,0.3-0.1,0.6-0.3c-0.3,0.7-0.9,1.3-1.3,2c-0.1,0-0.1-0.1-0.1-0.3c-0.4,0.3-0.1,0.6-1,0.7v0.9
		c-0.7,1-1.7,2.4-2.7,3.6h-1L509.7,119.7z M494.6,133.4c0-0.1,0-0.6-0.3-0.6C494.3,133.2,494.5,133.4,494.6,133.4z M494.7,131.5
		c0.4-0.4,0.7-2.4,0-1.4C494.6,130.5,494.6,131.1,494.7,131.5z M495.7,128.2c-0.4,0-0.3,1.2-0.3,1.6L495.7,128.2z M496.9,129.1
		c0,0.1,0,0.1-0.1,0.3c0,0.3,0,0.4,0.1,0.4c0.4-0.7,0.4-1.7,0.7-2.3c0.1-0.4-0.1-1,0-1.7c0-0.3,0.3-0.4,0.7-0.7l1-2.9
		c-0.3,0-0.4,0.4-0.6,0.3c0.6-0.9,1.2-1.4,1.4-2.3c-1.2,1-1.9,3-2.3,4.3c-0.1,0.1-0.3,0.3-0.3,0.4c-0.1,1.6-0.7,2.6-0.9,4.3
		L496.9,129.1z M497.2,122.4l0.4-1c0.1,0.1,0,0.1,0,0.3c0.1-0.3,0.1-0.9,0.4-1c0-0.1-0.1,0,0-0.1c0-0.3,0.4-0.6,0.1-0.1
		C498.2,121,497.8,121.9,497.2,122.4z M500.8,128.2c-0.7,0.3-0.6,0.9-0.6,1.4C500.6,129.4,500.6,128.8,500.8,128.2z M500.9,127.6
		C500.6,127.7,500.9,127.5,500.9,127.6c-0.3,0-0.3,0.2-0.3,0.3C500.9,128.1,500.9,127.8,500.9,127.6z M500.8,129.9
		c0.4,0,0.6-0.3,0.7-1.2L500.8,129.9z M501.4,126l-0.3,1C501.4,127,501.4,126.3,501.4,126z M501.2,127.2c0,0.1-0.1,0.3,0,0.3
		C501.2,127.5,501.5,127.3,501.2,127.2z M502.2,127.5l0.3-1c-0.3,0.7-0.9,1.4-1.2,2C502.1,128.2,501.8,127.8,502.2,127.5z
		 M502.2,125.5c-0.1,0.3-0.7,0.9-0.7,1.2C502.1,126.5,502.4,125.8,502.2,125.5z M502.7,129.6c0,0.1-0.3,0.7-0.1,0.9
		C502.5,130.2,502.8,129.8,502.7,129.6z M502.8,129.4c0-0.3,0.3-0.7,0.3-1.3C502.9,128.6,502.8,129.1,502.8,129.4z M503.1,123.4
		c0-0.1,0.3-0.3,0.3-0.6C503.2,123.2,502.9,123.3,503.1,123.4z M506.3,119.4c-1.2,1.9-2.4,3.7-3.2,5.3
		C504.4,123.2,505.4,121.3,506.3,119.4z M505.5,124.2c0.1-0.9,0.9-2,0.7-2.4l-2.4,4.3c0,0.6-0.1,1.2-0.6,1.6c1.2-0.6,1.6-1.9,2-3
		L505.5,124.2z M504.5,124.6c-0.6,0.1-0.7,0.3-0.7,0.6C504,125.3,504.4,124.9,504.5,124.6z M504,130.4c0.1,0,0.1,0,0.3-0.1
		C504.1,130.2,504.1,130.4,504,130.4z M504.5,134.4c0,0-0.6-0.1-0.1,0H504.5z M504.4,130.2c0-0.1,0-0.1,0.1-0.3
		C504.5,130.1,504.4,130.1,504.4,130.2z M505.8,127c0,0.3-0.3,0.3-0.4,0.7c0,0.1-0.1,0.7-0.4,0.9c0.1,0.3,0.1,0.3,0.1,0.7
		c-0.1-0.3-0.1-0.4-0.1-0.4c-0.1,0-0.1,0.4-0.3,0.4c0.3-1.3,0.9-2.2,1.2-2.9v-0.7c1.3-1.6,2-3,3.2-5c0.6,0.4-0.6,0.7-0.3,1.3
		C507.6,123.3,507,125.3,505.8,127z M505.5,119.8c-0.3,0.3-0.7,0.7-0.7,0.9C505.1,120.4,505.4,120.3,505.5,119.8z M507.3,116.1
		c-0.6,0.7-0.9,1-1.2,1.6L507.3,116.1z M506.3,124.7c-0.1-0.1,0.1-0.6,0.4-0.7L506.3,124.7z M509.3,120c-0.9,1-1.3,2.3-1.9,3.2
		C507.8,121.9,508.3,121,509.3,120z M509.3,120c0.1,0,0.3-0.1,0.4-0.3C509.6,119.8,509.4,120,509.3,120z M513.6,113.9
		c-1,1.2-1.6,1.9-2.3,3.2L513.6,113.9z M511.4,128.8l-0.1,0.1v-0.1H511.4z M512.2,116.1c-0.1,0.1-0.7,1-0.7,1.3
		C511.6,117.1,512.2,116.2,512.2,116.1z M511.4,128.8h0.6c-0.1,0.1-0.3,0.1-0.4,0.1C511.6,128.9,511.6,128.8,511.4,128.8z
		 M512.7,113.9c0,0.1-0.4,0.7-0.3,0.9C512.6,114.7,513,114.1,512.7,113.9z M513.9,128.9h-0.6C513.3,128.2,513.7,128.6,513.9,128.9z
		 M513.7,113.8l1.2-1.2c0.4,0,1.2-1.3,1.7-1.7h-0.1c0.1,0,0.1-0.1,0.3-0.3h0.3l1.7-2.3c0,0-0.3,0.1-0.3,0.3c-0.7,1-1.9,1.9-2.9,2.9
		C514.9,112.2,514.2,113.1,513.7,113.8z M514.8,112.2c0.3,0,0.4-0.7,0.3-0.9C515,111.5,514.8,111.8,514.8,112.2z M516.1,111.2
		c0,0.1-0.3,0.3-0.4,0.3L516.1,111.2z M517.5,132.1c-0.4,0-0.9,0-1.2,0.4C516.6,132.5,517.1,132.5,517.5,132.1z M517.3,109.2
		c-0.1,0.3-0.6,0.3-0.7,0.9C517.1,109.9,517.3,109.5,517.3,109.2z M517.9,108.8c-0.1-0.1-0.4,0-0.3,0.1
		C517.8,108.8,517.9,108.9,517.9,108.8z M534.9,130.8c-1-0.3-1.4-0.6-2.2-0.4C533.3,130.5,534.1,130.9,534.9,130.8z M534.9,131.4
		v-0.1c-0.3,0-0.7-0.3-0.9-0.1C534.2,131.2,534.6,131.4,534.9,131.4z M535.8,85c0,0.1,0,0.4,0.1,0.3v-0.1L535.8,85z"/>
	<path fill="#08798F" d="M562.8,175.4c-0.9,0.9-1.4,1.9-1.9,3.2c0.3-1.2,0.9-2.2,1.2-2.9H562l-0.1,0.1v0.1l-0.7,1
		c-0.3-0.1,0-0.3,0-0.4c-0.7,0.6-1.3,1.9-1.9,2.4c-0.3-0.4,0.3-0.4,0.4-0.9c-0.4,0.3-0.9,0.7-0.9,1c-0.9,0.7-1.4,2-2.2,2.9h0.1
		l-2.6,2.6H554c-0.1,0.1-0.3,0.1-0.3,0.1c0-0.1,0.1-0.3,0.4-0.3c0-0.1,0-0.1,0.1-0.3l-1.2,0.4l0.7-0.4c0-0.1-1,0.4-0.7,0.6
		c-0.3,0.3-0.4,0.7-0.6,1c-0.4-0.6-0.6,0.4-0.9,0.1c-0.1,0.3,0.1,0.1,0.3,0.3c-0.4,0.3-1.4,1.2-2,0.9c-0.3,0-0.3,0.4-0.4,0.6
		c-0.6,0.4-1.3,1.2-2.2,1.2c-0.6,0.3-1,0.4-1.2,0.9l-4.9,1.6l-0.7,0.7c-0.3,0-0.3-0.3-0.6-0.3c0-0.1,0.3-0.1,0.3-0.3
		c-0.6,0.1-1.3-0.1-1.4,0.1c-1.3,0.4-2.6-0.4-3.7-0.6h-0.7c-1.4,0-2.7-0.7-3.9-1.6c-0.1-0.6-1.3-0.9-1.7-1.9c-0.1,0.1,0,0.6,0,0.7
		c-0.1-0.1-0.3-0.9-0.6-1.2l0.1-0.4c-1.2-1.2-1.3-3.2-1.7-5.3h0.4c0.1-0.3,0-0.3,0-0.6c0.1,0,0.3,0.3,0.3,0.6
		c-0.1-5.3,1.3-11.8,3.3-16.4c0,0.3-0.1,0.6,0,0.6c-1.2,2.7-1.4,6-2.3,9.1c0,0,0,0.1,0.1,0.1c-0.3,1-0.4,2.7-0.4,3.7
		c0.7-4.3,1.6-9.2,3-13c1.9-5.8,4.8-10.8,7.3-15.8l2.3-3.9c1-1.3,2.2-2.3,2.9-3.7c0.9-1,2-2.3,3.2-3.3c1.9-2.4,3.7-4.8,6-6.9
		c0.6-1,1.6-1.9,2.6-2.7l4.3-4.5l5.6-4.3c0.7-6.2,0.6-3.7,1.3-9.1c-0.1,0-0.1,0.1-0.1,0.1c0.3-0.4,0.3-0.9,0.3-1.4
		c-0.4,0.7-1.3,1-1.3,2.2h0.1l-1.6,1.3l-1.7,2.7c0.9,0,1.3-1.7,1.6-2.2c0.4-0.4,1.4-0.6,2-1.3c-1.3,1.9-3.2,3.7-4.5,5.2
		c-0.4,0.4-1.9,1.6-2,2.3l-1.3,1.3v0.1c0,0,0.1-0.1,0.3-0.1c-0.4,0.7,0,1-0.4,1c-0.3,0,0.1,0.1-0.1,0.3c-0.1,0-0.6,0-0.7-0.3
		c-0.4,0.6-0.4,1.2-1.2,1.6c0.3,0.6-0.7,0.6-0.7,0.9c0.1,0.3,0.4-0.3,0.7,0c-0.7,0.3-2.3,0.7-2.6,1.2c-1.4,0.7-1,0.7-2.7,1.2
		c-0.4,0-1,0.1-1.3,0.3c-0.9,0-1.3-0.3-1.7,0.1c-2.3-0.3-3.6-0.9-4.8-2c-1.4-0.1-2.4-1-3.2-2c-1.3-2.6-1.2-5.2-0.7-8.2
		c1.2-8.6,3.7-15.8,6.2-23.2l0.1-0.1c0.9-3.5,2.4-7.1,2.7-10.7c1.3-1.3,2.2-3.6,4.6-3.2c0.3-0.1,0.3-0.3,0.4-0.4
		c0.1,0.1,0.3,0.4,0.6,0.4c1,0,0.6,0.4,1.7,0.6c0.3,0.6,1.3,1,2.2,1.6c1.2,1.3,2.7,2.7,3.2,5c0,1.7-0.7,3.2-1.4,4.6
		c0,1.2-0.6,2-0.9,2.9c-0.7,2.3-1.7,4.3-2.2,6.3l-1.3,4.6c-1.3,4.9-3,8.1-3.9,13.2c-0.3,1.2-0.7,2.7-0.6,3.3c0,0.3,0.1,0.3,0.4,0.4
		c0.7-0.3,2-1.3,2.9-2.3c1.9-2.2,3.7-4,5.5-6.5c1.6-1.4,2.7-3.5,4-5l2.2-3.2c0.1,0,0.3-0.1,0.4-0.1c1.2-1.9,2.2-4.9,3.3-6.8
		c1-1.4,1-2,1.3-3.7l1.4-6.5c0.3-0.3-0.1-0.3-0.1-0.4c0.6-0.4,0.7-1.3,0.7-1.6c0.3-0.3,0.6-0.4,0.6-0.9h0.7l1.6-1.7
		c0.3,0.4,0.3,0.3,0.6,0c3.9,0.4,2.7,2,5.2,2c0.1,0.1,0,0.1,0,0.3c0.7,0.6,1.3,0.9,1.9,1.4c0,0.1,0,0.6,0.1,0.7
		c0,0.9,0.4,1.3,0.3,2.4c-0.1,1.2-1,2.4-1.2,4c-0.4,2-1,3.6-1.3,5.3c-1.4,6.8-2.3,8.8-2.9,15.6c0.1,0,0.4,0,0.6-0.1
		c0.1,0-0.1,0.1,0,0.1c5.3-2,19.7-10.4,25.5-11.7c-0.3,0.3-0.3,0.3-0.1,0.6c0.4,0.1,0.4-0.1,0.6-0.1c0,0.3-0.3,0.1-0.3,0.9
		c0,0,0.1,0,0.3-0.1c0,0.3,0.4,0.3,0.3,0.4c0.3,0,0.6-0.1,1.3-0.1c-0.4,0.1-1.2,0.1-1.6,0.7c0.4,0,0.9-0.3,1.6-0.6
		c-0.7,0.6-1.7,0.7-2.3,1c-0.1,0.3,0.1,0.1,0.3,0.1c-0.7,0.9-1.9,0.9-2.4,1.7h0.1c-0.1,0-0.3,0.1-0.3,0.1c-0.1,0-0.1,0.1-0.1,0.1
		h-0.1l-1.3,0.6l0.3,0.1c0.9-0.3,1.3-0.7,1.9-0.9c0.6-0.7,1.4-0.9,2-1c-0.1,0.4-1.2,0.9-1.9,1.3c0.3,0,0.7-0.1,1.2-0.3
		c-0.4,0.3-0.9,0.4-1.3,0.9c-0.7,0-1.3,0.7-2.3,0.7l0.1-0.1l-0.6,0.4V108c-0.6,1.2-15,8.5-16.3,10.2c-0.9-0.1-1.9,1-2.6,1.6
		c0.3,0,0.6-0.1,1.3-0.1c-0.3,0.4-1,0.3-1.4,0.6c-0.9,0.9-2,1.4-3,2.2l-0.7,0.7c-0.6,5.8-1.4,9.6-2.4,15.8
		c-0.9,9.2-3.2,17.6-5.8,24.9c0.6-3.2,2.2-6.3,2.6-10.1c-1.7,5.3-2.9,10.4-5.2,15.3c-0.1,0,0,0.1-0.3,0v-0.4
		c-0.9,1.6-1.6,3.3-2.3,5.2v0.1c-0.1,0-0.1,0.1-0.1,0.3c-0.1,0-0.1,0-0.1,0.1h0.1l-0.4,0.9v0.1H562.8z M526.9,179.5
		c0-0.1-0.1-0.1-0.1-0.3C526.9,179.2,526.9,179.3,526.9,179.5z M527.3,181.9c0.1,0.9,0.3,1.9,0.6,2.7c0.3-0.6-0.3-1.2-0.1-1.9
		c0-0.1-0.1-0.1-0.3-0.1v-0.9L527.3,181.9z M530,189.3c-0.1,0.1-0.4-0.4-0.4-0.6L530,189.3z M530.7,164.8c0-0.1,0.3-0.3,0.1-0.4
		C530.9,164.5,530.7,164.6,530.7,164.8z M531.2,163.6c0-0.3,0.3-1,0.7-1.6C531.7,162.9,531.3,163.2,531.2,163.6z M533.8,157.7
		c-0.3,1.3-0.9,3-2,4.2L533.8,157.7z M534.2,156.4c0.1-0.1,0.3-0.1,0.3-0.3C534.3,156.1,534.3,156.3,534.2,156.4z M542.7,157
		c0-0.4,0.1-0.7,0.3-1l-0.4,0.4l-1,1.7l-0.1,0.3v-0.1v0.3v-0.1l-0.4,1v0.9c-0.1,0-0.1-0.1-0.1-0.4l-1,1.3l0.3-0.6l2.3-4.3
		c-0.3,0-0.6-0.1-0.7,0c0,0.3-0.4,0.4-0.1,0.7c0,0,0.1-0.4,0.1-0.3c-0.1,0.4-0.1,0.9-0.3,1c-0.1-0.1,0.1-0.4,0-0.6
		c-0.1,0-0.3,0.1-0.3,0.1c0.3-0.6,0.7-1.3,0.6-1.7c0.4-0.6,0.9-1.3,1.4-1.7c1.3-3.3,3.6-6.3,5.5-8.9c0.1,0,0.1-0.3,0.4,0
		c0.3-1,1-1.4,1.4-2.3l0.3-0.6c0,0.3,0,0.3-0.1,0.4c0.1-0.1,0.4-0.1,0.6-0.6c0-0.1-0.1-0.1,0-0.4c0.6-0.3,0.9-1,1.3-1v0.3
		c0.1-0.4,0.3-1,0.7-1.6c0,0.1,0.1,0.1,0.1,0.1c-0.1,0.1-0.3,0.6-0.3,0.6c-0.1,0.9-0.9,1.3-1.3,1.6l-0.9,1.6c1.6-1.7,3-3.7,4.5-5.5
		c-0.9,0.4-0.9,1.2-1.6,1.4c0.1-0.1,0.1-0.6,0.6-0.6c-0.1-0.4,0-0.6,0.3-0.7v0.1c0.1-0.1,0.6-0.3,0.4-0.6c1.2-1.7,2.9-2.6,4-4.3
		c0.3-0.3,0.3-0.6,0.7-0.6c0-0.6,0.4-0.7,0.7-1c0,0.1-0.1,0.3,0,0.3c0.6-1,1.4-1.4,1.9-2h0.3c0.4-1,1.6-1.2,1.3-2
		c0.1-0.6-0.1-0.3-0.1-0.6c0.3-0.3,0.4-0.4,0.4-0.7c-1,0.9-1.9,2-3,2.7c0,0.1,0.1,0,0.1,0.3c-0.3-0.4-1,0.6-0.6,0.7
		c0.1-0.3,0.7-0.4,0.9-1c0.3,0.1,0.4-0.3,0.4,0c-0.3,0.3-1,1.3-1.2,1c-1.2,0.6-1.4,2-2.2,2.3c-0.1,0.1,0.1,0.3-0.3,0.4l-4.3,4.6
		v-0.1c-0.3,0.1-0.1,0.6-0.7,0.6c0,0.1,0.3,0.1,0,0.3c-2.3,2.7-4.3,5.6-6.6,8.5h-0.1l-1.2,2.2c-0.1-0.1,0.1-0.3,0-0.4l-1.4,2
		c0.3,0.9-0.7,1.4-1.2,2.4c0.1-1.2,0.9-1.6,1.2-2.4c-1.6,2.4-3.2,5.2-4.3,7.8c-0.6,0.9-1.2,1.7-1.2,2.6l1.2-2
		c-0.9,2-1.6,3.9-2.9,5.5c-0.1,1.9-1.2,3.9-1.2,6c-0.1,0-0.3,0-0.3,0.1c0,0.3,0.3,0.1,0.1,0.3c-0.3,0,0,0.4,0,0.6h-0.1
		c-0.3,0.9-0.1,1-0.1,1.9c0,0-0.4,0-0.4,0.3c0.3,2.3-0.9,5.2,0,7.1c0.3-0.9,0.1-1.3,0-1.6c0.4-0.6,0-1.7,0.4-2.3v0.7
		c0.4,0.9,0.1,2.6,0.4,3.5c0-0.1,0-0.9,0.1-0.9c0.1,1.2,0.3,2.4,0.6,3.3c0.4,0.3,0.4,1.4,1.2,2.3c0.1,0.1,0.3-0.4,0.3-0.3
		c0.1,1,1,0.9,2.3,1c0.1-0.3-0.1-0.6,0.1-0.7c0.1,0.4,0.4,0,0.6,0.3c3.5-1.3,5.8-3.7,7.8-6.3h0.1c-0.3-0.1-0.1-0.3-0.1-0.3
		c0.3,0,0.3,0.3,0.4,0.1c0-0.3-0.1-0.3-0.1-0.4c0.1-0.1,0.1-0.1,0.3-0.1c0.9-1.4,1.4-2.4,2.4-3.9c1.4-2.7,3-5.5,4-8.9
		c0.6-0.6,0.6-1.3,0.7-1.9c0.3-0.6,0.7-1.9,0.7-2.6c0-0.4,0.4-1,0.7-1.3c0,0,0.1,0,0.3-0.3c0.4-0.3,0.3-1.2,0.4-1.7
		c-0.1-0.1,0.3,0,0.1-0.3c0.3-1.7,0.6-3.6,1.4-4.6c-0.4-1.2,0.7-1.9,0.7-2.4c0-1.4,0.6-2.6,0.4-3.9c0-0.1-0.1-0.3-0.1-0.6
		s0.3-0.6,0.4-0.7c0.1-0.6,0-1.3,0-1.7c0.1-0.4,0.4-0.9,0.4-1.4c0.6-2,0.6-4,0.7-6.3c0.4-0.4,0.4-0.7,0.4-1c0.3-1.9,0.9-4.2,0.6-5.9
		c-0.1,0.4-0.3,0.7-0.6,1c0,0,0-0.1-0.1-0.1c-1.6,2-3.7,3-5,5c-0.1,0-0.1,0-0.3,0.1v0.1c-0.1-0.1,0,0.1-0.4,0.1l-2.3,3.3
		c0,0-0.3,0,0,0.1h-0.6c-0.3,0.1,0,0.9-0.3,1v-0.7c-0.3,0.4,0,0.6-0.3,0.7V140c-0.1,0-0.4,0.1-0.4,0.6l-0.6,0.9v-0.1l-1.2,1.3
		c0.1,0,0.1,0,0.1,0.1c-0.3,0.1-0.4,0.4-0.7,0.7c0,0,0.3-0.1,0.4-0.1c0,0.3-0.4,0.4-0.4,0.4c-0.1,0-0.1,0-0.1-0.1
		c-0.1,0.4-0.3,1-0.7,1c0.1-0.1,0.4-0.3,0.1-0.4c-0.7,0.9-1.4,1.9-2.2,3.3l-0.6,1c-0.1-0.1,0-0.4-0.1-0.4c-0.1,0.1,0,0.3,0,0.4
		c-0.1,0.4-0.9,1-1.3,1.7c-0.7,0.4-1,1.6-1.7,1.9c0.3-0.3,0.6-0.6,0.6-0.9c-1.2,1-1.9,2.6-2.4,4.3c-0.3,0.1-0.1,0.3-0.6,0.3
		c0,0.4,0.3,0.1,0.3,0.6l0.6-1c0,0.1,0.1,0.3,0.1,0.1v0.1c0.1-0.6,0.6-1.3,1-1.7C543.7,155,543.1,155.7,542.7,157z M534.9,178.9
		c0-0.1-0.1-0.3-0.1-0.3C534.8,178.7,534.9,178.7,534.9,178.9z M534.9,177.2c0,0.1-0.1,0.3,0,0.7V177.2z M535.3,176.2h-0.4
		c0.1-0.1,0.3-0.3,0.3-0.4c0.1-0.3,0.1,0,0.1-0.6c-0.4,0.6,0-1.4,0.1-2C535.3,174.1,535.5,174.7,535.3,176.2z M535.5,172.4
		c0-0.1,0.1-0.3,0.1-0.3C535.8,172.1,535.5,172.3,535.5,172.4z M535.6,176c-0.1-0.9,0-1.6,0.1-1.9
		C535.8,174.6,535.6,175.1,535.6,176z M535.8,172.8c0.1,0,0,0.3,0.1,0.6C535.8,173.4,535.8,173.1,535.8,172.8z M535.8,176.9
		c0.3,0,0.1,0.7,0,1V176.9z M535.9,172.4v0.4C535.8,172.6,535.9,172.4,535.9,172.4z M536.2,169.8c0,0.9-0.1,1.9-0.1,2.4
		c0,0.1-0.1,0.1-0.1,0.1c-0.1-2,0.7-4.6,1-6.9c0.4-0.3,0.6-0.7,0.7-1L536.2,169.8z M535.9,174.3c0-1,0.3-2.2,0.7-2.7
		C536.4,172.1,536.1,173.3,535.9,174.3z M536.2,168.4c0-0.6,0.3-1.4,0.4-1.9C536.6,166.9,536.4,167.8,536.2,168.4z M536.6,170.8
		c-0.1-0.4,0.1-0.9,0.3-1.3L536.6,170.8z M537.2,169.2l-0.3,0.1v-0.1c-0.3,0.1,0-0.3,0.3-0.1V169.2z M537.6,167.2
		c0-0.1,0-0.1,0.1-0.1l-0.3,1.4v-0.3c-0.3-0.1-0.6-0.3-0.3-0.4c-0.3-0.3-0.3-0.4,0-0.4c0-0.1,0.1-0.1,0.1-0.1L537.6,167.2
		L537.6,167.2z M537.5,168.5l-0.3,0.4c0,0-0.3-0.1,0-0.6C537.2,168.5,537.5,168.5,537.5,168.5z M537.8,162.8
		c-0.1,0.1-0.6,0.4-0.3,0.6C537.6,163.3,537.8,162.9,537.8,162.8z M538.1,166.6c0,0-0.1,0.1-0.1,0.3L538.1,166.6L538.1,166.6z
		 M538.1,166.1V166C537.9,165.9,538.1,166.1,538.1,166.1z M538.2,162.9L538.2,162.9c0-0.1,0-0.1,0.2-0.1L538.2,162.9z M538.2,165.4
		L538.2,165.4C538.4,165.2,538.2,165.4,538.2,165.4z M538.8,163.3c0,0.1-0.1,0.3-0.1,0.3L538.8,163.3z M539.1,165.8
		c0.1,0.1,0,0.3,0,0.6C538.9,166.1,538.9,165.9,539.1,165.8z M540,156.6c-0.6,0-0.7,0.1-0.7,0.6C539.8,157.1,539.4,156.7,540,156.6z
		 M539.5,161.6l0.3-0.4v0.3L539.5,161.6z M540,160.2c0.1-0.7,0.4-1.7,0.9-2.2v0.1c0.1-0.3,0.1-0.4,0.4-0.4c0,0.6-0.9,2-1.2,2.9v-0.7
		C540.1,159.9,540,160,540,160.2z M540.1,158.2c-0.1-0.1,0-0.3,0.1-0.4C540.4,157.9,540.1,158,540.1,158.2z M540.2,158.6
		c0-0.1,0-0.3,0.3-0.3C540.4,158.3,540.4,158.4,540.2,158.6z M541.1,156.4c-0.3,0.1-0.1,0-0.3,0c-0.1,0.6-0.1,0.7-0.4,0.9
		c0-0.7,0.6-1,0.7-1.6C541.4,155.8,541,156.3,541.1,156.4z M540.7,157.7c0.1,0.1-0.1,0.3-0.1,0.6C540.4,158,540.7,157.9,540.7,157.7
		z M541.2,160.5c0,0,0-0.1,0.1-0.1L541.2,160.5z M541.5,158.2l-0.1,0.1l0.4-0.1H541.5z M541.5,190.4c0.3,0.3,1.3,0.4,1.4-0.3
		c-0.3,0.1,0,0,0-0.1C542.4,190,542.1,190.3,541.5,190.4z M542.1,158.7c0,0.3-0.3,0.7-0.3,0.9C541.5,159.4,542,159,542.1,158.7z
		 M542.4,152.1c-0.3,0-0.3,0.4-0.3,0.6C542.4,152.8,542.4,152.7,542.4,152.1z M542.4,153.7c0.3-0.1,0.1,0.3,0.1,0.3
		c0.1-0.3,0.4-0.4,0.3-0.6h0.1v-0.6C542.7,153.1,542.5,153.5,542.4,153.7z M543.1,155.1V155c0.4-0.7,0.7-1.4,1.3-1.9L543.1,155.1z
		 M544.4,150.4c0.4-0.7,0.7-1.2,1-1.3C545.4,149.2,545.1,150.1,544.4,150.4z M544.6,152.8c-0.1,0,0-0.1-0.1-0.1c0-0.1,0.1,0,0.1-0.1
		h0.3L544.6,152.8z M545.3,151.8L545.3,151.8c-0.1-0.1-0.2-0.1,0-0.1V151.8z M545.9,150.1c-0.1,0.1-0.4,0.4-0.3,0.4
		C545.6,150.4,545.9,150.2,545.9,150.1z M545.7,151.4c-0.1-0.3,0.1-0.6,0.4-1.2c-0.3,0.4-0.7,0.9-0.6,1.2H545.7z M546.1,150.2
		c0,0,0.1,0,0.1-0.1L546.1,150.2z M546.4,150.2c0.3-0.1,0.4-0.9,0.7-1C547,149.7,546.9,150.1,546.4,150.2z M548,146.6
		c-0.4,0.7-1,1.3-1.3,1.9C547,148.1,547.9,147.4,548,146.6z M547.7,148.8c-0.1-0.1,0.1-0.3,0.1-0.4
		C548,148.5,547.7,148.6,547.7,148.8z M549.2,188.8c0.1,0,0.1-0.1,0.3-0.1C549.5,188.8,549.5,188.8,549.2,188.8z M550.2,145.6
		c0,0.1-0.4,0.3-0.4,0.4C549.6,145.9,549.7,145.6,550.2,145.6z M549.9,184.9c0.4-0.4,0.9-0.6,1.2-0.9c0.6,0.1,0.7-0.6,1.2-0.6
		c0-0.3-0.1-0.3-0.1-0.4c-0.1,0-0.1,0.1-0.3,0.1c-0.1,0.3,0.1,0.1,0.1,0.3c-0.1,0-0.1,0.3-0.3,0.1c0.1-0.1,0.1-0.3,0-0.3
		C551,183.8,550.5,184.2,549.9,184.9z M551.6,143.8c-0.1,0-0.4,0.6-0.6,0.9c-0.1,0,0-0.1-0.1-0.1c-0.1,0.1-0.1,0.7-0.6,0.7
		c0.4-0.6,0.7-1.4,1.3-1.6L551.6,143.8L551.6,143.8z M552,185.2c-0.1-0.1-0.4,0.3-0.4,0.6C551.8,185.7,552,185.7,552,185.2z
		 M551.9,186.7c0.3-0.4,1.3-1.2,1.9-1.6C553.2,185.9,552.6,186.2,551.9,186.7z M552.5,142.6c0,0.3-0.3,0.4-0.4,0.6
		C551.9,143.2,552.3,142.9,552.5,142.6z M553.1,184.2c-0.3-0.3-1,0.4-0.4,0.6c0.7-0.7,1.6-1.3,2.2-2.2c0.4,0,0.9-0.4,0.7-0.7
		c-0.4,0.1-1.3,0.7-1.7,1.3h0.1c-0.1,0.3,0,0.1,0,0.3c-0.4,0-0.6,0.1-0.9,0.4L553.1,184.2L553.1,184.2z M554.2,182.2
		c0-0.4,0.3-0.4,0.3-0.9c-0.7,0.6-1.7,1.4-2,2.4C552.9,183.4,553.3,182.6,554.2,182.2z M552.6,142c0-0.1,0.1-0.1,0-0.4
		C552.5,141.6,552.5,141.9,552.6,142z M552.8,182.3c-0.1,0.3-0.1,0.3,0,0.3V182.3z M553.2,139.1l0.3-0.1
		C553.3,139.1,553.3,139.1,553.2,139.1z M553.9,141.2c0.1,0-0.4,0.1-0.4,0.3c-0.1,0-0.1-0.1,0-0.3c0.3,0,0.3,0,0,0.1L553.9,141.2z
		 M554.4,141c-0.1-0.3,0.1-0.7,0.3-0.7C554.6,140.4,554.4,140.7,554.4,141z M555.4,179.5c0,0.1-0.6,0.3-0.3,0.4
		C555.2,179.8,555.5,179.6,555.4,179.5z M557.4,137c-0.1,0.1-0.1,0.1-0.1,0.3C556.9,137.1,557.2,137.1,557.4,137z M557.7,136.8
		L557.7,136.8L557.7,136.8z M559.5,180.2c-0.7,0.7-0.7,1.6-1.3,2.2C558.7,181.6,558.8,180.9,559.5,180.2z M558.8,179.8
		c0-0.1,0.3-0.4,0.3-0.6C559.2,179.3,559,179.6,558.8,179.8z M565.7,169.5c-0.3,1.6-1.2,3-2,4.5C564.1,172.6,565,171.1,565.7,169.5z
		 M565,172.3c0-0.4,0.7-0.7,0.9-1.2C565.9,171.4,565.4,171.8,565,172.3z M565.7,112.1c0.1,0,0.3-0.3,0.3-0.1
		C566,111.9,565.9,112.1,565.7,112.1z M566.3,111.5c-0.1,0.3-0.1,0.4-0.1,0.4H566L566.3,111.5z M566.3,169.8
		c-0.1-0.1,0.1-0.4,0.1-0.4C566.7,169.4,566.3,169.7,566.3,169.8z M566.4,111.4C566.4,111.5,566.3,111.5,566.4,111.4
		C566.3,111.5,566.3,111.4,566.4,111.4z M566.4,111.4L566.4,111.4C566.4,111.5,566.4,111.4,566.4,111.4z M566.6,169.2
		c0.3-1.4,1.3-2.9,1.9-4.6C568.2,166.4,567,167.8,566.6,169.2z M589.5,113.5c0.1-0.7,10.4-5.5,10.7-5.8c0-0.3-0.3,0-0.3,0v-0.1
		c-3.6,1.7-11.5,5.9-12.8,6.5C587.6,114.1,588.5,113.7,589.5,113.5z M600.3,108.3c0.3-0.1,0.7-0.1,0.9-0.6L600.3,108.3z
		 M602.2,107.5L602.2,107.5c-0.3,0-0.9,0.2-0.6,0.3C601.7,107.8,602,107.8,602.2,107.5z M604.3,106.9c-0.1,0.1-0.4,0.1-0.4,0.1
		L604.3,106.9z M604.8,106.7c-0.1,0.1-0.3,0.1-0.4,0.1L604.8,106.7z M606.2,105c-0.3,0,0-0.4-0.6-0.4c0.4-0.3,1-0.1,1.3-0.4
		C606.6,104.6,606.2,104.4,606.2,105z"/>
	<path fill="#08798F" d="M639.7,50.2l0.3-0.6c0-0.1-0.1-0.1-0.1-0.6c-0.4,0-0.4,0.7-0.7,0.4c-4,1.4-3.2-0.1-6.2,2.4
		c0.1,0.6-0.6,0.4-0.4,1c-1.6,1-2.9,1.6-3.9,3.3c-0.1-0.1-0.1,0-0.3,0.1c-0.1,1.4-1,2.3-1.9,2.4c-0.3-0.3-0.3-0.4-0.3-1.2
		c-0.4-0.1-0.3,0.4-0.6,0.1c0-0.1,0.1-0.4,0-0.4c-0.6-0.1,0,0.4-0.3,0.7c-0.4-0.3-0.9-0.6-1.2-1c-0.3,0.3-1,1.9-1.2,2.6v-0.3
		c-0.3-0.3,0-1-0.6-1.3c-0.3,0-0.4,0-0.4,0.4c0,0.3,0.7,0.3,0.4,0.9c-1.2-0.3-2.7-0.4-3.6-1c0-0.7-0.4-1.2-0.6-1.4
		c0-0.3,0-0.6,0.1-1.2c1.3-1.6,2.3-3.6,3.9-4.5c-0.1,0.4-0.6,0.7-0.4,1.2c1.4-1,2.7-3,4.6-4.6c2.4-2,1.3-0.7,4.2-2.2l6.8-2.6
		c0.9-0.4,2-0.9,3.2-1.2c0.4-1.3,0.4-2.3,0.3-3.3c-1.2,0,0.4-1.9,0-2.3c0.6-0.4,0.4,0.4,1-0.4c1-2.6,1.6-2.3,3.5-3.5
		c1,0,2.3-0.3,3.5-0.1c1.9,0.1,3.7-0.3,5.6,0.6c0.7,1.2,1.9,1.7,2.3,3.3c0.4,0.4,0.7-0.7,0.7-0.1c0.3,1.2-1,3.2,0.6,3.7
		c1,0.3,2.4,0.3,3.5,0.4c3.7,1,7.1,1.9,9.8,3.6c1.3,0.9,2.3,1.6,3.5,2.2c2,1.3,3.9,2.7,5.5,3.9c0.6,0.9,1.4,1.3,1.7,1.9
		c0.4,0.4,0.7,1,1.4,1.7c1.6,1.3,2.7,2.9,3.9,4.5c4.2,5.9,7.3,14.5,7.9,23.8c0,4.8-0.7,10.7-2.6,15.8c0.1,0.6,0,0.9-0.3,0.7
		c-0.4,0.4,0.3,0.1-0.1,0.4c-0.1,0-0.3,0.1-0.3,0.1c-1.2,4-3.3,7.9-5.5,11.1c0.4-1.4,2.2-2.9,2.2-4.2c-4.2,6.3-8.2,12.2-13.2,17.3
		c0.7-1.7,3.2-3.3,4-4.8c-0.6,0.3-0.9,0.6-1,1.2c0,0-0.1,0-0.1,0.1c-3.2,2.7-5.9,5.5-8.8,8.1c-0.9,0.1-1.3,0.9-1.7,1.4
		c0.1-0.3-0.3-0.1-0.3,0c0.6-0.3-0.1,0.9-0.6,0.3c-7.3,6.9-16,11.7-24.5,17c-0.4,2.3-1.2,5-1.2,7.2c-0.1,0-0.1-0.4,0-0.9
		c-0.7,0.6-1,1.3-1.4,2.4h-0.9c-0.3-0.9-0.4,0.1-0.9-0.9c-0.3,0.1,0,1.4-0.1,1.7c-0.4,0.1-0.1-0.3-0.4-0.1c-0.4,0.1-0.7,0-1.4,0.1
		c-0.9,0-1.2,1.6-2.7,1.3c0-0.6-0.3-1.3-1.2-1.3c-0.6-0.4-1.6-2.2-2.6-1.7c-0.1,0,0-0.3-0.3-0.3c-0.7,0-0.7,0.1-1,0.1
		c-0.7-1.2-0.4-2.7-0.9-4.2c-0.9,0.1-2.3,0-2.7,0.7c0.1-1-1,0.3-1.6,0c-0.1,0,0,0.6-0.1,0.6c-0.4-0.3-0.4-0.6-0.9-0.6
		c0-0.1,0.4-0.1,0.3-0.6c-1.3-0.7-3.3-0.7-5-1.9c0.3-0.6,1.2,0.3,1.3-0.6c0.3,0.4,0.4,0.3,0.7,0.4c0.9-0.7,2-0.4,2.4-1.9
		c0.3,0.3,0.7,0,0.9-0.1c1.3,0.3,1.7-0.7,2.7-0.6c-0.4-0.4,1.3-0.9,1.9-1.4c1-11.8,3-23.8,4.9-35.1c0.1-0.3-0.1-0.4-0.3-0.6
		c1-0.3,0.4-2.4,0.7-2.9c0-0.3-0.1-0.3,0-0.9c0.1-1.6,0.7-4.2,1-6.3c0.3-0.7,1-1.4,0.9-2.7c0.1-1.2,1.2-4.8,0.7-5.9
		c-0.1-0.6,0.1-0.7,0.4-1.3c1.9-12.5,4-25.5,4.8-38.4L639.7,50.2c-0.1,0.1,0.3,0-0.3,0.1C639.7,50,639.7,50.2,639.7,50.2z
		 M642.9,145.2c-0.3,0-0.4,0.3-0.6,0.4C642.6,145.6,642.9,145.5,642.9,145.2z M644.6,142.5c-0.4,1-1.9,1-2,1.7
		C643.5,143.8,644.5,143.8,644.6,142.5z M643.1,145.8c0.4-0.9,1.7-0.9,1.9-1.7C644.5,144.5,643.1,144.5,643.1,145.8z M681.6,93.1
		c0.3-2,1-3.6,1.2-5c0.3-2.9,0.6-5.5,0.1-7.5c0.6-1.4,0-3.2,0-4.3c-0.1,0-0.4,0-0.1-0.7l0.1,0.1c0-0.4-0.1-1.6-0.9-1.4
		c0.3-1.6-0.4-2.9-0.7-4c0-0.4-0.4-1-0.4-1.2l-0.3-1c-0.4-1.3-1.4-2.9-1.6-4c-1.3-2.6-3.3-4.9-5.5-6.8c-0.3,0-0.3-0.3-0.4-0.3
		l-0.4-0.7c-4-3.3-7.6-7.5-14.3-8.1c-0.4,0.4-1.3,0-1.7,0.4c1,0.4-0.6,0-0.7,0.3c0.3,0,1.4,0.1,0.6,0.1c0,2,0,3.3-0.3,5
		c-0.1,2,0,4-0.6,6.2c0,2.4-0.6,5-0.4,7.6c-0.4,5.3-1.7,10.8-2.3,16.8c-1.4,6.5-2.6,16.1-4.2,23.3c-2,9.6-3.7,19.7-5.2,28.7
		c1.3-0.3,2.6-1.4,3.7-2h0.1c0.4,0,0-0.4,0.4-0.6c0.1,0.1,0,0.3,0.1,0.1c1.9-1.7,4-2.7,5.8-4.6c0.7-0.4,1.7-1.2,2-1.7
		c-0.1,0.1-0.3,0.1-0.6,0.1c1.7-1.4,4.3-3,5.8-5.3v0.1c4.5-4,8.9-7.9,12.1-13.1c0,0.3-0.3,0.6-0.1,0.6c2-2.4,3.2-4.8,4.9-7.9
		c0.1-0.1,0.1,0.3,0.3,0c1.2-2.7,3-5.8,3.3-9.4h0.2V93.1z M646.2,141.7c-0.7,0.3-1.4,0.7-1.3,0.7
		C645.4,142.5,645.8,142.5,646.2,141.7z"/>
	<path fill="#08798F" d="M730.2,99.3c-0.3,1.2-0.9,2.3-0.7,3.3l0.7-2.6c0,0.6,0,2.2-0.4,3c0.9,0,1.2,0,1.3-0.3c0.6,0,1.6-0.1,2-0.4
		c0.1,0.1,0.7,0,0.7,0h0.3c2.7-1,0.7,0,3.5-1c1.6-0.9,3-1.6,4.5-2c0.6-0.1,1.2-0.1,1.4-0.9c1.9-0.4,2.7-1.3,4.5-1.9
		c0.3,0.1,0.6,0,0.7,0c0.1,0.4,0.7,0.6,1.2,0.6c-0.3,0.3-0.4,0.6-0.9,0.7v0.6c-0.3,0.7-0.7,1-1.7,1.2c-0.1,0.3-0.7,0.4-0.4,0.9
		c-1,0.1-1.7,1.2-3.2,1.9c0.3,0.1,0.1,0.3,0.1,0.6c0.6,0,0.9-0.3,1.4-0.4c-0.7,0.6-1.7,1-2.7,1.2c-0.9,0.3-2,1-3.2,1.3
		c0.1,0.3,0.3,0.1,0.7,0.1c-3.6,1.3-2.4,1.3-5.6,2.4c-0.4-0.1-0.9,0-1,0.1c-1.4,0.1-2.7,0.1-4.6,0.7c-0.7,2.6-1.9,6-3,8.8l-0.9,1.4
		l-0.1,0.3c0,0-0.1-0.1,0.1-0.3c-0.3,0-0.7,0.6-0.9,0.6c0-0.3,0.6-0.4,0.7-0.7c-0.6,0.1-1,0.6-1,1.4c-0.3,0,0-0.4-0.1-0.4
		c-0.3,0.4,0,0.4,0,0.7l-0.6,1.2c0.4-0.4,0.6-0.9,0.7-1.3c0,0.6-0.4,1.3-0.7,1.7l-0.6,1v-0.3c-0.9,0.9-2,1.3-2.2,2.7h0.1
		c-0.1,0.6-0.7,0.9-1.2,1.2l-1.2,1.9l-1.2,1.2c0.6-0.1,0.7-0.6,1.2-0.9c0.1,0.1-0.1,0.3,0,0.7c-1.2,1.2-2.4,2.2-3.9,3.2
		c-0.3,0.1-1,0.1-1.6,0.3c-0.1,0-0.1,0.1-0.1,0.3c-0.4,0.3-1.2,0.4-1.6,0.4c-0.7,0.4-1.6,0-2.3,1c-2.6,0-4.3,0-5.6-0.6l-0.3,0.1
		c-1.4-0.3-2.2-1.4-3.3-2.2l0.1-0.4c-0.3,0.3-0.3-0.4-0.7-0.4c-0.4-0.3-0.4-1.6-0.9-1.9c-0.1,0,0,0.1-0.1,0.1l-0.3-1.7
		c0-0.3,0-1.2-0.1-1.3c-1.2-2.9-1.4-5.8-1.4-9.4c0.3-5.6,1.6-10.9,3.5-16.3c0-0.1,0.1-0.1,0.1-0.1c1.3-5.2,4-9.9,6.8-13.7
		c0-0.4,0.1-0.9,0.6-0.9c0.1-0.3,0.7-0.4,1-0.9c0.6-0.1,1-0.9,1.6-1.2c0.1-0.4,0.4-0.6,1-0.9c0.6-0.1,0.6-0.3,1.9-0.4
		c0.6-0.1,0.7-1.2,1.6-0.9c0.9-0.3,1.7-0.3,2.7-0.1c1-0.1,1.7-0.7,2.2-0.7c0.9,0,1.6,0.1,2.6,0.4c0,0,0.1,0,0.1-0.3
		c2.6,0.9,5.3,2.3,6,5c0.1,0,0.3,0.3,0.6,0.3c0,0.1,0.1,0.3,0.1,0.6c0.9,1.7,0.6,4.3,1.2,6.6c0.6,1.2,0.7,2,0.9,3.2
		c-0.6,0.4-0.1,1.4,0,2.4l-0.1-0.3L730.2,99.3L730.2,99.3z M708.3,103.6c-0.7,2.2-1.4,7.6-2,9.6c-0.3,0.9,0,2.2-0.1,2.9
		c0,0.1-0.3,0.4-0.3,0.9c-0.3,2,0.3,4.6,0.6,6.5c0.4,1.3,0.7,2,1.4,2.7c0.6,0.6,0.9,2.3,1.4,2.3c0.3,0,1.4-0.9,1.7-1.2l2.4-2.9
		l3.6-6.5l1.9-4c0.7-1.6,0.7-3.5,1.3-5c-0.3-0.4-1.2,0.3-1.9,0.3C714.2,108.3,712.5,108.8,708.3,103.6z M721.2,94.1
		c0-0.6-0.1-1-0.3-1.2c-0.1,0-0.4-0.1-0.4-0.1c0-0.6,0-1-0.3-1.3c0.3-0.9-0.3-1.4-0.7-1.3l0.1-0.3c-0.6-0.1-0.1,0.3-0.6,0.3
		c0.1-0.7-0.7-0.7-1-1.6c0.1,0.3,0.4,0,0.6,0l-0.4-1.4c0-0.3-0.1-0.4-0.3-0.6c-0.4,0.3-1,0.3-1.4,0.7c-0.6,0.9-1.6,1.7-1.9,2.7
		c-0.4,0-0.6,0.4-0.7,0.9c-0.1,0.1-0.4,0.1-0.4,0.3l-0.9,1.9c-0.7,1.4-0.4,4.5,0.3,5.8c1.3,1.4,3,3.6,5,4.3l-0.1,0.4
		c1,0,2.2,0.1,3.2,0.1c0.1-1.2,0.4-3.3,0.3-4.3C721.2,97.4,721.4,95.4,721.2,94.1z M720.8,124.7c0-0.1,0-0.3,0.1-0.3
		C720.8,124.6,721,124.9,720.8,124.7z M721.2,123.4h0.4c-0.3,0.1-0.4,0.3-0.6,0.3C721,123.6,721.2,123.6,721.2,123.4z M726,117.4
		c-0.1-0.4,0.3-1.2,0.4-1.3C726.7,116.4,726.1,117,726,117.4z M727.4,86.4L727.4,86.4c0.2,0.3,0.2,0.9,0.4,1c0,0.4,0.3,0.9,0.3,1.4
		c0.1,0.3,0.1,0.9,0.6,1.2c-0.4-1.4-0.4-2.9-1.3-4C727.3,86.3,727.3,86.4,727.4,86.4z M728,111.9c0-0.1,0-0.4,0.1-0.4
		C728.3,111.8,728,111.8,728,111.9z M730.2,99.5c0-0.1,0.1-0.3,0-0.3V99.5z"/>
	<path fill="#08798F" d="M727.3,184.1c0.1,0,0.1,0.1,0.1,0.3C727.3,184.4,727.3,184.1,727.3,184.1z M763.9,168.5
		c-0.1-0.3,0-0.6,0.1-0.7c0-0.4,0.4-0.7,0.6-0.9v-0.4c0-0.1,0.1-0.3,0-0.4c0.1,0,0.1,0.1,0.1,0.3c0.9-2.7,2-5.9,2.7-9.4
		c-0.1,0.1-0.1,0.7-0.3,1c-0.1,0.7-0.3,1.3-0.9,1.9l-0.4,0.7v0.3h0.1c0.1,0.1,0,0.6-0.1,0.7v0.1l-0.1,0.1c-0.4,0.9-0.4,1.6-0.7,2.2
		c-0.1,1.2-0.1,1.6-1,2c-0.6,3.2-1.4,6.3-2.7,8.9c0,0.1-0.3,0.4-0.3,0.7v-0.1c-0.1,0.1-0.3,0.3-0.3,0.4c-0.1,0.3-0.3,0-0.4,0.3
		c-0.1,0.1,0.3,0,0,0.4c-0.1,0.7-0.3,1.9-1,1.6c-0.1,0.6-0.1,0.9-0.1,1.3c0-0.1-0.3-0.1-0.3,0c0,0.3,0.3,0,0.3,0.1
		c-0.4,0.9-1,0.9-1,1.7c-0.4-0.3-0.1,0.9-0.6,0.7v0.4c-0.1,0.4-0.6,0.9-0.6,1.3h-0.3c-1.9,2.9-3.6,5.8-6.3,7.6c-0.3-0.1-0.6,0-0.7,0
		v0.1c-0.3,0-1.3,1.2-2,1.2c0-0.3,0.4-0.3,0.7-0.6c0.7-0.4,1.3-0.9,1.4-1.3c0.3-0.1,0.7,0,0.9-0.1l0.4-0.6l1-0.6l0.3-1l-1.2,0.9
		c0,0.3-0.3,0.3-0.3,0.4h-0.4c-0.9,1.3-2,1.9-3.3,2.7c-0.1,0,0,0.4-0.1,0.4v0.1c0-0.1-0.1-0.1-0.1-0.1c-0.4,0.1-1.6,0.4-2.6,0.6
		c-0.7,0.3-2,0.1-2.9,0.4c-5.8,1-12.4-1.9-13.4-7.8c-0.3-2.2-0.4-4.6,0-7.1l0.1-1.2c0.1,0.1,0.4,0,0.4-0.1V177
		c0.1,0,0.1,0.1,0.3,0.1c0-1,0.6-2.2,0.6-3.2c-0.3,0-0.3,0.1-0.4,0.1c0-0.1,0-0.1,0.4-0.3l0.1-0.6c0-0.7,0.1-1.3,0.3-1.7
		c-0.1-0.7,0-1.2,0.3-1.7c1-3.2,2-5.9,3.3-8.5c0.1-0.1,0.3-0.1,0.3-0.1c0.4-1.3,0.9-2.2,1.3-2.9c0.1,0.1-0.3,0.3-0.1,0.7l1.9-3.5
		c-0.1-0.1,0-0.4,0.1-0.9c0.1,0,0.1,0.3,0.1,0.4l0.3-0.9c-0.1-0.1-0.1-0.4,0-0.6c-0.3-0.1,0.3-0.3,0.4-0.6v0.1l0.3-0.1
		c0-0.1,0.1-0.1,0.1-0.3c0-0.1,0.1-0.7,0.6-0.7h0.1c0.1-0.9,0.4-1,0.6-1.3c0.1-0.3,0.3-0.3,0.3-0.9c0.3,0.6,0,0,0.1-0.1
		c0-0.3,0.1-0.3,0.4-0.3l-0.1-0.4c0.3-0.9,1.3-1.4,1.6-1.9v0.3l0.4-1.2c1-0.6,1.7-1.6,2-2.3v0.1c1-1,2.4-2.9,3.3-4.2
		c-0.3,0-0.6,0.3-0.6,0.4c0-0.4,0.6-0.9,1-1.4c0-0.1,0.3-0.3,0.4-0.7c0.3,0.3,0.3,0.3,0.6,0.3c0.7-0.9,1.3-2,2-2.7
		c0-0.1,0.1-0.3,0.1-0.3c0.4-0.1,0.9-0.7,1.2-0.9c0-0.3-0.1-0.3,0-0.4c0.3,0.1,0.3-0.4,0.4,0l0.3-0.4c1.6-1.2,2.6-2.7,4-3.9
		c0.9-0.1,1.3-1.3,2.3-1.6v-0.6c0.3,0.1,0.3,0.1,0.3,0.3c0.9-1.2,2.2-1.7,3.2-2.7l1.2-9.5h-0.1c0.1-0.1,0.4-0.4,0.1-0.9
		c-1.3,1.6-3.3,3-5.2,4.9l2-1.4c0,0,0.1,0,0.3-0.1c-1.2,1.3-2.6,2.3-3.6,3.3c1.6-1,2.7-2.3,4.3-3.5c0.7,0.1,0.9-0.6,1.4-1
		c-1.2,1.6-3.2,2.9-4.9,4.2l-0.9,1.3c-0.9,0.6-1.7,0.6-1.9,1.4c-0.4,0.1-0.9,0.7-1.2,0.9l-0.3,0.3c-1.3,0.3-2.2,1-3.6,1.2l-0.6,0.6
		c-2.9,0.4-5.5,0-7.3-1.3c-1.2-0.1-2.2-0.7-3-1.6c-1.3-1.6-2.2-3.2-2-6.5c0.1-4.6,1.6-8.4,2.7-12c2.4-4.3,5-8.6,8.1-12.8
		c2.7-3.2,5.8-6.3,9.1-8.9c1-0.4,1.9-1.9,3.2-2c2-0.6,4.3-1.4,6.6-1.3c0.6,0,0.9,0.6,1.7,0.6c0.7,0,1.4,0,1.9,0.1s0.6,0.4,1.2,0.3
		c1.3,1.4,3.2,3.3,4.5,5.2c0.1,1.3,0.7,1.9,0.7,3.5l-1.2,1.7c-1.2,0.4-3,1.6-3.9,0c-0.3,0.1-0.6-0.3-0.9-0.3c-0.3-0.1-0.4,0-0.6-0.1
		c-0.9-0.4-1-1.7-2.2-2.4c0-0.1-0.1-0.3-0.1-0.4c-0.7-0.1-1.6,0.3-2.4,0.7l-3.3,2.7c-2.6,2.4-4.8,5.2-6.9,8.1
		c-3.2,4.8-6.5,10.8-7.8,17.9c0,0.4-0.4,1.4,0.1,1.6c1.3-0.6,2.6-1.4,3.7-2.4c3.9-2.6,8.5-7.2,12.5-11.2c0.3-0.6,0.9-1.4,1.4-2
		l1.4-1.3c0.3-0.7,0.3-1.9,0.6-2.6c0.1-0.9,0.7-1.9,0.7-2.9c0.3-0.1,0.3-0.4,0.4-1.4c0.3,0.1,0.4,0.4,0.6,0.1
		c0.4-0.6,0.6-1.2,0.9-1.6c0.3-0.3,0.3,0.1,0.4,0.1v-0.4c0.6,0,0.7-0.1,1,0.3c0.3,0.1,0.3-0.4,0.3,0c0.3-0.3,0.1-0.4,0.3-0.4
		c0.3-0.3,0.3,0,0.6,0c0-0.1-0.3-0.1,0-0.3c0,0.1,0.1,0,0.6,0.1v-0.7c0.1,0.6,0.1,0.9,0.4,0.9s0-0.1,0.3-0.1s0.4,0.1,0.7,0.1
		c0,0-0.1-0.1,0-0.3c0.4,0,0.4,0.3,0.6,0.3c0.6,0.1,0.9,0.7,0.9,1.3c1,0,1.3,0.6,1.9,1.4c0.1,0,0.1-0.7,0.3-0.7
		c0.3,1.4,1.3,1.9,1,3.9l-0.7,2c-1.3,3.5-3,10.8-3.7,14.8c2.4-1,5.5-4.6,7.8-5.2c0.3-0.4,0.7,0,1.2-0.6c0.4-0.1,0.1,0,0.4-0.1
		c0.4-0.4,4.3-2.7,5.3-2.9c0.1-0.9,1.6-0.3,1.7-1.2c1.3,0.3,2.4-0.9,3.9-1.2c0,0.1-0.3,0.1-0.3,0.3c-0.1,0.1,0,0.1,0,0.6
		c0,0.1,0.7,0.3,0.9,0c-0.3,0-0.4,0-0.6-0.4c0.1-0.3,0.7-0.4,1-0.4c-0.1,0.1-0.4,0.3-0.4,0.6c0.7-0.1,1.9-0.6,2.3-0.6
		c-0.1,0.4-0.3,0.3-0.4,0.3c0,0.6,0,0.7-0.4,0.9h0.7c-0.4,0.3-1.4,0.3-1.6,1c0-0.3-0.3-0.1-0.6-0.1v-0.6c-0.3,0-0.1,0.6-0.4,0.6
		c-0.1-0.3,0.1-0.3,0-0.6c0,0.4-0.6,0.3-0.6,0.7c-0.6-0.3-1,0.6-1.6,0.6c-0.1,0.3-0.6,0.3-0.9,0.7c0.7-0.4,1.7-0.7,2.6-0.9v0.4
		c0-0.1-0.1,0-0.1-0.1c-0.7,0.4-1.4,0.6-1.7,1.3c0.3,0.6,1-0.9,1.7-0.7c0,0.6-0.1,0.7-0.6,0.7c-1,0.6-2,0.9-3.3,1.4
		c0-0.3,0.3-0.3,0.1-0.4c-0.4,0-0.6,0.1-0.9,0.3c-0.1,0.4,0.4,0.4,0.3,0.6c-1,0.7-5.8,3-6.9,3.9l-1.2,1c-1.3,0.4-2.4,0.9-3,2
		c0.4-0.1,0.7-0.4,1.3-0.4c1.2-0.7,2.3-1.4,2.9-1.6h0.1L781,118c0.3,0.1,0.3,0,0.4,0l-1.4,1.2c0.6-0.1,1-0.9,2-1.2
		c0.4,0,1-1,1.4-0.9c-0.3,0.4-0.4,0.9-1,0.9c-0.4,0.1-1,0.7-1.7,1.2c0,0-0.1-0.1-0.1,0c-0.4,0-0.4,0.3-0.6,0.4v-0.1
		c-0.1,0.1-0.4,0.4-0.7,0.4c-0.3,0.3,0,0.3,0,0.4c-1,0.9-2.2,0.9-3,1.7c0,0.4,0.1-0.3,0.4,0c-1.3,1-2.4,1.6-3.2,2.9
		c0.1,0,0.1,0,0.3,0.1c0,0.1-0.4,0.3-0.7,0.6c-1.2,12.1-3.2,23.5-6.5,34.3l-3.6,11.8h0c-0.1-0.3,0.1-0.7,0.3-1l0.4-1.6l-0.3,0.3
		c0-0.4,0.1-0.6,0.3-0.9C763.7,168.8,763.9,168.7,763.9,168.5z M728,186.4c0-0.1-0.1-0.3-0.1-0.3S727.9,186.2,728,186.4z
		 M728.3,176.3l0.1-0.1l-0.3,0.9L728.3,176.3z M728.6,180.2l-0.4,1c0,0.1,0,0.6,0.1,0.6l-0.1,0.9c0.1,0,0.4,0,0.4,0.4
		c0.4-1.6,0.3-3,0.1-4.8c0-0.1,0,0-0.1,0v1C728.7,179.5,728.6,179.9,728.6,180.2z M728.2,184.2c0.4,0,0.4-0.3,0.4-0.6
		c0,0-0.3,0.1-0.4,0.1C728.2,184.1,728.3,184.1,728.2,184.2z M728.7,174.7c0,0.3-0.1,0.7-0.3,1.2L728.7,174.7z M728.4,176.2v-0.3
		V176.2z M728.7,174.7l0.1-0.4C728.9,174.4,728.9,174.6,728.7,174.7z M729.6,173.6c-0.1-0.1,0-0.3-0.1-0.3
		C729.5,173.4,729.6,173.4,729.6,173.6z M729.9,185.1c0.1-0.3-0.3-0.6-0.4-0.9C729.5,184.6,729.5,184.9,729.9,185.1z M729.9,172
		c0.1-0.3,0.1-0.7,0.1-0.9C729.9,171.3,729.9,171.7,729.9,172z M730.5,170c0.1-0.3,0.3-0.6,0.1-0.7
		C730.5,169.4,730.5,169.8,730.5,170z M734.2,174.9c0.1-0.4,0.6-1.9,0.3-2.3C734.5,173.3,734.4,174.1,734.2,174.9z M734.5,180.6
		c0.1,0.1,0,0.6,0.1,0.6L734.5,180.6L734.5,180.6z M734.6,180.2c0.1,0,0.1-0.4,0-0.6C734.6,179.9,734.5,180,734.6,180.2z
		 M735.4,181.6c0-0.1,0.1-0.4-0.3-0.4C735.1,181.3,734.9,181.6,735.4,181.6z M751.6,142.3c0,0,0.1,0,0.1,0.1
		c-0.1,0.1-0.6,0.4-0.6,0.7L751,143c-0.6,1.2-1.3,1.9-2,2.7v-0.1c-0.3,0.6-0.7,0.7-0.6,1h-0.1l-1,1.4h-0.1c-0.1,0,0,0.4-0.1,0.6
		v-0.1c-0.3,0.9-1.2,2.2-1.9,2.3H745c0.1-0.6,0.3-0.9,0.7-0.9c0.1-0.6,0.4-1,0.9-1.4c-0.7,0.6-1.2,1.6-1.7,1.9l-0.3,0.9h0.3
		c-0.1,0-0.1,0.1-0.1,0.1l-0.1-0.1c0,0-0.1,0.1-0.1,0.4h0.3c-0.1,0.3-0.3,0.3-0.1,0.6l-0.3,1v-0.6h-0.1c0-0.6,0.1-0.7,0.3-1
		l-1.9,2.3l0.1-0.3c-0.1,0-0.6,0.3-0.3,0.4l-0.7,1.4v-0.1l-0.7,1.3v0.3c-0.9,1.2-1.4,2.3-1.7,3.6c0-0.1,0.1-0.1,0.3-0.1
		c0-0.1,0.1-0.1,0.1-0.6l0.1,0.3c0.1-0.3,0-0.6,0-0.7c0-0.1,0.6-0.9,0.6-0.9c0.1,0-0.1-0.1,0.1-0.4c0,0.3,0,0.3,0.1,0.3
		c0-0.7,0.4-1.6,0.9-1.7c0.1-0.1,0-0.1,0-0.3c0.6-0.6,0.6-2,1.7-2.3l0.1-0.7c0.4,0,0.4-0.1,0.6-0.3c0,0.1,0,0.1,0.1,0.3
		c-1.7,2.3-3,4.9-4.3,7.2h-0.1c-0.6,1-0.6,2.4-1.3,3.5c0.1,0.1,0.4,0,0.4,0l-1.2,3.7l0.6-1.6l-0.7,3L737,171l0.1-0.1h0.1
		c0.1-0.1,0-0.1,0.1-0.6h0.1c-0.1,0.7-0.3,1.7-0.7,2.6v-0.4c-0.1,0.4-0.1,0.6-0.3,0.6v-0.6h-0.1c0.1-0.4,0.1-1.2,0.1-1.4
		c0.3,0.3,0,0.9,0,1.2c0.4-1.3,0.6-2.4,1-3.5v-0.3c-0.1-1.3,0.7-2.3,0.6-3c0.1,0,0.1,0.1,0.1,0.1c0.1,0,0-0.3,0-0.3
		c0.1-0.3,0.1-0.4,0.1-1.2c-0.1,0.1-0.3,0.3-0.3,0.6c-0.1,1.3-0.7,2.4-1,4.2c-0.6,0.4-0.6,1.2-0.7,2c-0.9,1.6-1,3.7-1.2,5.6
		c0.4,1,0,1.6,0.3,2.4c0.3-1,0.3-2.9,0.4-4c0.4,1.2-0.1,3-0.3,4.2c0.1-0.4,0.7-1,0.7-1.6c0.1,0.1,0.1,0.1,0.1,0.4
		c0,0.1-0.6,0.4,0,0.9c-0.6,0.3-0.1,0.9-0.1,1.4c0.3,0.6,0.1,1.3,0.1,2c0,1.6,0.3,2.6,0.7,3.9c0.1-0.9-0.6-1.4-0.3-1.9
		c0,0.4,0.1,0.7,0.4,1c0.1-0.3-0.3-0.3,0-0.4c0,0.1,0.1,0.3,0.3,0.4c0-0.1-0.1-0.3,0-0.4c0.1,1,0.4,1.7,0.6,2l1.4,1.6
		c0.3,0,0.3-0.1,0.6-0.1c0.9,0.1,1.3,0,1.7-0.1c1-1.2,2.4-1.7,3-3.3l1-0.7c0,0,0.1-0.1,0.1-0.3v0.3c3.6-4.3,5.3-10.4,7.9-15.6
		c0.6-3.3,1.7-6.6,2.7-9.6c0.1-0.1,0.3-0.3,0.3-0.7c-0.1,0,0-0.1,0-0.3l1.6-8.5c0-0.1-0.1,0.1-0.1-0.1c0-0.1,0.3,0,0.1-0.4
		c-0.1-0.1,0-0.7,0.4-0.9c0.6-0.9,0.3-1.4,0.7-2.3c0.1-1,0.6-2.4,0.7-3.9l0.1-2.6c0.3-2.9,1.4-5.8,1.6-8.2c-0.1,0.1-0.4,0.1-0.1,0.4
		c-0.7-0.1-0.9,1.2-1.3,1c-0.3,0.3-0.7,0.7-0.7,1.2c-0.1,0-0.1,0.1-0.3,0.1c-0.6,0.7-1.3,1.9-2.3,1.9c-0.1,0.3-0.7,0.4-0.9,1.2
		c0-0.6,0-0.7-0.3-0.6c-0.1,0.1,0.3,1.2-0.1,1.3c0-0.1,0-0.7-0.1-1.2c0,0.6-0.3,0.6-0.3,0.7c-0.1,0.3-0.1,0.4-0.1,0.6l0.1-0.1
		c0,0.3,0-0.1,0.3-0.1c0,0.3-0.1,0.4-0.4,0.4c0,0.1-0.1,0.3-0.1,0.3c-0.1-0.3,0.1-0.4,0-0.4c0,0.1-0.1,0.1-0.3,0.1
		c-0.1,0.1-0.1,0.3-0.4,0.3l0.3-0.3c-0.3,0-0.3,0-0.6,0.3l0.3,0.1c-0.3,0.3-0.4,1.2-1.2,1c0,0.1,0.1,0.1,0,0.1v0.1
		c0.6,0,0.7-0.4,1-0.3l-2,1.9v-0.3c-0.3,0.3-0.4,0.3-0.6,0.3c-0.1,0.3,0.1,0.6-0.1,0.6c-0.1,0-0.1,0-0.1-0.1c-0.3,0.4-0.7,0.9-1,1
		c-0.1,0,0.1-0.1-0.1,0c0,0.4-0.3,0.6-0.3,1.2L751.6,142.3z M735.5,182.5c-0.6,0-0.1,1.6,0.1,1.7
		C735.6,183.6,735.5,183.4,735.5,182.5z M735.6,180.8c-0.1,0.4,0,1,0.1,0.7c0,0.3,0.1,0.6,0.6,0.9c-0.4-0.7,0-1.6-0.4-2.2
		C735.9,180.6,735.6,180.5,735.6,180.8z M735.8,174.4c-0.3-0.1,0.1-1.3,0.1-1.9C736.4,173.1,735.9,174,735.8,174.4z M735.9,169
		c-0.3,0.3-0.3,0.7-0.1,1C735.8,169.5,735.9,169.2,735.9,169z M736.4,165.8c-0.1,0.3-0.7,0.3-0.6,0.4
		C735.9,166.1,736.4,166.1,736.4,165.8z M735.8,171c0-0.1,0.6-0.1,0.6-0.1c-0.6-0.1,0.1-0.6-0.4-0.6
		C736.4,170.7,735.6,170.8,735.8,171z M735.9,180.2c0-0.1,0-0.4-0.1-0.4C735.8,179.9,735.8,180.2,735.9,180.2z M736.4,174.4v0.4
		C736.1,174.7,736.2,174.6,736.4,174.4z M736.5,173.3c0,0.4-0.1,0.4,0,0.9C736.5,174.1,736.7,173.3,736.5,173.3z M736.7,165.6
		c0,0,0.1,0,0.1-0.1c-0.1,0-0.1,0-0.3-0.1C736.5,165.5,736.5,165.5,736.7,165.6z M736.7,172.1c0.1,0,0.1,0,0.1,0.1
		c0-0.1,0.1-0.3,0.1-0.3C736.8,172,736.8,172.1,736.7,172.1z M736.8,165.4c0.1-0.1,0.3-0.6,0-0.6
		C736.9,164.9,736.7,165.4,736.8,165.4z M736.9,181.5c0,0.1,0,0.4,0.1,0.9C736.9,182.2,736.8,181.5,736.9,181.5z M737.1,183.1
		c-0.3-0.3-0.1-0.6-0.1-0.7C737.2,182.3,737.1,182.8,737.1,183.1z M737.2,163.5c0.1,0.1,0.1,0.3,0,0.4
		C737.5,163.8,737.5,163.8,737.2,163.5c0.1-0.1,0.2-0.1,0.2-0.1s0,0.3,0.1,0.1l0.4-1.9L737.2,163.5z M737.8,153.8
		c-0.3,0.1-0.4,0.3-0.4,0.3L737.8,153.8z M737.7,169.7c0-0.3,0.1-0.4,0-0.4C737.7,169.2,737.5,169.4,737.7,169.7z M738.1,162.6
		c-0.1,0.4-0.3,0.7-0.3,1.3C738,163.5,738.1,163,738.1,162.6z M738.1,163.8c0.1,0,0.3-0.4,0.1-0.4
		C738.2,163.5,738.1,163.5,738.1,163.8z M738.2,162.2v0.6h0.1c-0.1-0.4,0.4-0.6,0.6-1C738.8,161.8,738.4,162.3,738.2,162.2z
		 M739.1,158.6c-0.1,0-0.1,0-0.1,0.1C739.1,158.9,739.1,158.6,739.1,158.6z M739,163.9c0-0.1,0.1-0.3,0.1-0.3L739,163.9L739,163.9z
		 M739.2,162.9v-0.1c-0.1,0.3-0.1,0.4-0.1,0.6c-0.1-0.1,0-0.6,0.1-1l0.3-0.4L739.2,162.9z M739.2,160.9c0-0.1,0.1,0,0.1-0.1
		l-0.1-0.1C739.2,160.7,739.2,160.8,739.2,160.9L739.2,160.9L739.2,160.9z M740.4,155.8c-0.6,0.3-0.9,0.9-0.9,1.2
		C739.7,156.7,740.4,156,740.4,155.8z M740.4,160.2c0,0.1-0.1,0.1-0.1,0.1L740.4,160.2z M740.8,158.9l0.3-0.3
		c0.7-0.6,0.7-1.4,1.2-1.9c-0.1,0.4-0.4,1.2-0.6,1.9c-0.1,0-0.1,0-0.1,0.1C741.3,158.7,741,158.7,740.8,158.9z M741.1,148.5
		c0,0.1-0.1,0.1-0.1,0.6C741.1,148.8,741.6,148.4,741.1,148.5z M741.4,155.4c0,0.1-0.3,0.3-0.3,0.4
		C741.4,155.8,741.4,155.6,741.4,155.4z M741.6,158.9v0.3C741.4,159,741.6,158.9,741.6,158.9z M741.7,154.6c0.4-0.9,1.2-1.9,1.7-2.9
		l-1.7,2.4C741.7,154.1,741.6,154.4,741.7,154.6z M742.3,146.6c0.1-0.4,0.6-1,1.2-1.3L742.3,146.6z M742.6,154c0,0-0.1,0-0.1,0.1
		L742.6,154z M742.7,151.7c0.4-0.3,1.2-0.6,1.2-1L742.7,151.7z M743.4,155.4c0.1-0.3,0.1-0.9,0.6-1
		C743.9,154.7,743.9,155.4,743.4,155.4z M744.3,144.3c0-0.1,0-0.3,0.1-0.3C744.6,144.2,744.3,144.2,744.3,144.3z M745,148.4
		c-0.1,0.4-0.6,1-0.6,1.6C744.6,149.4,745.2,148.6,745,148.4z M745.7,148.8c-0.7,0.6-1.2,1.2-1.3,1.9L745.7,148.8z M744.7,153.4
		c-0.3,0,0.1-0.1,0-0.4C745,153.1,744.7,153.4,744.7,153.4z M744.7,143.9c0.1-0.9,0.7-1.4,1.4-2.2C745.9,142.5,745,143,744.7,143.9z
		 M744.9,151.2c0-0.1,0.1-0.1,0.1-0.3L744.9,151.2L744.9,151.2z M745,152.5c0.1-0.3,0.1-0.9,0.4-0.9
		C745.3,152.1,745.3,152.5,745,152.5z M746,151.2c0.4,0-0.1,0.3-0.1,0.4C745.4,151.5,745.9,151.2,746,151.2z M746.9,147.4
		c-0.3,0.3-1,0.7-1,1.2C746.2,148.1,746.7,147.9,746.9,147.4z M748.2,146.1c-0.7,0.4-0.7,1.9-1.7,2c0.1,0,0.1,0.3,0.1,0.4l0.9-1.2
		l2.9-3.7c-0.6,0-0.7,0.9-0.9,0.7C749.2,145,748.3,145,748.2,146.1z M747.2,146.5c-0.1,0-0.3,0.3-0.1,0.6
		C747,146.8,747.2,146.6,747.2,146.5z M747,146.3c0.1-0.3,0.6-0.7,0.4-1C747.3,145.6,747,145.6,747,146.3z M747.6,146.2v-0.6
		l-0.1,0.3L747.6,146.2z M747.6,149.5c0-0.1,0.4-0.3,0.4-0.4C748.3,149.2,748,149.4,747.6,149.5z M748.3,144.9
		c0.3-0.3,0.9-0.7,0.9-0.6v-0.4c-0.4,0-0.1,0.3-0.4,0.1L748.3,144.9z M749.3,142.7c0-0.1,0.3-0.1,0.3-0.4
		C749.5,142.5,749.3,142.6,749.3,142.7z M749.5,144.2c0.1-0.1,0.1-0.4,0.1-0.6c0-0.3,0.1-0.4,0-0.6c-0.1,0.3-0.3,0.9-0.3,1.2
		L749.5,144.2L749.5,144.2z M750,143c0-0.6,0.3-0.6,0.4-0.4c0.1-0.3,0.1-0.7,0.6-1l-0.1,0.3c0.6-0.3,0.9-0.4,0.7-0.9
		c0.3,0,0.1-0.3,0.4-0.1c-0.1-0.3,0-0.4,0.1-0.6h0.1c0-0.1,0.3-0.1,0-0.4l-2.6,3C749.9,142.9,749.9,143,750,143z M749.9,146.8
		c0-0.3,0.1-0.3,0.1-0.4C750.3,146.5,750,146.6,749.9,146.8z M750.8,144.9c0.1-0.3,0.4-0.6,0.4-0.9c0.4,0.1,0.4-0.1,0.7-0.3
		C751.6,144.3,751.2,144.6,750.8,144.9z M751.6,140c-0.6,0.1-0.9,1-0.6,0.7L751.6,140z M751.2,143.2v0.1
		C751.1,143.3,751.1,143.3,751.2,143.2z M751.9,144.2c-0.1,0.3-0.3,0.7-0.7,1C751.2,144.9,751.6,144.5,751.9,144.2z M751.6,145
		c0.1-0.1,0.3-0.6,0.6-0.7C752.1,144.6,751.9,144.9,751.6,145z M752.2,142.3c0,0,0,0.1-0.1,0.1L752.2,142.3L752.2,142.3z
		 M753.4,139.4c0-0.3,0.1-0.4,0.3-1.2l-1.3,1.6c0.3,0,0.4-0.1,0.7-0.4C752.9,139.9,753.2,139.4,753.4,139.4z M752.6,141l-0.3,0.3
		C752.4,141.3,752.4,141,752.6,141z M753.8,137c0.3,0.6-0.1,0.4-0.1,0.6c-0.4,0.1-0.6,1-0.9,0.9c0,0.1-0.1,0.3-0.1,0.6l1.7-1.6
		c0,0.1,0,0.1,0.1,0.1l-0.3,0.4c0.3,0,0.6-0.4,0.6-0.6c0-0.1-0.1,0.1-0.1,0s0.1-0.7,0.1-1.2c-0.3,0.6-0.3,1-0.3,1.2L753.8,137z
		 M752.8,188l2-2.2C753.8,186.1,753.4,187,752.8,188z M754.8,139.1l-0.1-0.1c0-0.3,0.1-0.3,0.1-0.4
		C755.1,138.6,754.8,139,754.8,139.1z M755.7,138.1c-0.1,0-0.1,0.1-0.3,0.3c-0.3,0-0.1-0.1-0.1-0.3H755.7z M755.8,135.1
		c0.1,0.4-0.4,0.7-0.1,0.7c0,0,0.1-0.1,0.1-0.3c0.3,0,1-0.6,0.6-0.9C756.2,135,756.1,135.1,755.8,135.1z M756.4,139.1
		c0,0.1-0.1,0.1-0.3,0.1L756.4,139.1z M757.4,134.2V134c0.1,0,0.3-0.3,0.7-0.6c0.6-0.3,0.1-0.9,0.4-1.3c0,0.4,0.1,0.4,0.1,1l1-1
		c0,0,0,0.1,0.3,0.1l0.1-1c0.3-0.3,0.6-0.9,0.9-1c0.4-0.4,1.4-1,1.6-1.4c-0.7,0.1-1.6,1.3-2.2,1.4c0.6-1,2-1.3,2.3-2.3
		c-2.2,1.9-4.2,3.3-5.3,5c0,0,0.1,0,0.1,0.1c-0.1,0.6-0.6,0.7-0.7,1.2C756.8,134.4,757,134.4,757.4,134.2z M757,184.5
		c0-0.3,0.1-0.4,0.4-0.4L757,184.5z M758,134.2c-0.4,0.4-0.9,0.9-0.9,1.3C757.5,135.1,757.8,135,758,134.2z M757.8,133.2
		c0-0.4-0.1-0.1-0.3-0.1c0.1-0.4,0.4-0.6,0.6-0.7C758.1,132.5,758.1,133.1,757.8,133.2z M758,183.1c-0.1-0.4,0.1-0.7,0.1-0.7
		C758.4,182.3,758.1,183.1,758,183.1z M758.3,151.4c-0.3,0,0-0.1,0-0.3C758.4,151.2,758.3,151.2,758.3,151.4z M758.8,181.2
		c0-0.1,0.3-0.7,0.6-1.2C759.4,180.5,759.1,181,758.8,181.2z M759.3,146.9c0,0.1-0.1,0.4-0.1,0.4
		C759.1,147.1,759.1,147.1,759.3,146.9z M759.3,179.3c0-0.1,0.1-0.3,0-0.4C759.3,179,759.1,179.3,759.3,179.3z M759.7,131.7l0.1-0.1
		C759.8,131.7,759.7,131.7,759.7,131.7z M760.1,178.7c0,0.1,0,0.6-0.3,0.6L760.1,178.7z M761.3,130.6v-0.4c-0.6,0.4-1.2,0.9-1.2,1.4
		C760.4,131.2,760.7,130.8,761.3,130.6z M760.1,178.6c0-0.3,0.3-0.6,0.3-0.6C760.6,178,760.3,178.3,760.1,178.6z M760.4,177.6
		c-0.1-0.4,0.1-0.7,0.1-1.2C760.7,176.9,760.6,177.2,760.4,177.6z M760.6,178c0-0.6,0.3-1.3,0.7-1.7
		C761.1,176.9,760.7,177.4,760.6,178z M761,131.4c0.6-0.4,1.4-0.4,1.3-1.2L761,131.4z M761.9,129.8c-0.4,0.1-0.6,0.3-0.4,0.6
		C761.7,130.2,761.9,130.1,761.9,129.8z M761.4,118.4l0.9-0.4l-0.1,0.1L761.4,118.4z M762.7,172.6c0,1.2-0.6,2.2-1.3,3.3
		L762.7,172.6z M762.3,118c0.1-0.4,0.4-0.7,0.7-0.7L762.3,118z M763.6,116.5c0,0.3-0.1,0.4-0.1,0.4L763.6,116.5z M763.6,116.5
		l0.3-0.3C763.7,116.4,763.7,116.5,763.6,116.5z M765.2,164.3c0.1-0.3,0.1-0.4,0.1-0.4C765.5,163.8,765.3,164.3,765.2,164.3z
		 M767.5,157c0.3-0.1,0.1-0.6,0.4-1C767.5,156.1,767.5,156.6,767.5,157z M776.4,94.2c-0.3,0-0.3-0.3,0-0.3V94.2z M776.5,94.1V95
		C776.5,94.8,776.7,94.1,776.5,94.1z M778.4,122c0-0.3,0.3-0.3,0.3-0.4C778.8,121.7,778.6,122,778.4,122z M782.4,117.3
		c-0.1,0.1-0.3,0.1-0.4,0.1c0.3-0.1,0.3-0.3,0.4-0.3V117.3z M784.2,116.2c-0.4,0.1-0.6,0.7-1.2,0.7c0.4-0.4,0.7-0.9,1.3-1.2
		C784.6,116.1,784.2,116.1,784.2,116.2z M784.3,116.4c0.6-0.4,1.2-0.7,1.4-0.7C785.5,116,784.9,116.1,784.3,116.4z M788.8,113.9
		c-0.3-0.1-2.9,1.7-3,1.7c0-0.3,2.9-1.9,3-1.9V113.9z M789.4,107.8c0.3,0,0.3,0.1,0.3,0.3C789.4,108,789.4,107.9,789.4,107.8z
		 M790.4,114.5c-0.1,0.1-0.3,0.1-0.3,0.1L790.4,114.5z M790.9,114.5c0.3-0.6,0.6-0.9,0.9-1C791.7,113.9,791.2,114.1,790.9,114.5z
		 M791.4,110.9c0,0.1,0.1,0.1,0.3,0.3v-0.3H791.4z M794.1,110.9L794.1,110.9C794,110.9,794.1,110.9,794.1,110.9L794.1,110.9z
		 M794.8,110.5c0.1-0.3,0.4-0.6,0.7-0.4C795.3,110.2,795.1,110.6,794.8,110.5z M795.3,109.2L795.3,109.2
		C795.1,109.3,795.3,109.2,795.3,109.2z M795.8,109.6c0.1,0.3,0.1,0.4-0.1,0.4C795.7,109.9,795.7,109.6,795.8,109.6z M796.6,109.6
		v0.6c-0.3-0.1-0.3-0.1-0.4-0.6H796.6z M796.8,109.3c0.1,0,0,0.7-0.1,0.7C796.6,109.9,796.7,109.6,796.8,109.3z M797.4,108.5
		c-0.1-0.1,0.1-0.4,0.4-0.4C797.9,108.3,797.6,108.3,797.4,108.5z M797.9,106.7v-0.3c-0.3,0-0.4-0.1-0.4,0
		C797.4,106.7,797.6,106.7,797.9,106.7z M798.3,107c0.1-0.1,0-0.6,0.1-0.7c0.1,0,0.1,0.4,0.3,0.6C798.6,107,798.4,107,798.3,107z
		 M798.7,106.9c0-0.4,0.1-0.4,0.4-0.4C799.2,106.7,798.9,106.7,798.7,106.9z"/>
</g>
<g id="Layer_2">
</g>
</svg>
