<?xml version="1.0" encoding="utf-8"?>
<!-- Generator: Adobe Illustrator 20.1.0, SVG Export Plug-In . SVG Version: 6.00 Build 0)  -->
<svg version="1.1" id="Layer_1" xmlns="http://www.w3.org/2000/svg" xmlns:xlink="http://www.w3.org/1999/xlink" x="0px" y="0px"
	 width="1136px" height="200.6px" viewBox="0 0 1136 200.6" enable-background="new 0 0 1136 200.6" xml:space="preserve">
<g>
	<rect fill="#1ABCDC" width="1136" height="163"/>
</g>
<g>
	<rect y="163" fill="#38DEFF" width="1136" height="37.6"/>
</g>
<g id="Layer_2">
</g>
<g>
	<path fill="#08798F" d="M317.8,122.3c0-0.1,0.1-0.3,0.1-0.3v0.6h-0.1v0.3c0.1,0,0.1-0.3,0.3-0.1c-0.1-0.4,0.4-2,0.3-1.2
		c0,1.9-0.9,3.5-0.7,5.3c0.3-0.4,0.3-1.2,0.3-1.6c0.1,0.4,0.3,0.6,0.3,0.9c0,0-0.1,0-0.1-0.1c-0.1-0.1-0.1,0.9-0.3,1
		c0,0.9,0.1,1.6,0.1,2.6l-0.1,0.1c-0.1,1.2-0.3,2.6-0.3,3.9c-0.4,0.3-0.6,0.9-0.6,1.3c0-0.1,0.1-0.1,0.3-0.4c0,0.6-0.3,1.6-0.1,2.2
		c0-0.1,0.1-0.1,0.1-0.3c0.1,1.2-0.1,2.2-0.1,3.3c-0.1,0.4-0.1,0-0.6,0c-0.1,1,0,1.6,0,2.4c0.6-0.3,0-0.7,0.6-1.2v6.9
		c-0.1,0.3,0,0.7-0.1,1c0.1,0.4,0.4,1.3,0,1.9c0-0.4,0.1-1.3,0-1.6c-1,1.3,0.3,3.7-0.3,4.5c-0.4-0.3-0.3-0.7-0.6-1
		c-0.4,0.4,0,1.4,0,2.4c-0.3-1.3-0.4-2-0.9-2.7c-0.1,1,0.7,1.4,0.3,2.7c-0.4-1.7-0.7-3.5-0.7-5.2c-0.9,1.3-0.1,3.2,0,4.3
		c0.1,0.3,0.3-0.4,0.3,0c-0.1,0.9,0,1.3,0,1.9c-0.7-0.7-1.3-2-1.6-3.3c-0.1,0.1-0.1,0.4,0,0.6c-0.1,0.1,0-0.3-0.4-0.1
		c0.1,2.2,0,2.4,0.4,4.8c-0.4-0.9,0-0.9-0.7-1.6c-0.3,0.1,0,0.6-0.1,1c-0.3,0.3,0-0.9-0.3-1.2c-0.9,0.1-0.7,1.2-1,1.4
		c-0.1-0.7-0.4-1.4-0.7-1.9c0,1.2,0.4,1.9,0.4,2.9c-0.1-0.3-0.4-0.3-0.7-0.3c0-0.3,0.3-0.6,0.1-0.7c-0.1,0-0.1,0.1-0.1,0.3
		c-1-2.6-2.4-4.8-2.9-7.2c0,1.2,0.4,2,0.3,3.7c-0.7-1.6-0.7-3.7-1.3-5.6c0,0.3,0.3,0.6-0.1,1c-0.6-3.2-0.6-6.6-0.7-10.1
		c0.1-4.2-0.3-8.4,0-12.5c0-0.9,0.1-1.4,0.3-2c0.1-1.7-0.4-3.3,0-4.9c0-0.3,0.3-1,0.1-1.4s-0.4-0.7-0.3-1.2l0.7-3.9
		c0.6-7.1,2-15.7,3.2-22.3c0.3-0.6,0-0.6-0.1-0.7c0-0.3,0.3-0.3,0.1-0.4c0.9-4.6,2.3-9.6,3.3-13.8c1-6.5,1.4-5,2.6-10.7
		c-0.6-2.3,1.4-6,0.7-8.8c-1,0.1-2.4,1.2-3.3,0.7c-0.3,0-0.3,0.3-0.3,0.4c-0.1,0-0.1-0.1-0.1-0.4c-3.7,1-12,1.2-16.1,0.6
		c-1.6-0.1-3.6-0.6-5.2-1.7c-1.4-0.1-1.9-1.7-1.4-3.6c0.7,0,0.4-0.4,1-0.7c0.4,0,0.9-0.4,1.3-0.3c0.1-0.6,0.1-0.9,0.3-1
		c0.7-0.1,1-0.9,1.9-0.6c0.4,0.4,0.4,0.7,0.6,1.4c0.4-0.4-0.1-0.6-0.1-1c0.6-0.4,0.7,0.1,1,0c0.1,0-0.1,0.1,0,0.3
		c0.3-0.7,1.3-1,2.2-1.2c0.1,0.6,0.4,0.1,0.4,1c0.3,0.1,0.3-0.1,0.6-0.1c0,0.1,0,0.3,0.3,0.3c0.6,0,1,0,1.3,0.3
		c9.4-0.9,20.7-5,29.7-6.5c0-0.1,0.1-0.1,0.1-0.3c7.9-1.4,17.3-2.2,25.9-0.1c0.6,1.2,2,0.1,2.7,0.4c0.1,0.7-0.1,0.7-0.1,1.2
		c-0.3-0.1-0.4,0-0.6,0c0.1,0.4,0.6,0.6,0.7,0.9c-0.3,0.6-0.6,0.6-0.7,1c-0.4,0-1.4,0-1.3,0.4c-3.3-1-1.2,1-3.6,1
		c0.3,0.4,1,0.3,1.4,0.3c0.1,0.3-0.3,0-0.3,0.1c1.4,0.7-2.6,0-1,0.3c-0.9,0.4-1.9-0.1-2.3,0.4h0.7c-1.3,0.6-2.6,0.6-3.3,0.7
		c-3.9,0.3-8.1-0.7-11.2,0.6c-1.7,0-4.2,0.7-6,1.3c0.3,0.4-0.6,0.4-1,0.7c0.1,0.4,0.3-0.1,0.6,0c0.3,0.7,0.7,1.2,1.2,1.6
		c0.6,1.3,0.9,3,0.6,4.8c-0.3,1.9-0.7,3.6-1.3,5.2c-0.3,3-1.2,1.2-1.6,4.3c-1,5-2,6.9-3.2,11.7c-0.9,3.3-1.3,6.9-2.2,9.8
		c0.3,1.7-1,3.5-1.2,5.3v0.1c-1.2,3.2-1.4,7.2-1.9,10.8c0-0.1,0.1-0.1,0.1-0.4c0.3-0.1-0.1,0.7-0.1,1h-0.1c0,0.3-0.1,0.3-0.1,0.4
		h0.1c0,0.1-0.1,0.1-0.1,0.4c0.1,0.7,0.1,2-0.4,2.7c0.6-0.4-0.3,1.2,0,1.7c0.1,0,0-0.4,0.1-0.7c0.1,1-0.3,2.3-0.3,3.3
		c0.3,0.7-0.3,1.9-0.1,2.6H320c-0.3,4.3-1,8.6-0.7,12.1c-0.4,0,0-1.6-0.3-2.2c-0.1,0-0.1,0.6-0.4,0.6c0.3-1.3,0.1-2.7,0.3-4
		c0-0.3-0.3,0.1-0.3,0l0.7-5.8c-0.3,0-0.3,0.9-0.4,0.9c0-1-0.1-1.9,0-2.6c0-1.3,0.3-2.4,0.7-3.5c-0.6,0.4-0.7,1.2-0.7,1.6
		c0,0-0.1,0-0.1-0.1v0.7l-0.1,1c-0.1,0.1-0.1,0.3-0.1,0.3c-0.3,0.7,0,1.3-0.1,2.4c0,0.3-0.1,0.1-0.1,0.1c0,0.4,0,0.1,0.1,0.3
		c0,0.1-0.1,0.4-0.1,0.7C317.8,121.4,317.8,122,317.8,122.3z M304.6,129.2c0.1,0,0.1,0.4,0,0.6C304.3,129.9,304.6,129.5,304.6,129.2
		z M306.4,151.2l-0.1-0.1C306.3,151.1,306.4,151.1,306.4,151.2z M306.7,152c0.1,0.1,0.3,0.4,0.3,0.7
		C306.7,152.4,306.9,152.1,306.7,152z M312.8,151.7c0.1,0-0.1,0.7,0.1,0.7C313.2,151.8,313.1,151.5,312.8,151.7z M313.6,155.3
		c-0.1-0.3-0.3-0.7,0-1.4V155.3z M314.1,141.9c0-1,0.4-2.3-0.3-3.5c0.1,2.6,0.1,4.9,0.1,7.3c0,0,0.1-0.1,0.1-0.3L314.1,141.9
		L314.1,141.9z M315.5,147.3c0-3.3-0.3-6.5,0-9.9c-0.3,0-0.3-0.3-0.4-0.3c0,2.2,0.1,4.5-0.3,7.2c0,0.1,0,0.6,0.1,0.7
		C314.8,145.9,314.8,146.6,315.5,147.3z M315.9,150.5c0.3-1.4-0.9-2.2,0.6-3.7c-0.1,0-0.1,0.1-0.3,0c0.3-0.3,0.1-0.9-0.1-1
		c0.1-1.7,0.1-3.6-0.1-5.8c0,0.3-0.3,0.9-0.1,1c0,0,0.1,0,0,0.1c-0.3,2.3,0.1,4.5-0.3,6.8v-0.6c-0.3,0.4-0.4,0.3-0.6,0.6
		c0.4,0.7,0.1,2.6,0.4,3.2c0.4-0.7,0.1-1.7,0.3-2.2L315.9,150.5z M314.9,144.2c0.3,0,0.1-0.7,0.1-1c0.3,0.4,0.1,1,0.1,1.6
		C314.9,144.8,315.2,144.3,314.9,144.2z M315.9,139.1c0.3-0.7,0.3-1.4,0-2V139.1z M316.4,148.9c0.1-0.1,0.1-0.9-0.1-1.2
		C316.1,148.2,315.9,148.8,316.4,148.9z M317,140c0.4,0,0.3,0.9,0,0.9C317,140.6,316.5,140.6,317,140z M317.4,134.2v0.6
		c0-0.1-0.1-0.1-0.1-0.3L317.4,134.2z M317.2,136.4l0.1-1.6C317.5,135.1,317.5,135.7,317.2,136.4z M317.4,130.8c-0.1-0.3,0.3-1,0-1
		C317.2,130.2,317.2,130.5,317.4,130.8z M317.4,134.2v-0.1h0.1L317.4,134.2z M317.4,146.2c0.1,0.3,0.4,0.6,0.3,1.2
		C317.4,146.9,317.4,146.6,317.4,146.2z M317.7,142.3c-0.1-0.4-0.3-0.9-0.1-1.3C317.7,141.3,317.7,141.7,317.7,142.3z M318,132.4
		c0.1,2.4-0.1,5.6-0.4,8.6C317.4,138.4,317.8,135,318,132.4z M317.8,131.6c0.1,0,0.1,0.7,0,0.7S317.7,132.1,317.8,131.6z M318,130.6
		c0.3,0-0.1,0.7-0.1,0.9C317.7,131.5,317.8,131.2,318,130.6z M318,121.9c0-0.1,0-0.3,0.1-0.4C318.1,121.6,318,121.7,318,121.9z
		 M318.1,142.6c0-2-0.3-4.3,0.3-7.3c-0.1,3.5,0,6.6-0.4,10.2C318,144.8,318,143.9,318.1,142.6z M318.4,118.5
		c0.3,0.3,0.1,0.4,0.1,0.9C318.4,119,318.5,118.8,318.4,118.5z M318.4,120.8l0.1-1.4C318.5,120,318.7,120.8,318.4,120.8z M319,132.5
		c-0.1-1.3,0.7,0.4,0.1,1.6C319.1,134.1,319,132.7,319,132.5z M319,117.1c0.7-0.9,0.9-1.7,1-3.2C319.1,115.1,319.5,116.1,319,117.1z
		 M319.5,131.6c0.1,0,0.1,0.4,0.1,0.7C319,132.4,319.5,131.9,319.5,131.6z M319.8,130.9c-0.3,0-0.3-1,0-1
		C319.7,130.4,319.7,130.8,319.8,130.9z M322.6,100c0,0.4-0.3,1-0.1,1.2C322.1,101,322.4,100.3,322.6,100z"/>
	<path fill="#08798F" d="M386.2,128.6c-0.3,0-0.4,0.9-0.7,0.6c0.1,0.3,0.3,0.3,0.1,0.4c-0.6-0.4-1,1.7-1.7,1.6
		c-0.1-0.3-0.1,0.1-0.6,0.1c0,0.1-0.1,0.3-0.3,0.6c-0.1,0-1,0.6-1,0.7c-0.4,0-0.6,0.1-0.7,0.6c0.4,0.3,0.4-0.4,0.9,0
		c-1.2,0.9-3,1.3-4,2.2c-0.1,0.1-0.4,0.1-0.6,0.1c-0.1,0.4-0.7,0.4-1.2,0.4l0.7-0.3H376c0.1,0,0.3,0.3,0.4,0.3
		c-1.4,0.1-3.3,0.3-4.8,0c0.1-0.3,0.4,0,0.7-0.3c-0.1,0-0.1,0,0-0.3c-0.9,0-1.4-0.6-2.3-0.1c-0.3,0-0.1-0.4-0.3-0.4
		c-0.3-0.1-0.3,0-0.4,0c-0.9-1.2-2.2-2-2.9-2.9c-1.6-2.4-2-6.2-1.9-9.6c0.6-5.3,2.6-11.5,4.2-16.7c0.7-1,1-2,1.3-3.2
		c2.9-6.6-1.2-4.6-2-3.9c-0.7,0.6-1.3,1.2-1.7,1.3l-0.4,0.6l-0.7,0.4c-0.4,0.3-0.9,1.3-1.2,1.4c-2,2-4,3.9-5.6,6.3
		c-0.1,0-0.1,0.4-0.6,0.4c-0.4,0.3-0.9,0.6-1,1.2h0.1c0,0.1-0.1,0.3-0.1,0.4v-0.4c-0.1,0.1,0,0.4,0,0.6c-1.6,1.9-2.7,3.6-4.2,5.5
		c-0.7,4.8-0.4,6.6-1.9,11.8c-0.3,1.2-0.1,3.6-1.9,3.9c-0.3,0.7-0.3,0.7-0.3,1.3h-0.3l-0.6,1.3c-0.1-0.3-0.1-0.4-0.4-0.6
		c-0.3,0,0,0.1-0.1,0.1c-0.1,0.1,0-0.1-0.1-0.1c-0.4,0.3-0.3,0.7-0.3,1c-0.3-0.1-0.3,0.4-0.3,0.4c-0.1,0-0.1-0.1-0.4-0.4
		c-0.1,0.4-0.9,0.7-0.9,1.3c-0.1,0-0.3-0.3-0.3-0.3c-0.4,0.3-2.3,0.3-2.6,0.4c-1.3-0.4-2.2-0.1-3.5,0.4h-0.4c-0.1,0,0.6,0.4,0.4,0.6
		c-0.3,0.1-0.3-0.3-0.7-0.1c-0.3-1.6-0.9-3.3-0.3-5.6c-0.4-0.1-0.4,0.3-0.4-0.1l0.4-3c0.1-0.3,0.3-0.7,0.1-1
		c0.1-0.9,0.3-1.6,0.3-2.3c0.3-1.6,0.1-2.9,0.1-4.8c0.4-1.7,0.7-3.7,0.9-5.5l0.4-4.8l0.3-1.4c0.4-1.4,2.3-7.8,3.5-14.7l0.6-2.7V90
		l3.7-14.3c0-0.9,0.3-1.3,0.3-1.7c0.4-0.4,0.4-1.6,0.4-2c0.9-2.6,1.6-4.5,1.7-5.2v-0.3c0.3-1.7,1-3.3,1-4.9c0.6,0,0.1-0.3,0.6-0.4
		c1.3-3.5,3.5-3.5,5.6-4.6c0.4,0,1,0.1,1.6-0.4c0.7,0.6,1,0.6,1.9,0.7c1.6,0.4,3.2,1.3,3.2,3.2c0,0.7-0.3,1.6-0.3,2.6
		c0,0.6,0,1.2-0.1,1.6c0,0.9-1.6,4.9-2.7,9.6l-0.6,2.3l-0.6,1.7c-0.1,0.9-0.1,1.3-0.4,2c-0.3,2.4-0.4,1.6-0.9,4.3l-0.1,0.7
		c-0.6,0.7-0.7,1.7-0.7,2.9c-0.4,2.6-0.7,5.5-1.4,7.6c-1.3,5.6-2.3,11.2-2.4,12.4c1.2-0.9,2.7-2.7,3.6-4.3c1.6-1,2.7-2.6,3.6-4
		l3.2-2.7c0.6-1,1.2-1.4,2-2.4c3.3-2.4,5.9-4.9,10.5-6c0.1,0,0.3-0.3,0.6-0.4c0.9,0.1,1.9-0.4,2.7,0.3c0.4-0.4,1.4,0.1,1.9,0.3
		c0.3,0,0.3,0.4,0.3,0.4c0,0.7,1,0.1,1,0.9c-0.4,0-0.4-0.1-0.7-0.1c0.1,0.3,0.3,0.6,0.9,0.3c-0.1,0.9,0.4,1.4,1.2,1.7
		c0.1,0.6,0.1,1.2,0.1,1.7v1.3c-0.1,0.6-0.1,2.2-0.6,2.7l-1.4,4.6c-3.2,7.6-6.9,17.3-6.2,23.2c-0.1,1.4,0.6,2.7,1.4,3.9
		c2.3,1,3.3-1,5.2-2.4c-0.1,0.3-0.3,0.6-0.3,0.7c1.2-1.4,1.7-2.6,3.2-4.2h0.4c0.6-0.9,1.4-1.2,2.4-3c0.1,0.1,0.1,0.1,0.1,0
		c1.2-1.3,2.9-2.4,3.9-4c0.7-1,1.6-2.4,2.6-3.2c1.6-2.4,3.7-4.9,5-7.9l1.2-1.6c0.1,0,0.1,0.1,0.3-0.1c0-0.9,0.7-1.3,0.6-2.2h0.3
		c0.6-1,1.4-1.9,2-3.2c0.1-0.3,0.1,0,0.3-0.1c0-0.4,1.2-0.9,1.3-1c0.6,0.4-0.1,1.7,0.4,2.3c1-0.4,0.6-2.2,1.4-2.6
		c0,0.1,0.1,0.1,0.1,0.1v-0.7c0.3,0-0.1,1,0.4,1c-0.1,0.3-0.3,0.4-0.3,0.6c0.1,0.1,0.1-0.1,0.3-0.3c-1.4,4.9-4,9.1-6.6,13.2
		c-0.4,0.1-0.9,0.9-1.2,1.6c-0.1,0.3-0.3,0.7-0.6,0.7c-1.2,2.2-2.9,4-4.8,6c0.1,0.1,0,0.6-0.1,0.9c-0.3,0,0-0.3,0-0.4
		c-0.3,0-0.3,0.4-0.4,0.9c-0.3-0.7-0.6,0.1-0.4,0.4c-0.6-0.1-1.2,0.6-0.7,1c-0.4,0,0-0.1-0.4-0.3c-0.3,0.3-0.6,0.9-0.7,1.3
		c-0.1,0.3-0.4,0.4-0.6,0.4c-0.3,0.9-1.4,1.7-2.3,2.4c-0.6,0.4-1.2,1.2-1.6,1.9v0.1l-0.1-0.1C387.5,128,386.8,128.3,386.2,128.6h0.1
		c0,0.3-0.1,0.3-0.1,0.3V128.6z M372.7,135.4c0.4,0,0.4,0,1-0.6C373.4,134.2,373.1,135.2,372.7,135.4z M377.1,135.7l0.4-0.1
		C377.4,135.5,377.1,135.7,377.1,135.7z M383.9,132.7c0.1-0.3,1.4-1,1.9-1.3C385.6,132.1,384.9,132.4,383.9,132.7z M386.8,129.5
		c0,0,0-0.6,0.1-0.4C387.1,129.1,387.1,129.2,386.8,129.5z"/>
	<path fill="#08798F" d="M437.9,109.5c-3.2,4.2-15.6,18-21.9,21.7c0,0,0,0.1,0.1,0.1c-2.2,1.4-4.3,2.4-6.9,2c-0.1,0-0.4-0.1-1.2,0
		c-2-0.9-3.5-0.1-5.2-1.2c-0.7,0-1.6-0.3-1.9-0.3c-1.9-0.3-0.9-1.3-2.6-2.2c-2.4-3-3.5-6.8-2.6-12.4c0.9-3.6,0.3-7.1,1.6-10.2
		c0.1-0.1,0.3-0.1,0.3-0.4l-0.1-0.3c2.4-4.9,2.6-7.1,4.8-12.1c0.6-0.9,0.9-1.7,1.2-2.7l1-1.2c0.9-2.4,2.2-4,4-6.2
		c0.6-0.7,1.3-1.6,1.7-2.6c0.1-0.6,0.7-1.2,1.6-1h0.4c0.4-1,1.3-1.2,2-1.6c0.6,0,0.9,0.1,1.3,0.3c0.3-0.4,0.9-0.4,1.2-0.3
		c0.4-0.1,0.6-0.1,1.3,0c0.1,0,0.6-0.1,0.6-0.1c0.1,0.1,0.3,0.4,0.6,0.6c0.4,0.3,0.7,0,1,0.4c0.1,0,0.6,0.1,0.9,0.3
		c0.1,0,0.1-0.3,0.4-0.1l-0.1,0.7c0.3,0,0.3-0.1,0.4-0.1c0.3,0.1,0.4,0.4,0.7,0.4v0.1c4.2,2.7,4.8,9.1,2.7,14.3v0.3
		c-1.7,2.2-2.6,4.5-3.9,5.9c-0.1,0.9-1.3,1.3-1.6,1.9c-2,1.4-3.7,4-6.3,5.3c-0.7,0.6-3.6,1.7-4.8,2.4c-2,3.3-1.6,1-2.3,6
		c-0.4,2.6-1.4,5.5-1.2,7.8c0.3,1.9,1,2.7,2.6,3.5c2.7-0.6,4.9-2.2,7.1-3.9c0.3,0.1,0.3-0.1,0.7-0.1c1.4-1.2,3.6-2,4.6-3.7l0.4-0.4
		h-0.1c0.7-0.7,1.9-0.9,2.4-2.2v0.1c0.3-0.1,1.3-0.6,1.2-1.4c0.1,0.1,0.1,0.1,0.3,0.1v-0.3c0.6-0.6,1.2-1.4,1.6-1.6
		c4.8-4,7.1-8.6,13.2-13.4c0.6-0.3,1-1.2,1.3-1.4c0.6-0.1,0.9-1.2,1.4-1.9c0.3,0.4,0.7,0.9,1,0.4c0.1,0.1,2.4-2.3,2.3-2.2
		c0.1,0.1,0.4,0.1,0.6,0c0,0.1-0.1,0.1-0.3,0.3c0.1,0,0.3,0.1,0.4,0c-0.1,0.1-0.1,0.6-0.4,0.6c-0.4,0.4-1.4,1.9-1.2,1.7
		c-0.1,0.4-1.3,1.3-1,2.2c0,0.1,0.3-0.9,0.6-0.9l0.9-0.9c-0.3,0.9,0.4-0.4,0.4,0.4c-0.1,0-0.9,0.9-1,1.2l0.1-0.1
		c0,0.1-0.1,0.1-0.1,0.1c-0.7,1.4-1.7,2.6-2.7,3.3c-0.1,1.3-0.7,1.4-1.2,1.7c0-0.3,0.6-0.3,1-1c-0.7,0.6-1.2,0.7-1.2,1
		c-0.6,0-0.7,0.6-0.7,0.9v0.3c-0.4,0.1-0.6,0.7-0.9,0.9C438.8,108.3,438.5,108.8,437.9,109.5z M397.3,114.9
		c-0.3,0.4-0.3,0.7-0.4,1.3v0.1c-0.3,1.2-0.4,2.6-0.6,3.9c0.4,0.6-0.1,1.2-0.1,1.6l0.4,1.6c0,2.7,0.9,5.6,3.5,7.5
		c-0.4-0.4-0.7-1.2-0.9-1.3c-0.9-2.2-2-3.6-2-5.9c0-2.7,0.4-5.9,1.3-9.1c0-0.9,0.4-2.4,0.3-3.2c-1.4,0.4-1.3,1.6-1.3,2.3
		C397.5,114.1,397.3,114.5,397.3,114.9z M414.4,102.7c2.6-1.4,4.2-3.7,5.3-6.8c-0.3-0.1-0.4-0.1,0.1-1l1-5.5c-0.3-0.6,0.1-1.4,0-1.7
		c-0.6,0.1-1,0.3-1.7,1.2c-0.7,1.2-1.7,3-3,4.2l-1.3,1.9c-1.3,2.7-3.7,8.9-4.8,12.1c0.7-0.6,3.6-3.3,3.9-4.3
		C414,102.7,414.4,103,414.4,102.7z M437.9,109.5h0.1H437.9z M438.1,109.5l1.3-0.6C439.1,109.2,438.5,109.3,438.1,109.5z
		 M441.4,106.4c-0.1-0.3,0.7,0,0.7-0.1C442.4,106.4,441.5,106.4,441.4,106.4z M442.8,105.6c-0.1-0.3,0.1-0.7,0.4-0.9
		C443.2,104.9,443,105.3,442.8,105.6z M443.1,103.6c0.1-0.4,0.4-0.4,0.4-0.6C443.7,103,443.4,103.6,443.1,103.6z M445.3,99.4
		l-0.4,0.4v-0.1L445.3,99.4z M445.7,99c0,0.1-0.3,0.4-0.4,0.6v-0.3l0.1-0.1v0.1L445.7,99z M446,98c0.3-0.1,0,0.1-0.4,0.7L446,98z"/>
	<path fill="#08798F" d="M503.7,148.1c0.4,0.1,0.7,0.3,1,1.2c-0.7,0,0.1,0.1-0.9,0.1c-0.3,0.4,0.1,0.1-0.3,0.7c-0.4,0.4-1.6,0-2.3,0
		c-0.4,0.4-4.9,0.4-5.5,0.4c-0.1,0.1-0.1,0.1-0.1,0.3l0.9,0.6c-0.1,0.1,0.3,0.1,1,0v0.1c-0.3,0-0.3,0-0.3,0.1
		c-0.6,0.4-0.9,0.1-1.6-0.1c-5.2,0-9.9,2.9-15.6,4.5c-0.4-0.6-1.6,0-1.7,0.3c-0.1,0-0.1-0.1-0.1-0.1c-1.6,0.3-3.3,0.4-4.3,0l0.1,0.1
		c-0.4,0.3-0.4-0.3-1-0.3c-0.3,0-2.4,0.3-2.7,0.3c-0.9,0-2.2-1.3-2.6-2.2c-1.7-0.1-3.9-0.9-4-2.6c0-0.3,0.1-0.9,0.1-1.2
		c0-1.7-0.1-3.2-0.1-4.9c0-0.3,0.1-0.7,0.1-1.2c0.9-6.5,2-13,3.2-19.3c0.4-3.7,0-4.8,0.6-8.4l1.9-9.6c1.2-7.1,2.3-10.7,3.6-17.4
		c1-3.5,1.6-4.3,2.3-7.6c1.2-4.6,1.9-5.2,3-9.6l0.6-3.5c0.1-0.3,0.7-0.9,0.7-1.3c0.7-3.7,2.2-7.2,2.9-11.1c0.9-0.7,1-1.9,1.2-2.6
		c0.4-1.3,1-2.4,1.3-3.7c0.4-1,1-1.9,1-3.3c0.6-0.3,0.7-1,0.9-1.7c0.1-0.1,0.9-0.3,1-0.3c0.6-1.3,1.7-2.2,3.5-2.7
		c1.3,0.1,4.3,1.2,5.6,1h0.1c0,0.1-0.3,0.1,0.1,0.4c0.4,0.4,0.9,0.6,1.3,0.9c0.3,0.1,0.4,0.1,0.7,0.4c0.9,0.7,2.3,2.3,2.3,4
		c0,1.4-1,2.9-1.2,4.8c-0.4,0.1-0.9,0.7-0.4,1.3c-0.4,0.3-0.9,0.9-0.9,1.6c-0.3,0.1-0.1,0.6-0.4,0.7c-4.6,14.7-7.1,19.7-10.7,35
		c-1.9,9.5-4.2,18.6-5.5,28.4c-0.1,0,0.1,0.4-0.1,0.3c0.3,0.6,0.3,1.6-0.6,1.6c-0.1,0.3,0.7,0,0.4,0.3c-0.4,0.4,0,0-0.4,0
		c-0.3,0.6-0.1,1.3-0.3,2c0.1,0,0.3,0,0.3-0.1c-0.1,0.6-0.3,1.3-0.1,2c-0.4,0.4-0.9,0.9-0.7,1.6c0,0.3,0.1,0,0.3-0.3
		c0,0.7-0.1,1.7-0.3,2.3c-0.3,0-0.3-0.1-0.3-0.1c-0.1,0.4-0.3,0.7-0.1,0.9c0-0.3,0.3-0.3,0.4-0.6c0.1,0.6-0.3,1.3-0.6,1.6
		c0.1,0.1,0.1,0.4,0,0.9c0.3-0.6,0,0.3-0.3,0.4c0,0.1,0.1,0.1,0.1,0.1c-0.1,0.3-0.1,0.7-0.1,1.2c0.3-0.6,0.3-1.2,0.6-1.6
		c-0.1,0.7,0.1,2.4-0.7,2.9c0,0.4,0.4-0.1,0.3,0.3c-0.1,0.3-0.1-0.1-0.3,0c-0.3,0.6-0.3,1.4-0.6,2c0.3,0.1,0.3-0.3,0.6-0.3
		c0,0.4-0.6,0.4-0.9,0.7c0,1-0.1,1.9-0.3,2.3c0.3-0.6,0.4-1.3,0.9-2.2c-0.3-0.3-0.3,0.1-0.4,0c0-0.1,0.4-0.1,0.7-0.4
		c-0.1,0,0.1-0.1,0.1-0.4c0.1,0,0,0.4,0,0.4H480c-0.1,1.9-0.6,3.2-0.9,4.8h0.1l-0.1,0.1c-0.1,1.2-0.1,2.6-0.1,4
		c5-1.6,5.8-2.4,11.5-2.3c0.7,0,1.4-0.1,2,0c0.1,0,0.7-0.1,1-0.4c1.6,0.6,0.6,0,2.7-0.1c2.3-0.1,5,0.1,6.3,2
		c0.3,0.4,0.1,0.9,0.3,1.2L503.7,148.1c-0.1-0.1-0.3-0.3-0.4-0.3v-0.1c0.4,0,0.4,0,0.9,0.1C504,148.1,503.9,148.1,503.7,148.1z
		 M478.7,156.3c0.1-0.1,0.4-0.3,0.6-0.3C479.4,156.3,479,156.1,478.7,156.3z M480.8,132.8c-0.3,0-0.3-0.9,0.1-0.7
		C480.7,132.2,481,132.7,480.8,132.8z M481.8,124.6c0.1-0.3,0-1,0.4-1.3C482.3,123.7,482,124,481.8,124.6z M504.2,148.2
		c0.1-0.4,0.3-0.4,0.4-0.1C504.6,148.2,504.4,148.1,504.2,148.2z"/>
	<path fill="#08798F" d="M562.9,99.1c0,0.1,0.3-1,0.6-1.2c-0.1,0.6-0.3,0.7-0.3,1.2c0.3-0.4,0.4-1,0.4-1.3h0.3
		c1-1.9,1.9-3.3,3.2-4.9c-0.1,1.3-1.2,1.4-0.7,2.3l0.9-1.2l-1,1.9H566c-0.6,1.3-1,2.7-2.3,3.7c0.1,0.1,0,0.1,0.3,0.3l-1.7,3.6
		c0.3-0.1,0.4-1,1-1.2c-0.1-0.3,0.1-0.6,0.1-0.9c0.3,0.1,0,0.3,0,0.6c1.2-0.7,1.2-2.4,2-3.2c0.1,0.4-0.3,0.7-0.1,1
		c-0.6,1.7-1.7,2.6-2.2,4.5c-0.3,0.1-0.1,0.4-0.4,0.6c-0.6,1.6-9.4,12.8-10.1,14.3v0.4c-0.3,0.1-0.3,0.4-0.4,0.6l0.4-0.4l-0.9,1
		c-0.1,0.1-0.1,0.3-0.4,0.3V121c-0.1,0.1-0.4,0.4-0.1,0.6c-0.6-0.1-0.7,0.9-0.6,1h-0.3v0.3c-0.6,0.1-0.7,0.4-0.9,0.7l-0.3,0.7
		c-0.4,0.4-1.3,1.2-2.2,2.2c-0.3,0.6-1.2,0.7-1.3,1.3c1-0.7,2.2-1.7,3.3-2.9c-1.3,1.6-2.3,2.7-4.5,3.7c0.1,0.4,0.3,0.3,0.3,0.3
		c-0.1,0.3-0.7,0-1.2,0.1h0.3c-0.3,0.4-0.6,0-0.7,0.4c0.1-0.4-0.1-0.6-0.6-0.4c-0.1-0.1-0.1,0.1-0.3,0.1c-1.3,0.3-2.9,0.3-3.7-0.1
		c-0.1,0-0.1,0.1-0.1,0.1c-0.4,0-0.6-0.3-0.9-0.3c-0.6-1-1.7-1-2.4-1.4c-0.4-0.3-1.2-2-1.3-3c-1.4-4-1.3-10.1-1.4-14.5
		c-1.7,2.9-3.3,5-5.3,7.6c-0.1,0.1,0,0.1,0,0.3c-1.9,2-3.3,4.5-5.3,6v0.4c-1.3,1-2.7,1.6-4.5,2.2c-1.3,0.6-2.9,0.7-4.3,0.7
		c-1.4,0.1-2.4-0.1-3.6-0.3c-0.9-0.3-2.4-0.7-3.3-1.2c-2.3-1.4-2.2-7.3-1.7-10.8c0.7-6.2,2.7-12.5,5.2-17.6c1.3-2.7,2.6-5.2,4.2-7.6
		c0.6-0.9,0.9-2.3,1.7-3c2-2.7,4.5-5.3,7.2-7.5c2-3,10.8-2.2,9.5-2.2c0.3,0.1,0.4,0.4,1,0.4c0.1,0.1,0.1,0.3,0.9,0.1
		c0.6,0.4,1.3,0.4,1.9,1.2c0.7,0.1,0.9,1.2,1.7,1.2c2.6,1.4,3.7,2.3,6.3,3.9c0,0.4,0.1,0.4,0.1,0.9c0,0.3-0.7,0.4-1.2,0.9
		c-0.9,0-1.3,0-2.2,0.3c-0.1,0-0.6-0.3-0.9-0.4c-0.6-0.1,0.1,0.4-0.6,0c-1-0.3-2-0.4-3-0.9c-0.9-0.3-1.7-1.2-3.2-1.4
		c-0.9-0.3-2.2-0.6-3-0.4c-0.4,0-0.9,0.4-1.4,0.7c-2.9,3-5.3,6.5-6.9,9.6c0,0.3-0.1,0.3-0.1,0.4l-1.9,3.7c0,0.3,0,0.9-0.4,1.7
		c0,0.1-0.3,0.4-0.3,0.4c-0.6,1-1.3,2.6-1.6,3.6c-0.6,1.2-1,1.9-1,2.6c-1.2,3.9-2.3,7.9-2,13.2c2.6-2.4,4.5-5.2,6.3-7.6
		c0.9-1.9,2.6-3.2,3.2-4.9c2.2-2.3,3.7-5.2,5.3-7.6c0.1-0.6,0.1,0,0.3,0c1.4-2.9,4.6-6.2,5.2-8.9c0.3,0,0.3,0.3,0.6,0.1v-0.6
		c1,0,1-1.2,2-0.9c0.3-0.4-0.1-0.6-0.1-1c0.3,0,0.6,0.1,0.7,0.1c0-0.3,0.4-0.3,0.6-0.3c0.6-0.1,0.1-0.1,0.1-0.3
		c0.4,0.1,0.6,0.3,1,0.3c0.4-0.7,1.7-0.1,1.9,0.3c0.1-0.1,0-0.4,0.3-0.4s0,0.4,0.1,0.6c0.6-0.1,0.1-0.6,0.1-1c0.6,0.6,0,1.4,0.9,1.7
		c0,0,0.1-0.4,0-0.6c0.4,0.1,0.1,1,0.7,1.7c0.4,0.1,0.7,0.7,0.7,1.4c0,0.9-0.7,3-0.7,3.9c0.3,2.3-0.7,4.8-1.2,7.1
		c-0.6,1.6-0.7,3-0.9,5c-0.6,4-1,6.8-0.3,11.4c-0.3,1.3,0.1,2.7,0.3,4.3c1.3-0.6,1.6-1.7,2.7-2.3c1.2-1.6,3-2.9,4-4.9
		c1.3-1.3,7.8-10.4,9.5-12.1c0.1-0.6,0.6-1.6,0.9-1.2c0.9-0.6,1.3-2.3,2-3c0.4-0.7,1.2-1.4,1.4-2.2c0-0.3,0.1-0.6,0.3-1.2
		c0.1,0,0.4-0.4,0.9-0.6c0.3,0.4-0.4,1.2-0.6,1.6c0.4,0.3,0,0.9,0.1,1h0.1c-0.4,0.6-0.7,1.2-0.7,1.4
		C562.5,99.4,562.8,99.4,562.9,99.1z M532.7,108.5c-0.9,0.7-1.3,1.9-2,3.5L532.7,108.5z M531.8,108.3c0.4-0.3,0.6-0.4,0.4-0.9
		L531.8,108.3z M532.5,107.3C532.4,107.3,532.1,107.3,532.5,107.3L532.5,107.3z M550.2,123.4c0-0.1,0-0.1,0.1-0.4
		C550.4,123.3,550.2,123.3,550.2,123.4z M563,98l0.3-0.6C563.3,97.7,563.2,97.8,563,98z"/>
	<path fill="#08798F" d="M566.6,119.6l0.4-0.7l1.2-1.9c-0.6,0.3-1,1.4-1.6,1.4c0-0.1,0.1-0.1,0.1-0.3h-0.1c0.6-0.9,1.6-1,1.9-2.4
		h0.4c-0.4-0.3-0.6,0-0.7,0.3h-0.3c0,0.1-0.1,0.9-0.4,1.2c0,0.1-0.1,0-0.1-0.1l-1.3,1.3c0,0.1,0.4-0.1,0.4-0.1
		c0,0.3-0.4,0.7-0.4,1.2c-0.4-0.3,0.3-0.4,0-0.9l-3,4.8c0.1,0,0.9-0.9,1.2-0.9c-0.1,0.3,0,0.3,0,0.1c0.1,0.1-0.1,0.6-0.3,0.6
		l0.1-0.3c-0.9,0.3-1,1.2-1.2,1c0,0.1,0.1,0.1,0,0.3c0,0.1,0,0.3-0.1,0.3c0.1-0.1,0-0.4,0-0.4c0,0.1-0.1,0.1-0.1,0.4v0.1
		c-0.7,1.7-2,3.5-2.4,5.8c0.6-1.3,1.3-2.9,1.9-3.3c-0.4,0.7-1.3,1.7-1.7,3.3h0.6h0.4c0.1,0.1,0.1,0,0.1-0.1c0.3,0.1,1,0,1.6-0.1
		l4.9-1c-0.1-0.1,0-0.1,0.3-0.1c0,0.4,1.2,0.4,1.4,0c-0.3,0-0.3,0-0.4-0.1h0.4c0,0.1,0.1,0.3,0.3,0.1c0.9,0.9,0.9,0.3,0.9,0
		c3.7-0.4,7.6-1.4,11.5-1.2c1.4-0.3,4,0,5.8,0.1l0.3,0.6c0.4-0.3,0.4-0.6,1-0.3c0,0.3-0.4,0.3-0.6,0.3c0,0.1,0.1,0.1,0.6,0.1v-0.1
		c0.3,0,0.6,0.3,0.6,0s-0.4,0-0.4-0.6c0.4,0.3,1,0.3,1.2,1c0.6,0,1.3,0.4,1.6,0.9c-0.1,0.3-0.3,0.3-0.4,0.4c0.3,0.1,0.4-0.1,0.6,0.1
		v-0.1c0.1-0.1,0.4,0.1,0.3,0.3h0.3c0,0.3,0.1,0.3,0.1,0.4c0,0-0.4-0.4-0.3,0c-0.1-0.4-0.4-0.4-0.9-0.4c0,0.3,0.4,0,0.4,0.4
		c0,0-0.4,0.1-0.6,0c-0.3,0.3,0,0.1,0.1,0.3c-0.1,0.4,0.4,0.1,0.4,0.6c-0.6-0.3-1.3-0.3-1.4-0.6c-0.1,0-0.3,0.3-0.1,0.3
		c0,0.1-0.3-0.1-0.1-0.3c0-0.1,0,0-0.1,0c0,0,0-0.1,0.1-0.1c-0.1-0.1-0.9-0.1-0.9-0.3c-0.3,0-0.4,0.1-0.9,0.1v0.1h0.6
		c0,0.6,0.4,0.6,0.6,1c-0.4-0.4-1.3-0.9-1.9-0.7c0,0.3,0.4,0.3,0.4,0.3c-0.7,0.4-1.2-0.3-2.2-0.1c0,0.6,0.9,0.1,0.9,0.6l-1.3-0.4
		c-0.3,0,0,0.1-0.1,0.4c-0.4,0-0.7-0.3-0.7-0.3h0.6c0-0.1-0.3-0.1-0.4-0.3c-0.1,0-0.1,0-0.3,0.1v-0.1c-0.7,0.1-2-0.3-2.6,0.3
		c-0.1-0.1-0.1-0.1-0.1,0.3c-0.4-0.6-1,0-1.3-0.3v0.3c-0.1-0.3-0.3,0.1-0.4,0.1c-0.1-0.6,0.1-0.4,0.3-0.6c-0.3-0.1-0.6,0-0.7,0
		c-0.4,0.6,0,0-0.4,0c0,0-1,0.1-1.4,0.1c-0.3,0-0.4,0.3-0.4,0.4v-0.1c-0.3,0-0.9-0.3-0.9,0.1c-0.1-0.1-0.4-0.1-0.9,0.3l0.1-0.3
		c-0.4,0.4-0.9-0.1-1.3,0.4c0,0.1-0.3,0-0.1-0.1l-2.3,0.3h-0.1v0.3c-0.1-0.1-0.3,0-0.3-0.3c-0.1-0.1-0.1,0.3-0.3,0.3
		c-0.1-0.4,0.1-0.4,0-0.6c-0.7,0-1.3,0-1.9,0.3v-0.1c-1.3,0.4-2.9,0.6-4.5,1c-0.6-0.1-1.2,0.3-2.3,0.4c-0.1,0-0.6,0.1-0.6,0
		l-0.3,0.1V134c0,0-0.1,0-0.1,0.1c-0.1,0,0,0-0.1-0.1l-0.6,0.3l0.1-0.1c-1.2,0-2,0-2.6,0.6c0.1,0.6,1.4-0.1,2.3,0
		c0.7-0.4,0.9,0,1.3-0.4c-0.3,0.6-0.9,0.6-1.9,0.7c-0.9,0.3-1.6,0.9-2.9,0.6c-0.7-0.3-1.4-0.9-1.6-0.9c-0.4,0.1-0.6-0.1-0.9,0
		c0,0.3,0.1,0.6,0.1,1c-0.1-0.1-0.3-0.4-0.1-1c-0.1,0-0.1,0.3-0.3,0.6c-0.1,0,0-0.4,0-0.6c-1.7,0.1-2.4-0.6-3.7-0.9
		c-0.3-0.6-0.3-1.2-0.3-2.2c0.1-1.3,0.4-3.6,1.3-4.8c0.3-0.7,0.7-2,0.9-2.9h-0.1c0,0,0.1-0.4,0.1-0.3c0.1-0.6,0.6-0.9,0.7-1.3
		c0,0.1,0.4,0.1,0.4,0.3c-0.7,0.4-1.2,1.6-1.2,2.2l1.2-2.2c1.9-3.2,3.3-6.8,6-9.9c0-0.4,0.4-1.6,1.3-2.2c0.3,0,0.3-0.1,0.6-0.4h-0.1
		c-0.1,0.3-0.3,0.3-0.4,0.4l0.3-0.4c0,0,0-0.1,0.1-0.3c0.3-0.3,0.7-0.6,0.7-1.2c0.3,0,0.7-0.1,1-0.3c-0.3-0.3-0.3,0.1-0.7,0
		c0.7-0.3,0.9-1,1.2-1c6.6-7.6,7.5-9.5,14.8-15.8c0.1-0.1,0.1-0.3,0.1-0.6c1.4-1.2,2.6-3.3,4.2-4.2c-1-0.4-2.3,0-3.3,0h-1.9
		c-1.6,0-3.5,0-5.3,0.3c-1.7-0.6-3.2,0.3-2.7,0.9c-0.4,0,0.1,1.9-4.9,1.4l-2-0.4c-0.7-0.1,0.6-1,0.9-1c-0.1-0.1,1.3-1.2,1.2-1.4
		c1.4-1.7,1.9-2.2,4-3.2c2.9-0.7,0.4-0.3,3.7-0.9c1.3-0.3,1.6-0.3,3.2-0.3c0.3,0,0.3-0.1,0.4-0.1V82c0.1,0,0.1,0.1,0.3,0.3
		c0.3-0.4,1.6-0.1,2.3-0.3c0.9,0.3,1.9-0.1,3,0c2,0.3,4.2,0,6,1c0.1,0,0.1,0,0.3-0.3c0.1,0,0,0.3,0.7,0.3c-0.4,0.1,0,0.3-0.4,0.4
		c0.4,0,0.4-0.1,0.6-0.1h0.1c0.3-0.1,0.7,0,1.3,0c0,0.1,0.6,0.1,0.6,0.7c0.6,0,0.7,0.3,0.9,0.7c0.4-0.1,0.6,0.4,1.2,0.3
		c0.6,0.6,0.9,1.9,1.4,2.3L595,88c0,0.1,0.1,0,0.3,0.1c-0.4,1.2-1.3,1.9-1.7,2.4v0.1c0,0,0-0.1,0.1-0.1l-0.1,0.3H593
		c-0.7,1-1.7,2.6-2.9,3.2v0.3c-2.3,2.2-4.6,4.9-6.6,7.1c-1.4,1.3-2.6,2.2-3.9,3.7c-0.4,0.7,0.1-0.6-0.4,0.4l-0.3,0.1
		c0,0-0.1,0-0.6,0.4c-0.3,0.4-0.4,0.4-0.4,0.9c-0.1,0-0.1,0-0.3-0.1c-0.4,1.3-1.7,1.4-2.3,2.7c-0.4,0.1-1,0.4-0.9,0.9
		c-1.2,0.7-2.4,2.3-3.5,3.5c0.3,0,0.3-0.1,0.6-0.3c-0.3,0.7-0.9,1.3-1.3,2c-0.1,0-0.1-0.1-0.1-0.3c-0.4,0.3-0.1,0.6-1,0.7v0.9
		c-0.7,1-1.7,2.4-2.7,3.6H566L566.6,119.6z M551.5,133.2c0-0.1,0-0.6-0.3-0.6C551.2,133.1,551.4,133.2,551.5,133.2z M551.7,131.4
		c0.4-0.4,0.7-2.4,0-1.4C551.5,130.4,551.5,130.9,551.7,131.4z M552.7,128c-0.4,0-0.3,1.2-0.3,1.6L552.7,128z M553.8,128.9
		c0,0.1,0,0.1-0.1,0.3c0,0.3,0,0.4,0.1,0.4c0.4-0.7,0.4-1.7,0.7-2.3c0.1-0.4-0.1-1,0-1.7c0-0.3,0.3-0.4,0.7-0.7l1-2.9
		c-0.3,0-0.4,0.4-0.6,0.3c0.6-0.9,1.2-1.4,1.4-2.3c-1.2,1-1.9,3-2.3,4.3c-0.1,0.1-0.3,0.3-0.3,0.4c-0.1,1.6-0.7,2.6-0.9,4.3
		L553.8,128.9z M554.1,122.3l0.4-1c0.1,0.1,0,0.1,0,0.3c0.1-0.3,0.1-0.9,0.4-1c0-0.1-0.1,0,0-0.1c0-0.3,0.4-0.6,0.1-0.1
		C555.1,120.8,554.7,121.7,554.1,122.3z M557.7,128c-0.7,0.3-0.6,0.9-0.6,1.4C557.6,129.2,557.6,128.6,557.7,128z M557.9,127.5
		C557.6,127.6,557.9,127.4,557.9,127.5c-0.3,0-0.3,0.2-0.3,0.3C557.9,127.9,557.9,127.6,557.9,127.5z M557.7,129.8
		c0.4,0,0.6-0.3,0.7-1.2L557.7,129.8z M558.3,125.9l-0.3,1C558.3,126.9,558.3,126.2,558.3,125.9z M558.2,127c0,0.1-0.1,0.3,0,0.3
		C558.2,127.3,558.4,127.2,558.2,127z M559.2,127.3l0.3-1c-0.3,0.7-0.9,1.4-1.2,2C559,128,558.7,127.6,559.2,127.3z M559.2,125.3
		c-0.1,0.3-0.7,0.9-0.7,1.2C559,126.3,559.3,125.6,559.2,125.3z M559.6,129.5c0,0.1-0.3,0.7-0.1,0.9
		C559.4,130.1,559.7,129.6,559.6,129.5z M559.7,129.2c0-0.3,0.3-0.7,0.3-1.3C559.9,128.5,559.7,128.9,559.7,129.2z M560,123.3
		c0-0.1,0.3-0.3,0.3-0.6C560.2,123,559.9,123.2,560,123.3z M563.2,119.3c-1.2,1.9-2.4,3.7-3.2,5.3
		C561.3,123,562.3,121.1,563.2,119.3z M562.5,124c0.1-0.9,0.9-2,0.7-2.4l-2.4,4.3c0,0.6-0.1,1.2-0.6,1.6c1.2-0.6,1.6-1.9,2-3
		L562.5,124z M561.5,124.4c-0.6,0.1-0.7,0.3-0.7,0.6C560.9,125.2,561.3,124.7,561.5,124.4z M560.9,130.2c0.1,0,0.1,0,0.3-0.1
		C561,130.1,561,130.2,560.9,130.2z M561.5,134.2C561.5,134.2,560.9,134.1,561.5,134.2L561.5,134.2z M561.3,130.1
		c0-0.1,0-0.1,0.1-0.3C561.5,129.9,561.3,129.9,561.3,130.1z M562.8,126.9c0,0.3-0.3,0.3-0.4,0.7c0,0.1-0.1,0.7-0.4,0.9
		c0.1,0.3,0.1,0.3,0.1,0.7c-0.1-0.3-0.1-0.4-0.1-0.4c-0.1,0-0.1,0.4-0.3,0.4c0.3-1.3,0.9-2.2,1.2-2.9v-0.7c1.3-1.6,2-3,3.2-5
		c0.6,0.4-0.6,0.7-0.3,1.3C564.5,123.2,563.9,125.2,562.8,126.9z M562.5,119.7c-0.3,0.3-0.7,0.7-0.7,0.9
		C562,120.3,562.3,120.1,562.5,119.7z M564.2,116c-0.6,0.7-0.9,1-1.2,1.6L564.2,116z M563.2,124.6c-0.1-0.1,0.1-0.6,0.4-0.7
		L563.2,124.6z M566.2,119.8c-0.9,1-1.3,2.3-1.9,3.2C564.8,121.7,565.2,120.8,566.2,119.8z M566.2,119.8c0.1,0,0.3-0.1,0.4-0.3
		C566.5,119.7,566.4,119.8,566.2,119.8z M570.5,113.8c-1,1.2-1.6,1.9-2.3,3.2L570.5,113.8z M568.4,128.6l-0.1,0.1L568.4,128.6
		L568.4,128.6z M569.1,116c-0.1,0.1-0.7,1-0.7,1.3C568.5,117,569.1,116.1,569.1,116z M568.4,128.6h0.6c-0.1,0.1-0.3,0.1-0.4,0.1
		C568.5,128.8,568.5,128.6,568.4,128.6z M569.7,113.8c0,0.1-0.4,0.7-0.3,0.9C569.5,114.5,570,113.9,569.7,113.8z M570.8,128.8h-0.6
		C570.2,128,570.7,128.5,570.8,128.8z M570.7,113.6l1.2-1.2c0.4,0,1.2-1.3,1.7-1.7h-0.1c0.1,0,0.1-0.1,0.3-0.3h0.3l1.7-2.3
		c0,0-0.3,0.1-0.3,0.3c-0.7,1-1.9,1.9-2.9,2.9C571.8,112.1,571.1,112.9,570.7,113.6z M571.7,112.1c0.3,0,0.4-0.7,0.3-0.9
		C572,111.3,571.7,111.6,571.7,112.1z M573,111.1c0,0.1-0.3,0.3-0.4,0.3L573,111.1z M574.4,131.9c-0.4,0-0.9,0-1.2,0.4
		C573.6,132.4,574,132.4,574.4,131.9z M574.3,109c-0.1,0.3-0.6,0.3-0.7,0.9C574,109.8,574.3,109.3,574.3,109z M574.9,108.6
		c-0.1-0.1-0.4,0-0.3,0.1C574.7,108.6,574.9,108.8,574.9,108.6z M591.8,130.6c-1-0.3-1.4-0.6-2.2-0.4
		C590.3,130.4,591,130.8,591.8,130.6z M591.8,131.2v-0.1c-0.3,0-0.7-0.3-0.9-0.1C591.1,131.1,591.6,131.2,591.8,131.2z M592.7,84.9
		c0,0.1,0,0.4,0.1,0.3L592.7,84.9L592.7,84.9z"/>
	<path fill="#08798F" d="M619.8,175.3c-0.9,0.9-1.4,1.9-1.9,3.2c0.3-1.2,0.9-2.2,1.2-2.9H619l-0.1,0.1v0.1l-0.7,1
		c-0.3-0.1,0-0.3,0-0.4c-0.7,0.6-1.3,1.9-1.9,2.4c-0.3-0.4,0.3-0.4,0.4-0.9c-0.4,0.3-0.9,0.7-0.9,1c-0.9,0.7-1.4,2-2.2,2.9h0.1
		l-2.6,2.6H611c-0.1,0.1-0.3,0.1-0.3,0.1c0-0.1,0.1-0.3,0.4-0.3c0-0.1,0-0.1,0.1-0.3l-1.2,0.4l0.7-0.4c0-0.1-1,0.4-0.7,0.6
		c-0.3,0.3-0.4,0.7-0.6,1c-0.4-0.6-0.6,0.4-0.9,0.1c-0.1,0.3,0.1,0.1,0.3,0.3c-0.4,0.3-1.4,1.2-2,0.9c-0.3,0-0.3,0.4-0.4,0.6
		c-0.6,0.4-1.3,1.2-2.2,1.2c-0.6,0.3-1,0.4-1.2,0.9l-4.9,1.6l-0.7,0.7c-0.3,0-0.3-0.3-0.6-0.3c0-0.1,0.3-0.1,0.3-0.3
		c-0.6,0.1-1.3-0.1-1.4,0.1c-1.3,0.4-2.6-0.4-3.7-0.6h-0.7c-1.4,0-2.7-0.7-3.9-1.6c-0.1-0.6-1.3-0.9-1.7-1.9c-0.1,0.1,0,0.6,0,0.7
		c-0.1-0.1-0.3-0.9-0.6-1.2l0.1-0.4c-1.2-1.2-1.3-3.2-1.7-5.3h0.4c0.1-0.3,0-0.3,0-0.6c0.1,0,0.3,0.3,0.3,0.6
		c-0.1-5.3,1.3-11.8,3.3-16.4c0,0.3-0.1,0.6,0,0.6c-1.2,2.7-1.4,6-2.3,9.1c0,0,0,0.1,0.1,0.1c-0.3,1-0.4,2.7-0.4,3.7
		c0.7-4.3,1.6-9.2,3-13c1.9-5.8,4.8-10.8,7.3-15.8l2.3-3.9c1-1.3,2.2-2.3,2.9-3.7c0.9-1,2-2.3,3.2-3.3c1.9-2.4,3.7-4.8,6-6.9
		c0.6-1,1.6-1.9,2.6-2.7l4.3-4.5l5.6-4.3c0.7-6.2,0.6-3.7,1.3-9.1c-0.1,0-0.1,0.1-0.1,0.1c0.3-0.4,0.3-0.9,0.3-1.4
		c-0.4,0.7-1.3,1-1.3,2.2h0.1l-1.6,1.3l-1.7,2.7c0.9,0,1.3-1.7,1.6-2.2c0.4-0.4,1.4-0.6,2-1.3c-1.3,1.9-3.2,3.7-4.5,5.2
		c-0.4,0.4-1.9,1.6-2,2.3l-1.3,1.3v0.1c0,0,0.1-0.1,0.3-0.1c-0.4,0.7,0,1-0.4,1c-0.3,0,0.1,0.1-0.1,0.3c-0.1,0-0.6,0-0.7-0.3
		c-0.4,0.6-0.4,1.2-1.2,1.6c0.3,0.6-0.7,0.6-0.7,0.9c0.1,0.3,0.4-0.3,0.7,0c-0.7,0.3-2.3,0.7-2.6,1.2c-1.4,0.7-1,0.7-2.7,1.2
		c-0.4,0-1,0.1-1.3,0.3c-0.9,0-1.3-0.3-1.7,0.1c-2.3-0.3-3.6-0.9-4.8-2c-1.4-0.1-2.4-1-3.2-2c-1.3-2.6-1.2-5.2-0.7-8.2
		c1.2-8.6,3.7-15.8,6.2-23.2l0.1-0.1c0.9-3.5,2.4-7.1,2.7-10.7c1.3-1.3,2.2-3.6,4.6-3.2c0.3-0.1,0.3-0.3,0.4-0.4
		c0.1,0.1,0.3,0.4,0.6,0.4c1,0,0.6,0.4,1.7,0.6c0.3,0.6,1.3,1,2.2,1.6c1.2,1.3,2.7,2.7,3.2,5c0,1.7-0.7,3.2-1.4,4.6
		c0,1.2-0.6,2-0.9,2.9c-0.7,2.3-1.7,4.3-2.2,6.3l-1.3,4.6c-1.3,4.9-3,8.1-3.9,13.2c-0.3,1.2-0.7,2.7-0.6,3.3c0,0.3,0.1,0.3,0.4,0.4
		c0.7-0.3,2-1.3,2.9-2.3c1.9-2.2,3.7-4,5.5-6.5c1.6-1.4,2.7-3.5,4-5l2.2-3.2c0.1,0,0.3-0.1,0.4-0.1c1.2-1.9,2.2-4.9,3.3-6.8
		c1-1.4,1-2,1.3-3.7l1.4-6.5c0.3-0.3-0.1-0.3-0.1-0.4c0.6-0.4,0.7-1.3,0.7-1.6c0.3-0.3,0.6-0.4,0.6-0.9h0.7l1.6-1.7
		c0.3,0.4,0.3,0.3,0.6,0c3.9,0.4,2.7,2,5.2,2c0.1,0.1,0,0.1,0,0.3c0.7,0.6,1.3,0.9,1.9,1.4c0,0.1,0,0.6,0.1,0.7
		c0,0.9,0.4,1.3,0.3,2.4c-0.1,1.2-1,2.4-1.2,4c-0.4,2-1,3.6-1.3,5.3c-1.4,6.8-2.3,8.8-2.9,15.6c0.1,0,0.4,0,0.6-0.1
		c0.1,0-0.1,0.1,0,0.1c5.3-2,19.7-10.4,25.5-11.7c-0.3,0.3-0.3,0.3-0.1,0.6c0.4,0.1,0.4-0.1,0.6-0.1c0,0.3-0.3,0.1-0.3,0.9
		c0,0,0.1,0,0.3-0.1c0,0.3,0.4,0.3,0.3,0.4c0.3,0,0.6-0.1,1.3-0.1c-0.4,0.1-1.2,0.1-1.6,0.7c0.4,0,0.9-0.3,1.6-0.6
		c-0.7,0.6-1.7,0.7-2.3,1c-0.1,0.3,0.1,0.1,0.3,0.1c-0.7,0.9-1.9,0.9-2.4,1.7h0.1c-0.1,0-0.3,0.1-0.3,0.1c-0.1,0-0.1,0.1-0.1,0.1
		h-0.1l-1.3,0.6l0.3,0.1c0.9-0.3,1.3-0.7,1.9-0.9c0.6-0.7,1.4-0.9,2-1c-0.1,0.4-1.2,0.9-1.9,1.3c0.3,0,0.7-0.1,1.2-0.3
		c-0.4,0.3-0.9,0.4-1.3,0.9c-0.7,0-1.3,0.7-2.3,0.7l0.1-0.1l-0.6,0.4v-0.3c-0.6,1.2-15,8.5-16.3,10.2c-0.9-0.1-1.9,1-2.6,1.6
		c0.3,0,0.6-0.1,1.3-0.1c-0.3,0.4-1,0.3-1.4,0.6c-0.9,0.9-2,1.4-3,2.2l-0.7,0.7c-0.6,5.8-1.4,9.6-2.4,15.8
		c-0.9,9.2-3.2,17.6-5.8,24.9c0.6-3.2,2.2-6.3,2.6-10.1c-1.7,5.3-2.9,10.4-5.2,15.3c-0.1,0,0,0.1-0.3,0v-0.4
		c-0.9,1.6-1.6,3.3-2.3,5.2v0.1c-0.1,0-0.1,0.1-0.1,0.3c-0.1,0-0.1,0-0.1,0.1h0.1l-0.4,0.9v0.1H619.8z M583.8,179.3
		c0-0.1-0.1-0.1-0.1-0.3C583.8,179,583.8,179.2,583.8,179.3z M584.2,181.8c0.1,0.9,0.3,1.9,0.6,2.7c0.3-0.6-0.3-1.2-0.1-1.9
		c0-0.1-0.1-0.1-0.3-0.1v-0.9L584.2,181.8z M586.9,189.1c-0.1,0.1-0.4-0.4-0.4-0.6L586.9,189.1z M587.7,164.6c0-0.1,0.3-0.3,0.1-0.4
		C587.8,164.3,587.7,164.5,587.7,164.6z M588.1,163.5c0-0.3,0.3-1,0.7-1.6C588.7,162.8,588.2,163,588.1,163.5z M590.7,157.6
		c-0.3,1.3-0.9,3-2,4.2L590.7,157.6z M591.1,156.3c0.1-0.1,0.3-0.1,0.3-0.3C591.3,156,591.3,156.1,591.1,156.3z M599.6,156.8
		c0-0.4,0.1-0.7,0.3-1l-0.4,0.4l-1,1.7l-0.1,0.3v-0.1v0.3v-0.1l-0.4,1v0.9c-0.1,0-0.1-0.1-0.1-0.4l-1,1.3l0.3-0.6l2.3-4.3
		c-0.3,0-0.6-0.1-0.7,0c0,0.3-0.4,0.4-0.1,0.7c0,0,0.1-0.4,0.1-0.3c-0.1,0.4-0.1,0.9-0.3,1c-0.1-0.1,0.1-0.4,0-0.6
		c-0.1,0-0.3,0.1-0.3,0.1c0.3-0.6,0.7-1.3,0.6-1.7c0.4-0.6,0.9-1.3,1.4-1.7c1.3-3.3,3.6-6.3,5.5-8.9c0.1,0,0.1-0.3,0.4,0
		c0.3-1,1-1.4,1.4-2.3l0.3-0.6c0,0.3,0,0.3-0.1,0.4c0.1-0.1,0.4-0.1,0.6-0.6c0-0.1-0.1-0.1,0-0.4c0.6-0.3,0.9-1,1.3-1v0.3
		c0.1-0.4,0.3-1,0.7-1.6c0,0.1,0.1,0.1,0.1,0.1c-0.1,0.1-0.3,0.6-0.3,0.6c-0.1,0.9-0.9,1.3-1.3,1.6l-0.9,1.6c1.6-1.7,3-3.7,4.5-5.5
		c-0.9,0.4-0.9,1.2-1.6,1.4c0.1-0.1,0.1-0.6,0.6-0.6c-0.1-0.4,0-0.6,0.3-0.7v0.1c0.1-0.1,0.6-0.3,0.4-0.6c1.2-1.7,2.9-2.6,4-4.3
		c0.3-0.3,0.3-0.6,0.7-0.6c0-0.6,0.4-0.7,0.7-1c0,0.1-0.1,0.3,0,0.3c0.6-1,1.4-1.4,1.9-2h0.3c0.4-1,1.6-1.2,1.3-2
		c0.1-0.6-0.1-0.3-0.1-0.6c0.3-0.3,0.4-0.4,0.4-0.7c-1,0.9-1.9,2-3,2.7c0,0.1,0.1,0,0.1,0.3c-0.3-0.4-1,0.6-0.6,0.7
		c0.1-0.3,0.7-0.4,0.9-1c0.3,0.1,0.4-0.3,0.4,0c-0.3,0.3-1,1.3-1.2,1c-1.2,0.6-1.4,2-2.2,2.3c-0.1,0.1,0.1,0.3-0.3,0.4l-4.3,4.6V137
		c-0.3,0.1-0.1,0.6-0.7,0.6c0,0.1,0.3,0.1,0,0.3c-2.3,2.7-4.3,5.6-6.6,8.5h-0.1l-1.2,2.2c-0.1-0.1,0.1-0.3,0-0.4l-1.4,2
		c0.3,0.9-0.7,1.4-1.2,2.4c0.1-1.2,0.9-1.6,1.2-2.4c-1.6,2.4-3.2,5.2-4.3,7.8c-0.6,0.9-1.2,1.7-1.2,2.6l1.2-2
		c-0.9,2-1.6,3.9-2.9,5.5c-0.1,1.9-1.2,3.9-1.2,6c-0.1,0-0.3,0-0.3,0.1c0,0.3,0.3,0.1,0.1,0.3c-0.3,0,0,0.4,0,0.6h-0.1
		c-0.3,0.9-0.1,1-0.1,1.9c0,0-0.4,0-0.4,0.3c0.3,2.3-0.9,5.2,0,7.1c0.3-0.9,0.1-1.3,0-1.6c0.4-0.6,0-1.7,0.4-2.3v0.7
		c0.4,0.9,0.1,2.6,0.4,3.5c0-0.1,0-0.9,0.1-0.9c0.1,1.2,0.3,2.4,0.6,3.3c0.4,0.3,0.4,1.4,1.2,2.3c0.1,0.1,0.3-0.4,0.3-0.3
		c0.1,1,1,0.9,2.3,1c0.1-0.3-0.1-0.6,0.1-0.7c0.1,0.4,0.4,0,0.6,0.3c3.5-1.3,5.8-3.7,7.8-6.3h0.1c-0.3-0.1-0.1-0.3-0.1-0.3
		c0.3,0,0.3,0.3,0.4,0.1c0-0.3-0.1-0.3-0.1-0.4c0.1-0.1,0.1-0.1,0.3-0.1c0.9-1.4,1.4-2.4,2.4-3.9c1.4-2.7,3-5.5,4-8.9
		c0.6-0.6,0.6-1.3,0.7-1.9c0.3-0.6,0.7-1.9,0.7-2.6c0-0.4,0.4-1,0.7-1.3c0,0,0.1,0,0.3-0.3c0.4-0.3,0.3-1.2,0.4-1.7
		c-0.1-0.1,0.3,0,0.1-0.3c0.3-1.7,0.6-3.6,1.4-4.6c-0.4-1.2,0.7-1.9,0.7-2.4c0-1.4,0.6-2.6,0.4-3.9c0-0.1-0.1-0.3-0.1-0.6
		s0.3-0.6,0.4-0.7c0.1-0.6,0-1.3,0-1.7c0.1-0.4,0.4-0.9,0.4-1.4c0.6-2,0.6-4,0.7-6.3c0.4-0.4,0.4-0.7,0.4-1c0.3-1.9,0.9-4.2,0.6-5.9
		c-0.1,0.4-0.3,0.7-0.6,1c0,0,0-0.1-0.1-0.1c-1.6,2-3.7,3-5,5c-0.1,0-0.1,0-0.3,0.1v0.1c-0.1-0.1,0,0.1-0.4,0.1l-2.3,3.3
		c0,0-0.3,0,0,0.1h-0.6c-0.3,0.1,0,0.9-0.3,1v-0.7c-0.3,0.4,0,0.6-0.3,0.7v-0.1c-0.1,0-0.4,0.1-0.4,0.6l-0.6,0.9V141l-1.2,1.3
		c0.1,0,0.1,0,0.1,0.1c-0.3,0.1-0.4,0.4-0.7,0.7c0,0,0.3-0.1,0.4-0.1c0,0.3-0.4,0.4-0.4,0.4c-0.1,0-0.1,0-0.1-0.1
		c-0.1,0.4-0.3,1-0.7,1c0.1-0.1,0.4-0.3,0.1-0.4c-0.7,0.9-1.4,1.9-2.2,3.3l-0.6,1c-0.1-0.1,0-0.4-0.1-0.4c-0.1,0.1,0,0.3,0,0.4
		c-0.1,0.4-0.9,1-1.3,1.7c-0.7,0.4-1,1.6-1.7,1.9c0.3-0.3,0.6-0.6,0.6-0.9c-1.2,1-1.9,2.6-2.4,4.3c-0.3,0.1-0.1,0.3-0.6,0.3
		c0,0.4,0.3,0.1,0.3,0.6l0.6-1c0,0.1,0.1,0.3,0.1,0.1v0.1c0.1-0.6,0.6-1.3,1-1.7C600.6,154.8,600.1,155.6,599.6,156.8z M591.8,178.7
		c0-0.1-0.1-0.3-0.1-0.3C591.7,178.6,591.8,178.6,591.8,178.7z M591.8,177c0,0.1-0.1,0.3,0,0.7V177z M592.3,176h-0.4
		c0.1-0.1,0.3-0.3,0.3-0.4c0.1-0.3,0.1,0,0.1-0.6c-0.4,0.6,0-1.4,0.1-2C592.3,174,592.4,174.6,592.3,176z M592.4,172.3
		c0-0.1,0.1-0.3,0.1-0.3C592.7,172,592.4,172.1,592.4,172.3z M592.6,175.9c-0.1-0.9,0-1.6,0.1-1.9
		C592.7,174.4,592.6,175,592.6,175.9z M592.7,172.7c0.1,0,0,0.3,0.1,0.6C592.7,173.3,592.7,173,592.7,172.7z M592.7,176.7
		c0.3,0,0.1,0.7,0,1V176.7z M592.9,172.3v0.4C592.7,172.4,592.9,172.3,592.9,172.3z M593.1,169.7c0,0.9-0.1,1.9-0.1,2.4
		c0,0.1-0.1,0.1-0.1,0.1c-0.1-2,0.7-4.6,1-6.9c0.4-0.3,0.6-0.7,0.7-1L593.1,169.7z M592.9,174.1c0-1,0.3-2.2,0.7-2.7
		C593.3,172,593,173.1,592.9,174.1z M593.1,168.2c0-0.6,0.3-1.4,0.4-1.9C593.6,166.8,593.3,167.6,593.1,168.2z M593.6,170.7
		c-0.1-0.4,0.1-0.9,0.3-1.3L593.6,170.7z M594.1,169.1l-0.3,0.1v-0.1c-0.3,0.1,0-0.3,0.3-0.1V169.1z M594.6,167.1
		c0-0.1,0-0.1,0.1-0.1l-0.3,1.4v-0.3c-0.3-0.1-0.6-0.3-0.3-0.4c-0.3-0.3-0.3-0.4,0-0.4c0-0.1,0.1-0.1,0.1-0.1L594.6,167.1
		L594.6,167.1z M594.4,168.4l-0.3,0.4c0,0-0.3-0.1,0-0.6C594.1,168.4,594.4,168.4,594.4,168.4z M594.7,162.6
		c-0.1,0.1-0.6,0.4-0.3,0.6C594.6,163.2,594.7,162.8,594.7,162.6z M595,166.5c0,0-0.1,0.1-0.1,0.3L595,166.5L595,166.5z M595,165.9
		v-0.1C594.9,165.8,595,165.9,595,165.9z M595.2,162.8H595c0.1-0.1,0.1-0.1,0.3-0.1L595.2,162.8z M595.2,165.2L595.2,165.2
		C595.3,165.1,595.2,165.2,595.2,165.2z M595.7,163.2c0,0.1-0.1,0.3-0.1,0.3L595.7,163.2z M596,165.6c0.1,0.1,0,0.3,0,0.6
		C595.9,165.9,595.9,165.8,596,165.6z M596.9,156.4c-0.6,0-0.7,0.1-0.7,0.6C596.7,157,596.3,156.6,596.9,156.4z M596.5,161.5
		l0.3-0.4v0.3L596.5,161.5z M596.9,160c0.1-0.7,0.4-1.7,0.9-2.2v0.1c0.1-0.3,0.1-0.4,0.4-0.4c0,0.6-0.9,2-1.2,2.9v-0.7
		C597,159.7,596.9,159.9,596.9,160z M597,158c-0.1-0.1,0-0.3,0.1-0.4C597.3,157.7,597,157.9,597,158z M597.2,158.4
		c0-0.1,0-0.3,0.3-0.3C597.3,158.1,597.3,158.3,597.2,158.4z M598,156.3c-0.3,0.1-0.1,0-0.3,0c-0.1,0.6-0.1,0.7-0.4,0.9
		c0-0.7,0.6-1,0.7-1.6C598.3,155.7,597.9,156.1,598,156.3z M597.6,157.6c0.1,0.1-0.1,0.3-0.1,0.6
		C597.3,157.9,597.6,157.7,597.6,157.6z M598.2,160.3c0,0,0-0.1,0.1-0.1L598.2,160.3z M598.5,158l-0.1,0.1l0.4-0.1H598.5z
		 M598.5,190.3c0.3,0.3,1.3,0.4,1.4-0.3c-0.3,0.1,0,0,0-0.1C599.3,189.8,599,190.1,598.5,190.3z M599,158.6c0,0.3-0.3,0.7-0.3,0.9
		C598.5,159.3,598.9,158.9,599,158.6z M599.3,152c-0.3,0-0.3,0.4-0.3,0.6C599.3,152.7,599.3,152.5,599.3,152z M599.3,153.5
		c0.3-0.1,0.1,0.3,0.1,0.3c0.1-0.3,0.4-0.4,0.3-0.6h0.1v-0.6C599.6,153,599.5,153.4,599.3,153.5z M600.1,155v-0.1
		c0.4-0.7,0.7-1.4,1.3-1.9L600.1,155z M601.3,150.2c0.4-0.7,0.7-1.2,1-1.3C602.4,149.1,602.1,149.9,601.3,150.2z M601.5,152.7
		c-0.1,0,0-0.1-0.1-0.1c0-0.1,0.1,0,0.1-0.1h0.3L601.5,152.7z M602.2,151.7L602.2,151.7c-0.1-0.1-0.2-0.1,0-0.1V151.7z M602.8,149.9
		c-0.1,0.1-0.4,0.4-0.3,0.4C602.5,150.2,602.8,150.1,602.8,149.9z M602.6,151.2c-0.1-0.3,0.1-0.6,0.4-1.2c-0.3,0.4-0.7,0.9-0.6,1.2
		H602.6z M603.1,150.1c0,0,0.1,0,0.1-0.1L603.1,150.1z M603.4,150.1c0.3-0.1,0.4-0.9,0.7-1C603.9,149.5,603.8,149.9,603.4,150.1z
		 M604.9,146.5c-0.4,0.7-1,1.3-1.3,1.9C603.9,147.9,604.8,147.2,604.9,146.5z M604.7,148.6c-0.1-0.1,0.1-0.3,0.1-0.4
		C604.9,148.4,604.7,148.5,604.7,148.6z M606.1,188.7c0.1,0,0.1-0.1,0.3-0.1C606.4,188.7,606.4,188.7,606.1,188.7z M607.1,145.5
		c0,0.1-0.4,0.3-0.4,0.4C606.5,145.8,606.7,145.5,607.1,145.5z M606.8,184.8c0.4-0.4,0.9-0.6,1.2-0.9c0.6,0.1,0.7-0.6,1.2-0.6
		c0-0.3-0.1-0.3-0.1-0.4c-0.1,0-0.1,0.1-0.3,0.1c-0.1,0.3,0.1,0.1,0.1,0.3c-0.1,0-0.1,0.3-0.3,0.1c0.1-0.1,0.1-0.3,0-0.3
		C608,183.6,607.4,184.1,606.8,184.8z M608.5,143.6c-0.1,0-0.4,0.6-0.6,0.9c-0.1,0,0-0.1-0.1-0.1c-0.1,0.1-0.1,0.7-0.6,0.7
		c0.4-0.6,0.7-1.4,1.3-1.6L608.5,143.6L608.5,143.6z M609,185.1c-0.1-0.1-0.4,0.3-0.4,0.6C608.7,185.5,609,185.5,609,185.1z
		 M608.8,186.5c0.3-0.4,1.3-1.2,1.9-1.6C610.1,185.8,609.6,186.1,608.8,186.5z M609.4,142.4c0,0.3-0.3,0.4-0.4,0.6
		C608.8,143,609.3,142.7,609.4,142.4z M610,184.1c-0.3-0.3-1,0.4-0.4,0.6c0.7-0.7,1.6-1.3,2.2-2.2c0.4,0,0.9-0.4,0.7-0.7
		c-0.4,0.1-1.3,0.7-1.7,1.3h0.1c-0.1,0.3,0,0.1,0,0.3c-0.4,0-0.6,0.1-0.9,0.4L610,184.1L610,184.1z M611.1,182
		c0-0.4,0.3-0.4,0.3-0.9c-0.7,0.6-1.7,1.4-2,2.4C609.8,183.2,610.3,182.5,611.1,182z M609.6,141.9c0-0.1,0.1-0.1,0-0.4
		C609.4,141.4,609.4,141.7,609.6,141.9z M609.7,182.2c-0.1,0.3-0.1,0.3,0,0.3V182.2z M610.1,139l0.3-0.1
		C610.3,139,610.3,139,610.1,139z M610.9,141c0.1,0-0.4,0.1-0.4,0.3c-0.1,0-0.1-0.1,0-0.3c0.3,0,0.3,0,0,0.1L610.9,141z
		 M611.3,140.9c-0.1-0.3,0.1-0.7,0.3-0.7C611.6,140.3,611.3,140.6,611.3,140.9z M612.3,179.3c0,0.1-0.6,0.3-0.3,0.4
		C612.1,179.6,612.4,179.5,612.3,179.3z M614.3,136.8c-0.1,0.1-0.1,0.1-0.1,0.3C613.9,137,614.2,137,614.3,136.8z M614.6,136.7
		L614.6,136.7L614.6,136.7z M616.5,180c-0.7,0.7-0.7,1.6-1.3,2.2C615.6,181.5,615.7,180.8,616.5,180z M615.7,179.6
		c0-0.1,0.3-0.4,0.3-0.6C616.2,179.2,615.9,179.5,615.7,179.6z M622.7,169.4c-0.3,1.6-1.2,3-2,4.5
		C621.1,172.4,621.9,171,622.7,169.4z M621.9,172.1c0-0.4,0.7-0.7,0.9-1.2C622.8,171.2,622.4,171.7,621.9,172.1z M622.7,111.9
		c0.1,0,0.3-0.3,0.3-0.1C622.9,111.8,622.8,111.9,622.7,111.9z M623.2,111.3c-0.1,0.3-0.1,0.4-0.1,0.4H623L623.2,111.3z
		 M623.2,169.7c-0.1-0.1,0.1-0.4,0.1-0.4C623.7,169.2,623.2,169.5,623.2,169.7z M623.4,111.2C623.4,111.3,623.3,111.3,623.4,111.2
		C623.3,111.3,623.2,111.2,623.4,111.2z M623.4,111.2L623.4,111.2C623.4,111.3,623.4,111.2,623.4,111.2z M623.5,169.1
		c0.3-1.4,1.3-2.9,1.9-4.6C625.1,166.2,624,167.6,623.5,169.1z M646.4,113.4c0.1-0.7,10.4-5.5,10.7-5.8c0-0.3-0.3,0-0.3,0v-0.1
		c-3.6,1.7-11.5,5.9-12.8,6.5C644.5,113.9,645.4,113.5,646.4,113.4z M657.2,108.2c0.3-0.1,0.7-0.1,0.9-0.6L657.2,108.2z
		 M659.1,107.3L659.1,107.3c-0.3,0-0.9,0.2-0.6,0.3C658.7,107.6,658.9,107.6,659.1,107.3z M661.3,106.7c-0.1,0.1-0.4,0.1-0.4,0.1
		L661.3,106.7z M661.7,106.6c-0.1,0.1-0.3,0.1-0.4,0.1L661.7,106.6z M663.1,104.9c-0.3,0,0-0.4-0.6-0.4c0.4-0.3,1-0.1,1.3-0.4
		C663.6,104.4,663.1,104.3,663.1,104.9z"/>
	<path fill="#08798F" d="M696.7,50l0.3-0.6c0-0.1-0.1-0.1-0.1-0.6c-0.4,0-0.4,0.7-0.7,0.4c-4,1.4-3.2-0.1-6.2,2.4
		c0.1,0.6-0.6,0.4-0.4,1c-1.6,1-2.9,1.6-3.9,3.3c-0.1-0.1-0.1,0-0.3,0.1c-0.1,1.4-1,2.3-1.9,2.4c-0.3-0.3-0.3-0.4-0.3-1.2
		c-0.4-0.1-0.3,0.4-0.6,0.1c0-0.1,0.1-0.4,0-0.4c-0.6-0.1,0,0.4-0.3,0.7c-0.4-0.3-0.9-0.6-1.2-1c-0.3,0.3-1,1.9-1.2,2.6v-0.3
		c-0.3-0.3,0-1-0.6-1.3c-0.3,0-0.4,0-0.4,0.4c0,0.3,0.7,0.3,0.4,0.9c-1.2-0.3-2.7-0.4-3.6-1c0-0.7-0.4-1.2-0.6-1.4
		c0-0.3,0-0.6,0.1-1.2c1.3-1.6,2.3-3.6,3.9-4.5c-0.1,0.4-0.6,0.7-0.4,1.2c1.4-1,2.7-3,4.6-4.6c2.4-2,1.3-0.7,4.2-2.2l6.8-2.6
		c0.9-0.4,2-0.9,3.2-1.2c0.4-1.3,0.4-2.3,0.3-3.3c-1.2,0,0.4-1.9,0-2.3c0.6-0.4,0.4,0.4,1-0.4c1-2.6,1.6-2.3,3.5-3.5
		c1,0,2.3-0.3,3.5-0.1c1.9,0.1,3.7-0.3,5.6,0.6c0.7,1.2,1.9,1.7,2.3,3.3c0.4,0.4,0.7-0.7,0.7-0.1c0.3,1.2-1,3.2,0.6,3.7
		c1,0.3,2.4,0.3,3.5,0.4c3.7,1,7.1,1.9,9.8,3.6c1.3,0.9,2.3,1.6,3.5,2.2c2,1.3,3.9,2.7,5.5,3.9c0.6,0.9,1.4,1.3,1.7,1.9
		c0.4,0.4,0.7,1,1.4,1.7c1.6,1.3,2.7,2.9,3.9,4.5c4.2,5.9,7.3,14.5,7.9,23.8c0,4.8-0.7,10.7-2.6,15.8c0.1,0.6,0,0.9-0.3,0.7
		c-0.4,0.4,0.3,0.1-0.1,0.4c-0.1,0-0.3,0.1-0.3,0.1c-1.2,4-3.3,7.9-5.5,11.1c0.4-1.4,2.2-2.9,2.2-4.2c-4.2,6.3-8.2,12.2-13.2,17.3
		c0.7-1.7,3.2-3.3,4-4.8c-0.6,0.3-0.9,0.6-1,1.2c0,0-0.1,0-0.1,0.1c-3.2,2.7-5.9,5.5-8.8,8.1c-0.9,0.1-1.3,0.9-1.7,1.4
		c0.1-0.3-0.3-0.1-0.3,0c0.6-0.3-0.1,0.9-0.6,0.3c-7.3,6.9-16,11.7-24.5,17c-0.4,2.3-1.2,5-1.2,7.2c-0.1,0-0.1-0.4,0-0.9
		c-0.7,0.6-1,1.3-1.4,2.4h-0.9c-0.3-0.9-0.4,0.1-0.9-0.9c-0.3,0.1,0,1.4-0.1,1.7c-0.4,0.1-0.1-0.3-0.4-0.1c-0.4,0.1-0.7,0-1.4,0.1
		c-0.9,0-1.2,1.6-2.7,1.3c0-0.6-0.3-1.3-1.2-1.3c-0.6-0.4-1.6-2.2-2.6-1.7c-0.1,0,0-0.3-0.3-0.3c-0.7,0-0.7,0.1-1,0.1
		c-0.7-1.2-0.4-2.7-0.9-4.2c-0.9,0.1-2.3,0-2.7,0.7c0.1-1-1,0.3-1.6,0c-0.1,0,0,0.6-0.1,0.6c-0.4-0.3-0.4-0.6-0.9-0.6
		c0-0.1,0.4-0.1,0.3-0.6c-1.3-0.7-3.3-0.7-5-1.9c0.3-0.6,1.2,0.3,1.3-0.6c0.3,0.4,0.4,0.3,0.7,0.4c0.9-0.7,2-0.4,2.4-1.9
		c0.3,0.3,0.7,0,0.9-0.1c1.3,0.3,1.7-0.7,2.7-0.6c-0.4-0.4,1.3-0.9,1.9-1.4c1-11.8,3-23.8,4.9-35.1c0.1-0.3-0.1-0.4-0.3-0.6
		c1-0.3,0.4-2.4,0.7-2.9c0-0.3-0.1-0.3,0-0.9c0.1-1.6,0.7-4.2,1-6.3c0.3-0.7,1-1.4,0.9-2.7c0.1-1.2,1.2-4.8,0.7-5.9
		c-0.1-0.6,0.1-0.7,0.4-1.3c1.9-12.5,4-25.5,4.8-38.4L696.7,50c-0.1,0.1,0.3,0-0.3,0.1C696.7,49.9,696.7,50,696.7,50z M699.8,145
		c-0.3,0-0.4,0.3-0.6,0.4C699.6,145.5,699.8,145.3,699.8,145z M701.6,142.3c-0.4,1-1.9,1-2,1.7C700.4,143.6,701.4,143.6,701.6,142.3
		z M700,145.6c0.4-0.9,1.7-0.9,1.9-1.7C701.4,144.3,700,144.3,700,145.6z M738.6,92.9c0.3-2,1-3.6,1.2-5c0.3-2.9,0.6-5.5,0.1-7.5
		c0.6-1.4,0-3.2,0-4.3c-0.1,0-0.4,0-0.1-0.7l0.1,0.1c0-0.4-0.1-1.6-0.9-1.4c0.3-1.6-0.4-2.9-0.7-4c0-0.4-0.4-1-0.4-1.2l-0.3-1
		c-0.4-1.3-1.4-2.9-1.6-4c-1.3-2.6-3.3-4.9-5.5-6.8c-0.3,0-0.3-0.3-0.4-0.3l-0.4-0.7c-4-3.3-7.6-7.5-14.3-8.1
		c-0.4,0.4-1.3,0-1.7,0.4c1,0.4-0.6,0-0.7,0.3c0.3,0,1.4,0.1,0.6,0.1c0,2,0,3.3-0.3,5c-0.1,2,0,4-0.6,6.2c0,2.4-0.6,5-0.4,7.6
		c-0.4,5.3-1.7,10.8-2.3,16.8c-1.4,6.5-2.6,16.1-4.2,23.3c-2,9.6-3.7,19.7-5.2,28.7c1.3-0.3,2.6-1.4,3.7-2h0.1c0.4,0,0-0.4,0.4-0.6
		c0.1,0.1,0,0.3,0.1,0.1c1.9-1.7,4-2.7,5.8-4.6c0.7-0.4,1.7-1.2,2-1.7c-0.1,0.1-0.3,0.1-0.6,0.1c1.7-1.4,4.3-3,5.8-5.3v0.1
		c4.5-4,8.9-7.9,12.1-13.1c0,0.3-0.3,0.6-0.1,0.6c2-2.4,3.2-4.8,4.9-7.9c0.1-0.1,0.1,0.3,0.3,0c1.2-2.7,3-5.8,3.3-9.4h0.2V92.9z
		 M703.2,141.6c-0.7,0.3-1.4,0.7-1.3,0.7C702.3,142.3,702.7,142.3,703.2,141.6z"/>
	<path fill="#08798F" d="M787.1,99.1c-0.3,1.2-0.9,2.3-0.7,3.3l0.7-2.6c0,0.6,0,2.2-0.4,3c0.9,0,1.2,0,1.3-0.3c0.6,0,1.6-0.1,2-0.4
		c0.1,0.1,0.7,0,0.7,0h0.3c2.7-1,0.7,0,3.5-1c1.6-0.9,3-1.6,4.5-2c0.6-0.1,1.2-0.1,1.4-0.9c1.9-0.4,2.7-1.3,4.5-1.9
		c0.3,0.1,0.6,0,0.7,0c0.1,0.4,0.7,0.6,1.2,0.6c-0.3,0.3-0.4,0.6-0.9,0.7v0.6c-0.3,0.7-0.7,1-1.7,1.2c-0.1,0.3-0.7,0.4-0.4,0.9
		c-1,0.1-1.7,1.2-3.2,1.9c0.3,0.1,0.1,0.3,0.1,0.6c0.6,0,0.9-0.3,1.4-0.4c-0.7,0.6-1.7,1-2.7,1.2c-0.9,0.3-2,1-3.2,1.3
		c0.1,0.3,0.3,0.1,0.7,0.1c-3.6,1.3-2.4,1.3-5.6,2.4c-0.4-0.1-0.9,0-1,0.1c-1.4,0.1-2.7,0.1-4.6,0.7c-0.7,2.6-1.9,6-3,8.8l-0.9,1.4
		l-0.1,0.3c0,0-0.1-0.1,0.1-0.3c-0.3,0-0.7,0.6-0.9,0.6c0-0.3,0.6-0.4,0.7-0.7c-0.6,0.1-1,0.6-1,1.4c-0.3,0,0-0.4-0.1-0.4
		c-0.3,0.4,0,0.4,0,0.7l-0.6,1.2c0.4-0.4,0.6-0.9,0.7-1.3c0,0.6-0.4,1.3-0.7,1.7l-0.6,1v-0.3c-0.9,0.9-2,1.3-2.2,2.7h0.1
		c-0.1,0.6-0.7,0.9-1.2,1.2l-1,1.8l-1.2,1.2c0.6-0.1,0.7-0.6,1.2-0.9c0.1,0.1-0.1,0.3,0,0.7c-1.2,1.2-2.4,2.2-3.9,3.2
		c-0.3,0.1-1,0.1-1.6,0.3c-0.1,0-0.1,0.1-0.1,0.3c-0.4,0.3-1.2,0.4-1.6,0.4c-0.7,0.4-1.6,0-2.3,1c-2.6,0-4.3,0-5.6-0.6l-0.3,0.1
		c-1.4-0.3-2.2-1.4-3.3-2.2l0.1-0.4c-0.3,0.3-0.3-0.4-0.7-0.4c-0.4-0.3-0.4-1.6-0.9-1.9c-0.1,0,0,0.1-0.1,0.1l-0.3-1.7
		c0-0.3,0-1.2-0.1-1.3c-1.2-2.9-1.4-5.8-1.4-9.4c0.3-5.6,1.6-10.9,3.5-16.3c0-0.1,0.1-0.1,0.1-0.1c1.3-5.2,4-9.9,6.8-13.7
		c0-0.4,0.1-0.9,0.6-0.9c0.1-0.3,0.7-0.4,1-0.9c0.6-0.1,1-0.9,1.6-1.2c0.1-0.4,0.4-0.6,1-0.9c0.6-0.1,0.6-0.3,1.9-0.4
		c0.6-0.1,0.7-1.2,1.6-0.9c0.9-0.3,1.7-0.3,2.7-0.1c1-0.1,1.7-0.7,2.2-0.7c0.9,0,1.6,0.1,2.6,0.4c0,0,0.1,0,0.1-0.3
		c2.6,0.9,5.3,2.3,6,5c0.1,0,0.3,0.3,0.6,0.3c0,0.1,0.1,0.3,0.1,0.6c0.9,1.7,0.6,4.3,1.2,6.6c0.6,1.2,0.7,2,0.9,3.2
		c-0.6,0.4-0.1,1.4,0,2.4l-0.1-0.3v0.8H787.1z M765.2,103.4c-0.7,2.2-1.4,7.6-2,9.6c-0.3,0.9,0,2.2-0.1,2.9c0,0.1-0.3,0.4-0.3,0.9
		c-0.3,2,0.3,4.6,0.6,6.5c0.4,1.3,0.7,2,1.4,2.7c0.6,0.6,0.9,2.3,1.4,2.3c0.3,0,1.4-0.9,1.7-1.2l2.4-2.9l3.6-6.5l1.9-4
		c0.7-1.6,0.7-3.5,1.3-5c-0.3-0.4-1.2,0.3-1.9,0.3C771.1,108.2,769.4,108.6,765.2,103.4z M778.2,93.9c0-0.6-0.1-1-0.3-1.2
		c-0.1,0-0.4-0.1-0.4-0.1c0-0.6,0-1-0.3-1.3c0.3-0.9-0.3-1.4-0.7-1.3l0.1-0.3c-0.6-0.1-0.1,0.3-0.6,0.3c0.1-0.7-0.7-0.7-1-1.6
		c0.1,0.3,0.4,0,0.6,0l-0.4-1.4c0-0.3-0.1-0.4-0.3-0.6c-0.4,0.3-1,0.3-1.4,0.7c-0.6,0.9-1.6,1.7-1.9,2.7c-0.4,0-0.6,0.4-0.7,0.9
		c-0.1,0.1-0.4,0.1-0.4,0.3l-0.9,1.9c-0.7,1.4-0.4,4.5,0.3,5.8c1.3,1.4,3,3.6,5,4.3l-0.1,0.4c1,0,2.2,0.1,3.2,0.1
		c0.1-1.2,0.4-3.3,0.3-4.3C778.2,97.2,778.3,95.2,778.2,93.9z M777.7,124.6c0-0.1,0-0.3,0.1-0.3
		C777.7,124.4,777.9,124.7,777.7,124.6z M778.2,123.3h0.4c-0.3,0.1-0.4,0.3-0.6,0.3C777.9,123.4,778.2,123.4,778.2,123.3z
		 M782.9,117.2c-0.1-0.4,0.3-1.2,0.4-1.3C783.7,116.2,783.1,116.8,782.9,117.2z M784.4,86.3L784.4,86.3c0.2,0.3,0.2,0.9,0.4,1
		c0,0.4,0.3,0.9,0.3,1.4c0.1,0.3,0.1,0.9,0.6,1.2c-0.4-1.4-0.4-2.9-1.3-4C784.2,86.1,784.2,86.3,784.4,86.3z M784.9,111.8
		c0-0.1,0-0.4,0.1-0.4C785.2,111.6,784.9,111.6,784.9,111.8z M787.1,99.4c0-0.1,0.1-0.3,0-0.3V99.4z"/>
	<path fill="#08798F" d="M784.2,183.9c0.1,0,0.1,0.1,0.1,0.3C784.2,184.2,784.2,183.9,784.2,183.9z M820.8,168.4
		c-0.1-0.3,0-0.6,0.1-0.7c0-0.4,0.4-0.7,0.6-0.9v-0.4c0-0.1,0.1-0.3,0-0.4c0.1,0,0.1,0.1,0.1,0.3c0.9-2.7,2-5.9,2.7-9.4
		c-0.1,0.1-0.1,0.7-0.3,1c-0.1,0.7-0.3,1.3-0.9,1.9l-0.4,0.7v0.3h0.1c0.1,0.1,0,0.6-0.1,0.7v0.1l-0.1,0.1c-0.4,0.9-0.4,1.6-0.7,2.2
		c-0.1,1.2-0.1,1.6-1,2c-0.6,3.2-1.4,6.3-2.7,8.9c0,0.1-0.3,0.4-0.3,0.7v-0.1c-0.1,0.1-0.3,0.3-0.3,0.4c-0.1,0.3-0.3,0-0.4,0.3
		c-0.1,0.1,0.3,0,0,0.4c-0.1,0.7-0.3,1.9-1,1.6c-0.1,0.6-0.1,0.9-0.1,1.3c0-0.1-0.3-0.1-0.3,0c0,0.3,0.3,0,0.3,0.1
		c-0.4,0.9-1,0.9-1,1.7c-0.4-0.3-0.1,0.9-0.6,0.7v0.4c-0.1,0.4-0.6,0.9-0.6,1.3h-0.3c-1.9,2.9-3.6,5.8-6.3,7.6c-0.3-0.1-0.6,0-0.7,0
		v0.1c-0.3,0-1.3,1.2-2,1.2c0-0.3,0.4-0.3,0.7-0.6c0.7-0.4,1.3-0.9,1.4-1.3c0.3-0.1,0.7,0,0.9-0.1l0.4-0.6l1-0.6l0.3-1l-1.2,0.9
		c0,0.3-0.3,0.3-0.3,0.4h-0.4c-0.9,1.3-2,1.9-3.3,2.7c-0.1,0,0,0.4-0.1,0.4v0.1c0-0.1-0.1-0.1-0.1-0.1c-0.4,0.1-1.6,0.4-2.6,0.6
		c-0.7,0.3-2,0.1-2.9,0.4c-5.8,1-12.4-1.9-13.4-7.8c-0.3-2.2-0.4-4.6,0-7.1l0.1-1.2c0.1,0.1,0.4,0,0.4-0.1v-0.6
		c0.1,0,0.1,0.1,0.3,0.1c0-1,0.6-2.2,0.6-3.2c-0.3,0-0.3,0.1-0.4,0.1c0-0.1,0-0.1,0.4-0.3l0.1-0.6c0-0.7,0.1-1.3,0.3-1.7
		c-0.1-0.7,0-1.2,0.3-1.7c1-3.2,2-5.9,3.3-8.5c0.1-0.1,0.3-0.1,0.3-0.1c0.4-1.3,0.9-2.2,1.3-2.9c0.1,0.1-0.3,0.3-0.1,0.7l1.9-3.5
		c-0.1-0.1,0-0.4,0.1-0.9c0.1,0,0.1,0.3,0.1,0.4l0.3-0.9c-0.1-0.1-0.1-0.4,0-0.6c-0.3-0.1,0.3-0.3,0.4-0.6v0.1l0.3-0.1
		c0-0.1,0.1-0.1,0.1-0.3c0-0.1,0.1-0.7,0.6-0.7h0.1c0.1-0.9,0.4-1,0.6-1.3c0.1-0.3,0.3-0.3,0.3-0.9c0.3,0.6,0,0,0.1-0.1
		c0-0.3,0.1-0.3,0.4-0.3l-0.1-0.4c0.3-0.9,1.3-1.4,1.6-1.9v0.3l0.4-1.2c1-0.6,1.7-1.6,2-2.3v0.1c1-1,2.4-2.9,3.3-4.2
		c-0.3,0-0.6,0.3-0.6,0.4c0-0.4,0.6-0.9,1-1.4c0-0.1,0.3-0.3,0.4-0.7c0.3,0.3,0.3,0.3,0.6,0.3c0.7-0.9,1.3-2,2-2.7
		c0-0.1,0.1-0.3,0.1-0.3c0.4-0.1,0.9-0.7,1.2-0.9c0-0.3-0.1-0.3,0-0.4c0.3,0.1,0.3-0.4,0.4,0l0.3-0.4c1.6-1.2,2.6-2.7,4-3.9
		c0.9-0.1,1.3-1.3,2.3-1.6v0.1c0.3,0.1,0.3,0.1,0.3,0.3c0.9-1.2,2.2-1.7,3.2-2.7l1.2-9.5h-0.1c0.1-0.1,0.4-0.4,0.1-0.9
		c-1.3,1.6-3.3,3-5.2,4.9l2-1.4c0,0,0.1,0,0.3-0.1c-1.2,1.3-2.6,2.3-3.6,3.3c1.6-1,2.7-2.3,4.3-3.5c0.7,0.1,0.9-0.6,1.4-1
		c-1.2,1.6-3.2,2.9-4.9,4.2l-0.9,1.3c-0.9,0.6-1.7,0.6-1.9,1.4c-0.4,0.1-0.9,0.7-1.2,0.9l-0.3,0.3c-1.3,0.3-2.2,1-3.6,1.2l-0.6,0.6
		c-2.9,0.4-5.5,0-7.3-1.3c-1.2-0.1-2.2-0.7-3-1.6c-1.3-1.6-2.2-3.2-2-6.5c0.1-4.6,1.6-8.4,2.7-12c2.4-4.3,5-8.6,8.1-12.8
		c2.7-3.2,5.8-6.3,9.1-8.9c1-0.4,1.9-1.9,3.2-2c2-0.6,4.3-1.4,6.6-1.3c0.6,0,0.9,0.6,1.7,0.6c0.7,0,1.4,0,1.9,0.1
		c0.4,0.1,0.6,0.4,1.2,0.3c1.3,1.4,3.2,3.3,4.5,5.2c0.1,1.3,0.7,1.9,0.7,3.5l-1.2,1.7c-1.2,0.4-3,1.6-3.9,0
		c-0.3,0.1-0.6-0.3-0.9-0.3c-0.3-0.1-0.4,0-0.6-0.1c-0.9-0.4-1-1.7-2.2-2.4c0-0.1-0.1-0.3-0.1-0.4c-0.7-0.1-1.6,0.3-2.4,0.7
		l-3.3,2.7c-2.6,2.4-4.8,5.2-6.9,8.1c-3.2,4.8-6.5,10.8-7.8,17.9c0,0.4-0.4,1.4,0.1,1.6c1.3-0.6,2.6-1.4,3.7-2.4
		c3.9-2.6,8.5-7.2,12.5-11.2c0.3-0.6,0.9-1.4,1.4-2l1.4-1.3c0.3-0.7,0.3-1.9,0.6-2.6c0.1-0.9,0.7-1.9,0.7-2.9
		c0.3-0.1,0.3-0.4,0.4-1.4c0.3,0.1,0.4,0.4,0.6,0.1c0.4-0.6,0.6-1.2,0.9-1.6c0.3-0.3,0.3,0.1,0.4,0.1v-0.4c0.6,0,0.7-0.1,1,0.3
		c0.3,0.1,0.3-0.4,0.3,0c0.3-0.3,0.1-0.4,0.3-0.4c0.3-0.3,0.3,0,0.6,0c0-0.1-0.3-0.1,0-0.3c0,0.1,0.1,0,0.6,0.1v-0.7
		c0.1,0.6,0.1,0.9,0.4,0.9s0-0.1,0.3-0.1s0.4,0.1,0.7,0.1c0,0-0.1-0.1,0-0.3c0.4,0,0.4,0.3,0.6,0.3c0.6,0.1,0.9,0.7,0.9,1.3
		c1,0,1.3,0.6,1.9,1.4c0.1,0,0.1-0.7,0.3-0.7c0.3,1.4,1.3,1.9,1,3.9l-0.7,2c-1.3,3.5-3,10.8-3.7,14.8c2.4-1,5.5-4.6,7.8-5.2
		c0.3-0.4,0.7,0,1.2-0.6c0.4-0.1,0.1,0,0.4-0.1c0.4-0.4,4.3-2.7,5.3-2.9c0.1-0.9,1.6-0.3,1.7-1.2c1.3,0.3,2.4-0.9,3.9-1.2
		c0,0.1-0.3,0.1-0.3,0.3c-0.1,0.1,0,0.1,0,0.6c0,0.1,0.7,0.3,0.9,0c-0.3,0-0.4,0-0.6-0.4c0.1-0.3,0.7-0.4,1-0.4
		c-0.1,0.1-0.4,0.3-0.4,0.6c0.7-0.1,1.9-0.6,2.3-0.6c-0.1,0.4-0.3,0.3-0.4,0.3c0,0.6,0,0.7-0.4,0.9h0.7c-0.4,0.3-1.4,0.3-1.6,1
		c0-0.3-0.3-0.1-0.6-0.1v-0.6c-0.3,0-0.1,0.6-0.4,0.6c-0.1-0.3,0.1-0.3,0-0.6c0,0.4-0.6,0.3-0.6,0.7c-0.6-0.3-1,0.6-1.6,0.6
		c-0.1,0.3-0.6,0.3-0.9,0.7c0.7-0.4,1.7-0.7,2.6-0.9v0.4c0-0.1-0.1,0-0.1-0.1c-0.7,0.4-1.4,0.6-1.7,1.3c0.3,0.6,1-0.9,1.7-0.7
		c0,0.6-0.1,0.7-0.6,0.7c-1,0.6-2,0.9-3.3,1.4c0-0.3,0.3-0.3,0.1-0.4c-0.4,0-0.6,0.1-0.9,0.3c-0.1,0.4,0.4,0.4,0.3,0.6
		c-1,0.7-5.8,3-6.9,3.9l-1.2,1c-1.3,0.4-2.4,0.9-3,2c0.4-0.1,0.7-0.4,1.3-0.4c1.2-0.7,2.3-1.4,2.9-1.6h0.1l-2.7,1.6
		c0.3,0.1,0.3,0,0.4,0l-1.4,1.2c0.6-0.1,1-0.9,2-1.2c0.4,0,1-1,1.4-0.9c-0.3,0.4-0.4,0.9-1,0.9c-0.4,0.1-1,0.7-1.7,1.2
		c0,0-0.1-0.1-0.1,0c-0.4,0-0.4,0.3-0.6,0.4v-0.1c-0.1,0.1-0.4,0.4-0.7,0.4c-0.3,0.3,0,0.3,0,0.4c-1,0.9-2.2,0.9-3,1.7
		c0,0.4,0.1-0.3,0.4,0c-1.3,1-2.4,1.6-3.2,2.9c0.1,0,0.1,0,0.3,0.1c0,0.1-0.4,0.3-0.7,0.6c-1.2,12.1-3.2,23.5-6.5,34.3l-3.6,11.8
		h-0.3c-0.1-0.3,0.1-0.7,0.3-1l0.4-1.6L820,170c0-0.4,0.1-0.6,0.3-0.9C820.7,168.7,820.8,168.5,820.8,168.4z M784.9,186.2
		c0-0.1-0.1-0.3-0.1-0.3S784.8,186.1,784.9,186.2z M785.2,176.1l0.1-0.1l-0.3,0.9L785.2,176.1z M785.5,180l-0.4,1
		c0,0.1,0,0.6,0.1,0.6l-0.1,0.9c0.1,0,0.4,0,0.4,0.4c0.4-1.6,0.3-3,0.1-4.8c0-0.1,0,0-0.1,0v1C785.7,179.3,785.5,179.7,785.5,180z
		 M785.1,184.1c0.4,0,0.4-0.3,0.4-0.6c0,0-0.3,0.1-0.4,0.1C785.1,183.9,785.2,183.9,785.1,184.1z M785.7,174.6
		c0,0.3-0.1,0.7-0.3,1.2L785.7,174.6z M785.4,176v-0.3V176z M785.7,174.6l0.1-0.4C785.8,174.3,785.8,174.4,785.7,174.6z
		 M786.5,173.4c-0.1-0.1,0-0.3-0.1-0.3C786.4,173.3,786.5,173.3,786.5,173.4z M786.8,184.9c0.1-0.3-0.3-0.6-0.4-0.9
		C786.4,184.5,786.4,184.8,786.8,184.9z M786.8,171.8c0.1-0.3,0.1-0.7,0.1-0.9C786.8,171.1,786.8,171.5,786.8,171.8z M787.4,169.8
		c0.1-0.3,0.3-0.6,0.1-0.7C787.4,169.2,787.4,169.7,787.4,169.8z M791.1,174.7c0.1-0.4,0.6-1.9,0.3-2.3
		C791.4,173.1,791.3,174,791.1,174.7z M791.4,180.5c0.1,0.1,0,0.6,0.1,0.6L791.4,180.5L791.4,180.5z M791.6,180c0.1,0,0.1-0.4,0-0.6
		C791.6,179.7,791.4,179.9,791.6,180z M792.3,181.5c0-0.1,0.1-0.4-0.3-0.4C792,181.2,791.9,181.5,792.3,181.5z M808.6,142.2
		c0,0,0.1,0,0.1,0.1c-0.1,0.1-0.6,0.4-0.6,0.7l-0.1-0.1c-0.6,1.2-1.3,1.9-2,2.7v-0.1c-0.3,0.6-0.7,0.7-0.6,1h-0.1l-1,1.4h-0.1
		c-0.1,0,0,0.4-0.1,0.6v-0.1c-0.3,0.9-1.2,2.2-1.9,2.3h-0.1c0.1-0.6,0.3-0.9,0.7-0.9c0.1-0.6,0.4-1,0.9-1.4
		c-0.7,0.6-1.2,1.6-1.7,1.9l-0.3,0.9h0.3c-0.1,0-0.1,0.1-0.1,0.1l-0.1-0.1c0,0-0.1,0.1-0.1,0.4h0.3c-0.1,0.3-0.3,0.3-0.1,0.6l-0.3,1
		v-0.6h-0.1c0-0.6,0.1-0.7,0.3-1l-1.9,2.3l0.1-0.3c-0.1,0-0.6,0.3-0.3,0.4l-0.7,1.4v-0.1l-0.7,1.3v0.3c-0.9,1.2-1.4,2.3-1.7,3.6
		c0-0.1,0.1-0.1,0.3-0.1c0-0.1,0.1-0.1,0.1-0.6l0.1,0.3c0.1-0.3,0-0.6,0-0.7s0.6-0.9,0.6-0.9c0.1,0-0.1-0.1,0.1-0.4
		c0,0.3,0,0.3,0.1,0.3c0-0.7,0.4-1.6,0.9-1.7c0.1-0.1,0-0.1,0-0.3c0.6-0.6,0.6-2,1.7-2.3l0.1-0.7c0.4,0,0.4-0.1,0.6-0.3
		c0,0.1,0,0.1,0.1,0.3c-1.7,2.3-3,4.9-4.3,7.2h-0.1c-0.6,1-0.6,2.4-1.3,3.5c0.1,0.1,0.4,0,0.4,0l-1.2,3.7l0.6-1.6l-0.7,3l-0.6,1.7
		l0.1-0.1h0.1c0.1-0.1,0-0.1,0.1-0.6h0.1c-0.1,0.7-0.3,1.7-0.7,2.6v-0.4c-0.1,0.4-0.1,0.6-0.3,0.6v-0.6h-0.1
		c0.1-0.4,0.1-1.2,0.1-1.4c0.3,0.3,0,0.9,0,1.2c0.4-1.3,0.6-2.4,1-3.5v-0.3c-0.1-1.3,0.7-2.3,0.6-3c0.1,0,0.1,0.1,0.1,0.1
		c0.1,0,0-0.3,0-0.3c0.1-0.3,0.1-0.4,0.1-1.2c-0.1,0.1-0.3,0.3-0.3,0.6c-0.1,1.3-0.7,2.4-1,4.2c-0.6,0.4-0.6,1.2-0.7,2
		c-0.9,1.6-1,3.7-1.2,5.6c0.4,1,0,1.6,0.3,2.4c0.3-1,0.3-2.9,0.4-4c0.4,1.2-0.1,3-0.3,4.2c0.1-0.4,0.7-1,0.7-1.6
		c0.1,0.1,0.1,0.1,0.1,0.4c0,0.1-0.6,0.4,0,0.9c-0.6,0.3-0.1,0.9-0.1,1.4c0.3,0.6,0.1,1.3,0.1,2c0,1.6,0.3,2.6,0.7,3.9
		c0.1-0.9-0.6-1.4-0.3-1.9c0,0.4,0.1,0.7,0.4,1c0.1-0.3-0.3-0.3,0-0.4c0,0.1,0.1,0.3,0.3,0.4c0-0.1-0.1-0.3,0-0.4
		c0.1,1,0.4,1.7,0.6,2l1.4,1.6c0.3,0,0.3-0.1,0.6-0.1c0.9,0.1,1.3,0,1.7-0.1c1-1.2,2.4-1.7,3-3.3l1-0.7c0,0,0.1-0.1,0.1-0.3v0.3
		c3.6-4.3,5.3-10.4,7.9-15.6c0.6-3.3,1.7-6.6,2.7-9.6c0.1-0.1,0.3-0.3,0.3-0.7c-0.1,0,0-0.1,0-0.3l1.6-8.5c0-0.1-0.1,0.1-0.1-0.1
		c0-0.1,0.3,0,0.1-0.4c-0.1-0.1,0-0.7,0.4-0.9c0.6-0.9,0.3-1.4,0.7-2.3c0.1-1,0.6-2.4,0.7-3.9l0.1-2.6c0.3-2.9,1.4-5.8,1.6-8.2
		c-0.1,0.1-0.4,0.1-0.1,0.4c-0.7-0.1-0.9,1.2-1.3,1c-0.3,0.3-0.7,0.7-0.7,1.2c-0.1,0-0.1,0.1-0.3,0.1c-0.6,0.7-1.3,1.9-2.3,1.9
		c-0.1,0.3-0.7,0.4-0.9,1.2c0-0.6,0-0.7-0.3-0.6c-0.1,0.1,0.3,1.2-0.1,1.3c0-0.1,0-0.7-0.1-1.2c0,0.6-0.3,0.6-0.3,0.7
		c-0.1,0.3-0.1,0.4-0.1,0.6l0.1-0.1c0,0.3,0-0.1,0.3-0.1c0,0.3-0.1,0.4-0.4,0.4c0,0.1-0.1,0.3-0.1,0.3c-0.1-0.3,0.1-0.4,0-0.4
		c0,0.1-0.1,0.1-0.3,0.1c-0.1,0.1-0.1,0.3-0.4,0.3l0.3-0.3c-0.3,0-0.3,0-0.6,0.3l0.3,0.1c-0.3,0.3-0.4,1.2-1.2,1
		c0,0.1,0.1,0.1,0,0.1v0.1c0.6,0,0.7-0.4,1-0.3l-2,1.9v-0.3c-0.3,0.3-0.4,0.3-0.6,0.3c-0.1,0.3,0.1,0.6-0.1,0.6
		c-0.1,0-0.1,0-0.1-0.1c-0.3,0.4-0.7,0.9-1,1c-0.1,0,0.1-0.1-0.1,0c0,0.4-0.3,0.6-0.3,1.2L808.6,142.2z M792.4,182.3
		c-0.6,0-0.1,1.6,0.1,1.7C792.6,183.5,792.4,183.2,792.4,182.3z M792.6,180.6c-0.1,0.4,0,1,0.1,0.7c0,0.3,0.1,0.6,0.6,0.9
		c-0.4-0.7,0-1.6-0.4-2.2C792.9,180.5,792.6,180.3,792.6,180.6z M792.7,174.3c-0.3-0.1,0.1-1.3,0.1-1.9
		C793.3,173,792.9,173.8,792.7,174.3z M792.9,168.8c-0.3,0.3-0.3,0.7-0.1,1C792.7,169.4,792.9,169.1,792.9,168.8z M793.3,165.6
		c-0.1,0.3-0.7,0.3-0.6,0.4C792.9,165.9,793.3,165.9,793.3,165.6z M792.7,170.8c0-0.1,0.6-0.1,0.6-0.1c-0.6-0.1,0.1-0.6-0.4-0.6
		C793.3,170.5,792.6,170.7,792.7,170.8z M792.9,180c0-0.1,0-0.4-0.1-0.4C792.7,179.7,792.7,180,792.9,180z M793.3,174.3v0.4
		C793,174.6,793.2,174.4,793.3,174.3z M793.4,173.1c0,0.4-0.1,0.4,0,0.9C793.4,174,793.6,173.1,793.4,173.1z M793.6,165.5
		c0,0,0.1,0,0.1-0.1c-0.1,0-0.1,0-0.3-0.1C793.4,165.3,793.4,165.3,793.6,165.5z M793.6,172c0.1,0,0.1,0,0.1,0.1
		c0-0.1,0.1-0.3,0.1-0.3C793.7,171.8,793.7,172,793.6,172z M793.7,165.2c0.1-0.1,0.3-0.6,0-0.6C793.9,164.8,793.6,165.2,793.7,165.2
		z M793.9,181.3c0,0.1,0,0.4,0.1,0.9C793.9,182,793.7,181.3,793.9,181.3z M794,182.9c-0.3-0.3-0.1-0.6-0.1-0.7
		C794.2,182.2,794,182.6,794,182.9z M794.2,163.3c0.1,0.1,0.1,0.3,0,0.4C794.5,163.6,794.5,163.6,794.2,163.3
		c0.1-0.1,0.2-0.1,0.2-0.1s0,0.3,0.1,0.1l0.4-1.9L794.2,163.3z M794.7,153.7c-0.3,0.1-0.4,0.3-0.4,0.3L794.7,153.7z M794.6,169.5
		c0-0.3,0.1-0.4,0-0.4C794.6,169.1,794.4,169.2,794.6,169.5z M795,162.5c-0.1,0.4-0.3,0.7-0.3,1.3C794.9,163.3,795,162.9,795,162.5z
		 M795,163.6c0.1,0,0.3-0.4,0.1-0.4C795.2,163.3,795,163.3,795,163.6z M795.2,162v0.6h0.1c-0.1-0.4,0.4-0.6,0.6-1
		C795.7,161.6,795.3,162.2,795.2,162z M796,158.4c-0.1,0-0.1,0-0.1,0.1C796,158.7,796,158.4,796,158.4z M795.9,163.8
		c0-0.1,0.1-0.3,0.1-0.3L795.9,163.8L795.9,163.8z M796.2,162.8v-0.1c-0.1,0.3-0.1,0.4-0.1,0.6c-0.1-0.1,0-0.6,0.1-1l0.3-0.4
		L796.2,162.8z M796.2,160.7c0-0.1,0.1,0,0.1-0.1l-0.1-0.1C796.2,160.5,796.2,160.6,796.2,160.7L796.2,160.7L796.2,160.7z
		 M797.3,155.7c-0.6,0.3-0.9,0.9-0.9,1.2C796.6,156.6,797.3,155.8,797.3,155.7z M797.3,160c0,0.1-0.1,0.1-0.1,0.1L797.3,160z
		 M797.8,158.7l0.3-0.3c0.7-0.6,0.7-1.4,1.2-1.9c-0.1,0.4-0.4,1.2-0.6,1.9c-0.1,0-0.1,0-0.1,0.1
		C798.2,158.6,797.9,158.6,797.8,158.7z M798,148.4c0,0.1-0.1,0.1-0.1,0.6C798,148.6,798.5,148.2,798,148.4z M798.3,155.3
		c0,0.1-0.3,0.3-0.3,0.4C798.3,155.7,798.3,155.4,798.3,155.3z M798.5,158.7v0.3C798.3,158.9,798.5,158.7,798.5,158.7z M798.6,154.4
		c0.4-0.9,1.2-1.9,1.7-2.9l-1.7,2.4C798.6,154,798.5,154.3,798.6,154.4z M799.2,146.5c0.1-0.4,0.6-1,1.2-1.3L799.2,146.5z
		 M799.5,153.8c0,0-0.1,0-0.1,0.1L799.5,153.8z M799.6,151.5c0.4-0.3,1.2-0.6,1.2-1L799.6,151.5z M800.4,155.3
		c0.1-0.3,0.1-0.9,0.6-1C800.8,154.5,800.8,155.3,800.4,155.3z M801.2,144.2c0-0.1,0-0.3,0.1-0.3C801.5,144,801.2,144,801.2,144.2z
		 M801.9,148.2c-0.1,0.4-0.6,1-0.6,1.6C801.5,149.2,802.1,148.5,801.9,148.2z M802.7,148.6c-0.7,0.6-1.2,1.2-1.3,1.9L802.7,148.6z
		 M801.6,153.2c-0.3,0,0.1-0.1,0-0.4C801.9,153,801.6,153.2,801.6,153.2z M801.6,143.7c0.1-0.9,0.7-1.4,1.4-2.2
		C802.8,142.3,801.9,142.9,801.6,143.7z M801.8,151.1c0-0.1,0.1-0.1,0.1-0.3L801.8,151.1L801.8,151.1z M801.9,152.4
		c0.1-0.3,0.1-0.9,0.4-0.9C802.2,152,802.2,152.4,801.9,152.4z M802.9,151.1c0.4,0-0.1,0.3-0.1,0.4
		C802.4,151.4,802.8,151.1,802.9,151.1z M803.8,147.2c-0.3,0.3-1,0.7-1,1.2C803.1,147.9,803.7,147.8,803.8,147.2z M805.1,145.9
		c-0.7,0.4-0.7,1.9-1.7,2c0.1,0,0.1,0.3,0.1,0.4l0.9-1.2l2.9-3.7c-0.6,0-0.7,0.9-0.9,0.7C806.1,144.9,805.2,144.9,805.1,145.9z
		 M804.1,146.3c-0.1,0-0.3,0.3-0.1,0.6C804,146.6,804.1,146.5,804.1,146.3z M804,146.2c0.1-0.3,0.6-0.7,0.4-1
		C804.2,145.5,804,145.5,804,146.2z M804.5,146v-0.6l-0.1,0.3L804.5,146z M804.5,149.4c0-0.1,0.4-0.3,0.4-0.4
		C805.2,149.1,805,149.2,804.5,149.4z M805.2,144.8c0.3-0.3,0.9-0.7,0.9-0.6v-0.4c-0.4,0-0.1,0.3-0.4,0.1L805.2,144.8z M806.3,142.6
		c0-0.1,0.3-0.1,0.3-0.4C806.4,142.3,806.3,142.4,806.3,142.6z M806.4,144c0.1-0.1,0.1-0.4,0.1-0.6c0-0.3,0.1-0.4,0-0.6
		c-0.1,0.3-0.3,0.9-0.3,1.2L806.4,144L806.4,144z M807,142.9c0-0.6,0.3-0.6,0.4-0.4c0.1-0.3,0.1-0.7,0.6-1l-0.1,0.3
		c0.6-0.3,0.9-0.4,0.7-0.9c0.3,0,0.1-0.3,0.4-0.1c-0.1-0.3,0-0.4,0.1-0.6h0.1c0-0.1,0.3-0.1,0-0.4l-2.6,3
		C806.8,142.7,806.8,142.9,807,142.9z M806.8,146.6c0-0.3,0.1-0.3,0.1-0.4C807.3,146.3,807,146.5,806.8,146.6z M807.7,144.8
		c0.1-0.3,0.4-0.6,0.4-0.9c0.4,0.1,0.4-0.1,0.7-0.3C808.6,144.2,808.1,144.5,807.7,144.8z M808.6,139.9c-0.6,0.1-0.9,1-0.6,0.7
		L808.6,139.9z M808.1,143v0.1C808,143.2,808,143.2,808.1,143z M808.8,144c-0.1,0.3-0.3,0.7-0.7,1
		C808.1,144.8,808.6,144.3,808.8,144z M808.6,144.9c0.1-0.1,0.3-0.6,0.6-0.7C809,144.5,808.8,144.8,808.6,144.9z M809.1,142.2
		c0,0,0,0.1-0.1,0.1L809.1,142.2L809.1,142.2z M810.3,139.3c0-0.3,0.1-0.4,0.3-1.2l-1.3,1.6c0.3,0,0.4-0.1,0.7-0.4
		C809.9,139.7,810.1,139.3,810.3,139.3z M809.6,140.9l-0.3,0.3C809.3,141.2,809.3,140.9,809.6,140.9z M810.7,136.8
		c0.3,0.6-0.1,0.4-0.1,0.6c-0.4,0.1-0.6,1-0.9,0.9c0,0.1-0.1,0.3-0.1,0.6l1.7-1.6c0,0.1,0,0.1,0.1,0.1l-0.3,0.4
		c0.3,0,0.6-0.4,0.6-0.6c0-0.1-0.1,0.1-0.1,0s0.1-0.7,0.1-1.2c-0.3,0.6-0.3,1-0.3,1.2L810.7,136.8z M809.7,187.8l2-2.2
		C810.7,185.9,810.3,186.8,809.7,187.8z M811.7,139l-0.1-0.1c0-0.3,0.1-0.3,0.1-0.4C812,138.4,811.7,138.8,811.7,139z M812.6,138
		c-0.1,0-0.1,0.1-0.3,0.3c-0.3,0-0.1-0.1-0.1-0.3H812.6z M812.7,135c0.1,0.4-0.4,0.7-0.1,0.7c0,0,0.1-0.1,0.1-0.3
		c0.3,0,1-0.6,0.6-0.9C813.2,134.8,813,135,812.7,135z M813.3,139c0,0.1-0.1,0.1-0.3,0.1L813.3,139z M814.3,134.1v-0.3
		c0.1,0,0.3-0.3,0.7-0.6c0.6-0.3,0.1-0.9,0.4-1.3c0,0.4,0.1,0.4,0.1,1l1-1c0,0,0,0.1,0.3,0.1l0.1-1c0.3-0.3,0.6-0.9,0.9-1
		c0.4-0.4,1.4-1,1.6-1.4c-0.7,0.1-1.6,1.3-2.2,1.4c0.6-1,2-1.3,2.3-2.3c-2.2,1.9-4.2,3.3-5.3,5c0,0,0.1,0,0.1,0.1
		c-0.1,0.6-0.6,0.7-0.7,1.2C813.7,134.2,813.9,134.2,814.3,134.1z M813.9,184.4c0-0.3,0.1-0.4,0.4-0.4L813.9,184.4z M814.9,134.1
		c-0.4,0.4-0.9,0.9-0.9,1.3C814.5,135,814.8,134.8,814.9,134.1z M814.8,133.1c0-0.4-0.1-0.1-0.3-0.1c0.1-0.4,0.4-0.6,0.6-0.7
		C815,132.4,815,132.9,814.8,133.1z M814.9,182.9c-0.1-0.4,0.1-0.7,0.1-0.7C815.3,182.2,815,182.9,814.9,182.9z M815.2,151.2
		c-0.3,0,0-0.1,0-0.3C815.3,151.1,815.2,151.1,815.2,151.2z M815.8,181c0-0.1,0.3-0.7,0.6-1.2C816.3,180.3,816,180.9,815.8,181z
		 M816.2,146.8c0,0.1-0.1,0.4-0.1,0.4C816,146.9,816,146.9,816.2,146.8z M816.2,179.2c0-0.1,0.1-0.3,0-0.4
		C816.2,178.9,816,179.2,816.2,179.2z M816.6,131.5l0.1-0.1C816.8,131.5,816.6,131.5,816.6,131.5z M817.1,178.6c0,0.1,0,0.6-0.3,0.6
		L817.1,178.6z M818.2,130.5v-0.4c-0.6,0.4-1.2,0.9-1.2,1.4C817.3,131.1,817.6,130.6,818.2,130.5z M817.1,178.4
		c0-0.3,0.3-0.6,0.3-0.6C817.5,177.9,817.2,178.2,817.1,178.4z M817.3,177.4c-0.1-0.4,0.1-0.7,0.1-1.2
		C817.6,176.7,817.5,177,817.3,177.4z M817.5,177.9c0-0.6,0.3-1.3,0.7-1.7C818.1,176.7,817.6,177.3,817.5,177.9z M817.9,131.2
		c0.6-0.4,1.4-0.4,1.3-1.2L817.9,131.2z M818.8,129.6c-0.4,0.1-0.6,0.3-0.4,0.6C818.6,130.1,818.8,129.9,818.8,129.6z M818.4,118.3
		l0.9-0.4l-0.1,0.1L818.4,118.3z M819.6,172.4c0,1.2-0.6,2.2-1.3,3.3L819.6,172.4z M819.2,117.8c0.1-0.4,0.4-0.7,0.7-0.7
		L819.2,117.8z M820.5,116.4c0,0.3-0.1,0.4-0.1,0.4L820.5,116.4z M820.5,116.4l0.3-0.3C820.7,116.2,820.7,116.4,820.5,116.4z
		 M822.1,164.2c0.1-0.3,0.1-0.4,0.1-0.4C822.4,163.6,822.2,164.2,822.1,164.2z M824.4,156.8c0.3-0.1,0.1-0.6,0.4-1
		C824.4,156,824.4,156.4,824.4,156.8z M833.3,94.1c-0.3,0-0.3-0.3,0-0.3V94.1z M833.5,93.9v0.9C833.5,94.6,833.6,93.9,833.5,93.9z
		 M835.3,121.9c0-0.3,0.3-0.3,0.3-0.4C835.8,121.6,835.5,121.9,835.3,121.9z M839.4,117.1c-0.1,0.1-0.3,0.1-0.4,0.1
		c0.3-0.1,0.3-0.3,0.4-0.3V117.1z M841.1,116.1c-0.4,0.1-0.6,0.7-1.2,0.7c0.4-0.4,0.7-0.9,1.3-1.2C841.5,116,841.1,116,841.1,116.1z
		 M841.2,116.2c0.6-0.4,1.2-0.7,1.4-0.7C842.4,115.8,841.8,116,841.2,116.2z M845.7,113.8c-0.3-0.1-2.9,1.7-3,1.7
		c0-0.3,2.9-1.9,3-1.9V113.8z M846.3,107.6c0.3,0,0.3,0.1,0.3,0.3C846.3,107.9,846.3,107.7,846.3,107.6z M847.3,114.4
		c-0.1,0.1-0.3,0.1-0.3,0.1L847.3,114.4z M847.9,114.4c0.3-0.6,0.6-0.9,0.9-1C848.6,113.8,848.2,113.9,847.9,114.4z M848.3,110.8
		c0,0.1,0.1,0.1,0.3,0.3v-0.3H848.3z M851,110.8L851,110.8C850.9,110.8,851,110.8,851,110.8L851,110.8z M851.8,110.3
		c0.1-0.3,0.4-0.6,0.7-0.4C852.2,110,852,110.5,851.8,110.3z M852.2,109L852.2,109C852,109.2,852.2,109,852.2,109z M852.8,109.5
		c0.1,0.3,0.1,0.4-0.1,0.4C852.6,109.8,852.6,109.5,852.8,109.5z M853.5,109.5v0.6c-0.3-0.1-0.3-0.1-0.4-0.6H853.5z M853.8,109.2
		c0.1,0,0,0.7-0.1,0.7C853.5,109.8,853.6,109.5,853.8,109.2z M854.4,108.3c-0.1-0.1,0.1-0.4,0.4-0.4
		C854.8,108.2,854.5,108.2,854.4,108.3z M854.8,106.6v-0.3c-0.3,0-0.4-0.1-0.4,0C854.4,106.6,854.5,106.6,854.8,106.6z M855.2,106.9
		c0.1-0.1,0-0.6,0.1-0.7c0.1,0,0.1,0.4,0.3,0.6C855.5,106.9,855.4,106.9,855.2,106.9z M855.6,106.7c0-0.4,0.1-0.4,0.4-0.4
		C856.1,106.6,855.8,106.6,855.6,106.7z"/>
</g>
</svg>
