<?xml version="1.0" encoding="utf-8"?>
<!-- Generator: Adobe Illustrator 20.1.0, SVG Export Plug-In . SVG Version: 6.00 Build 0)  -->
<svg version="1.1" xmlns="http://www.w3.org/2000/svg" xmlns:xlink="http://www.w3.org/1999/xlink" x="0px" y="0px" width="1136px"
	 height="208.4px" viewBox="0 0 1136 208.4" enable-background="new 0 0 1136 208.4" xml:space="preserve">
<g id="Layer_2">
</g>
<g id="Layer_1">
	<g>
		<rect fill="#1ABCDC" width="1136" height="171.9"/>
	</g>
	<g>
		<g>
			<path fill="#08798F" d="M313.8,136.5c0-0.1,0.1-0.3,0.1-0.3v0.6h-0.1v0.3c0.1,0,0.1-0.3,0.3-0.1c-0.1-0.4,0.4-2,0.3-1.2
				c0,1.9-0.9,3.5-0.7,5.3c0.3-0.4,0.3-1.2,0.3-1.6c0.1,0.4,0.3,0.6,0.3,0.9c0,0-0.1,0-0.1-0.1c-0.1-0.1-0.1,0.9-0.3,1
				c0,0.9,0.1,1.6,0.1,2.6l-0.1,0.1c-0.1,1.2-0.3,2.6-0.3,3.9c-0.4,0.3-0.6,0.9-0.6,1.3c0-0.1,0.1-0.1,0.3-0.4
				c0,0.6-0.3,1.6-0.1,2.2c0-0.1,0.1-0.1,0.1-0.3c0.1,1.2-0.1,2.2-0.1,3.3c-0.1,0.4-0.1,0-0.6,0c-0.1,1,0,1.6,0,2.4
				c0.6-0.3,0-0.7,0.6-1.2v6.9c-0.1,0.3,0,0.7-0.1,1c0.1,0.4,0.4,1.3,0,1.9c0-0.4,0.1-1.3,0-1.6c-1,1.3,0.3,3.7-0.3,4.5
				c-0.4-0.3-0.3-0.7-0.6-1c-0.4,0.4,0,1.4,0,2.4c-0.3-1.3-0.4-2-0.9-2.7c-0.1,1,0.7,1.4,0.3,2.7c-0.4-1.7-0.7-3.5-0.7-5.2
				c-0.9,1.3-0.1,3.2,0,4.3c0.1,0.3,0.3-0.4,0.3,0c-0.1,0.9,0,1.3,0,1.9c-0.7-0.7-1.3-2-1.6-3.3c-0.1,0.1-0.1,0.4,0,0.6
				c-0.1,0.1,0-0.3-0.4-0.1c0.1,2.2,0,2.4,0.4,4.8c-0.4-0.9,0-0.9-0.7-1.6c-0.3,0.1,0,0.6-0.1,1c-0.3,0.3,0-0.9-0.3-1.2
				c-0.9,0.1-0.7,1.2-1,1.4c-0.1-0.7-0.4-1.4-0.7-1.9c0,1.2,0.4,1.9,0.4,2.9c-0.1-0.3-0.4-0.3-0.7-0.3c0-0.3,0.3-0.6,0.1-0.7
				c-0.1,0-0.1,0.1-0.1,0.3c-1-2.6-2.4-4.8-2.9-7.2c0,1.2,0.4,2,0.3,3.7c-0.7-1.6-0.7-3.7-1.3-5.6c0,0.3,0.3,0.6-0.1,1
				c-0.6-3.2-0.6-6.6-0.7-10.1c0.1-4.2-0.3-8.4,0-12.5c0-0.9,0.1-1.4,0.3-2c0.1-1.7-0.4-3.3,0-4.9c0-0.3,0.3-1,0.1-1.4
				s-0.4-0.7-0.3-1.2l0.7-3.9c0.6-7.1,2-15.7,3.2-22.3c0.3-0.6,0-0.6-0.1-0.7c0-0.3,0.3-0.3,0.1-0.4c0.9-4.6,2.3-9.6,3.3-13.8
				c1-6.5,1.4-5,2.6-10.7c-0.6-2.3,1.4-6,0.7-8.8c-1,0.1-2.4,1.2-3.3,0.7c-0.3,0-0.3,0.3-0.3,0.4c-0.1,0-0.1-0.1-0.1-0.4
				c-3.7,1-12,1.2-16.1,0.6c-1.6-0.1-3.6-0.6-5.2-1.7c-1.4-0.1-1.9-1.7-1.4-3.6c0.7,0,0.4-0.4,1-0.7c0.4,0,0.9-0.4,1.3-0.3
				c0.1-0.6,0.1-0.9,0.3-1c0.7-0.1,1-0.9,1.9-0.6c0.4,0.4,0.4,0.7,0.6,1.4c0.4-0.4-0.1-0.6-0.1-1c0.6-0.4,0.7,0.1,1,0
				c0.1,0-0.1,0.1,0,0.3c0.3-0.7,1.3-1,2.2-1.2c0.1,0.6,0.4,0.1,0.4,1c0.3,0.1,0.3-0.1,0.6-0.1c0,0.1,0,0.3,0.3,0.3
				c0.6,0,1,0,1.3,0.3c9.4-0.9,20.7-5,29.7-6.5c0-0.1,0.1-0.1,0.1-0.3c7.9-1.4,17.3-2.2,25.9-0.1c0.6,1.2,2,0.1,2.7,0.4
				c0.1,0.7-0.1,0.7-0.1,1.2c-0.3-0.1-0.4,0-0.6,0c0.1,0.4,0.6,0.6,0.7,0.9c-0.3,0.6-0.6,0.6-0.7,1c-0.4,0-1.4,0-1.3,0.4
				c-3.3-1-1.2,1-3.6,1c0.3,0.4,1,0.3,1.4,0.3c0.1,0.3-0.3,0-0.3,0.1c1.4,0.7-2.6,0-1,0.3c-0.9,0.4-1.9-0.1-2.3,0.4h0.7
				c-1.3,0.6-2.6,0.6-3.3,0.7c-3.9,0.3-8.1-0.7-11.2,0.6c-1.7,0-4.2,0.7-6,1.3c0.3,0.4-0.6,0.4-1,0.7c0.1,0.4,0.3-0.1,0.6,0
				c0.3,0.7,0.7,1.2,1.2,1.6c0.6,1.3,0.9,3,0.6,4.8c-0.3,1.9-0.7,3.6-1.3,5.2c-0.3,3-1.2,1.2-1.6,4.3c-1,5-2,6.9-3.2,11.7
				c-0.9,3.3-1.3,6.9-2.2,9.8c0.3,1.7-1,3.5-1.2,5.3v0.1c-1.2,3.2-1.4,7.2-1.9,10.8c0-0.1,0.1-0.1,0.1-0.4c0.3-0.1-0.1,0.7-0.1,1
				h-0.1c0,0.3-0.1,0.3-0.1,0.4h0.1c0,0.1-0.1,0.1-0.1,0.4c0.1,0.7,0.1,2-0.4,2.7c0.6-0.4-0.3,1.2,0,1.7c0.1,0,0-0.4,0.1-0.7
				c0.1,1-0.3,2.3-0.3,3.3c0.3,0.7-0.3,1.9-0.1,2.6H316c-0.3,4.3-1,8.6-0.7,12.1c-0.4,0,0-1.6-0.3-2.2c-0.1,0-0.1,0.6-0.4,0.6
				c0.3-1.3,0.1-2.7,0.3-4c0-0.3-0.3,0.1-0.3,0l0.7-5.8c-0.3,0-0.3,0.9-0.4,0.9c0-1-0.1-1.9,0-2.6c0-1.3,0.3-2.4,0.7-3.5
				c-0.6,0.4-0.7,1.2-0.7,1.6c0,0-0.1,0-0.1-0.1v0.7l-0.1,1c-0.1,0.1-0.1,0.3-0.1,0.3c-0.3,0.7,0,1.3-0.1,2.4c0,0.3-0.1,0.1-0.1,0.1
				c0,0.4,0,0.1,0.1,0.3c0,0.1-0.1,0.4-0.1,0.7C313.8,135.6,313.8,136.2,313.8,136.5z M300.6,143.4c0.1,0,0.1,0.4,0,0.6
				C300.3,144.1,300.6,143.7,300.6,143.4z M302.4,165.4l-0.1-0.1C302.3,165.3,302.4,165.3,302.4,165.4z M302.7,166.1
				c0.1,0.1,0.3,0.4,0.3,0.7C302.7,166.6,302.9,166.3,302.7,166.1z M308.8,165.9c0.1,0-0.1,0.7,0.1,0.7
				C309.2,166,309.1,165.7,308.8,165.9z M309.6,169.5c-0.1-0.3-0.3-0.7,0-1.4V169.5z M310.1,156.1c0-1,0.4-2.3-0.3-3.5
				c0.1,2.6,0.1,4.9,0.1,7.3c0,0,0.1-0.1,0.1-0.3V156.1z M311.5,161.5c0-3.3-0.3-6.5,0-9.9c-0.3,0-0.3-0.3-0.4-0.3
				c0,2.2,0.1,4.5-0.3,7.2c0,0.1,0,0.6,0.1,0.7C310.8,160.1,310.8,160.8,311.5,161.5z M311.9,164.7c0.3-1.4-0.9-2.2,0.6-3.7
				c-0.1,0-0.1,0.1-0.3,0c0.3-0.3,0.1-0.9-0.1-1c0.1-1.7,0.1-3.6-0.1-5.8c0,0.3-0.3,0.9-0.1,1c0,0,0.1,0,0,0.1
				c-0.3,2.3,0.1,4.5-0.3,6.8v-0.6c-0.3,0.4-0.4,0.3-0.6,0.6c0.4,0.7,0.1,2.6,0.4,3.2c0.4-0.7,0.1-1.7,0.3-2.2L311.9,164.7z
				 M310.9,158.4c0.3,0,0.1-0.7,0.1-1c0.3,0.4,0.1,1,0.1,1.6C310.9,158.9,311.2,158.5,310.9,158.4z M311.9,153.3
				c0.3-0.7,0.3-1.4,0-2V153.3z M312.4,163.1c0.1-0.1,0.1-0.9-0.1-1.2C312.1,162.4,311.9,163,312.4,163.1z M313,154.2
				c0.4,0,0.3,0.9,0,0.9C313,154.8,312.5,154.8,313,154.2z M313.4,148.4v0.6c0-0.1-0.1-0.1-0.1-0.3L313.4,148.4z M313.2,150.6
				l0.1-1.6C313.5,149.3,313.5,149.9,313.2,150.6z M313.4,145c-0.1-0.3,0.3-1,0-1C313.2,144.4,313.2,144.7,313.4,145z M313.4,148.4
				v-0.1h0.1L313.4,148.4z M313.4,160.4c0.1,0.3,0.4,0.6,0.3,1.2C313.4,161.1,313.4,160.8,313.4,160.4z M313.7,156.5
				c-0.1-0.4-0.3-0.9-0.1-1.3C313.7,155.5,313.7,155.9,313.7,156.5z M314,146.6c0.1,2.4-0.1,5.6-0.4,8.6
				C313.4,152.6,313.8,149.1,314,146.6z M313.8,145.8c0.1,0,0.1,0.7,0,0.7S313.7,146.3,313.8,145.8z M314,144.8
				c0.3,0-0.1,0.7-0.1,0.9C313.7,145.7,313.8,145.4,314,144.8z M314,136c0-0.1,0-0.3,0.1-0.4C314.1,135.8,314,135.9,314,136z
				 M314.1,156.8c0-2-0.3-4.3,0.3-7.3c-0.1,3.5,0,6.6-0.4,10.2C314,158.9,314,158.1,314.1,156.8z M314.4,132.7
				c0.3,0.3,0.1,0.4,0.1,0.9C314.4,133.2,314.5,133,314.4,132.7z M314.4,135l0.1-1.4C314.5,134.2,314.7,135,314.4,135z M315,146.7
				c-0.1-1.3,0.7,0.4,0.1,1.6C315.1,148.3,315,146.8,315,146.7z M315,131.3c0.7-0.9,0.9-1.7,1-3.2
				C315.1,129.3,315.5,130.3,315,131.3z M315.5,145.8c0.1,0,0.1,0.4,0.1,0.7C315,146.6,315.5,146.1,315.5,145.8z M315.8,145.1
				c-0.3,0-0.3-1,0-1C315.7,144.5,315.7,145,315.8,145.1z M318.6,114.2c0,0.4-0.3,1-0.1,1.2C318.1,115.2,318.4,114.4,318.6,114.2z"
				/>
			<path fill="#08798F" d="M382.2,142.8c-0.3,0-0.4,0.9-0.7,0.6c0.1,0.3,0.3,0.3,0.1,0.4c-0.6-0.4-1,1.7-1.7,1.6
				c-0.1-0.3-0.1,0.1-0.6,0.1c0,0.1-0.1,0.3-0.3,0.6c-0.1,0-1,0.6-1,0.7c-0.4,0-0.6,0.1-0.7,0.6c0.4,0.3,0.4-0.4,0.9,0
				c-1.2,0.9-3,1.3-4,2.2c-0.1,0.1-0.4,0.1-0.6,0.1c-0.1,0.4-0.7,0.4-1.2,0.4l0.7-0.3H372c0.1,0,0.3,0.3,0.4,0.3
				c-1.4,0.1-3.3,0.3-4.8,0c0.1-0.3,0.4,0,0.7-0.3c-0.1,0-0.1,0,0-0.3c-0.9,0-1.4-0.6-2.3-0.1c-0.3,0-0.1-0.4-0.3-0.4
				c-0.3-0.1-0.3,0-0.4,0c-0.9-1.2-2.2-2-2.9-2.9c-1.6-2.4-2-6.2-1.9-9.6c0.6-5.3,2.6-11.5,4.2-16.7c0.7-1,1-2,1.3-3.2
				c2.9-6.6-1.2-4.6-2-3.9c-0.7,0.6-1.3,1.2-1.7,1.3l-0.4,0.6l-0.7,0.4c-0.4,0.3-0.9,1.3-1.2,1.4c-2,2-4,3.9-5.6,6.3
				c-0.1,0-0.1,0.4-0.6,0.4c-0.4,0.3-0.9,0.6-1,1.2h0.1c0,0.1-0.1,0.3-0.1,0.4v-0.4c-0.1,0.1,0,0.4,0,0.6c-1.6,1.9-2.7,3.6-4.2,5.5
				c-0.7,4.8-0.4,6.6-1.9,11.8c-0.3,1.2-0.1,3.6-1.9,3.9c-0.3,0.7-0.3,0.7-0.3,1.3h-0.3l-0.6,1.3c-0.1-0.3-0.1-0.4-0.4-0.6
				c-0.3,0,0,0.1-0.1,0.1c-0.1,0.1,0-0.1-0.1-0.1c-0.4,0.3-0.3,0.7-0.3,1c-0.3-0.1-0.3,0.4-0.3,0.4c-0.1,0-0.1-0.1-0.4-0.4
				c-0.1,0.4-0.9,0.7-0.9,1.3c-0.1,0-0.3-0.3-0.3-0.3c-0.4,0.3-2.3,0.3-2.6,0.4c-1.3-0.4-2.2-0.1-3.5,0.4h-0.4
				c-0.1,0,0.6,0.4,0.4,0.6c-0.3,0.1-0.3-0.3-0.7-0.1c-0.3-1.6-0.9-3.3-0.3-5.6c-0.4-0.1-0.4,0.3-0.4-0.1l0.4-3
				c0.1-0.3,0.3-0.7,0.1-1c0.1-0.9,0.3-1.6,0.3-2.3c0.3-1.6,0.1-2.9,0.1-4.8c0.4-1.7,0.7-3.7,0.9-5.5l0.4-4.8l0.3-1.4
				c0.4-1.4,2.3-7.8,3.5-14.7l0.6-2.7v-1.3l3.7-14.3c0-0.9,0.3-1.3,0.3-1.7c0.4-0.4,0.4-1.6,0.4-2c0.9-2.6,1.6-4.5,1.7-5.2v-0.3
				c0.3-1.7,1-3.3,1-4.9c0.6,0,0.1-0.3,0.6-0.4c1.3-3.5,3.5-3.5,5.6-4.6c0.4,0,1,0.1,1.6-0.4c0.7,0.6,1,0.6,1.9,0.7
				c1.6,0.4,3.2,1.3,3.2,3.2c0,0.7-0.3,1.6-0.3,2.6c0,0.6,0,1.2-0.1,1.6c0,0.9-1.6,4.9-2.7,9.6l-0.6,2.3l-0.6,1.7
				c-0.1,0.9-0.1,1.3-0.4,2c-0.3,2.4-0.4,1.6-0.9,4.3l-0.1,0.7c-0.6,0.7-0.7,1.7-0.7,2.9c-0.4,2.6-0.7,5.5-1.4,7.6
				c-1.3,5.6-2.3,11.2-2.4,12.4c1.2-0.9,2.7-2.7,3.6-4.3c1.6-1,2.7-2.6,3.6-4l3.2-2.7c0.6-1,1.2-1.4,2-2.4c3.3-2.4,5.9-4.9,10.5-6
				c0.1,0,0.3-0.3,0.6-0.4c0.9,0.1,1.9-0.4,2.7,0.3c0.4-0.4,1.4,0.1,1.9,0.3c0.3,0,0.3,0.4,0.3,0.4c0,0.7,1,0.1,1,0.9
				c-0.4,0-0.4-0.1-0.7-0.1c0.1,0.3,0.3,0.6,0.9,0.3c-0.1,0.9,0.4,1.4,1.2,1.7c0.1,0.6,0.1,1.2,0.1,1.7v1.3
				c-0.1,0.6-0.1,2.2-0.6,2.7l-1.4,4.6c-3.2,7.6-6.9,17.3-6.2,23.2c-0.1,1.4,0.6,2.7,1.4,3.9c2.3,1,3.3-1,5.2-2.4
				c-0.1,0.3-0.3,0.6-0.3,0.7c1.2-1.4,1.7-2.6,3.2-4.2h0.4c0.6-0.9,1.4-1.2,2.4-3c0.1,0.1,0.1,0.1,0.1,0c1.2-1.3,2.9-2.4,3.9-4
				c0.7-1,1.6-2.4,2.6-3.2c1.6-2.4,3.7-4.9,5-7.9l1.2-1.6c0.1,0,0.1,0.1,0.3-0.1c0-0.9,0.7-1.3,0.6-2.2h0.3c0.6-1,1.4-1.9,2-3.2
				c0.1-0.3,0.1,0,0.3-0.1c0-0.4,1.2-0.9,1.3-1c0.6,0.4-0.1,1.7,0.4,2.3c1-0.4,0.6-2.2,1.4-2.6c0,0.1,0.1,0.1,0.1,0.1v-0.7
				c0.3,0-0.1,1,0.4,1c-0.1,0.3-0.3,0.4-0.3,0.6c0.1,0.1,0.1-0.1,0.3-0.3c-1.4,4.9-4,9.1-6.6,13.2c-0.4,0.1-0.9,0.9-1.2,1.6
				c-0.1,0.3-0.3,0.7-0.6,0.7c-1.2,2.2-2.9,4-4.8,6c0.1,0.1,0,0.6-0.1,0.9c-0.3,0,0-0.3,0-0.4c-0.3,0-0.3,0.4-0.4,0.9
				c-0.3-0.7-0.6,0.1-0.4,0.4c-0.6-0.1-1.2,0.6-0.7,1c-0.4,0,0-0.1-0.4-0.3c-0.3,0.3-0.6,0.9-0.7,1.3c-0.1,0.3-0.4,0.4-0.6,0.4
				c-0.3,0.9-1.4,1.7-2.3,2.4c-0.6,0.4-1.2,1.2-1.6,1.9v0.1l-0.1-0.1C383.5,142.2,382.8,142.5,382.2,142.8h0.1
				c0,0.3-0.1,0.3-0.1,0.3V142.8z M368.7,149.6c0.4,0,0.4,0,1-0.6C369.4,148.4,369.1,149.4,368.7,149.6z M373.1,149.9l0.4-0.1
				C373.4,149.7,373.1,149.9,373.1,149.9z M379.9,146.8c0.1-0.3,1.4-1,1.9-1.3C381.6,146.3,380.9,146.6,379.9,146.8z M382.8,143.7
				c0,0,0-0.6,0.1-0.4C383.1,143.2,383.1,143.4,382.8,143.7z"/>
			<path fill="#08798F" d="M433.9,123.7c-3.2,4.2-15.6,18-21.9,21.7c0,0,0,0.1,0.1,0.1c-2.2,1.4-4.3,2.4-6.9,2c-0.1,0-0.4-0.1-1.2,0
				c-2-0.9-3.5-0.1-5.2-1.2c-0.7,0-1.6-0.3-1.9-0.3c-1.9-0.3-0.9-1.3-2.6-2.2c-2.4-3-3.5-6.8-2.6-12.4c0.9-3.6,0.3-7.1,1.6-10.2
				c0.1-0.1,0.3-0.1,0.3-0.4l-0.1-0.3c2.4-4.9,2.6-7.1,4.8-12.1c0.6-0.9,0.9-1.7,1.2-2.7l1-1.2c0.9-2.4,2.2-4,4-6.2
				c0.6-0.7,1.3-1.6,1.7-2.6c0.1-0.6,0.7-1.2,1.6-1h0.4c0.4-1,1.3-1.2,2-1.6c0.6,0,0.9,0.1,1.3,0.3c0.3-0.4,0.9-0.4,1.2-0.3
				c0.4-0.1,0.6-0.1,1.3,0c0.1,0,0.6-0.1,0.6-0.1c0.1,0.1,0.3,0.4,0.6,0.6c0.4,0.3,0.7,0,1,0.4c0.1,0,0.6,0.1,0.9,0.3
				c0.1,0,0.1-0.3,0.4-0.1l-0.1,0.7c0.3,0,0.3-0.1,0.4-0.1c0.3,0.1,0.4,0.4,0.7,0.4v0.1c4.2,2.7,4.8,9.1,2.7,14.3v0.3
				c-1.7,2.2-2.6,4.5-3.9,5.9c-0.1,0.9-1.3,1.3-1.6,1.9c-2,1.4-3.7,4-6.3,5.3c-0.7,0.6-3.6,1.7-4.8,2.4c-2,3.3-1.6,1-2.3,6
				c-0.4,2.6-1.4,5.5-1.2,7.8c0.3,1.9,1,2.7,2.6,3.5c2.7-0.6,4.9-2.2,7.1-3.9c0.3,0.1,0.3-0.1,0.7-0.1c1.4-1.2,3.6-2,4.6-3.7
				l0.4-0.4h-0.1c0.7-0.7,1.9-0.9,2.4-2.2v0.1c0.3-0.1,1.3-0.6,1.2-1.4c0.1,0.1,0.1,0.1,0.3,0.1V131c0.6-0.6,1.2-1.4,1.6-1.6
				c4.8-4,7.1-8.6,13.2-13.4c0.6-0.3,1-1.2,1.3-1.4c0.6-0.1,0.9-1.2,1.4-1.9c0.3,0.4,0.7,0.9,1,0.4c0.1,0.1,2.4-2.3,2.3-2.2
				c0.1,0.1,0.4,0.1,0.6,0c0,0.1-0.1,0.1-0.3,0.3c0.1,0,0.3,0.1,0.4,0c-0.1,0.1-0.1,0.6-0.4,0.6c-0.4,0.4-1.4,1.9-1.2,1.7
				c-0.1,0.4-1.3,1.3-1,2.2c0,0.1,0.3-0.9,0.6-0.9l0.9-0.9c-0.3,0.9,0.4-0.4,0.4,0.4c-0.1,0-0.9,0.9-1,1.2l0.1-0.1
				c0,0.1-0.1,0.1-0.1,0.1c-0.7,1.4-1.7,2.6-2.7,3.3c-0.1,1.3-0.7,1.4-1.2,1.7c0-0.3,0.6-0.3,1-1c-0.7,0.6-1.2,0.7-1.2,1
				c-0.6,0-0.7,0.6-0.7,0.9v0.3c-0.4,0.1-0.6,0.7-0.9,0.9C434.8,122.5,434.5,122.9,433.9,123.7z M393.3,129.1
				c-0.3,0.4-0.3,0.7-0.4,1.3v0.1c-0.3,1.2-0.4,2.6-0.6,3.9c0.4,0.6-0.1,1.2-0.1,1.6l0.4,1.6c0,2.7,0.9,5.6,3.5,7.5
				c-0.4-0.4-0.7-1.2-0.9-1.3c-0.9-2.2-2-3.6-2-5.9c0-2.7,0.4-5.9,1.3-9.1c0-0.9,0.4-2.4,0.3-3.2c-1.4,0.4-1.3,1.6-1.3,2.3
				C393.5,128.3,393.3,128.7,393.3,129.1z M410.4,116.9c2.6-1.4,4.2-3.7,5.3-6.8c-0.3-0.1-0.4-0.1,0.1-1l1-5.5
				c-0.3-0.6,0.1-1.4,0-1.7c-0.6,0.1-1,0.3-1.7,1.2c-0.7,1.2-1.7,3-3,4.2l-1.3,1.9c-1.3,2.7-3.7,8.9-4.8,12.1
				c0.7-0.6,3.6-3.3,3.9-4.3C410,116.9,410.4,117.2,410.4,116.9z M433.9,123.7h0.1H433.9z M434.1,123.7l1.3-0.6
				C435.1,123.4,434.5,123.5,434.1,123.7z M437.4,120.6c-0.1-0.3,0.7,0,0.7-0.1C438.4,120.6,437.5,120.6,437.4,120.6z M438.8,119.8
				c-0.1-0.3,0.1-0.7,0.4-0.9C439.2,119.1,439,119.5,438.8,119.8z M439.1,117.8c0.1-0.4,0.4-0.4,0.4-0.6
				C439.7,117.2,439.4,117.8,439.1,117.8z M441.3,113.6l-0.4,0.4v-0.1L441.3,113.6z M441.7,113.1c0,0.1-0.3,0.4-0.4,0.6v-0.3
				l0.1-0.1v0.1L441.7,113.1z M442,112.1c0.3-0.1,0,0.1-0.4,0.7L442,112.1z"/>
			<path fill="#08798F" d="M499.7,162.3c0.4,0.1,0.7,0.3,1,1.2c-0.7,0,0.1,0.1-0.9,0.1c-0.3,0.4,0.1,0.1-0.3,0.7
				c-0.4,0.4-1.6,0-2.3,0c-0.4,0.4-4.9,0.4-5.5,0.4c-0.1,0.1-0.1,0.1-0.1,0.3l0.9,0.6c-0.1,0.1,0.3,0.1,1,0v0.1
				c-0.3,0-0.3,0-0.3,0.1c-0.6,0.4-0.9,0.1-1.6-0.1c-5.2,0-9.9,2.9-15.6,4.5c-0.4-0.6-1.6,0-1.7,0.3c-0.1,0-0.1-0.1-0.1-0.1
				c-1.6,0.3-3.3,0.4-4.3,0l0.1,0.1c-0.4,0.3-0.4-0.3-1-0.3c-0.3,0-2.4,0.3-2.7,0.3c-0.9,0-2.2-1.3-2.6-2.2c-1.7-0.1-3.9-0.9-4-2.6
				c0-0.3,0.1-0.9,0.1-1.2c0-1.7-0.1-3.2-0.1-4.9c0-0.3,0.1-0.7,0.1-1.2c0.9-6.5,2-13,3.2-19.3c0.4-3.7,0-4.8,0.6-8.4l1.9-9.6
				c1.2-7.1,2.3-10.7,3.6-17.4c1-3.5,1.6-4.3,2.3-7.6c1.2-4.6,1.9-5.2,3-9.6l0.6-3.5c0.1-0.3,0.7-0.9,0.7-1.3
				c0.7-3.7,2.2-7.2,2.9-11.1c0.9-0.7,1-1.9,1.2-2.6c0.4-1.3,1-2.4,1.3-3.7c0.4-1,1-1.9,1-3.3c0.6-0.3,0.7-1,0.9-1.7
				c0.1-0.1,0.9-0.3,1-0.3c0.6-1.3,1.7-2.2,3.5-2.7c1.3,0.1,4.3,1.2,5.6,1h0.1c0,0.1-0.3,0.1,0.1,0.4c0.4,0.4,0.9,0.6,1.3,0.9
				c0.3,0.1,0.4,0.1,0.7,0.4c0.9,0.7,2.3,2.3,2.3,4c0,1.4-1,2.9-1.2,4.8c-0.4,0.1-0.9,0.7-0.4,1.3c-0.4,0.3-0.9,0.9-0.9,1.6
				c-0.3,0.1-0.1,0.6-0.4,0.7c-4.6,14.7-7.1,19.7-10.7,35c-1.9,9.5-4.2,18.6-5.5,28.4c-0.1,0,0.1,0.4-0.1,0.3
				c0.3,0.6,0.3,1.6-0.6,1.6c-0.1,0.3,0.7,0,0.4,0.3c-0.4,0.4,0,0-0.4,0c-0.3,0.6-0.1,1.3-0.3,2c0.1,0,0.3,0,0.3-0.1
				c-0.1,0.6-0.3,1.3-0.1,2c-0.4,0.4-0.9,0.9-0.7,1.6c0,0.3,0.1,0,0.3-0.3c0,0.7-0.1,1.7-0.3,2.3c-0.3,0-0.3-0.1-0.3-0.1
				c-0.1,0.4-0.3,0.7-0.1,0.9c0-0.3,0.3-0.3,0.4-0.6c0.1,0.6-0.3,1.3-0.6,1.6c0.1,0.1,0.1,0.4,0,0.9c0.3-0.6,0,0.3-0.3,0.4
				c0,0.1,0.1,0.1,0.1,0.1c-0.1,0.3-0.1,0.7-0.1,1.2c0.3-0.6,0.3-1.2,0.6-1.6c-0.1,0.7,0.1,2.4-0.7,2.9c0,0.4,0.4-0.1,0.3,0.3
				c-0.1,0.3-0.1-0.1-0.3,0c-0.3,0.6-0.3,1.4-0.6,2c0.3,0.1,0.3-0.3,0.6-0.3c0,0.4-0.6,0.4-0.9,0.7c0,1-0.1,1.9-0.3,2.3
				c0.3-0.6,0.4-1.3,0.9-2.2c-0.3-0.3-0.3,0.1-0.4,0c0-0.1,0.4-0.1,0.7-0.4c-0.1,0,0.1-0.1,0.1-0.4c0.1,0,0,0.4,0,0.4H476
				c-0.1,1.9-0.6,3.2-0.9,4.8h0.1l-0.1,0.1c-0.1,1.2-0.1,2.6-0.1,4c5-1.6,5.8-2.4,11.5-2.3c0.7,0,1.4-0.1,2,0c0.1,0,0.7-0.1,1-0.4
				c1.6,0.6,0.6,0,2.7-0.1c2.3-0.1,5,0.1,6.3,2c0.3,0.4,0.1,0.9,0.3,1.2L499.7,162.3c-0.1-0.1-0.3-0.3-0.4-0.3v-0.1
				c0.4,0,0.4,0,0.9,0.1C500,162.3,499.9,162.3,499.7,162.3z M474.7,170.5c0.1-0.1,0.4-0.3,0.6-0.3
				C475.4,170.5,475,170.3,474.7,170.5z M476.8,147c-0.3,0-0.3-0.9,0.1-0.7C476.7,146.4,477,146.8,476.8,147z M477.8,138.8
				c0.1-0.3,0-1,0.4-1.3C478.3,137.9,478,138.2,477.8,138.8z M500.2,162.4c0.1-0.4,0.3-0.4,0.4-0.1
				C500.6,162.4,500.4,162.3,500.2,162.4z"/>
			<path fill="#08798F" d="M558.9,113.3c0,0.1,0.3-1,0.6-1.2c-0.1,0.6-0.3,0.7-0.3,1.2c0.3-0.4,0.4-1,0.4-1.3h0.3
				c1-1.9,1.9-3.3,3.2-4.9c-0.1,1.3-1.2,1.4-0.7,2.3l0.9-1.2l-1,1.9h-0.3c-0.6,1.3-1,2.7-2.3,3.7c0.1,0.1,0,0.1,0.3,0.3l-1.7,3.6
				c0.3-0.1,0.4-1,1-1.2c-0.1-0.3,0.1-0.6,0.1-0.9c0.3,0.1,0,0.3,0,0.6c1.2-0.7,1.2-2.4,2-3.2c0.1,0.4-0.3,0.7-0.1,1
				c-0.6,1.7-1.7,2.6-2.2,4.5c-0.3,0.1-0.1,0.4-0.4,0.6c-0.6,1.6-9.4,12.8-10.1,14.3v0.4c-0.3,0.1-0.3,0.4-0.4,0.6l0.4-0.4l-0.9,1
				c-0.1,0.1-0.1,0.3-0.4,0.3v-0.1c-0.1,0.1-0.4,0.4-0.1,0.6c-0.6-0.1-0.7,0.9-0.6,1h-0.3v0.3c-0.6,0.1-0.7,0.4-0.9,0.7l-0.3,0.7
				c-0.4,0.4-1.3,1.2-2.2,2.2c-0.3,0.6-1.2,0.7-1.3,1.3c1-0.7,2.2-1.7,3.3-2.9c-1.3,1.6-2.3,2.7-4.5,3.7c0.1,0.4,0.3,0.3,0.3,0.3
				c-0.1,0.3-0.7,0-1.2,0.1h0.3c-0.3,0.4-0.6,0-0.7,0.4c0.1-0.4-0.1-0.6-0.6-0.4c-0.1-0.1-0.1,0.1-0.3,0.1c-1.3,0.3-2.9,0.3-3.7-0.1
				c-0.1,0-0.1,0.1-0.1,0.1c-0.4,0-0.6-0.3-0.9-0.3c-0.6-1-1.7-1-2.4-1.4c-0.4-0.3-1.2-2-1.3-3c-1.4-4-1.3-10.1-1.4-14.5
				c-1.7,2.9-3.3,5-5.3,7.6c-0.1,0.1,0,0.1,0,0.3c-1.9,2-3.3,4.5-5.3,6v0.4c-1.3,1-2.7,1.6-4.5,2.2c-1.3,0.6-2.9,0.7-4.3,0.7
				c-1.4,0.1-2.4-0.1-3.6-0.3c-0.9-0.3-2.4-0.7-3.3-1.2c-2.3-1.4-2.2-7.3-1.7-10.8c0.7-6.2,2.7-12.5,5.2-17.6
				c1.3-2.7,2.6-5.2,4.2-7.6c0.6-0.9,0.9-2.3,1.7-3c2-2.7,4.5-5.3,7.2-7.5c2-3,10.8-2.2,9.5-2.2c0.3,0.1,0.4,0.4,1,0.4
				c0.1,0.1,0.1,0.3,0.9,0.1c0.6,0.4,1.3,0.4,1.9,1.2c0.7,0.1,0.9,1.2,1.7,1.2c2.6,1.4,3.7,2.3,6.3,3.9c0,0.4,0.1,0.4,0.1,0.9
				c0,0.3-0.7,0.4-1.2,0.9c-0.9,0-1.3,0-2.2,0.3c-0.1,0-0.6-0.3-0.9-0.4c-0.6-0.1,0.1,0.4-0.6,0c-1-0.3-2-0.4-3-0.9
				c-0.9-0.3-1.7-1.2-3.2-1.4c-0.9-0.3-2.2-0.6-3-0.4c-0.4,0-0.9,0.4-1.4,0.7c-2.9,3-5.3,6.5-6.9,9.6c0,0.3-0.1,0.3-0.1,0.4
				l-1.9,3.7c0,0.3,0,0.9-0.4,1.7c0,0.1-0.3,0.4-0.3,0.4c-0.6,1-1.3,2.6-1.6,3.6c-0.6,1.2-1,1.9-1,2.6c-1.2,3.9-2.3,7.9-2,13.2
				c2.6-2.4,4.5-5.2,6.3-7.6c0.9-1.9,2.6-3.2,3.2-4.9c2.2-2.3,3.7-5.2,5.3-7.6c0.1-0.6,0.1,0,0.3,0c1.4-2.9,4.6-6.2,5.2-8.9
				c0.3,0,0.3,0.3,0.6,0.1v-0.6c1,0,1-1.2,2-0.9c0.3-0.4-0.1-0.6-0.1-1c0.3,0,0.6,0.1,0.7,0.1c0-0.3,0.4-0.3,0.6-0.3
				c0.6-0.1,0.1-0.1,0.1-0.3c0.4,0.1,0.6,0.3,1,0.3c0.4-0.7,1.7-0.1,1.9,0.3c0.1-0.1,0-0.4,0.3-0.4c0.3,0,0,0.4,0.1,0.6
				c0.6-0.1,0.1-0.6,0.1-1c0.6,0.6,0,1.4,0.9,1.7c0,0,0.1-0.4,0-0.6c0.4,0.1,0.1,1,0.7,1.7c0.4,0.1,0.7,0.7,0.7,1.4
				c0,0.9-0.7,3-0.7,3.9c0.3,2.3-0.7,4.8-1.2,7.1c-0.6,1.6-0.7,3-0.9,5c-0.6,4-1,6.8-0.3,11.4c-0.3,1.3,0.1,2.7,0.3,4.3
				c1.3-0.6,1.6-1.7,2.7-2.3c1.2-1.6,3-2.9,4-4.9c1.3-1.3,7.8-10.4,9.5-12.1c0.1-0.6,0.6-1.6,0.9-1.2c0.9-0.6,1.3-2.3,2-3
				c0.4-0.7,1.2-1.4,1.4-2.2c0-0.3,0.1-0.6,0.3-1.2c0.1,0,0.4-0.4,0.9-0.6c0.3,0.4-0.4,1.2-0.6,1.6c0.4,0.3,0,0.9,0.1,1h0.1
				c-0.4,0.6-0.7,1.2-0.7,1.4C558.5,113.6,558.8,113.6,558.9,113.3z M528.7,122.7c-0.9,0.7-1.3,1.9-2,3.5L528.7,122.7z M527.8,122.5
				c0.4-0.3,0.6-0.4,0.4-0.9L527.8,122.5z M528.5,121.5c-0.1,0-0.4,0-0.1,0.1L528.5,121.5z M546.2,137.6c0-0.1,0-0.1,0.1-0.4
				C546.4,137.5,546.2,137.5,546.2,137.6z M559,112.1l0.3-0.6C559.3,111.9,559.2,112,559,112.1z"/>
			<path fill="#08798F" d="M562.6,133.7l0.4-0.7l1.2-1.9c-0.6,0.3-1,1.4-1.6,1.4c0-0.1,0.1-0.1,0.1-0.3h-0.1c0.6-0.9,1.6-1,1.9-2.4
				h0.4c-0.4-0.3-0.6,0-0.7,0.3h-0.3c0,0.1-0.1,0.9-0.4,1.2c0,0.1-0.1,0-0.1-0.1l-1.3,1.3c0,0.1,0.4-0.1,0.4-0.1
				c0,0.3-0.4,0.7-0.4,1.2c-0.4-0.3,0.3-0.4,0-0.9l-3,4.8c0.1,0,0.9-0.9,1.2-0.9c-0.1,0.3,0,0.3,0,0.1c0.1,0.1-0.1,0.6-0.3,0.6
				l0.1-0.3c-0.9,0.3-1,1.2-1.2,1c0,0.1,0.1,0.1,0,0.3c0,0.1,0,0.3-0.1,0.3c0.1-0.1,0-0.4,0-0.4c0,0.1-0.1,0.1-0.1,0.4v0.1
				c-0.7,1.7-2,3.5-2.4,5.8c0.6-1.3,1.3-2.9,1.9-3.3c-0.4,0.7-1.3,1.7-1.7,3.3h0.6h0.4c0.1,0.1,0.1,0,0.1-0.1c0.3,0.1,1,0,1.6-0.1
				l4.9-1c-0.1-0.1,0-0.1,0.3-0.1c0,0.4,1.2,0.4,1.4,0c-0.3,0-0.3,0-0.4-0.1h0.4c0,0.1,0.1,0.3,0.3,0.1c0.9,0.9,0.9,0.3,0.9,0
				c3.7-0.4,7.6-1.4,11.5-1.2c1.4-0.3,4,0,5.8,0.1l0.3,0.6c0.4-0.3,0.4-0.6,1-0.3c0,0.3-0.4,0.3-0.6,0.3c0,0.1,0.1,0.1,0.6,0.1v-0.1
				c0.3,0,0.6,0.3,0.6,0s-0.4,0-0.4-0.6c0.4,0.3,1,0.3,1.2,1c0.6,0,1.3,0.4,1.6,0.9c-0.1,0.3-0.3,0.3-0.4,0.4
				c0.3,0.1,0.4-0.1,0.6,0.1v-0.1c0.1-0.1,0.4,0.1,0.3,0.3h0.3c0,0.3,0.1,0.3,0.1,0.4c0,0-0.4-0.4-0.3,0c-0.1-0.4-0.4-0.4-0.9-0.4
				c0,0.3,0.4,0,0.4,0.4c0,0-0.4,0.1-0.6,0c-0.3,0.3,0,0.1,0.1,0.3c-0.1,0.4,0.4,0.1,0.4,0.6c-0.6-0.3-1.3-0.3-1.4-0.6
				c-0.1,0-0.3,0.3-0.1,0.3c0,0.1-0.3-0.1-0.1-0.3c0-0.1,0,0-0.1,0c0,0,0-0.1,0.1-0.1c-0.1-0.1-0.9-0.1-0.9-0.3
				c-0.3,0-0.4,0.1-0.9,0.1v0.1h0.6c0,0.6,0.4,0.6,0.6,1c-0.4-0.4-1.3-0.9-1.9-0.7c0,0.3,0.4,0.3,0.4,0.3c-0.7,0.4-1.2-0.3-2.2-0.1
				c0,0.6,0.9,0.1,0.9,0.6l-1.3-0.4c-0.3,0,0,0.1-0.1,0.4c-0.4,0-0.7-0.3-0.7-0.3h0.6c0-0.1-0.3-0.1-0.4-0.3c-0.1,0-0.1,0-0.3,0.1
				v-0.1c-0.7,0.1-2-0.3-2.6,0.3c-0.1-0.1-0.1-0.1-0.1,0.3c-0.4-0.6-1,0-1.3-0.3v0.3c-0.1-0.3-0.3,0.1-0.4,0.1
				c-0.1-0.6,0.1-0.4,0.3-0.6c-0.3-0.1-0.6,0-0.7,0c-0.4,0.6,0,0-0.4,0c0,0-1,0.1-1.4,0.1c-0.3,0-0.4,0.3-0.4,0.4v-0.1
				c-0.3,0-0.9-0.3-0.9,0.1c-0.1-0.1-0.4-0.1-0.9,0.3l0.1-0.3c-0.4,0.4-0.9-0.1-1.3,0.4c0,0.1-0.3,0-0.1-0.1l-2.3,0.3h-0.1v0.3
				c-0.1-0.1-0.3,0-0.3-0.3c-0.1-0.1-0.1,0.3-0.3,0.3c-0.1-0.4,0.1-0.4,0-0.6c-0.7,0-1.3,0-1.9,0.3v-0.1c-1.3,0.4-2.9,0.6-4.5,1
				c-0.6-0.1-1.2,0.3-2.3,0.4c-0.1,0-0.6,0.1-0.6,0l-0.3,0.1v-0.1c0,0-0.1,0-0.1,0.1c-0.1,0,0,0-0.1-0.1l-0.6,0.3l0.1-0.1
				c-1.2,0-2,0-2.6,0.6c0.1,0.6,1.4-0.1,2.3,0c0.7-0.4,0.9,0,1.3-0.4c-0.3,0.6-0.9,0.6-1.9,0.7c-0.9,0.3-1.6,0.9-2.9,0.6
				c-0.7-0.3-1.4-0.9-1.6-0.9c-0.4,0.1-0.6-0.1-0.9,0c0,0.3,0.1,0.6,0.1,1c-0.1-0.1-0.3-0.4-0.1-1c-0.1,0-0.1,0.3-0.3,0.6
				c-0.1,0,0-0.4,0-0.6c-1.7,0.1-2.4-0.6-3.7-0.9c-0.3-0.6-0.3-1.2-0.3-2.2c0.1-1.3,0.4-3.6,1.3-4.8c0.3-0.7,0.7-2,0.9-2.9h-0.1
				c0,0,0.1-0.4,0.1-0.3c0.1-0.6,0.6-0.9,0.7-1.3c0,0.1,0.4,0.1,0.4,0.3c-0.7,0.4-1.2,1.6-1.2,2.2l1.2-2.2c1.9-3.2,3.3-6.8,6-9.9
				c0-0.4,0.4-1.6,1.3-2.2c0.3,0,0.3-0.1,0.6-0.4h-0.1c-0.1,0.3-0.3,0.3-0.4,0.4l0.3-0.4c0,0,0-0.1,0.1-0.3c0.3-0.3,0.7-0.6,0.7-1.2
				c0.3,0,0.7-0.1,1-0.3c-0.3-0.3-0.3,0.1-0.7,0c0.7-0.3,0.9-1,1.2-1c6.6-7.6,7.5-9.5,14.8-15.8c0.1-0.1,0.1-0.3,0.1-0.6
				c1.4-1.2,2.6-3.3,4.2-4.2c-1-0.4-2.3,0-3.3,0h-1.9c-1.6,0-3.5,0-5.3,0.3c-1.7-0.6-3.2,0.3-2.7,0.9c-0.4,0,0.1,1.9-4.9,1.4l-2-0.4
				c-0.7-0.1,0.6-1,0.9-1c-0.1-0.1,1.3-1.2,1.2-1.4c1.4-1.7,1.9-2.2,4-3.2c2.9-0.7,0.4-0.3,3.7-0.9c1.3-0.3,1.6-0.3,3.2-0.3
				c0.3,0,0.3-0.1,0.4-0.1v-0.1c0.1,0,0.1,0.1,0.3,0.3c0.3-0.4,1.6-0.1,2.3-0.3c0.9,0.3,1.9-0.1,3,0c2,0.3,4.2,0,6,1
				c0.1,0,0.1,0,0.3-0.3c0.1,0,0,0.3,0.7,0.3c-0.4,0.1,0,0.3-0.4,0.4c0.4,0,0.4-0.1,0.6-0.1h0.1c0.3-0.1,0.7,0,1.3,0
				c0,0.1,0.6,0.1,0.6,0.7c0.6,0,0.7,0.3,0.9,0.7c0.4-0.1,0.6,0.4,1.2,0.3c0.6,0.6,0.9,1.9,1.4,2.3l-0.4,0.7c0,0.1,0.1,0,0.3,0.1
				c-0.4,1.2-1.3,1.9-1.7,2.4v0.1c0,0,0-0.1,0.1-0.1l-0.1,0.3H589c-0.7,1-1.7,2.6-2.9,3.2v0.3c-2.3,2.2-4.6,4.9-6.6,7.1
				c-1.4,1.3-2.6,2.2-3.9,3.7c-0.4,0.7,0.1-0.6-0.4,0.4l-0.3,0.1c0,0-0.1,0-0.6,0.4c-0.3,0.4-0.4,0.4-0.4,0.9c-0.1,0-0.1,0-0.3-0.1
				c-0.4,1.3-1.7,1.4-2.3,2.7c-0.4,0.1-1,0.4-0.9,0.9c-1.2,0.7-2.4,2.3-3.5,3.5c0.3,0,0.3-0.1,0.6-0.3c-0.3,0.7-0.9,1.3-1.3,2
				c-0.1,0-0.1-0.1-0.1-0.3c-0.4,0.3-0.1,0.6-1,0.7v0.9c-0.7,1-1.7,2.4-2.7,3.6h-0.4L562.6,133.7z M547.5,147.4c0-0.1,0-0.6-0.3-0.6
				C547.2,147.3,547.4,147.4,547.5,147.4z M547.7,145.5c0.4-0.4,0.7-2.4,0-1.4C547.5,144.5,547.5,145.1,547.7,145.5z M548.7,142.2
				c-0.4,0-0.3,1.2-0.3,1.6L548.7,142.2z M549.8,143.1c0,0.1,0,0.1-0.1,0.3c0,0.3,0,0.4,0.1,0.4c0.4-0.7,0.4-1.7,0.7-2.3
				c0.1-0.4-0.1-1,0-1.7c0-0.3,0.3-0.4,0.7-0.7l1-2.9c-0.3,0-0.4,0.4-0.6,0.3c0.6-0.9,1.2-1.4,1.4-2.3c-1.2,1-1.9,3-2.3,4.3
				c-0.1,0.1-0.3,0.3-0.3,0.4c-0.1,1.6-0.7,2.6-0.9,4.3L549.8,143.1z M550.1,136.5l0.4-1c0.1,0.1,0,0.1,0,0.3c0.1-0.3,0.1-0.9,0.4-1
				c0-0.1-0.1,0,0-0.1c0-0.3,0.4-0.6,0.1-0.1C551.1,135,550.7,135.9,550.1,136.5z M553.7,142.2c-0.7,0.3-0.6,0.9-0.6,1.4
				C553.6,143.4,553.6,142.8,553.7,142.2z M553.9,141.7c-0.3,0.1,0-0.1,0-0.1c-0.3,0.1-0.3,0.3-0.3,0.4
				C553.9,142.1,553.9,141.8,553.9,141.7z M553.7,144c0.4,0,0.6-0.3,0.7-1.2L553.7,144z M554.3,140.1l-0.3,1
				C554.3,141.1,554.3,140.4,554.3,140.1z M554.2,141.2c0,0.1-0.1,0.3,0,0.3C554.2,141.5,554.4,141.4,554.2,141.2z M555.2,141.5
				l0.3-1c-0.3,0.7-0.9,1.4-1.2,2C555,142.2,554.7,141.8,555.2,141.5z M555.2,139.5c-0.1,0.3-0.7,0.9-0.7,1.2
				C555,140.5,555.3,139.8,555.2,139.5z M555.6,143.7c0,0.1-0.3,0.7-0.1,0.9C555.4,144.3,555.7,143.8,555.6,143.7z M555.7,143.4
				c0-0.3,0.3-0.7,0.3-1.3C555.9,142.7,555.7,143.1,555.7,143.4z M556,137.5c0-0.1,0.3-0.3,0.3-0.6
				C556.2,137.2,555.9,137.3,556,137.5z M559.2,133.5c-1.2,1.9-2.4,3.7-3.2,5.3C557.3,137.2,558.3,135.3,559.2,133.5z M558.5,138.2
				c0.1-0.9,0.9-2,0.7-2.4l-2.4,4.3c0,0.6-0.1,1.2-0.6,1.6c1.2-0.6,1.6-1.9,2-3L558.5,138.2z M557.5,138.6c-0.6,0.1-0.7,0.3-0.7,0.6
				C556.9,139.4,557.3,138.9,557.5,138.6z M556.9,144.4c0.1,0,0.1,0,0.3-0.1C557,144.3,557,144.4,556.9,144.4z M557.5,148.4
				c0,0-0.6-0.1-0.1,0H557.5z M557.3,144.3c0-0.1,0-0.1,0.1-0.3C557.5,144.1,557.3,144.1,557.3,144.3z M558.8,141.1
				c0,0.3-0.3,0.3-0.4,0.7c0,0.1-0.1,0.7-0.4,0.9c0.1,0.3,0.1,0.3,0.1,0.7c-0.1-0.3-0.1-0.4-0.1-0.4c-0.1,0-0.1,0.4-0.3,0.4
				c0.3-1.3,0.9-2.2,1.2-2.9v-0.7c1.3-1.6,2-3,3.2-5c0.6,0.4-0.6,0.7-0.3,1.3C560.5,137.3,559.9,139.4,558.8,141.1z M558.5,133.9
				c-0.3,0.3-0.7,0.7-0.7,0.9C558,134.5,558.3,134.3,558.5,133.9z M560.2,130.1c-0.6,0.7-0.9,1-1.2,1.6L560.2,130.1z M559.2,138.8
				c-0.1-0.1,0.1-0.6,0.4-0.7L559.2,138.8z M562.2,134c-0.9,1-1.3,2.3-1.9,3.2C560.8,135.9,561.2,135,562.2,134z M562.2,134
				c0.1,0,0.3-0.1,0.4-0.3C562.5,133.9,562.4,134,562.2,134z M566.5,128c-1,1.2-1.6,1.9-2.3,3.2L566.5,128z M564.4,142.8l-0.1,0.1
				v-0.1H564.4z M565.1,130.1c-0.1,0.1-0.7,1-0.7,1.3C564.5,131.1,565.1,130.3,565.1,130.1z M564.4,142.8h0.6
				c-0.1,0.1-0.3,0.1-0.4,0.1C564.5,143,564.5,142.8,564.4,142.8z M565.7,128c0,0.1-0.4,0.7-0.3,0.9
				C565.5,128.7,566,128.1,565.7,128z M566.8,143h-0.6C566.2,142.2,566.7,142.7,566.8,143z M566.7,127.8l1.2-1.2
				c0.4,0,1.2-1.3,1.7-1.7h-0.1c0.1,0,0.1-0.1,0.3-0.3h0.3l1.7-2.3c0,0-0.3,0.1-0.3,0.3c-0.7,1-1.9,1.9-2.9,2.9
				C567.8,126.3,567.1,127.1,566.7,127.8z M567.7,126.3c0.3,0,0.4-0.7,0.3-0.9C568,125.5,567.7,125.8,567.7,126.3z M569,125.2
				c0,0.1-0.3,0.3-0.4,0.3L569,125.2z M570.4,146.1c-0.4,0-0.9,0-1.2,0.4C569.6,146.6,570,146.6,570.4,146.1z M570.3,123.2
				c-0.1,0.3-0.6,0.3-0.7,0.9C570,123.9,570.3,123.5,570.3,123.2z M570.9,122.8c-0.1-0.1-0.4,0-0.3,0.1
				C570.7,122.8,570.9,122.9,570.9,122.8z M587.8,144.8c-1-0.3-1.4-0.6-2.2-0.4C586.3,144.5,587,145,587.8,144.8z M587.8,145.4v-0.1
				c-0.3,0-0.7-0.3-0.9-0.1C587.1,145.3,587.6,145.4,587.8,145.4z M588.7,99c0,0.1,0,0.4,0.1,0.3v-0.1L588.7,99z"/>
			<path fill="#08798F" d="M615.8,189.5c-0.9,0.9-1.4,1.9-1.9,3.2c0.3-1.2,0.9-2.2,1.2-2.9h-0.1l-0.1,0.1v0.1l-0.7,1
				c-0.3-0.1,0-0.3,0-0.4c-0.7,0.6-1.3,1.9-1.9,2.4c-0.3-0.4,0.3-0.4,0.4-0.9c-0.4,0.3-0.9,0.7-0.9,1c-0.9,0.7-1.4,2-2.2,2.9h0.1
				l-2.6,2.6H607c-0.1,0.1-0.3,0.1-0.3,0.1c0-0.1,0.1-0.3,0.4-0.3c0-0.1,0-0.1,0.1-0.3l-1.2,0.4l0.7-0.4c0-0.1-1,0.4-0.7,0.6
				c-0.3,0.3-0.4,0.7-0.6,1c-0.4-0.6-0.6,0.4-0.9,0.1c-0.1,0.3,0.1,0.1,0.3,0.3c-0.4,0.3-1.4,1.2-2,0.9c-0.3,0-0.3,0.4-0.4,0.6
				c-0.6,0.4-1.3,1.2-2.2,1.2c-0.6,0.3-1,0.4-1.2,0.9l-4.9,1.6l-0.7,0.7c-0.3,0-0.3-0.3-0.6-0.3c0-0.1,0.3-0.1,0.3-0.3
				c-0.6,0.1-1.3-0.1-1.4,0.1c-1.3,0.4-2.6-0.4-3.7-0.6h-0.7c-1.4,0-2.7-0.7-3.9-1.6c-0.1-0.6-1.3-0.9-1.7-1.9c-0.1,0.1,0,0.6,0,0.7
				c-0.1-0.1-0.3-0.9-0.6-1.2l0.1-0.4c-1.2-1.2-1.3-3.2-1.7-5.3h0.4c0.1-0.3,0-0.3,0-0.6c0.1,0,0.3,0.3,0.3,0.6
				c-0.1-5.3,1.3-11.8,3.3-16.4c0,0.3-0.1,0.6,0,0.6c-1.2,2.7-1.4,6-2.3,9.1c0,0,0,0.1,0.1,0.1c-0.3,1-0.4,2.7-0.4,3.7
				c0.7-4.3,1.6-9.2,3-13c1.9-5.8,4.8-10.8,7.3-15.8l2.3-3.9c1-1.3,2.2-2.3,2.9-3.7c0.9-1,2-2.3,3.2-3.3c1.9-2.4,3.7-4.8,6-6.9
				c0.6-1,1.6-1.9,2.6-2.7l4.3-4.5l5.6-4.3c0.7-6.2,0.6-3.7,1.3-9.1c-0.1,0-0.1,0.1-0.1,0.1c0.3-0.4,0.3-0.9,0.3-1.4
				c-0.4,0.7-1.3,1-1.3,2.2h0.1l-1.6,1.3l-1.7,2.7c0.9,0,1.3-1.7,1.6-2.2c0.4-0.4,1.4-0.6,2-1.3c-1.3,1.9-3.2,3.7-4.5,5.2
				c-0.4,0.4-1.9,1.6-2,2.3l-1.3,1.3v0.1c0,0,0.1-0.1,0.3-0.1c-0.4,0.7,0,1-0.4,1c-0.3,0,0.1,0.1-0.1,0.3c-0.1,0-0.6,0-0.7-0.3
				c-0.4,0.6-0.4,1.2-1.2,1.6c0.3,0.6-0.7,0.6-0.7,0.9c0.1,0.3,0.4-0.3,0.7,0c-0.7,0.3-2.3,0.7-2.6,1.2c-1.4,0.7-1,0.7-2.7,1.2
				c-0.4,0-1,0.1-1.3,0.3c-0.9,0-1.3-0.3-1.7,0.1c-2.3-0.3-3.6-0.9-4.8-2c-1.4-0.1-2.4-1-3.2-2c-1.3-2.6-1.2-5.2-0.7-8.2
				c1.2-8.6,3.7-15.8,6.2-23.2l0.1-0.1c0.9-3.5,2.4-7.1,2.7-10.7c1.3-1.3,2.2-3.6,4.6-3.2c0.3-0.1,0.3-0.3,0.4-0.4
				c0.1,0.1,0.3,0.4,0.6,0.4c1,0,0.6,0.4,1.7,0.6c0.3,0.6,1.3,1,2.2,1.6c1.2,1.3,2.7,2.7,3.2,5c0,1.7-0.7,3.2-1.4,4.6
				c0,1.2-0.6,2-0.9,2.9c-0.7,2.3-1.7,4.3-2.2,6.3l-1.3,4.6c-1.3,4.9-3,8.1-3.9,13.2c-0.3,1.2-0.7,2.7-0.6,3.3
				c0,0.3,0.1,0.3,0.4,0.4c0.7-0.3,2-1.3,2.9-2.3c1.9-2.2,3.7-4,5.5-6.5c1.6-1.4,2.7-3.5,4-5l2.2-3.2c0.1,0,0.3-0.1,0.4-0.1
				c1.2-1.9,2.2-4.9,3.3-6.8c1-1.4,1-2,1.3-3.7l1.4-6.5c0.3-0.3-0.1-0.3-0.1-0.4c0.6-0.4,0.7-1.3,0.7-1.6c0.3-0.3,0.6-0.4,0.6-0.9
				h0.7l1.6-1.7c0.3,0.4,0.3,0.3,0.6,0c3.9,0.4,2.7,2,5.2,2c0.1,0.1,0,0.1,0,0.3c0.7,0.6,1.3,0.9,1.9,1.4c0,0.1,0,0.6,0.1,0.7
				c0,0.9,0.4,1.3,0.3,2.4c-0.1,1.2-1,2.4-1.2,4c-0.4,2-1,3.6-1.3,5.3c-1.4,6.8-2.3,8.8-2.9,15.6c0.1,0,0.4,0,0.6-0.1
				c0.1,0-0.1,0.1,0,0.1c5.3-2,19.7-10.4,25.5-11.7c-0.3,0.3-0.3,0.3-0.1,0.6c0.4,0.1,0.4-0.1,0.6-0.1c0,0.3-0.3,0.1-0.3,0.9
				c0,0,0.1,0,0.3-0.1c0,0.3,0.4,0.3,0.3,0.4c0.3,0,0.6-0.1,1.3-0.1c-0.4,0.1-1.2,0.1-1.6,0.7c0.4,0,0.9-0.3,1.6-0.6
				c-0.7,0.6-1.7,0.7-2.3,1c-0.1,0.3,0.1,0.1,0.3,0.1c-0.7,0.9-1.9,0.9-2.4,1.7h0.1c-0.1,0-0.3,0.1-0.3,0.1c-0.1,0-0.1,0.1-0.1,0.1
				h-0.1l-1.3,0.6l0.3,0.1c0.9-0.3,1.3-0.7,1.9-0.9c0.6-0.7,1.4-0.9,2-1c-0.1,0.4-1.2,0.9-1.9,1.3c0.3,0,0.7-0.1,1.2-0.3
				c-0.4,0.3-0.9,0.4-1.3,0.9c-0.7,0-1.3,0.7-2.3,0.7l0.1-0.1l-0.6,0.4v-0.3c-0.6,1.2-15,8.5-16.3,10.2c-0.9-0.1-1.9,1-2.6,1.6
				c0.3,0,0.6-0.1,1.3-0.1c-0.3,0.4-1,0.3-1.4,0.6c-0.9,0.9-2,1.4-3,2.2l-0.7,0.7c-0.6,5.8-1.4,9.6-2.4,15.8
				c-0.9,9.2-3.2,17.6-5.8,24.9c0.6-3.2,2.2-6.3,2.6-10.1c-1.7,5.3-2.9,10.4-5.2,15.3c-0.1,0,0,0.1-0.3,0v-0.4
				c-0.9,1.6-1.6,3.3-2.3,5.2v0.1c-0.1,0-0.1,0.1-0.1,0.3c-0.1,0-0.1,0-0.1,0.1h0.1l-0.4,0.9V189.5z M579.8,193.5
				c0-0.1-0.1-0.1-0.1-0.3C579.8,193.2,579.8,193.4,579.8,193.5z M580.2,195.9c0.1,0.9,0.3,1.9,0.6,2.7c0.3-0.6-0.3-1.2-0.1-1.9
				c0-0.1-0.1-0.1-0.3-0.1v-0.9L580.2,195.9z M582.9,203.3c-0.1,0.1-0.4-0.4-0.4-0.6L582.9,203.3z M583.7,178.8
				c0-0.1,0.3-0.3,0.1-0.4C583.8,178.5,583.7,178.7,583.7,178.8z M584.1,177.7c0-0.3,0.3-1,0.7-1.6
				C584.7,176.9,584.2,177.2,584.1,177.7z M586.7,171.8c-0.3,1.3-0.9,3-2,4.2L586.7,171.8z M587.1,170.5c0.1-0.1,0.3-0.1,0.3-0.3
				C587.3,170.2,587.3,170.3,587.1,170.5z M595.6,171c0-0.4,0.1-0.7,0.3-1l-0.4,0.4l-1,1.7l-0.1,0.3v-0.1v0.3v-0.1l-0.4,1v0.9
				c-0.1,0-0.1-0.1-0.1-0.4l-1,1.3l0.3-0.6l2.3-4.3c-0.3,0-0.6-0.1-0.7,0c0,0.3-0.4,0.4-0.1,0.7c0,0,0.1-0.4,0.1-0.3
				c-0.1,0.4-0.1,0.9-0.3,1c-0.1-0.1,0.1-0.4,0-0.6c-0.1,0-0.3,0.1-0.3,0.1c0.3-0.6,0.7-1.3,0.6-1.7c0.4-0.6,0.9-1.3,1.4-1.7
				c1.3-3.3,3.6-6.3,5.5-8.9c0.1,0,0.1-0.3,0.4,0c0.3-1,1-1.4,1.4-2.3l0.3-0.6c0,0.3,0,0.3-0.1,0.4c0.1-0.1,0.4-0.1,0.6-0.6
				c0-0.1-0.1-0.1,0-0.4c0.6-0.3,0.9-1,1.3-1v0.3c0.1-0.4,0.3-1,0.7-1.6c0,0.1,0.1,0.1,0.1,0.1c-0.1,0.1-0.3,0.6-0.3,0.6
				c-0.1,0.9-0.9,1.3-1.3,1.6l-0.9,1.6c1.6-1.7,3-3.7,4.5-5.5c-0.9,0.4-0.9,1.2-1.6,1.4c0.1-0.1,0.1-0.6,0.6-0.6
				c-0.1-0.4,0-0.6,0.3-0.7v0.1c0.1-0.1,0.6-0.3,0.4-0.6c1.2-1.7,2.9-2.6,4-4.3c0.3-0.3,0.3-0.6,0.7-0.6c0-0.6,0.4-0.7,0.7-1
				c0,0.1-0.1,0.3,0,0.3c0.6-1,1.4-1.4,1.9-2h0.3c0.4-1,1.6-1.2,1.3-2c0.1-0.6-0.1-0.3-0.1-0.6c0.3-0.3,0.4-0.4,0.4-0.7
				c-1,0.9-1.9,2-3,2.7c0,0.1,0.1,0,0.1,0.3c-0.3-0.4-1,0.6-0.6,0.7c0.1-0.3,0.7-0.4,0.9-1c0.3,0.1,0.4-0.3,0.4,0
				c-0.3,0.3-1,1.3-1.2,1c-1.2,0.6-1.4,2-2.2,2.3c-0.1,0.1,0.1,0.3-0.3,0.4l-4.3,4.6v-0.1c-0.3,0.1-0.1,0.6-0.7,0.6
				c0,0.1,0.3,0.1,0,0.3c-2.3,2.7-4.3,5.6-6.6,8.5h-0.1l-1.2,2.2c-0.1-0.1,0.1-0.3,0-0.4l-1.4,2c0.3,0.9-0.7,1.4-1.2,2.4
				c0.1-1.2,0.9-1.6,1.2-2.4c-1.6,2.4-3.2,5.2-4.3,7.8c-0.6,0.9-1.2,1.7-1.2,2.6l1.2-2c-0.9,2-1.6,3.9-2.9,5.5
				c-0.1,1.9-1.2,3.9-1.2,6c-0.1,0-0.3,0-0.3,0.1c0,0.3,0.3,0.1,0.1,0.3c-0.3,0,0,0.4,0,0.6h-0.1c-0.3,0.9-0.1,1-0.1,1.9
				c0,0-0.4,0-0.4,0.3c0.3,2.3-0.9,5.2,0,7.1c0.3-0.9,0.1-1.3,0-1.6c0.4-0.6,0-1.7,0.4-2.3v0.7c0.4,0.9,0.1,2.6,0.4,3.5
				c0-0.1,0-0.9,0.1-0.9c0.1,1.2,0.3,2.4,0.6,3.3c0.4,0.3,0.4,1.4,1.2,2.3c0.1,0.1,0.3-0.4,0.3-0.3c0.1,1,1,0.9,2.3,1
				c0.1-0.3-0.1-0.6,0.1-0.7c0.1,0.4,0.4,0,0.6,0.3c3.5-1.3,5.8-3.7,7.8-6.3h0.1c-0.3-0.1-0.1-0.3-0.1-0.3c0.3,0,0.3,0.3,0.4,0.1
				c0-0.3-0.1-0.3-0.1-0.4c0.1-0.1,0.1-0.1,0.3-0.1c0.9-1.4,1.4-2.4,2.4-3.9c1.4-2.7,3-5.5,4-8.9c0.6-0.6,0.6-1.3,0.7-1.9
				c0.3-0.6,0.7-1.9,0.7-2.6c0-0.4,0.4-1,0.7-1.3c0,0,0.1,0,0.3-0.3c0.4-0.3,0.3-1.2,0.4-1.7c-0.1-0.1,0.3,0,0.1-0.3
				c0.3-1.7,0.6-3.6,1.4-4.6c-0.4-1.2,0.7-1.9,0.7-2.4c0-1.4,0.6-2.6,0.4-3.9c0-0.1-0.1-0.3-0.1-0.6c0-0.3,0.3-0.6,0.4-0.7
				c0.1-0.6,0-1.3,0-1.7c0.1-0.4,0.4-0.9,0.4-1.4c0.6-2,0.6-4,0.7-6.3c0.4-0.4,0.4-0.7,0.4-1c0.3-1.9,0.9-4.2,0.6-5.9
				c-0.1,0.4-0.3,0.7-0.6,1c0,0,0-0.1-0.1-0.1c-1.6,2-3.7,3-5,5c-0.1,0-0.1,0-0.3,0.1v0.1c-0.1-0.1,0,0.1-0.4,0.1l-2.3,3.3
				c0,0-0.3,0,0,0.1h-0.6c-0.3,0.1,0,0.9-0.3,1v-0.7c-0.3,0.4,0,0.6-0.3,0.7v-0.1c-0.1,0-0.4,0.1-0.4,0.6l-0.6,0.9v-0.1l-1.2,1.3
				c0.1,0,0.1,0,0.1,0.1c-0.3,0.1-0.4,0.4-0.7,0.7c0,0,0.3-0.1,0.4-0.1c0,0.3-0.4,0.4-0.4,0.4c-0.1,0-0.1,0-0.1-0.1
				c-0.1,0.4-0.3,1-0.7,1c0.1-0.1,0.4-0.3,0.1-0.4c-0.7,0.9-1.4,1.9-2.2,3.3l-0.6,1c-0.1-0.1,0-0.4-0.1-0.4c-0.1,0.1,0,0.3,0,0.4
				c-0.1,0.4-0.9,1-1.3,1.7c-0.7,0.4-1,1.6-1.7,1.9c0.3-0.3,0.6-0.6,0.6-0.9c-1.2,1-1.9,2.6-2.4,4.3c-0.3,0.1-0.1,0.3-0.6,0.3
				c0,0.4,0.3,0.1,0.3,0.6l0.6-1c0,0.1,0.1,0.3,0.1,0.1v0.1c0.1-0.6,0.6-1.3,1-1.7C596.6,169,596.1,169.7,595.6,171z M587.8,192.9
				c0-0.1-0.1-0.3-0.1-0.3C587.7,192.8,587.8,192.8,587.8,192.9z M587.8,191.2c0,0.1-0.1,0.3,0,0.7V191.2z M588.3,190.2h-0.4
				c0.1-0.1,0.3-0.3,0.3-0.4c0.1-0.3,0.1,0,0.1-0.6c-0.4,0.6,0-1.4,0.1-2C588.3,188.2,588.4,188.7,588.3,190.2z M588.4,186.4
				c0-0.1,0.1-0.3,0.1-0.3C588.7,186.2,588.4,186.3,588.4,186.4z M588.6,190c-0.1-0.9,0-1.6,0.1-1.9
				C588.7,188.6,588.6,189.2,588.6,190z M588.7,186.9c0.1,0,0,0.3,0.1,0.6C588.7,187.5,588.7,187.2,588.7,186.9z M588.7,190.9
				c0.3,0,0.1,0.7,0,1V190.9z M588.9,186.4v0.4C588.7,186.6,588.9,186.4,588.9,186.4z M589.1,183.9c0,0.9-0.1,1.9-0.1,2.4
				c0,0.1-0.1,0.1-0.1,0.1c-0.1-2,0.7-4.6,1-6.9c0.4-0.3,0.6-0.7,0.7-1L589.1,183.9z M588.9,188.3c0-1,0.3-2.2,0.7-2.7
				C589.3,186.2,589,187.3,588.9,188.3z M589.1,182.4c0-0.6,0.3-1.4,0.4-1.9C589.6,181,589.3,181.8,589.1,182.4z M589.6,184.9
				c-0.1-0.4,0.1-0.9,0.3-1.3L589.6,184.9z M590.1,183.3l-0.3,0.1v-0.1c-0.3,0.1,0-0.3,0.3-0.1V183.3z M590.6,181.3
				c0-0.1,0-0.1,0.1-0.1l-0.3,1.4v-0.3c-0.3-0.1-0.6-0.3-0.3-0.4c-0.3-0.3-0.3-0.4,0-0.4c0-0.1,0.1-0.1,0.1-0.1H590.6z M590.4,182.6
				l-0.3,0.4c0,0-0.3-0.1,0-0.6C590.1,182.6,590.4,182.6,590.4,182.6z M590.7,176.8c-0.1,0.1-0.6,0.4-0.3,0.6
				C590.6,177.4,590.7,176.9,590.7,176.8z M591,180.7c0,0-0.1,0.1-0.1,0.3v-0.3H591z M591,180.1V180C590.9,180,591,180.1,591,180.1z
				 M591.2,176.9H591c0.1-0.1,0.1-0.1,0.3-0.1L591.2,176.9z M591.2,179.4h0.1C591.3,179.2,591.2,179.4,591.2,179.4z M591.7,177.4
				c0,0.1-0.1,0.3-0.1,0.3L591.7,177.4z M592,179.8c0.1,0.1,0,0.3,0,0.6C591.9,180.1,591.9,180,592,179.8z M592.9,170.6
				c-0.6,0-0.7,0.1-0.7,0.6C592.7,171.2,592.3,170.7,592.9,170.6z M592.5,175.6l0.3-0.4v0.3L592.5,175.6z M592.9,174.2
				c0.1-0.7,0.4-1.7,0.9-2.2v0.1c0.1-0.3,0.1-0.4,0.4-0.4c0,0.6-0.9,2-1.2,2.9v-0.7C593,173.9,592.9,174.1,592.9,174.2z M593,172.2
				c-0.1-0.1,0-0.3,0.1-0.4C593.3,171.9,593,172,593,172.2z M593.2,172.6c0-0.1,0-0.3,0.3-0.3C593.3,172.3,593.3,172.5,593.2,172.6z
				 M594,170.5c-0.3,0.1-0.1,0-0.3,0c-0.1,0.6-0.1,0.7-0.4,0.9c0-0.7,0.6-1,0.7-1.6C594.3,169.9,593.9,170.3,594,170.5z
				 M593.6,171.8c0.1,0.1-0.1,0.3-0.1,0.6C593.3,172,593.6,171.9,593.6,171.8z M594.2,174.5c0,0,0-0.1,0.1-0.1L594.2,174.5z
				 M594.5,172.2l-0.1,0.1l0.4-0.1H594.5z M594.5,204.4c0.3,0.3,1.3,0.4,1.4-0.3c-0.3,0.1,0,0,0-0.1
				C595.3,204,595,204.3,594.5,204.4z M595,172.8c0,0.3-0.3,0.7-0.3,0.9C594.5,173.5,594.9,173.1,595,172.8z M595.3,166.1
				c-0.3,0-0.3,0.4-0.3,0.6C595.3,166.9,595.3,166.7,595.3,166.1z M595.3,167.7c0.3-0.1,0.1,0.3,0.1,0.3c0.1-0.3,0.4-0.4,0.3-0.6
				h0.1v-0.6C595.6,167.1,595.5,167.6,595.3,167.7z M596.1,169.2V169c0.4-0.7,0.7-1.4,1.3-1.9L596.1,169.2z M597.3,164.4
				c0.4-0.7,0.7-1.2,1-1.3C598.4,163.3,598.1,164.1,597.3,164.4z M597.5,166.9c-0.1,0,0-0.1-0.1-0.1c0-0.1,0.1,0,0.1-0.1h0.3
				L597.5,166.9z M598.2,165.9h-0.1c0-0.1-0.1-0.1,0.1-0.1V165.9z M598.8,164.1c-0.1,0.1-0.4,0.4-0.3,0.4
				C598.5,164.4,598.8,164.3,598.8,164.1z M598.6,165.4c-0.1-0.3,0.1-0.6,0.4-1.2c-0.3,0.4-0.7,0.9-0.6,1.2H598.6z M599.1,164.3
				c0,0,0.1,0,0.1-0.1L599.1,164.3z M599.4,164.3c0.3-0.1,0.4-0.9,0.7-1C599.9,163.7,599.8,164.1,599.4,164.3z M600.9,160.7
				c-0.4,0.7-1,1.3-1.3,1.9C599.9,162.1,600.8,161.4,600.9,160.7z M600.7,162.8c-0.1-0.1,0.1-0.3,0.1-0.4
				C600.9,162.5,600.7,162.7,600.7,162.8z M602.1,202.9c0.1,0,0.1-0.1,0.3-0.1C602.4,202.9,602.4,202.9,602.1,202.9z M603.1,159.7
				c0,0.1-0.4,0.3-0.4,0.4C602.5,159.9,602.7,159.7,603.1,159.7z M602.8,199c0.4-0.4,0.9-0.6,1.2-0.9c0.6,0.1,0.7-0.6,1.2-0.6
				c0-0.3-0.1-0.3-0.1-0.4c-0.1,0-0.1,0.1-0.3,0.1c-0.1,0.3,0.1,0.1,0.1,0.3c-0.1,0-0.1,0.3-0.3,0.1c0.1-0.1,0.1-0.3,0-0.3
				C604,197.8,603.4,198.3,602.8,199z M604.5,157.8c-0.1,0-0.4,0.6-0.6,0.9c-0.1,0,0-0.1-0.1-0.1c-0.1,0.1-0.1,0.7-0.6,0.7
				c0.4-0.6,0.7-1.4,1.3-1.6V157.8z M605,199.3c-0.1-0.1-0.4,0.3-0.4,0.6C604.7,199.7,605,199.7,605,199.3z M604.8,200.7
				c0.3-0.4,1.3-1.2,1.9-1.6C606.1,200,605.6,200.3,604.8,200.7z M605.4,156.6c0,0.3-0.3,0.4-0.4,0.6
				C604.8,157.2,605.3,156.9,605.4,156.6z M606,198.3c-0.3-0.3-1,0.4-0.4,0.6c0.7-0.7,1.6-1.3,2.2-2.2c0.4,0,0.9-0.4,0.7-0.7
				c-0.4,0.1-1.3,0.7-1.7,1.3h0.1c-0.1,0.3,0,0.1,0,0.3c-0.4,0-0.6,0.1-0.9,0.4V198.3z M607.1,196.2c0-0.4,0.3-0.4,0.3-0.9
				c-0.7,0.6-1.7,1.4-2,2.4C605.8,197.4,606.3,196.7,607.1,196.2z M605.6,156.1c0-0.1,0.1-0.1,0-0.4
				C605.4,155.6,605.4,155.9,605.6,156.1z M605.7,196.4c-0.1,0.3-0.1,0.3,0,0.3V196.4z M606.1,153.2l0.3-0.1
				C606.3,153.2,606.3,153.2,606.1,153.2z M606.9,155.2c0.1,0-0.4,0.1-0.4,0.3c-0.1,0-0.1-0.1,0-0.3c0.3,0,0.3,0,0,0.1L606.9,155.2z
				 M607.3,155.1c-0.1-0.3,0.1-0.7,0.3-0.7C607.6,154.5,607.3,154.8,607.3,155.1z M608.3,193.5c0,0.1-0.6,0.3-0.3,0.4
				C608.1,193.8,608.4,193.6,608.3,193.5z M610.3,151c-0.1,0.1-0.1,0.1-0.1,0.3C609.9,151.2,610.2,151.2,610.3,151z M610.6,150.9
				h-0.1H610.6z M612.5,194.2c-0.7,0.7-0.7,1.6-1.3,2.2C611.6,195.7,611.7,194.9,612.5,194.2z M611.7,193.8c0-0.1,0.3-0.4,0.3-0.6
				C612.2,193.4,611.9,193.6,611.7,193.8z M618.7,183.6c-0.3,1.6-1.2,3-2,4.5C617.1,186.6,617.9,185.1,618.7,183.6z M617.9,186.3
				c0-0.4,0.7-0.7,0.9-1.2C618.8,185.4,618.4,185.9,617.9,186.3z M618.7,126.1c0.1,0,0.3-0.3,0.3-0.1
				C618.9,126,618.8,126.1,618.7,126.1z M619.2,125.5c-0.1,0.3-0.1,0.4-0.1,0.4h-0.1L619.2,125.5z M619.2,183.9
				c-0.1-0.1,0.1-0.4,0.1-0.4C619.7,183.4,619.2,183.7,619.2,183.9z M619.4,125.4c0,0.1-0.1,0.1-0.1,0.1S619.2,125.4,619.4,125.4z
				 M619.4,125.4h0.1C619.4,125.5,619.4,125.4,619.4,125.4z M619.5,183.3c0.3-1.4,1.3-2.9,1.9-4.6
				C621.1,180.4,620,181.8,619.5,183.3z M642.4,127.5c0.1-0.7,10.4-5.5,10.7-5.8c0-0.3-0.3,0-0.3,0v-0.1c-3.6,1.7-11.5,5.9-12.8,6.5
				C640.5,128.1,641.4,127.7,642.4,127.5z M653.2,122.4c0.3-0.1,0.7-0.1,0.9-0.6L653.2,122.4z M655.1,121.5v-0.1
				c-0.3,0.1-0.9,0.3-0.6,0.4C654.7,121.8,654.9,121.8,655.1,121.5z M657.3,120.9c-0.1,0.1-0.4,0.1-0.4,0.1L657.3,120.9z
				 M657.7,120.8c-0.1,0.1-0.3,0.1-0.4,0.1L657.7,120.8z M659.1,119.1c-0.3,0,0-0.4-0.6-0.4c0.4-0.3,1-0.1,1.3-0.4
				C659.6,118.6,659.1,118.5,659.1,119.1z"/>
			<path fill="#08798F" d="M692.7,64.2l0.3-0.6c0-0.1-0.1-0.1-0.1-0.6c-0.4,0-0.4,0.7-0.7,0.4c-4,1.4-3.2-0.1-6.2,2.4
				c0.1,0.6-0.6,0.4-0.4,1c-1.6,1-2.9,1.6-3.9,3.3c-0.1-0.1-0.1,0-0.3,0.1c-0.1,1.4-1,2.3-1.9,2.4c-0.3-0.3-0.3-0.4-0.3-1.2
				c-0.4-0.1-0.3,0.4-0.6,0.1c0-0.1,0.1-0.4,0-0.4c-0.6-0.1,0,0.4-0.3,0.7c-0.4-0.3-0.9-0.6-1.2-1c-0.3,0.3-1,1.9-1.2,2.6v-0.3
				c-0.3-0.3,0-1-0.6-1.3c-0.3,0-0.4,0-0.4,0.4c0,0.3,0.7,0.3,0.4,0.9c-1.2-0.3-2.7-0.4-3.6-1c0-0.7-0.4-1.2-0.6-1.4
				c0-0.3,0-0.6,0.1-1.2c1.3-1.6,2.3-3.6,3.9-4.5c-0.1,0.4-0.6,0.7-0.4,1.2c1.4-1,2.7-3,4.6-4.6c2.4-2,1.3-0.7,4.2-2.2l6.8-2.6
				c0.9-0.4,2-0.9,3.2-1.2c0.4-1.3,0.4-2.3,0.3-3.3c-1.2,0,0.4-1.9,0-2.3c0.6-0.4,0.4,0.4,1-0.4c1-2.6,1.6-2.3,3.5-3.5
				c1,0,2.3-0.3,3.5-0.1c1.9,0.1,3.7-0.3,5.6,0.6c0.7,1.2,1.9,1.7,2.3,3.3c0.4,0.4,0.7-0.7,0.7-0.1c0.3,1.2-1,3.2,0.6,3.7
				c1,0.3,2.4,0.3,3.5,0.4c3.7,1,7.1,1.9,9.8,3.6c1.3,0.9,2.3,1.6,3.5,2.2c2,1.3,3.9,2.7,5.5,3.9c0.6,0.9,1.4,1.3,1.7,1.9
				c0.4,0.4,0.7,1,1.4,1.7c1.6,1.3,2.7,2.9,3.9,4.5c4.2,5.9,7.3,14.5,7.9,23.8c0,4.8-0.7,10.7-2.6,15.8c0.1,0.6,0,0.9-0.3,0.7
				c-0.4,0.4,0.3,0.1-0.1,0.4c-0.1,0-0.3,0.1-0.3,0.1c-1.2,4-3.3,7.9-5.5,11.1c0.4-1.4,2.2-2.9,2.2-4.2c-4.2,6.3-8.2,12.2-13.2,17.3
				c0.7-1.7,3.2-3.3,4-4.8c-0.6,0.3-0.9,0.6-1,1.2c0,0-0.1,0-0.1,0.1c-3.2,2.7-5.9,5.5-8.8,8.1c-0.9,0.1-1.3,0.9-1.7,1.4
				c0.1-0.3-0.3-0.1-0.3,0c0.6-0.3-0.1,0.9-0.6,0.3c-7.3,6.9-16,11.7-24.5,17c-0.4,2.3-1.2,5-1.2,7.2c-0.1,0-0.1-0.4,0-0.9
				c-0.7,0.6-1,1.3-1.4,2.4h-0.9c-0.3-0.9-0.4,0.1-0.9-0.9c-0.3,0.1,0,1.4-0.1,1.7c-0.4,0.1-0.1-0.3-0.4-0.1c-0.4,0.1-0.7,0-1.4,0.1
				c-0.9,0-1.2,1.6-2.7,1.3c0-0.6-0.3-1.3-1.2-1.3c-0.6-0.4-1.6-2.2-2.6-1.7c-0.1,0,0-0.3-0.3-0.3c-0.7,0-0.7,0.1-1,0.1
				c-0.7-1.2-0.4-2.7-0.9-4.2c-0.9,0.1-2.3,0-2.7,0.7c0.1-1-1,0.3-1.6,0c-0.1,0,0,0.6-0.1,0.6c-0.4-0.3-0.4-0.6-0.9-0.6
				c0-0.1,0.4-0.1,0.3-0.6c-1.3-0.7-3.3-0.7-5-1.9c0.3-0.6,1.2,0.3,1.3-0.6c0.3,0.4,0.4,0.3,0.7,0.4c0.9-0.7,2-0.4,2.4-1.9
				c0.3,0.3,0.7,0,0.9-0.1c1.3,0.3,1.7-0.7,2.7-0.6c-0.4-0.4,1.3-0.9,1.9-1.4c1-11.8,3-23.8,4.9-35.1c0.1-0.3-0.1-0.4-0.3-0.6
				c1-0.3,0.4-2.4,0.7-2.9c0-0.3-0.1-0.3,0-0.9c0.1-1.6,0.7-4.2,1-6.3c0.3-0.7,1-1.4,0.9-2.7c0.1-1.2,1.2-4.8,0.7-5.9
				c-0.1-0.6,0.1-0.7,0.4-1.3c1.9-12.5,4-25.5,4.8-38.4L692.7,64.2c-0.1,0.1,0.3,0-0.3,0.1C692.7,64,692.7,64.2,692.7,64.2z
				 M695.8,159.2c-0.3,0-0.4,0.3-0.6,0.4C695.6,159.7,695.8,159.5,695.8,159.2z M697.6,156.5c-0.4,1-1.9,1-2,1.7
				C696.4,157.8,697.4,157.8,697.6,156.5z M696,159.8c0.4-0.9,1.7-0.9,1.9-1.7C697.4,158.5,696,158.5,696,159.8z M734.6,107.1
				c0.3-2,1-3.6,1.2-5c0.3-2.9,0.6-5.5,0.1-7.5c0.6-1.4,0-3.2,0-4.3c-0.1,0-0.4,0-0.1-0.7l0.1,0.1c0-0.4-0.1-1.6-0.9-1.4
				c0.3-1.6-0.4-2.9-0.7-4c0-0.4-0.4-1-0.4-1.2l-0.3-1c-0.4-1.3-1.4-2.9-1.6-4c-1.3-2.6-3.3-4.9-5.5-6.8c-0.3,0-0.3-0.3-0.4-0.3
				l-0.4-0.7c-4-3.3-7.6-7.5-14.3-8.1c-0.4,0.4-1.3,0-1.7,0.4c1,0.4-0.6,0-0.7,0.3c0.3,0,1.4,0.1,0.6,0.1c0,2,0,3.3-0.3,5
				c-0.1,2,0,4-0.6,6.2c0,2.4-0.6,5-0.4,7.6c-0.4,5.3-1.7,10.8-2.3,16.8c-1.4,6.5-2.6,16.1-4.2,23.3c-2,9.6-3.7,19.7-5.2,28.7
				c1.3-0.3,2.6-1.4,3.7-2h0.1c0.4,0,0-0.4,0.4-0.6c0.1,0.1,0,0.3,0.1,0.1c1.9-1.7,4-2.7,5.8-4.6c0.7-0.4,1.7-1.2,2-1.7
				c-0.1,0.1-0.3,0.1-0.6,0.1c1.7-1.4,4.3-3,5.8-5.3v0.1c4.5-4,8.9-7.9,12.1-13.1c0,0.3-0.3,0.6-0.1,0.6c2-2.4,3.2-4.8,4.9-7.9
				c0.1-0.1,0.1,0.3,0.3,0c1.2-2.7,3-5.8,3.3-9.4H734.6z M699.2,155.8c-0.7,0.3-1.4,0.7-1.3,0.7
				C698.3,156.5,698.7,156.5,699.2,155.8z"/>
			<path fill="#08798F" d="M783.1,113.3c-0.3,1.2-0.9,2.3-0.7,3.3l0.7-2.6c0,0.6,0,2.2-0.4,3c0.9,0,1.2,0,1.3-0.3
				c0.6,0,1.6-0.1,2-0.4c0.1,0.1,0.7,0,0.7,0h0.3c2.7-1,0.7,0,3.5-1c1.6-0.9,3-1.6,4.5-2c0.6-0.1,1.2-0.1,1.4-0.9
				c1.9-0.4,2.7-1.3,4.5-1.9c0.3,0.1,0.6,0,0.7,0c0.1,0.4,0.7,0.6,1.2,0.6c-0.3,0.3-0.4,0.6-0.9,0.7v0.6c-0.3,0.7-0.7,1-1.7,1.2
				c-0.1,0.3-0.7,0.4-0.4,0.9c-1,0.1-1.7,1.2-3.2,1.9c0.3,0.1,0.1,0.3,0.1,0.6c0.6,0,0.9-0.3,1.4-0.4c-0.7,0.6-1.7,1-2.7,1.2
				c-0.9,0.3-2,1-3.2,1.3c0.1,0.3,0.3,0.1,0.7,0.1c-3.6,1.3-2.4,1.3-5.6,2.4c-0.4-0.1-0.9,0-1,0.1c-1.4,0.1-2.7,0.1-4.6,0.7
				c-0.7,2.6-1.9,6-3,8.8l-0.9,1.4l-0.1,0.3c0,0-0.1-0.1,0.1-0.3c-0.3,0-0.7,0.6-0.9,0.6c0-0.3,0.6-0.4,0.7-0.7
				c-0.6,0.1-1,0.6-1,1.4c-0.3,0,0-0.4-0.1-0.4c-0.3,0.4,0,0.4,0,0.7l-0.6,1.2c0.4-0.4,0.6-0.9,0.7-1.3c0,0.6-0.4,1.3-0.7,1.7
				l-0.6,1v-0.3c-0.9,0.9-2,1.3-2.2,2.7h0.1c-0.1,0.6-0.7,0.9-1.2,1.2l-1.2,1.9l-1.2,1.2c0.6-0.1,0.7-0.6,1.2-0.9
				c0.1,0.1-0.1,0.3,0,0.7c-1.2,1.2-2.4,2.2-3.9,3.2c-0.3,0.1-1,0.1-1.6,0.3c-0.1,0-0.1,0.1-0.1,0.3c-0.4,0.3-1.2,0.4-1.6,0.4
				c-0.7,0.4-1.6,0-2.3,1c-2.6,0-4.3,0-5.6-0.6l-0.3,0.1c-1.4-0.3-2.2-1.4-3.3-2.2l0.1-0.4c-0.3,0.3-0.3-0.4-0.7-0.4
				c-0.4-0.3-0.4-1.6-0.9-1.9c-0.1,0,0,0.1-0.1,0.1l-0.3-1.7c0-0.3,0-1.2-0.1-1.3c-1.2-2.9-1.4-5.8-1.4-9.4
				c0.3-5.6,1.6-10.9,3.5-16.3c0-0.1,0.1-0.1,0.1-0.1c1.3-5.2,4-9.9,6.8-13.7c0-0.4,0.1-0.9,0.6-0.9c0.1-0.3,0.7-0.4,1-0.9
				c0.6-0.1,1-0.9,1.6-1.2c0.1-0.4,0.4-0.6,1-0.9c0.6-0.1,0.6-0.3,1.9-0.4c0.6-0.1,0.7-1.2,1.6-0.9c0.9-0.3,1.7-0.3,2.7-0.1
				c1-0.1,1.7-0.7,2.2-0.7c0.9,0,1.6,0.1,2.6,0.4c0,0,0.1,0,0.1-0.3c2.6,0.9,5.3,2.3,6,5c0.1,0,0.3,0.3,0.6,0.3
				c0,0.1,0.1,0.3,0.1,0.6c0.9,1.7,0.6,4.3,1.2,6.6c0.6,1.2,0.7,2,0.9,3.2c-0.6,0.4-0.1,1.4,0,2.4l-0.1-0.3V113.3z M761.2,117.6
				c-0.7,2.2-1.4,7.6-2,9.6c-0.3,0.9,0,2.2-0.1,2.9c0,0.1-0.3,0.4-0.3,0.9c-0.3,2,0.3,4.6,0.6,6.5c0.4,1.3,0.7,2,1.4,2.7
				c0.6,0.6,0.9,2.3,1.4,2.3c0.3,0,1.4-0.9,1.7-1.2l2.4-2.9l3.6-6.5l1.9-4c0.7-1.6,0.7-3.5,1.3-5c-0.3-0.4-1.2,0.3-1.9,0.3
				C767.1,122.4,765.4,122.8,761.2,117.6z M774.2,108.1c0-0.6-0.1-1-0.3-1.2c-0.1,0-0.4-0.1-0.4-0.1c0-0.6,0-1-0.3-1.3
				c0.3-0.9-0.3-1.4-0.7-1.3l0.1-0.3c-0.6-0.1-0.1,0.3-0.6,0.3c0.1-0.7-0.7-0.7-1-1.6c0.1,0.3,0.4,0,0.6,0l-0.4-1.4
				c0-0.3-0.1-0.4-0.3-0.6c-0.4,0.3-1,0.3-1.4,0.7c-0.6,0.9-1.6,1.7-1.9,2.7c-0.4,0-0.6,0.4-0.7,0.9c-0.1,0.1-0.4,0.1-0.4,0.3
				l-0.9,1.9c-0.7,1.4-0.4,4.5,0.3,5.8c1.3,1.4,3,3.6,5,4.3l-0.1,0.4c1,0,2.2,0.1,3.2,0.1c0.1-1.2,0.4-3.3,0.3-4.3
				C774.2,111.4,774.3,109.4,774.2,108.1z M773.7,138.8c0-0.1,0-0.3,0.1-0.3C773.7,138.6,773.9,138.9,773.7,138.8z M774.2,137.5h0.4
				c-0.3,0.1-0.4,0.3-0.6,0.3C773.9,137.6,774.2,137.6,774.2,137.5z M778.9,131.4c-0.1-0.4,0.3-1.2,0.4-1.3
				C779.7,130.4,779.1,131,778.9,131.4z M780.4,100.5h0.1c0.1,0.3,0.1,0.9,0.3,1c0,0.4,0.3,0.9,0.3,1.4c0.1,0.3,0.1,0.9,0.6,1.2
				c-0.4-1.4-0.4-2.9-1.3-4C780.2,100.3,780.2,100.5,780.4,100.5z M780.9,126c0-0.1,0-0.4,0.1-0.4
				C781.2,125.8,780.9,125.8,780.9,126z M783.1,113.6c0-0.1,0.1-0.3,0-0.3V113.6z"/>
			<path fill="#08798F" d="M780.2,198.1c0.1,0,0.1,0.1,0.1,0.3C780.2,198.4,780.2,198.1,780.2,198.1z M816.8,182.6
				c-0.1-0.3,0-0.6,0.1-0.7c0-0.4,0.4-0.7,0.6-0.9v-0.4c0-0.1,0.1-0.3,0-0.4c0.1,0,0.1,0.1,0.1,0.3c0.9-2.7,2-5.9,2.7-9.4
				c-0.1,0.1-0.1,0.7-0.3,1c-0.1,0.7-0.3,1.3-0.9,1.9l-0.4,0.7v0.3h0.1c0.1,0.1,0,0.6-0.1,0.7v0.1l-0.1,0.1
				c-0.4,0.9-0.4,1.6-0.7,2.2c-0.1,1.2-0.1,1.6-1,2c-0.6,3.2-1.4,6.3-2.7,8.9c0,0.1-0.3,0.4-0.3,0.7v-0.1c-0.1,0.1-0.3,0.3-0.3,0.4
				c-0.1,0.3-0.3,0-0.4,0.3c-0.1,0.1,0.3,0,0,0.4c-0.1,0.7-0.3,1.9-1,1.6c-0.1,0.6-0.1,0.9-0.1,1.3c0-0.1-0.3-0.1-0.3,0
				c0,0.3,0.3,0,0.3,0.1c-0.4,0.9-1,0.9-1,1.7c-0.4-0.3-0.1,0.9-0.6,0.7v0.4c-0.1,0.4-0.6,0.9-0.6,1.3h-0.3
				c-1.9,2.9-3.6,5.8-6.3,7.6c-0.3-0.1-0.6,0-0.7,0v0.1c-0.3,0-1.3,1.2-2,1.2c0-0.3,0.4-0.3,0.7-0.6c0.7-0.4,1.3-0.9,1.4-1.3
				c0.3-0.1,0.7,0,0.9-0.1l0.4-0.6l1-0.6l0.3-1l-1.2,0.9c0,0.3-0.3,0.3-0.3,0.4h-0.4c-0.9,1.3-2,1.9-3.3,2.7c-0.1,0,0,0.4-0.1,0.4
				v0.1c0-0.1-0.1-0.1-0.1-0.1c-0.4,0.1-1.6,0.4-2.6,0.6c-0.7,0.3-2,0.1-2.9,0.4c-5.8,1-12.4-1.9-13.4-7.8c-0.3-2.2-0.4-4.6,0-7.1
				l0.1-1.2c0.1,0.1,0.4,0,0.4-0.1v-0.6c0.1,0,0.1,0.1,0.3,0.1c0-1,0.6-2.2,0.6-3.2c-0.3,0-0.3,0.1-0.4,0.1c0-0.1,0-0.1,0.4-0.3
				l0.1-0.6c0-0.7,0.1-1.3,0.3-1.7c-0.1-0.7,0-1.2,0.3-1.7c1-3.2,2-5.9,3.3-8.5c0.1-0.1,0.3-0.1,0.3-0.1c0.4-1.3,0.9-2.2,1.3-2.9
				c0.1,0.1-0.3,0.3-0.1,0.7l1.9-3.5c-0.1-0.1,0-0.4,0.1-0.9c0.1,0,0.1,0.3,0.1,0.4l0.3-0.9c-0.1-0.1-0.1-0.4,0-0.6
				c-0.3-0.1,0.3-0.3,0.4-0.6v0.1l0.3-0.1c0-0.1,0.1-0.1,0.1-0.3s0.1-0.7,0.6-0.7h0.1c0.1-0.9,0.4-1,0.6-1.3
				c0.1-0.3,0.3-0.3,0.3-0.9c0.3,0.6,0,0,0.1-0.1c0-0.3,0.1-0.3,0.4-0.3l-0.1-0.4c0.3-0.9,1.3-1.4,1.6-1.9v0.3l0.4-1.2
				c1-0.6,1.7-1.6,2-2.3v0.1c1-1,2.4-2.9,3.3-4.2c-0.3,0-0.6,0.3-0.6,0.4c0-0.4,0.6-0.9,1-1.4c0-0.1,0.3-0.3,0.4-0.7
				c0.3,0.3,0.3,0.3,0.6,0.3c0.7-0.9,1.3-2,2-2.7c0-0.1,0.1-0.3,0.1-0.3c0.4-0.1,0.9-0.7,1.2-0.9c0-0.3-0.1-0.3,0-0.4
				c0.3,0.1,0.3-0.4,0.4,0l0.3-0.4c1.6-1.2,2.6-2.7,4-3.9c0.9-0.1,1.3-1.3,2.3-1.6v-0.6c0.3,0.1,0.3,0.1,0.3,0.3
				c0.9-1.2,2.2-1.7,3.2-2.7l1.2-9.5h-0.1c0.1-0.1,0.4-0.4,0.1-0.9c-1.3,1.6-3.3,3-5.2,4.9l2-1.4c0,0,0.1,0,0.3-0.1
				c-1.2,1.3-2.6,2.3-3.6,3.3c1.6-1,2.7-2.3,4.3-3.5c0.7,0.1,0.9-0.6,1.4-1c-1.2,1.6-3.2,2.9-4.9,4.2l-0.9,1.3
				c-0.9,0.6-1.7,0.6-1.9,1.4c-0.4,0.1-0.9,0.7-1.2,0.9l-0.3,0.3c-1.3,0.3-2.2,1-3.6,1.2l-0.6,0.6c-2.9,0.4-5.5,0-7.3-1.3
				c-1.2-0.1-2.2-0.7-3-1.6c-1.3-1.6-2.2-3.2-2-6.5c0.1-4.6,1.6-8.4,2.7-12c2.4-4.3,5-8.6,8.1-12.8c2.7-3.2,5.8-6.3,9.1-8.9
				c1-0.4,1.9-1.9,3.2-2c2-0.6,4.3-1.4,6.6-1.3c0.6,0,0.9,0.6,1.7,0.6c0.7,0,1.4,0,1.9,0.1c0.4,0.1,0.6,0.4,1.2,0.3
				c1.3,1.4,3.2,3.3,4.5,5.2c0.1,1.3,0.7,1.9,0.7,3.5l-1.2,1.7c-1.2,0.4-3,1.6-3.9,0c-0.3,0.1-0.6-0.3-0.9-0.3
				c-0.3-0.1-0.4,0-0.6-0.1c-0.9-0.4-1-1.7-2.2-2.4c0-0.1-0.1-0.3-0.1-0.4c-0.7-0.1-1.6,0.3-2.4,0.7l-3.3,2.7
				c-2.6,2.4-4.8,5.2-6.9,8.1c-3.2,4.8-6.5,10.8-7.8,17.9c0,0.4-0.4,1.4,0.1,1.6c1.3-0.6,2.6-1.4,3.7-2.4c3.9-2.6,8.5-7.2,12.5-11.2
				c0.3-0.6,0.9-1.4,1.4-2l1.4-1.3c0.3-0.7,0.3-1.9,0.6-2.6c0.1-0.9,0.7-1.9,0.7-2.9c0.3-0.1,0.3-0.4,0.4-1.4
				c0.3,0.1,0.4,0.4,0.6,0.1c0.4-0.6,0.6-1.2,0.9-1.6c0.3-0.3,0.3,0.1,0.4,0.1v-0.4c0.6,0,0.7-0.1,1,0.3c0.3,0.1,0.3-0.4,0.3,0
				c0.3-0.3,0.1-0.4,0.3-0.4c0.3-0.3,0.3,0,0.6,0c0-0.1-0.3-0.1,0-0.3c0,0.1,0.1,0,0.6,0.1v-0.7c0.1,0.6,0.1,0.9,0.4,0.9
				s0-0.1,0.3-0.1s0.4,0.1,0.7,0.1c0,0-0.1-0.1,0-0.3c0.4,0,0.4,0.3,0.6,0.3c0.6,0.1,0.9,0.7,0.9,1.3c1,0,1.3,0.6,1.9,1.4
				c0.1,0,0.1-0.7,0.3-0.7c0.3,1.4,1.3,1.9,1,3.9l-0.7,2c-1.3,3.5-3,10.8-3.7,14.8c2.4-1,5.5-4.6,7.8-5.2c0.3-0.4,0.7,0,1.2-0.6
				c0.4-0.1,0.1,0,0.4-0.1c0.4-0.4,4.3-2.7,5.3-2.9c0.1-0.9,1.6-0.3,1.7-1.2c1.3,0.3,2.4-0.9,3.9-1.2c0,0.1-0.3,0.1-0.3,0.3
				c-0.1,0.1,0,0.1,0,0.6c0,0.1,0.7,0.3,0.9,0c-0.3,0-0.4,0-0.6-0.4c0.1-0.3,0.7-0.4,1-0.4c-0.1,0.1-0.4,0.3-0.4,0.6
				c0.7-0.1,1.9-0.6,2.3-0.6c-0.1,0.4-0.3,0.3-0.4,0.3c0,0.6,0,0.7-0.4,0.9h0.7c-0.4,0.3-1.4,0.3-1.6,1c0-0.3-0.3-0.1-0.6-0.1v-0.6
				c-0.3,0-0.1,0.6-0.4,0.6c-0.1-0.3,0.1-0.3,0-0.6c0,0.4-0.6,0.3-0.6,0.7c-0.6-0.3-1,0.6-1.6,0.6c-0.1,0.3-0.6,0.3-0.9,0.7
				c0.7-0.4,1.7-0.7,2.6-0.9v0.4c0-0.1-0.1,0-0.1-0.1c-0.7,0.4-1.4,0.6-1.7,1.3c0.3,0.6,1-0.9,1.7-0.7c0,0.6-0.1,0.7-0.6,0.7
				c-1,0.6-2,0.9-3.3,1.4c0-0.3,0.3-0.3,0.1-0.4c-0.4,0-0.6,0.1-0.9,0.3c-0.1,0.4,0.4,0.4,0.3,0.6c-1,0.7-5.8,3-6.9,3.9l-1.2,1
				c-1.3,0.4-2.4,0.9-3,2c0.4-0.1,0.7-0.4,1.3-0.4c1.2-0.7,2.3-1.4,2.9-1.6h0.1l-2.7,1.6c0.3,0.1,0.3,0,0.4,0l-1.4,1.2
				c0.6-0.1,1-0.9,2-1.2c0.4,0,1-1,1.4-0.9c-0.3,0.4-0.4,0.9-1,0.9c-0.4,0.1-1,0.7-1.7,1.2c0,0-0.1-0.1-0.1,0
				c-0.4,0-0.4,0.3-0.6,0.4v-0.1c-0.1,0.1-0.4,0.4-0.7,0.4c-0.3,0.3,0,0.3,0,0.4c-1,0.9-2.2,0.9-3,1.7c0,0.4,0.1-0.3,0.4,0
				c-1.3,1-2.4,1.6-3.2,2.9c0.1,0,0.1,0,0.3,0.1c0,0.1-0.4,0.3-0.7,0.6c-1.2,12.1-3.2,23.5-6.5,34.3l-3.6,11.8h-0.3
				c-0.1-0.3,0.1-0.7,0.3-1l0.4-1.6l-0.3,0.3c0-0.4,0.1-0.6,0.3-0.9C816.7,182.8,816.8,182.7,816.8,182.6z M780.9,200.4
				c0-0.1-0.1-0.3-0.1-0.3S780.8,200.3,780.9,200.4z M781.2,190.3l0.1-0.1l-0.3,0.9L781.2,190.3z M781.5,194.2l-0.4,1
				c0,0.1,0,0.6,0.1,0.6l-0.1,0.9c0.1,0,0.4,0,0.4,0.4c0.4-1.6,0.3-3,0.1-4.8c0-0.1,0,0-0.1,0v1
				C781.7,193.5,781.5,193.9,781.5,194.2z M781.1,198.3c0.4,0,0.4-0.3,0.4-0.6c0,0-0.3,0.1-0.4,0.1
				C781.1,198.1,781.2,198.1,781.1,198.3z M781.7,188.7c0,0.3-0.1,0.7-0.3,1.2L781.7,188.7z M781.4,190.2v-0.3V190.2z M781.7,188.7
				l0.1-0.4C781.8,188.5,781.8,188.6,781.7,188.7z M782.5,187.6c-0.1-0.1,0-0.3-0.1-0.3C782.4,187.5,782.5,187.5,782.5,187.6z
				 M782.8,199.1c0.1-0.3-0.3-0.6-0.4-0.9C782.4,198.7,782.4,199,782.8,199.1z M782.8,186c0.1-0.3,0.1-0.7,0.1-0.9
				C782.8,185.3,782.8,185.7,782.8,186z M783.4,184c0.1-0.3,0.3-0.6,0.1-0.7C783.4,183.4,783.4,183.9,783.4,184z M787.1,188.9
				c0.1-0.4,0.6-1.9,0.3-2.3C787.4,187.3,787.3,188.2,787.1,188.9z M787.4,194.7c0.1,0.1,0,0.6,0.1,0.6v-0.6H787.4z M787.6,194.2
				c0.1,0,0.1-0.4,0-0.6C787.6,193.9,787.4,194.1,787.6,194.2z M788.3,195.7c0-0.1,0.1-0.4-0.3-0.4
				C788,195.4,787.9,195.7,788.3,195.7z M804.6,156.3c0,0,0.1,0,0.1,0.1c-0.1,0.1-0.6,0.4-0.6,0.7l-0.1-0.1c-0.6,1.2-1.3,1.9-2,2.7
				v-0.1c-0.3,0.6-0.7,0.7-0.6,1h-0.1l-1,1.4h-0.1c-0.1,0,0,0.4-0.1,0.6v-0.1c-0.3,0.9-1.2,2.2-1.9,2.3h-0.1
				c0.1-0.6,0.3-0.9,0.7-0.9c0.1-0.6,0.4-1,0.9-1.4c-0.7,0.6-1.2,1.6-1.7,1.9l-0.3,0.9h0.3c-0.1,0-0.1,0.1-0.1,0.1l-0.1-0.1
				c0,0-0.1,0.1-0.1,0.4h0.3c-0.1,0.3-0.3,0.3-0.1,0.6l-0.3,1v-0.6h-0.1c0-0.6,0.1-0.7,0.3-1l-1.9,2.3l0.1-0.3
				c-0.1,0-0.6,0.3-0.3,0.4l-0.7,1.4v-0.1l-0.7,1.3v0.3c-0.9,1.2-1.4,2.3-1.7,3.6c0-0.1,0.1-0.1,0.3-0.1c0-0.1,0.1-0.1,0.1-0.6
				l0.1,0.3c0.1-0.3,0-0.6,0-0.7s0.6-0.9,0.6-0.9c0.1,0-0.1-0.1,0.1-0.4c0,0.3,0,0.3,0.1,0.3c0-0.7,0.4-1.6,0.9-1.7
				c0.1-0.1,0-0.1,0-0.3c0.6-0.6,0.6-2,1.7-2.3l0.1-0.7c0.4,0,0.4-0.1,0.6-0.3c0,0.1,0,0.1,0.1,0.3c-1.7,2.3-3,4.9-4.3,7.2h-0.1
				c-0.6,1-0.6,2.4-1.3,3.5c0.1,0.1,0.4,0,0.4,0l-1.2,3.7l0.6-1.6l-0.7,3l-0.6,1.7l0.1-0.1h0.1c0.1-0.1,0-0.1,0.1-0.6h0.1
				c-0.1,0.7-0.3,1.7-0.7,2.6v-0.4c-0.1,0.4-0.1,0.6-0.3,0.6v-0.6h-0.1c0.1-0.4,0.1-1.2,0.1-1.4c0.3,0.3,0,0.9,0,1.2
				c0.4-1.3,0.6-2.4,1-3.5v-0.3c-0.1-1.3,0.7-2.3,0.6-3c0.1,0,0.1,0.1,0.1,0.1c0.1,0,0-0.3,0-0.3c0.1-0.3,0.1-0.4,0.1-1.2
				c-0.1,0.1-0.3,0.3-0.3,0.6c-0.1,1.3-0.7,2.4-1,4.2c-0.6,0.4-0.6,1.2-0.7,2c-0.9,1.6-1,3.7-1.2,5.6c0.4,1,0,1.6,0.3,2.4
				c0.3-1,0.3-2.9,0.4-4c0.4,1.2-0.1,3-0.3,4.2c0.1-0.4,0.7-1,0.7-1.6c0.1,0.1,0.1,0.1,0.1,0.4c0,0.1-0.6,0.4,0,0.9
				c-0.6,0.3-0.1,0.9-0.1,1.4c0.3,0.6,0.1,1.3,0.1,2c0,1.6,0.3,2.6,0.7,3.9c0.1-0.9-0.6-1.4-0.3-1.9c0,0.4,0.1,0.7,0.4,1
				c0.1-0.3-0.3-0.3,0-0.4c0,0.1,0.1,0.3,0.3,0.4c0-0.1-0.1-0.3,0-0.4c0.1,1,0.4,1.7,0.6,2l1.4,1.6c0.3,0,0.3-0.1,0.6-0.1
				c0.9,0.1,1.3,0,1.7-0.1c1-1.2,2.4-1.7,3-3.3l1-0.7c0,0,0.1-0.1,0.1-0.3v0.3c3.6-4.3,5.3-10.4,7.9-15.6c0.6-3.3,1.7-6.6,2.7-9.6
				c0.1-0.1,0.3-0.3,0.3-0.7c-0.1,0,0-0.1,0-0.3l1.6-8.5c0-0.1-0.1,0.1-0.1-0.1c0-0.1,0.3,0,0.1-0.4c-0.1-0.1,0-0.7,0.4-0.9
				c0.6-0.9,0.3-1.4,0.7-2.3c0.1-1,0.6-2.4,0.7-3.9l0.1-2.6c0.3-2.9,1.4-5.8,1.6-8.2c-0.1,0.1-0.4,0.1-0.1,0.4
				c-0.7-0.1-0.9,1.2-1.3,1c-0.3,0.3-0.7,0.7-0.7,1.2c-0.1,0-0.1,0.1-0.3,0.1c-0.6,0.7-1.3,1.9-2.3,1.9c-0.1,0.3-0.7,0.4-0.9,1.2
				c0-0.6,0-0.7-0.3-0.6c-0.1,0.1,0.3,1.2-0.1,1.3c0-0.1,0-0.7-0.1-1.2c0,0.6-0.3,0.6-0.3,0.7c-0.1,0.3-0.1,0.4-0.1,0.6l0.1-0.1
				c0,0.3,0-0.1,0.3-0.1c0,0.3-0.1,0.4-0.4,0.4c0,0.1-0.1,0.3-0.1,0.3c-0.1-0.3,0.1-0.4,0-0.4c0,0.1-0.1,0.1-0.3,0.1
				c-0.1,0.1-0.1,0.3-0.4,0.3l0.3-0.3c-0.3,0-0.3,0-0.6,0.3l0.3,0.1c-0.3,0.3-0.4,1.2-1.2,1c0,0.1,0.1,0.1,0,0.1v0.1
				c0.6,0,0.7-0.4,1-0.3l-2,1.9v-0.3c-0.3,0.3-0.4,0.3-0.6,0.3c-0.1,0.3,0.1,0.6-0.1,0.6c-0.1,0-0.1,0-0.1-0.1c-0.3,0.4-0.7,0.9-1,1
				c-0.1,0,0.1-0.1-0.1,0c0,0.4-0.3,0.6-0.3,1.2L804.6,156.3z M788.4,196.5c-0.6,0-0.1,1.6,0.1,1.7
				C788.6,197.7,788.4,197.4,788.4,196.5z M788.6,194.8c-0.1,0.4,0,1,0.1,0.7c0,0.3,0.1,0.6,0.6,0.9c-0.4-0.7,0-1.6-0.4-2.2
				C788.9,194.7,788.6,194.5,788.6,194.8z M788.7,188.5c-0.3-0.1,0.1-1.3,0.1-1.9C789.3,187.2,788.9,188,788.7,188.5z M788.9,183
				c-0.3,0.3-0.3,0.7-0.1,1C788.7,183.6,788.9,183.3,788.9,183z M789.3,179.8c-0.1,0.3-0.7,0.3-0.6,0.4
				C788.9,180.1,789.3,180.1,789.3,179.8z M788.7,185c0-0.1,0.6-0.1,0.6-0.1c-0.6-0.1,0.1-0.6-0.4-0.6
				C789.3,184.7,788.6,184.9,788.7,185z M788.9,194.2c0-0.1,0-0.4-0.1-0.4C788.7,193.9,788.7,194.2,788.9,194.2z M789.3,188.5v0.4
				C789,188.7,789.2,188.6,789.3,188.5z M789.4,187.3c0,0.4-0.1,0.4,0,0.9C789.4,188.2,789.6,187.3,789.4,187.3z M789.6,179.7
				c0,0,0.1,0,0.1-0.1c-0.1,0-0.1,0-0.3-0.1C789.4,179.5,789.4,179.5,789.6,179.7z M789.6,186.2c0.1,0,0.1,0,0.1,0.1
				c0-0.1,0.1-0.3,0.1-0.3C789.7,186,789.7,186.2,789.6,186.2z M789.7,179.4c0.1-0.1,0.3-0.6,0-0.6
				C789.9,179,789.6,179.4,789.7,179.4z M789.9,195.5c0,0.1,0,0.4,0.1,0.9C789.9,196.2,789.7,195.5,789.9,195.5z M790,197.1
				c-0.3-0.3-0.1-0.6-0.1-0.7C790.2,196.4,790,196.8,790,197.1z M790.2,177.5c0.1,0.1,0.1,0.3,0,0.4c0.3-0.1,0.3-0.1,0.1-0.4
				c0-0.1,0.1-0.1,0.1-0.1s0,0.3,0.1,0.1l0.4-1.9L790.2,177.5z M790.7,167.9c-0.3,0.1-0.4,0.3-0.4,0.3L790.7,167.9z M790.6,183.7
				c0-0.3,0.1-0.4,0-0.4C790.6,183.3,790.5,183.4,790.6,183.7z M791,176.7c-0.1,0.4-0.3,0.7-0.3,1.3
				C790.9,177.5,791,177.1,791,176.7z M791,177.8c0.1,0,0.3-0.4,0.1-0.4C791.2,177.5,791,177.5,791,177.8z M791.2,176.2v0.6h0.1
				c-0.1-0.4,0.4-0.6,0.6-1C791.7,175.8,791.3,176.4,791.2,176.2z M792,172.6c-0.1,0-0.1,0-0.1,0.1C792,172.9,792,172.6,792,172.6z
				 M791.9,177.9c0-0.1,0.1-0.3,0.1-0.3v0.3H791.9z M792.2,176.9v-0.1c-0.1,0.3-0.1,0.4-0.1,0.6c-0.1-0.1,0-0.6,0.1-1l0.3-0.4
				L792.2,176.9z M792.2,174.9c0-0.1,0.1,0,0.1-0.1l-0.1-0.1c0,0,0,0.1-0.1,0.3H792.2z M793.3,169.9c-0.6,0.3-0.9,0.9-0.9,1.2
				C792.6,170.7,793.3,170,793.3,169.9z M793.3,174.2c0,0.1-0.1,0.1-0.1,0.1L793.3,174.2z M793.8,172.9l0.3-0.3
				c0.7-0.6,0.7-1.4,1.2-1.9c-0.1,0.4-0.4,1.2-0.6,1.9c-0.1,0-0.1,0-0.1,0.1C794.2,172.8,793.9,172.8,793.8,172.9z M794.1,162.5
				c0,0.1-0.1,0.1-0.1,0.6C794.1,162.8,794.5,162.4,794.1,162.5z M794.3,169.5c0,0.1-0.3,0.3-0.3,0.4
				C794.3,169.9,794.3,169.6,794.3,169.5z M794.5,172.9v0.3C794.3,173.1,794.5,172.9,794.5,172.9z M794.6,168.6
				c0.4-0.9,1.2-1.9,1.7-2.9l-1.7,2.4C794.6,168.2,794.5,168.4,794.6,168.6z M795.2,160.7c0.1-0.4,0.6-1,1.2-1.3L795.2,160.7z
				 M795.5,168c0,0-0.1,0-0.1,0.1L795.5,168z M795.6,165.7c0.4-0.3,1.2-0.6,1.2-1L795.6,165.7z M796.4,169.5c0.1-0.3,0.1-0.9,0.6-1
				C796.8,168.7,796.8,169.5,796.4,169.5z M797.2,158.4c0-0.1,0-0.3,0.1-0.3C797.5,158.2,797.2,158.2,797.2,158.4z M797.9,162.4
				c-0.1,0.4-0.6,1-0.6,1.6C797.5,163.4,798.1,162.7,797.9,162.4z M798.7,162.8c-0.7,0.6-1.2,1.2-1.3,1.9L798.7,162.8z M797.7,167.4
				c-0.3,0,0.1-0.1,0-0.4C797.9,167.1,797.7,167.4,797.7,167.4z M797.7,157.9c0.1-0.9,0.7-1.4,1.4-2.2
				C798.8,156.5,797.9,157.1,797.7,157.9z M797.8,165.3c0-0.1,0.1-0.1,0.1-0.3v0.3H797.8z M797.9,166.6c0.1-0.3,0.1-0.9,0.4-0.9
				C798.2,166.1,798.2,166.6,797.9,166.6z M798.9,165.3c0.4,0-0.1,0.3-0.1,0.4C798.4,165.6,798.8,165.3,798.9,165.3z M799.8,161.4
				c-0.3,0.3-1,0.7-1,1.2C799.1,162.1,799.7,162,799.8,161.4z M801.1,160.1c-0.7,0.4-0.7,1.9-1.7,2c0.1,0,0.1,0.3,0.1,0.4l0.9-1.2
				l2.9-3.7c-0.6,0-0.7,0.9-0.9,0.7C802.1,159.1,801.3,159.1,801.1,160.1z M800.1,160.5c-0.1,0-0.3,0.3-0.1,0.6
				C800,160.8,800.1,160.7,800.1,160.5z M800,160.4c0.1-0.3,0.6-0.7,0.4-1C800.2,159.7,800,159.7,800,160.4z M800.5,160.2v-0.6
				l-0.1,0.3L800.5,160.2z M800.5,163.5c0-0.1,0.4-0.3,0.4-0.4C801.3,163.3,801,163.4,800.5,163.5z M801.3,158.9
				c0.3-0.3,0.9-0.7,0.9-0.6v-0.4c-0.4,0-0.1,0.3-0.4,0.1L801.3,158.9z M802.3,156.8c0-0.1,0.3-0.1,0.3-0.4
				C802.4,156.5,802.3,156.6,802.3,156.8z M802.4,158.2c0.1-0.1,0.1-0.4,0.1-0.6c0-0.3,0.1-0.4,0-0.6c-0.1,0.3-0.3,0.9-0.3,1.2
				H802.4z M803,157.1c0-0.6,0.3-0.6,0.4-0.4c0.1-0.3,0.1-0.7,0.6-1l-0.1,0.3c0.6-0.3,0.9-0.4,0.7-0.9c0.3,0,0.1-0.3,0.4-0.1
				c-0.1-0.3,0-0.4,0.1-0.6h0.1c0-0.1,0.3-0.1,0-0.4l-2.6,3C802.8,156.9,802.8,157.1,803,157.1z M802.8,160.8c0-0.3,0.1-0.3,0.1-0.4
				C803.3,160.5,803,160.7,802.8,160.8z M803.7,158.9c0.1-0.3,0.4-0.6,0.4-0.9c0.4,0.1,0.4-0.1,0.7-0.3
				C804.6,158.4,804.1,158.7,803.7,158.9z M804.6,154c-0.6,0.1-0.9,1-0.6,0.7L804.6,154z M804.1,157.2v0.1
				C804,157.4,804,157.4,804.1,157.2z M804.9,158.2c-0.1,0.3-0.3,0.7-0.7,1C804.1,158.9,804.6,158.5,804.9,158.2z M804.6,159.1
				c0.1-0.1,0.3-0.6,0.6-0.7C805,158.7,804.9,158.9,804.6,159.1z M805.1,156.3c0,0,0,0.1-0.1,0.1v-0.1H805.1z M806.3,153.5
				c0-0.3,0.1-0.4,0.3-1.2l-1.3,1.6c0.3,0,0.4-0.1,0.7-0.4C805.9,153.9,806.1,153.5,806.3,153.5z M805.6,155.1l-0.3,0.3
				C805.3,155.3,805.3,155.1,805.6,155.1z M806.7,151c0.3,0.6-0.1,0.4-0.1,0.6c-0.4,0.1-0.6,1-0.9,0.9c0,0.1-0.1,0.3-0.1,0.6
				l1.7-1.6c0,0.1,0,0.1,0.1,0.1l-0.3,0.4c0.3,0,0.6-0.4,0.6-0.6s-0.1,0.1-0.1,0s0.1-0.7,0.1-1.2c-0.3,0.6-0.3,1-0.3,1.2L806.7,151z
				 M805.7,202l2-2.2C806.7,200.1,806.3,201,805.7,202z M807.7,153.2l-0.1-0.1c0-0.3,0.1-0.3,0.1-0.4
				C808,152.6,807.7,153,807.7,153.2z M808.6,152.2c-0.1,0-0.1,0.1-0.3,0.3c-0.3,0-0.1-0.1-0.1-0.3H808.6z M808.7,149.1
				c0.1,0.4-0.4,0.7-0.1,0.7c0,0,0.1-0.1,0.1-0.3c0.3,0,1-0.6,0.6-0.9C809.2,149,809,149.1,808.7,149.1z M809.3,153.2
				c0,0.1-0.1,0.1-0.3,0.1L809.3,153.2z M810.3,148.3V148c0.1,0,0.3-0.3,0.7-0.6c0.6-0.3,0.1-0.9,0.4-1.3c0,0.4,0.1,0.4,0.1,1l1-1
				c0,0,0,0.1,0.3,0.1l0.1-1c0.3-0.3,0.6-0.9,0.9-1c0.4-0.4,1.4-1,1.6-1.4c-0.7,0.1-1.6,1.3-2.2,1.4c0.6-1,2-1.3,2.3-2.3
				c-2.2,1.9-4.2,3.3-5.3,5c0,0,0.1,0,0.1,0.1c-0.1,0.6-0.6,0.7-0.7,1.2C809.7,148.4,809.9,148.4,810.3,148.3z M809.9,198.5
				c0-0.3,0.1-0.4,0.4-0.4L809.9,198.5z M810.9,148.3c-0.4,0.4-0.9,0.9-0.9,1.3C810.5,149.1,810.8,149,810.9,148.3z M810.8,147.3
				c0-0.4-0.1-0.1-0.3-0.1c0.1-0.4,0.4-0.6,0.6-0.7C811,146.6,811,147.1,810.8,147.3z M810.9,197.1c-0.1-0.4,0.1-0.7,0.1-0.7
				C811.3,196.4,811,197.1,810.9,197.1z M811.2,165.4c-0.3,0,0-0.1,0-0.3C811.3,165.3,811.2,165.3,811.2,165.4z M811.8,195.2
				c0-0.1,0.3-0.7,0.6-1.2C812.3,194.5,812.1,195.1,811.8,195.2z M812.2,161c0,0.1-0.1,0.4-0.1,0.4
				C812.1,161.1,812.1,161.1,812.2,161z M812.2,193.4c0-0.1,0.1-0.3,0-0.4C812.2,193.1,812.1,193.4,812.2,193.4z M812.6,145.7
				l0.1-0.1C812.8,145.7,812.6,145.7,812.6,145.7z M813.1,192.8c0,0.1,0,0.6-0.3,0.6L813.1,192.8z M814.2,144.7v-0.4
				c-0.6,0.4-1.2,0.9-1.2,1.4C813.3,145.3,813.6,144.8,814.2,144.7z M813.1,192.6c0-0.3,0.3-0.6,0.3-0.6
				C813.5,192.1,813.2,192.3,813.1,192.6z M813.3,191.6c-0.1-0.4,0.1-0.7,0.1-1.2C813.6,190.9,813.5,191.2,813.3,191.6z
				 M813.5,192.1c0-0.6,0.3-1.3,0.7-1.7C814.1,190.9,813.6,191.5,813.5,192.1z M813.9,145.4c0.6-0.4,1.4-0.4,1.3-1.2L813.9,145.4z
				 M814.8,143.8c-0.4,0.1-0.6,0.3-0.4,0.6C814.6,144.3,814.8,144.1,814.8,143.8z M814.4,132.4l0.9-0.4l-0.1,0.1L814.4,132.4z
				 M815.7,186.6c0,1.2-0.6,2.2-1.3,3.3L815.7,186.6z M815.2,132c0.1-0.4,0.4-0.7,0.7-0.7L815.2,132z M816.5,130.6
				c0,0.3-0.1,0.4-0.1,0.4L816.5,130.6z M816.5,130.6l0.3-0.3C816.7,130.4,816.7,130.6,816.5,130.6z M818.1,178.4
				c0.1-0.3,0.1-0.4,0.1-0.4C818.4,177.8,818.2,178.4,818.1,178.4z M820.4,171c0.3-0.1,0.1-0.6,0.4-1
				C820.4,170.2,820.4,170.6,820.4,171z M829.3,108.3c-0.3,0-0.3-0.3,0-0.3V108.3z M829.5,108.1v0.9
				C829.5,108.8,829.6,108.1,829.5,108.1z M831.3,136c0-0.3,0.3-0.3,0.3-0.4C831.8,135.8,831.5,136,831.3,136z M835.4,131.3
				c-0.1,0.1-0.3,0.1-0.4,0.1c0.3-0.1,0.3-0.3,0.4-0.3V131.3z M837.1,130.3c-0.4,0.1-0.6,0.7-1.2,0.7c0.4-0.4,0.7-0.9,1.3-1.2
				C837.5,130.1,837.1,130.1,837.1,130.3z M837.2,130.4c0.6-0.4,1.2-0.7,1.4-0.7C838.4,130,837.8,130.1,837.2,130.4z M841.7,128
				c-0.3-0.1-2.9,1.7-3,1.7c0-0.3,2.9-1.9,3-1.9V128z M842.3,121.8c0.3,0,0.3,0.1,0.3,0.3C842.3,122.1,842.3,121.9,842.3,121.8z
				 M843.3,128.6c-0.1,0.1-0.3,0.1-0.3,0.1L843.3,128.6z M843.9,128.6c0.3-0.6,0.6-0.9,0.9-1C844.6,128,844.2,128.1,843.9,128.6z
				 M844.3,125c0,0.1,0.1,0.1,0.3,0.3V125H844.3z M847,125h-0.1c0,0,0.1,0,0.1-0.1V125z M847.8,124.5c0.1-0.3,0.4-0.6,0.7-0.4
				C848.2,124.2,848,124.7,847.8,124.5z M848.2,123.2v0.1C848,123.4,848.2,123.2,848.2,123.2z M848.8,123.7c0.1,0.3,0.1,0.4-0.1,0.4
				C848.6,123.9,848.6,123.7,848.8,123.7z M849.5,123.7v0.6c-0.3-0.1-0.3-0.1-0.4-0.6H849.5z M849.8,123.4c0.1,0,0,0.7-0.1,0.7
				C849.5,123.9,849.6,123.7,849.8,123.4z M850.4,122.5c-0.1-0.1,0.1-0.4,0.4-0.4C850.8,122.4,850.5,122.4,850.4,122.5z
				 M850.8,120.8v-0.3c-0.3,0-0.4-0.1-0.4,0C850.4,120.8,850.5,120.8,850.8,120.8z M851.2,121.1c0.1-0.1,0-0.6,0.1-0.7
				c0.1,0,0.1,0.4,0.3,0.6C851.5,121.1,851.4,121.1,851.2,121.1z M851.6,120.9c0-0.4,0.1-0.4,0.4-0.4
				C852.1,120.8,851.8,120.8,851.6,120.9z"/>
		</g>
	</g>
</g>
</svg>
